<svg id="Calque_1" data-name="Calque 1" xmlns="http://www.w3.org/2000/svg" viewBox="0 0 71.43 71.42"><defs><style>.cls-1{fill:#010101;}</style></defs><path class="cls-1" d="M35.74.17A35.52,35.52,0,1,0,71.26,35.69,35.56,35.56,0,0,0,35.74.17ZM59.09,55.68l-4.53-4.53a23.71,23.71,0,0,1-3.36,3.36L55.73,59A30.74,30.74,0,0,1,12.38,15.7L18,21.3a23.85,23.85,0,0,1,3.37-3.37l-5.6-5.6A30.74,30.74,0,0,1,59.09,55.68Z"/><path class="cls-1" d="M49.38,41.08c1.1,1.76,3.9.14,2.79-1.64A12.15,12.15,0,0,0,45.33,34a15.59,15.59,0,0,0-.41-1.6,10.22,10.22,0,0,0,4.86-8.15c.07-2.09-3.16-2.08-3.24,0a6.6,6.6,0,0,1-3,5.17,9.37,9.37,0,0,0-7.8-4.81,9.37,9.37,0,0,0-7.81,4.81,6.63,6.63,0,0,1-3-5.17c-.08-2.08-3.31-2.09-3.24,0a10.21,10.21,0,0,0,4.87,8.15,13.39,13.39,0,0,0-.42,1.6,12.18,12.18,0,0,0-6.84,5.41c-1.11,1.78,1.69,3.4,2.79,1.63a8.76,8.76,0,0,1,3.73-3.49,15.72,15.72,0,0,0,.55,3.82,10.52,10.52,0,0,0-5.9,7.27c-.51,2,2.61,2.88,3.11.86a7,7,0,0,1,3.74-5l.27-.11a9.81,9.81,0,0,0,7.28,5.35V44.16a.87.87,0,0,1,1.73,0v5.61a9.77,9.77,0,0,0,7.27-5.34l.28.1a6.93,6.93,0,0,1,3.74,5c.5,2,3.62,1.16,3.12-.86A10.56,10.56,0,0,0,45.1,41.4a16,16,0,0,0,.56-3.84A8.87,8.87,0,0,1,49.38,41.08Z"/><path class="cls-1" d="M41.93,25.75c-.43-3.81-3-6.74-6.19-6.74s-5.77,2.93-6.2,6.74a9.11,9.11,0,0,1,12.39,0Z"/></svg>