<svg id="Calque_1" data-name="Calque 1" xmlns="http://www.w3.org/2000/svg" viewBox="0 0 71.43 71.42"><defs><style>.cls-1{fill:#010101;}</style></defs><path class="cls-1" d="M69.71,25.75l-6.38-3.27a52.46,52.46,0,0,1-9.5-6.23l-13.07-11a3,3,0,0,0-4,.15L21.91,20.26a3,3,0,0,0-.15,4l3.71,4.31L2.76,51.13a9.33,9.33,0,0,0,0,13.07,9.22,9.22,0,0,0,6.53,2.67,9.31,9.31,0,0,0,6.53-2.67L36.9,43.27,42,53.36a3.21,3.21,0,0,0,2.67,1.78A26.8,26.8,0,0,0,71.35,28.42,2.8,2.8,0,0,0,69.71,25.75ZM11.67,60a3.55,3.55,0,0,1-2.38,1A3.29,3.29,0,0,1,6,57.81a2.94,2.94,0,0,1,1-2.37l22-22,.14-.15,4.31,5.2ZM39.72,36.88,27.85,22.63l11-11L53.09,23.52A19,19,0,0,1,39.72,36.88ZM46.41,49.2l-3.42-7A25.65,25.65,0,0,0,58.43,26.79l7,3.41A20.93,20.93,0,0,1,46.41,49.2Z"/></svg>