<svg id="Calque_1" data-name="Calque 1" xmlns="http://www.w3.org/2000/svg" viewBox="0 0 71.43 71.42"><defs><style>.cls-1{fill:#010101;}</style></defs><path class="cls-1" d="M58.43,22.56A1.13,1.13,0,0,1,57,22.8l-.05,0c-2.83-1.69-7-5.88-10.48-13.48l-3.12.52V15.3H25.49V7.65A7.65,7.65,0,0,1,33.14,0H58a.67.67,0,0,1,.68.67v6a.68.68,0,0,1-.57.67L51.39,8.47C53.26,15,56.2,19.19,58.3,21A1.13,1.13,0,0,1,58.43,22.56Z"/><path class="cls-1" d="M40.34,44.87a6.36,6.36,0,0,1-8.24,8.24Z"/><path class="cls-1" d="M36.73,41.26l-8.24,8.25A6.36,6.36,0,0,1,36.73,41.26Z"/><path class="cls-1" d="M41.66,20.56a2.57,2.57,0,0,0-.87-.15H28a2.57,2.57,0,0,0-.87.15c-12.47,4.53-14.31,21-14.44,38.11v10.2a2.55,2.55,0,0,0,2.55,2.55H53.55a2.55,2.55,0,0,0,2.55-2.55V58.65C56,41.54,54.13,25.09,41.66,20.56ZM34.42,58.67A11.48,11.48,0,1,1,45.89,47.19,11.49,11.49,0,0,1,34.42,58.67Z"/></svg>