<svg id="Calque_1" data-name="Calque 1" xmlns="http://www.w3.org/2000/svg" viewBox="0 0 71.43 71.42"><defs><style>.cls-1{fill:#010101;fillRule:evenodd;}</style></defs><path class="cls-1" d="M47.21,12a7.76,7.76,0,0,1,7,4.33,7.75,7.75,0,0,1,4.36,3.19L69.06,35.68A15.53,15.53,0,1,1,40.49,45.83a10,10,0,0,1-9.55,0A15.53,15.53,0,1,1,2.38,35.68l10.45-16.1a7.78,7.78,0,0,1,4.43-3.3A7.77,7.77,0,0,1,31,16h9.35A7.77,7.77,0,0,1,47.21,12ZM15.53,32.76A11.18,11.18,0,1,0,26.71,43.94,11.18,11.18,0,0,0,15.53,32.76Zm40.37,0A11.18,11.18,0,1,0,67.08,43.94,11.19,11.19,0,0,0,55.9,32.76ZM35.72,30.9a6.21,6.21,0,1,0,6.21,6.21A6.22,6.22,0,0,0,35.72,30.9Z"/></svg>