<svg id="Calque_1" data-name="Calque 1" xmlns="http://www.w3.org/2000/svg" viewBox="0 0 71.43 71.42"><defs><style>.cls-1{fill:#010101;}</style></defs><path class="cls-1" d="M7.52,13.15v15A7.52,7.52,0,0,0,15,35.71h15V47a3.76,3.76,0,0,1-3.76,3.76H10.59A11.26,11.26,0,0,0,0,43.23V65.79a11.26,11.26,0,0,0,10.59-7.52H26.32A11.29,11.29,0,0,0,37.6,47V35.71H60.15V5.63H15A7.52,7.52,0,0,0,7.52,13.15Zm41.36,0a3.76,3.76,0,1,1-3.76,3.76A3.76,3.76,0,0,1,48.88,13.15Z"/><rect class="cls-1" x="63.91" y="13.15" width="7.52" height="15.04"/></svg>