<svg id="Calque_1" data-name="Calque 1" xmlns="http://www.w3.org/2000/svg" viewBox="0 0 71.43 71.42"><defs><style>.cls-1{fill:#fff;}</style></defs><path class="cls-1" d="M10.11,68.69c5.59-1.06,10.78-2.08,16-3a7,7,0,0,1,3.61,0c4.18,1.7,8.28,3.63,12.37,5.53A2,2,0,0,0,44.19,71q5.19-3.13,10.46-6.13a2,2,0,0,1,1.45-.18c2.66.84,5.29,1.79,7.93,2.67,2,.69,4.12,1.33,6.48,2.09C63.76,60.08,59.67,50.06,58.87,39a56.35,56.35,0,0,1-37.75,0C20.52,49.76,18,60,10.11,68.69ZM.94,0c0,2.71,0,5.12,0,7.52a2.93,2.93,0,0,0,.66,1.54C8,17.6,14.43,26.09,20.8,34.62a2.74,2.74,0,0,0,3,1.28,25.23,25.23,0,0,0,4.81-1.45,48.37,48.37,0,0,0,13.6-9.4c2.21-2.14,4.42-4.31,5.72-7.19a3,3,0,0,0-.36-3.25C44.11,10.08,40.72,5.52,37.24,1a2.8,2.8,0,0,0-1.9-1C32.65,0,30,0,27.25,0H.94Zm24.48,38c1,.28,1.69.46,2.33.62.37.09.76.14,1.13.21A56.77,56.77,0,0,0,50,39.07a38.4,38.4,0,0,0,7.4-2.3c1.72-.69,1.67-1.64.09-2.63a10.39,10.39,0,0,0-1.67-.83c-3.89-1.6-8-2-12.14-2.29-1.68-.14-3.37,0-5.05,0a26.63,26.63,0,0,0,4.13.51c2.54.23,5.12.37,7.33,1.87,1.82,1.24,1.81,3-.07,4.15a10.35,10.35,0,0,1-3.07,1.23,34.37,34.37,0,0,1-11.36.35,13,13,0,0,1-6.37-2,1,1,0,0,0-.78,0C27.57,37.28,26.72,37.6,25.42,38.05Zm23.81-2.41c-3.71-2.86-15.1-2.6-17.87.31A29,29,0,0,0,49.23,35.64Z"/><path d="M10.11,68.69C18,60,20.52,49.76,21.12,39a56.35,56.35,0,0,0,37.75,0c.8,11.11,4.89,21.13,11.64,30.52-2.36-.76-4.43-1.4-6.48-2.09-2.64-.88-5.27-1.83-7.93-2.67a2,2,0,0,0-1.45.18q-5.26,3-10.46,6.13a2,2,0,0,1-2.11.17c-4.09-1.9-8.19-3.83-12.37-5.53a7,7,0,0,0-3.61,0C20.89,66.61,15.7,67.63,10.11,68.69Z"/><path d="M.94,0H27.25c2.7,0,5.4-.07,8.09,0a2.8,2.8,0,0,1,1.9,1c3.48,4.49,6.87,9.05,10.3,13.58a3,3,0,0,1,.36,3.25c-1.3,2.88-3.51,5.05-5.72,7.19a48.37,48.37,0,0,1-13.6,9.4,25.23,25.23,0,0,1-4.81,1.45,2.74,2.74,0,0,1-3-1.28C14.43,26.09,8,17.6,1.63,9.08A2.93,2.93,0,0,1,1,7.54C.9,5.14.94,2.73.94,0Z"/><path d="M25.42,38.05c1.3-.45,2.15-.77,3-1a1,1,0,0,1,.78,0,13,13,0,0,0,6.37,2,34.37,34.37,0,0,0,11.36-.35A10.35,10.35,0,0,0,50,37.53c1.88-1.11,1.89-2.91.07-4.15-2.21-1.5-4.79-1.64-7.33-1.87A26.63,26.63,0,0,1,38.62,31c1.68,0,3.37-.12,5.05,0,4.12.33,8.25.69,12.14,2.29a10.39,10.39,0,0,1,1.67.83c1.58,1,1.63,1.94-.09,2.63a38.4,38.4,0,0,1-7.4,2.3,56.77,56.77,0,0,1-21.11-.19c-.37-.07-.76-.12-1.13-.21C27.11,38.51,26.47,38.33,25.42,38.05Z"/><path d="M49.23,35.64A29,29,0,0,1,31.36,36C34.13,33,45.52,32.78,49.23,35.64Zm-12.42-.35c1.79,1.23,4.79,1.19,6.16,0A7.47,7.47,0,0,0,36.81,35.29Z"/></svg>