<svg id="Calque_1" data-name="Calque 1" xmlns="http://www.w3.org/2000/svg" viewBox="0 0 71.43 71.42"><defs><style>.cls-1{fill:#010101;}</style></defs><path class="cls-1" d="M59.25,46.8a1.46,1.46,0,0,0-1.37-1c-.07,0-11.24-1.21-26-12.38a13.9,13.9,0,0,0-8.59-3.19c-5.24,0-10.17,3.65-12.68,9C5.25,35,2.82,31.08,2.82,30.93a1.45,1.45,0,0,0-2-.54,1.46,1.46,0,0,0-.54,2.06,35.54,35.54,0,0,0,9.35,9.79c0,.15-.08.23-.08.38-1.44,5.85.08,13.67,8.43,17.93A22.8,22.8,0,0,0,28.26,63c15.5,0,30-14,30.61-14.58A1.55,1.55,0,0,0,59.25,46.8Zm-16.94,5H40.49a65.3,65.3,0,0,1-9.8-.76l2,5.09a1.55,1.55,0,0,1-.84,2,1.39,1.39,0,0,1-.53.07,1.55,1.55,0,0,1-1.44-1L27.2,50.29a51,51,0,0,1-7.9-2.5L20.89,52a1.53,1.53,0,0,1-.83,2,1.23,1.23,0,0,1-.53.08,1.57,1.57,0,0,1-1.45-1l-2.81-7.14c-1.06-.61-2.12-1.14-3-1.75a15.93,15.93,0,0,1,.84-3,33.35,33.35,0,0,0,3.27,2l5.31-2.89a1.51,1.51,0,0,1,2.05.61,1.49,1.49,0,0,1-.6,2.05l-3.42,1.9a51.57,51.57,0,0,0,8.12,2.66l5.63-3.12a1.51,1.51,0,0,1,2,.61A1.49,1.49,0,0,1,34.87,47l-2.36,1.29a54.87,54.87,0,0,0,9.65.53,1.49,1.49,0,0,1,1.6,1.45A1.44,1.44,0,0,1,42.31,51.81Z"/><path class="cls-1" d="M70.72,8.67a1.48,1.48,0,0,0-2,.53,23.2,23.2,0,0,1-5,5.47C61.76,11,58.26,8.44,54.46,8.44a10.23,10.23,0,0,0-6.38,2.36c-10.33,7.9-18.15,8.73-18.22,8.73a1.62,1.62,0,0,0-1.3,1,1.44,1.44,0,0,0,.38,1.6c.46.45,10.87,10.48,22,10.48a16.83,16.83,0,0,0,7.52-1.75,11.43,11.43,0,0,0,6.23-13.22,25.28,25.28,0,0,0,6.53-6.91A1.54,1.54,0,0,0,70.72,8.67ZM60.39,20.14l-1.9,4.94a1.55,1.55,0,0,1-1.44,1,1.39,1.39,0,0,1-.53-.07,1.55,1.55,0,0,1-.84-2L56.44,22A33.68,33.68,0,0,1,52,23.33L50.14,28a1.57,1.57,0,0,1-1.45,1,1.23,1.23,0,0,1-.53-.08,1.54,1.54,0,0,1-.84-2l1.14-2.89a41.35,41.35,0,0,1-6.3.46H40.87a1.52,1.52,0,0,1,.15-3,42.82,42.82,0,0,0,5.39-.15l-.53-.31a1.51,1.51,0,1,1,1.44-2.66l3.88,2.13a29.47,29.47,0,0,0,4.71-1.44l-1.67-.91a1.51,1.51,0,1,1,1.44-2.66l3.65,2c.6-.38,1.21-.68,1.74-1.06a6.12,6.12,0,0,1,.76,2.89C61.38,19.61,60.92,19.84,60.39,20.14Z"/></svg>