<?xml version="1.0" encoding="utf-8"?>
<!-- Generator: Adobe Illustrator 25.2.1, SVG Export Plug-In . SVG Version: 6.00 Build 0)  -->
<svg version="1.1" id="Calque_1" xmlns="http://www.w3.org/2000/svg" xmlns:xlink="http://www.w3.org/1999/xlink" x="0px" y="0px"
	 viewBox="0 0 139.2 156.2" style="enable-background:new 0 0 139.2 156.2;" xml:space="preserve">
<style type="text/css">
	.st0{fill:#FFFFFF;}
	.st1{fill:#1D7065;}
	.st2{fill:#4E2F26;}
</style>
<path class="st0" d="M139.2,87.5c0.3,25.1-7.4,42-22.7,55.6c-19,17-52,17.6-72.5,0.6c-9.7-8.2-18.8-16.9-27.5-26.1
	C6.9,107.4,2.8,94.4,1.1,80.7C-1.3,61.6-0.3,43.1,10,26C22.7,4.8,41.8-3.7,66,1.5C107.6,10.3,139.2,49.4,139.2,87.5z M11.2,63
	c0.2,4,0.3,6.6,0.4,9.2C12.5,90,18,105.5,32,117.5c5.8,5,11.1,10.6,16.9,15.8c19.3,17.3,47.8,15.8,64.9-3.8
	c10.9-12.6,14-27.8,12.5-44.2C123.2,50.9,96.5,20.2,63,12.4c-17.3-4-30.4,1-40.8,15.4C14.8,38,10.9,50.4,11.2,63z"/>
<path class="st1" d="M111.9,84c0.1,11.1-3.1,21.9-9.4,31.1c-8.3,12.4-21.2,17.7-35.3,13.4C32,117.6,17.1,83.3,26.9,54.2
	c7.7-22.7,31.4-32.5,52.3-21C99.1,44.1,111.8,60.2,111.9,84z M100.3,89.4c-0.7-22.1-8.9-36.2-24.6-45.8c-17.2-10.4-34.9-2.9-40,16.6
	c-6.1,23.3,10.9,52.2,34.3,58.2c9.6,2.5,17.9-0.1,22.6-8.9C96.4,102.3,98.5,94.2,100.3,89.4L100.3,89.4z"/>
<path class="st2" d="M72.2,57.6c-7.2-2.3-14.1-0.2-18.5,5.8c-8,10.8-1.8,32.1,10.7,37c1.2,0.5,2.4,0.7,3.7,0.8
	c12.7,1,20.7-6.9,20.7-20.3C88.8,70,82.3,60.9,72.2,57.6z M74.7,87.6c-1.7,4.2-5.4,5.1-8.1,1.6c-1.8-2.5-3.5-5.2-4.8-8.1
	c-2-3.8-1.5-8.4,1.3-11.6c0.5-0.6,1.1-1,1.8-1.3c1.9-0.7,5.5,1.3,7.3,3.1C76.7,76,77.1,81.8,74.7,87.6z"/>
</svg>
