<svg id="Calque_1" data-name="Calque 1" xmlns="http://www.w3.org/2000/svg" viewBox="0 0 139.24 156.18"><defs><style>.cls-1{fill:#3eb7b1;}.cls-2{fill:#1d7065;}.cls-3{fill:#4e2f26;}</style></defs><path class="cls-1" d="M139.23,87.52c.28,25.14-7.42,42-22.68,55.64-19,17-52,17.58-72.47.55a327.24,327.24,0,0,1-27.47-26.12C6.89,107.4,2.82,94.44,1.09,80.72-1.33,61.62-.27,43.07,10,26,22.67,4.76,41.81-3.68,66,1.47,107.64,10.32,139.23,49.44,139.23,87.52ZM11.16,63c.19,4,.31,6.6.43,9.17C12.48,90,18,105.54,32,117.47c5.85,5,11.14,10.64,16.88,15.78,19.31,17.32,47.85,15.84,64.88-3.79,10.92-12.59,14-27.83,12.54-44.18-3.13-34.35-29.83-65.12-63.31-72.9-17.27-4-30.42,1-40.78,15.41A58,58,0,0,0,11.16,63Z"/><path class="cls-2" d="M111.93,84a54.41,54.41,0,0,1-9.36,31.11c-8.3,12.39-21.17,17.74-35.33,13.36C32,117.55,17.07,83.26,26.92,54.16c7.7-22.71,31.38-32.47,52.34-20.95C99.13,44.14,111.84,60.15,111.93,84Zm-11.65,5.45c-.72-22.13-8.88-36.24-24.61-45.77-17.2-10.42-34.94-2.93-40.05,16.64-6.1,23.31,10.91,52.15,34.3,58.16,9.62,2.47,17.86-.13,22.57-8.91C96.37,102.33,98.51,94.16,100.28,89.46Z"/><path class="cls-3" d="M72.21,57.64c-7.24-2.32-14.13-.17-18.53,5.78-8,10.77-1.82,32.11,10.71,37a13,13,0,0,0,3.7.82c12.65,1,20.67-6.89,20.67-20.34C88.77,70,82.29,60.86,72.21,57.64Zm2.48,30c-1.71,4.15-5.42,5.09-8.12,1.59a50.37,50.37,0,0,1-4.8-8.08,10.39,10.39,0,0,1,1.31-11.62,4.44,4.44,0,0,1,1.75-1.28c1.9-.66,5.52,1.26,7.31,3.08C76.68,76,77.12,81.76,74.69,87.64Z"/></svg>