<?xml version="1.0" encoding="utf-8"?>
<!-- Generator: Adobe Illustrator 25.2.1, SVG Export Plug-In . SVG Version: 6.00 Build 0)  -->
<svg version="1.1" id="Calque_1" xmlns="http://www.w3.org/2000/svg" xmlns:xlink="http://www.w3.org/1999/xlink" x="0px" y="0px"
	 viewBox="0 0 1077 198" style="enable-background:new 0 0 1077 198;" xml:space="preserve">
<style type="text/css">
	.st0{fill:#00675B;}
	.st1{fill:#3DB9B2;}
	.st2{fill:#1B6F64;}
	.st3{fill:#4E2F26;}
</style>
<path class="st0" d="M36.4,177.5V26.4h70.2v8.9h-60v55.6h54.3v8.7H46.5v69.1h62.3v8.9L36.4,177.5z"/>
<path class="st0" d="M222.4,180c-22,0-40.9-7.5-56.6-22.5s-23.6-33.5-23.7-55.6c0-22.1,6.9-40.6,20.7-55.6s31.5-22.5,53-22.5
	c17.5,0.1,34.8,2.9,51.4,8.4l-2.8,8.5c-15.7-4.9-32.1-7.5-48.6-7.6c-18.4,0-33.5,6.6-45.2,19.9C158.9,66.2,153,82.4,153,101.6
	c0,19.2,6.8,35.5,20.4,48.9c13.6,13.4,29.9,20.2,48.9,20.2c16.6,0,31-2.5,43.1-7.6l3.2,7.2c-5.3,3.1-12.3,5.5-21,7.2
	C239.3,179.1,230.8,180,222.4,180z"/>
<path class="st0" d="M519.8,35.3h-51.1v-8.9H581v8.9h-51.1v142.2h-10.1V35.3z"/>
<path class="st0" d="M623.4,177.5V26.4h70.2v8.9h-60v55.6h54.3v8.7h-54.3v69.1h62.3v8.9L623.4,177.5z"/>
<path class="st0" d="M748.1,26.4v151.1H738V26.4H748.1z M828.8,26.4l-64.2,73.1c8.6,10.3,18.5,21.8,29.7,34.4s18.4,20.5,21.7,23.4
	c3.3,3,5.9,5.2,7.8,6.7c6.4,4.5,13.7,7.3,21.5,8.3l-0.2,6.8c-8.5-0.1-15.4-1.4-20.9-3.9c-5.3-2.4-10.2-5.7-14.4-9.7
	c-4.1-4-13-13.9-26.7-29.6s-24.1-27.7-31-36l65-73.6H828.8z"/>
<path class="st0" d="M899.2,125.1l-21.8,52.4h-10.8l63.6-152.1h5.9l63.8,152.1h-11.4l-21.8-52.4L899.2,125.1z M932.6,42.2
	c-0.4,0.8-0.7,1.7-0.8,2.5c-2,6.1-3.9,11.2-5.7,15.4l-23.2,56.2h60.4l-23.3-56C935.1,49.7,932.6,43.6,932.6,42.2z"/>
<g>
	<path class="st1" d="M438.2,113c0.3,25.1-7.4,42-22.7,55.6c-19,17-52,17.6-72.5,0.6c-9.7-8.1-18.8-17-27.5-26.1
		c-9.7-10.2-13.8-23.1-15.5-36.9c-2.4-19.1-1.4-37.6,8.9-54.7c12.7-21.2,31.8-29.7,56-24.5C406.6,35.8,438.2,74.9,438.2,113z
		 M310.2,88.5c0.2,4,0.3,6.6,0.4,9.2c0.9,17.7,6.4,33.3,20.4,45.3c5.8,5,11.1,10.6,16.9,15.8c19.3,17.3,47.9,15.8,64.9-3.8
		c10.9-12.6,14-27.8,12.5-44.2c-3.1-34.4-29.8-65.1-63.3-72.9c-17.3-4-30.4,1-40.8,15.4C313.3,64.3,309.9,76.6,310.2,88.5z"/>
	<path class="st2" d="M410.9,109.5c0,11.3-3.1,21.7-9.4,31.1c-8.3,12.4-21.2,17.7-35.3,13.4c-35.3-10.9-50.2-45.2-40.3-74.3
		c7.7-22.7,31.4-32.5,52.3-20.9C398.1,69.6,410.8,85.6,410.9,109.5z M399.3,114.9c-0.7-22.1-8.9-36.2-24.6-45.8
		c-17.2-10.4-34.9-2.9-40.1,16.6c-6.1,23.3,10.9,52.1,34.3,58.2c9.6,2.5,17.9-0.1,22.6-8.9C395.4,127.8,397.5,119.6,399.3,114.9z"/>
	<path class="st3" d="M371.2,83.1c-7.2-2.3-14.1-0.2-18.5,5.8c-8,10.8-1.8,32.1,10.7,37c1.2,0.5,2.5,0.7,3.7,0.8
		c12.7,1,20.7-6.9,20.7-20.3C387.8,95.4,381.3,86.3,371.2,83.1z M373.7,113.1c-1.7,4.1-5.4,5.1-8.1,1.6c-1.9-2.4-3.3-5.2-4.8-8.1
		c-1.9-3.8-1.5-8.5,1.3-11.6c0.5-0.6,1.1-1,1.8-1.3c1.9-0.7,5.5,1.3,7.3,3.1C375.7,101.4,376.1,107.2,373.7,113.1z"/>
</g>
</svg>
