<?xml version="1.0" encoding="UTF-8" standalone="no"?>
<svg
   xmlns:dc="http://purl.org/dc/elements/1.1/"
   xmlns:cc="http://creativecommons.org/ns#"
   xmlns:rdf="http://www.w3.org/1999/02/22-rdf-syntax-ns#"
   xmlns:svg="http://www.w3.org/2000/svg"
   xmlns="http://www.w3.org/2000/svg"
   xmlns:sodipodi="http://sodipodi.sourceforge.net/DTD/sodipodi-0.dtd"
   xmlns:inkscape="http://www.inkscape.org/namespaces/inkscape"
   id="Calque_1"
   data-name="Calque 1"
   viewBox="0 0 1077 198"
   version="1.1"
   sodipodi:docname="logo.svg"
   inkscape:version="0.92.3 (2405546, 2018-03-11)">
  <metadata
     id="metadata33">
    <rdf:RDF>
      <cc:Work
         rdf:about="">
        <dc:format>image/svg+xml</dc:format>
        <dc:type
           rdf:resource="http://purl.org/dc/dcmitype/StillImage" />
      </cc:Work>
    </rdf:RDF>
  </metadata>
  <sodipodi:namedview
     pagecolor="#ffffff"
     bordercolor="#666666"
     borderopacity="1"
     objecttolerance="10"
     gridtolerance="10"
     guidetolerance="10"
     inkscape:pageopacity="0"
     inkscape:pageshadow="2"
     inkscape:window-width="1641"
     inkscape:window-height="1022"
     id="namedview31"
     showgrid="false"
     inkscape:zoom="0.35840297"
     inkscape:cx="553.84585"
     inkscape:cy="99"
     inkscape:window-x="39"
     inkscape:window-y="0"
     inkscape:window-maximized="1"
     inkscape:current-layer="Calque_1" />
  <defs
     id="defs4">
    <style
       id="style2">.cls-1{fill:#161616;}.cls-2{fill:#a2786d;}.cls-3{fill:#734c42;}.cls-4{fill:#009588;}.cls-5{fill:#00c6b8;}.cls-6{fill:#00675b;}</style>
  </defs>
  <rect
     class="cls-1"
     width="1077"
     height="198"
     id="rect6"
     style="fill:#161616;fill-opacity:0" />
  <path
     class="cls-2"
     d="M381.78,98.63a19.29,19.29,0,0,0-.61-3.26A18.52,18.52,0,0,0,380,92.3a19.9,19.9,0,0,0-3.85-5.21A23.31,23.31,0,0,0,371,83.27a14.67,14.67,0,0,0-6.37-1.87,10.37,10.37,0,0,0-3.45.45,11.37,11.37,0,0,0-3,1.49,14.38,14.38,0,0,0-4.34,4.82,15.06,15.06,0,0,0-1.26,3c-.15.51-.29,1-.4,1.56a14.57,14.57,0,0,0-.2,1.6,20,20,0,0,0,.62,6.16,31.48,31.48,0,0,0,2,5.69,22.29,22.29,0,0,0,3.24,5.07,14.22,14.22,0,0,0,10.41,5.13A12,12,0,0,0,374,115a12.7,12.7,0,0,0,4.59-4.22,17.67,17.67,0,0,0,1.51-2.81,23,23,0,0,0,1-3A18.42,18.42,0,0,0,381.78,98.63Zm-7.37,4.08c-.09.68-.19,1.38-.34,2.07a18,18,0,0,1-.51,2,7.79,7.79,0,0,1-1.8,3.18,4.45,4.45,0,0,1-1.38.94,6.06,6.06,0,0,1-1.77.45,7.38,7.38,0,0,1-3.73-.61,9.1,9.1,0,0,1-1.69-1,9.69,9.69,0,0,1-1.46-1.41,16.62,16.62,0,0,1-2.31-3.63,29.62,29.62,0,0,1-1.58-4.19c-.23-.72-.42-1.45-.58-2.17a18.46,18.46,0,0,1-.35-2.19,10.69,10.69,0,0,1,0-2.19,9.58,9.58,0,0,1,.5-2.15,10.35,10.35,0,0,1,1-2A9.7,9.7,0,0,1,359.86,88a5.87,5.87,0,0,1,4.08-1.68,7.74,7.74,0,0,1,4.17,1.57,14.66,14.66,0,0,1,3.14,3.2,17.49,17.49,0,0,1,2.11,3.75,15,15,0,0,1,1.06,3.85,10.86,10.86,0,0,1,.12,2A17.4,17.4,0,0,1,374.41,102.71Z"
     id="path8" />
  <path
     class="cls-3"
     d="M395,98.69a44.13,44.13,0,0,0-1.12-5.9c-.12-.49-.27-1-.42-1.45s-.32-1-.51-1.49A30.27,30.27,0,0,0,391.64,87a37.82,37.82,0,0,0-3.21-5.12c-.58-.8-1.19-1.56-1.79-2.32l-.91-1.12-.45-.55-.47-.56a29.84,29.84,0,0,0-9.71-7.4c-1.79-.88-3.54-1.64-5.4-2.35a27,27,0,0,0-5.9-1.6,17.05,17.05,0,0,0-6.36.21q-.39.09-.78.21c-.26.08-.51.14-.77.23-.51.19-1,.38-1.51.62a14.77,14.77,0,0,0-2.75,1.68,20.67,20.67,0,0,0-4.22,4.52,52.67,52.67,0,0,0-3.06,5,52.13,52.13,0,0,0-2.57,5.25,27.5,27.5,0,0,0-1.66,5.75,23.6,23.6,0,0,0-.3,3,24.93,24.93,0,0,0,.1,3,34.49,34.49,0,0,0,1.08,5.78c.5,1.87,1.11,3.68,1.72,5.47.32.91.57,1.78.87,2.67s.57,1.77.84,2.68a42.89,42.89,0,0,0,1.93,5.43,18.39,18.39,0,0,0,1.4,2.58c.14.21.28.41.43.61s.29.4.45.59c.31.38.64.73,1,1.09a26.72,26.72,0,0,0,4.4,3.7,33.08,33.08,0,0,0,3.17,1.93c1.32.78,2.67,1.49,4,2.13a20.28,20.28,0,0,0,5.58,1.81,21,21,0,0,0,3,.28,22.5,22.5,0,0,0,3-.16,23.36,23.36,0,0,0,2.89-.54,27.58,27.58,0,0,0,2.8-.89,22.13,22.13,0,0,0,3.52-1.74,20,20,0,0,0,3.9-2.79,21,21,0,0,0,2.07-2.15,25.11,25.11,0,0,0,1.76-2.41,34.25,34.25,0,0,0,4.84-10.85,25.22,25.22,0,0,0,.52-3c.11-1,.18-2,.2-3A39.76,39.76,0,0,0,395,98.69Zm-8.74,17.67c-.32.77-.69,1.52-1.07,2.27-.2.37-.4.77-.59,1.1s-.4.67-.61,1a17.2,17.2,0,0,1-1.43,1.85,16.07,16.07,0,0,1-1.68,1.62,17.12,17.12,0,0,1-4,2.46,22.92,22.92,0,0,1-2.28.82,21.73,21.73,0,0,1-2.36.54,16.23,16.23,0,0,1-9.39-1.29,33.51,33.51,0,0,1-8.71-5.21,16.21,16.21,0,0,1-3.21-3.61,21.86,21.86,0,0,1-1.95-4.59c-.26-.83-.51-1.67-.75-2.53s-.53-1.73-.79-2.6-.51-1.75-.8-2.59-.57-1.68-.83-2.52a46.19,46.19,0,0,1-1.39-5,23.76,23.76,0,0,1-.61-5.09,19.62,19.62,0,0,1,.64-5.09,28.72,28.72,0,0,1,1.81-4.91c.76-1.6,1.6-3.18,2.47-4.73.62-1,1.26-2.09,2-3.07a16.72,16.72,0,0,1,3.25-3.21,12,12,0,0,1,9.3-1.92,22.9,22.9,0,0,1,5,1.55c1.17.49,2.37,1.06,3.53,1.66a36.07,36.07,0,0,1,3.66,2.33A23.91,23.91,0,0,1,379.06,79a22.08,22.08,0,0,1,1.53,2l1.48,2.21c1,1.47,1.9,2.94,2.7,4.42a28.34,28.34,0,0,1,2,4.5c.13.38.23.75.35,1.14s.21.81.31,1.21c.2.82.37,1.63.51,2.46a44.32,44.32,0,0,1,.65,10A27.32,27.32,0,0,1,386.22,116.36Z"
     id="path10" />
  <path
     class="cls-4"
     d="M421.51,105.74a68.46,68.46,0,0,0-1.88-11.13q-.7-2.72-1.58-5.39c-.59-1.78-1.21-3.51-1.85-5.25a97.71,97.71,0,0,0-4.47-10.28c-.85-1.68-1.8-3.32-2.81-4.92a52.16,52.16,0,0,0-3.29-4.66c-.58-.76-1.22-1.48-1.84-2.2s-1.24-1.38-1.87-2.06c-1.26-1.36-2.54-2.7-3.88-4s-2.7-2.58-4.13-3.81-2.9-2.4-4.44-3.5a50.07,50.07,0,0,0-4.8-3.07A44.68,44.68,0,0,0,379.49,43a68,68,0,0,0-10.78-3.26,50.74,50.74,0,0,0-11.28-1.12,39.07,39.07,0,0,0-11.27,1.78c-.92.28-1.81.64-2.7,1s-1.76.77-2.6,1.23a34.39,34.39,0,0,0-4.85,3,41.3,41.3,0,0,0-4.36,3.65c-.69.64-1.33,1.33-2,2l-1,1c-.31.35-.62.7-.92,1.07l-.89,1.08c-.3.36-.58.74-.86,1.11-.58.74-1.11,1.51-1.65,2.27s-1,1.54-1.56,2.33l-.74,1.21-.69,1.24a46.3,46.3,0,0,0-4,10.51q-.71,2.72-1.14,5.48c-.31,1.84-.53,3.68-.69,5.53l-.12,1.38-.08,1.39c-.06.93-.09,1.84-.13,2.76-.08,1.84-.13,3.68-.12,5.53a72.43,72.43,0,0,0,.82,11.09,50.25,50.25,0,0,0,3,10.77c.32.87.73,1.71,1.1,2.56s.8,1.68,1.24,2.49c.86,1.65,1.81,3.24,2.8,4.8a88.16,88.16,0,0,0,6.6,8.86q1.79,2.1,3.63,4.14c.63.67,1.27,1.34,1.92,2s1.32,1.29,2,1.89a66.4,66.4,0,0,0,18.76,11.38c1.68.72,3.38,1.41,5.11,2s3.48,1.14,5.26,1.6a43.93,43.93,0,0,0,10.88,1.46,39.55,39.55,0,0,0,10.92-1.42,44.8,44.8,0,0,0,5.23-1.79,35.39,35.39,0,0,0,4.92-2.57,38.1,38.1,0,0,0,4.49-3.3,41.88,41.88,0,0,0,4-3.91,58.84,58.84,0,0,0,6.61-9,51,51,0,0,0,2.6-5,46.31,46.31,0,0,0,2.06-5.24,54.79,54.79,0,0,0,2.38-11A60,60,0,0,0,421.51,105.74ZM347.39,43.59a34.75,34.75,0,0,1,10.43-1.48,48,48,0,0,1,10.47,1.35,60.2,60.2,0,0,1,10,3.4,36.55,36.55,0,0,1,4.62,2.47,50.59,50.59,0,0,1,4.26,3,71.11,71.11,0,0,1,7.63,7.2c1.19,1.29,2.36,2.6,3.49,3.94.56.67,1.15,1.35,1.68,2l.8,1,.77,1a57.34,57.34,0,0,1,5.21,8.91q1.11,2.34,2.09,4.76c.65,1.61,1.24,3.25,1.85,4.89s1.17,3.31,1.7,5,1,3.32,1.42,5a60.5,60.5,0,0,1,1.83,20.33A49.14,49.14,0,0,1,410,135.81c-.81,1.5-1.68,3-2.64,4.38a47.4,47.4,0,0,1-3,4.11c-.53.66-1.1,1.28-1.66,1.91s-1.17,1.22-1.79,1.78a30.84,30.84,0,0,1-3.92,3.12,31.72,31.72,0,0,1-4.37,2.45,38.29,38.29,0,0,1-4.74,1.74,35.43,35.43,0,0,1-15.07,1.09,41.69,41.69,0,0,1-5-1c-1.66-.42-3.3-1-4.93-1.53s-3.25-1.25-4.86-1.93A60.71,60.71,0,0,1,340.36,141c-.33-.28-.63-.59-.94-.89s-.62-.6-.92-.91c-.58-.63-1.18-1.23-1.76-1.9-1.17-1.32-2.32-2.64-3.43-4a81.79,81.79,0,0,1-6.15-8.46c-.92-1.48-1.81-3-2.59-4.52-.21-.39-.4-.78-.58-1.17l-.56-1.17c-.34-.8-.71-1.58-1-2.4a46.53,46.53,0,0,1-2.68-10A68.65,68.65,0,0,1,319,95.16c0-1.76,0-3.52.07-5.28s.13-3.52.28-5.27c.05-.88.16-1.75.24-2.62s.2-1.74.35-2.61c.25-1.73.59-3.46,1-5.16a43.64,43.64,0,0,1,3.6-9.84,46.17,46.17,0,0,1,2.74-4.5c.51-.71,1-1.45,1.53-2.15l.8-1,.84-1c.54-.69,1.15-1.33,1.73-2s1.2-1.29,1.85-1.89a37.45,37.45,0,0,1,4-3.41,33.52,33.52,0,0,1,4.49-2.78A26.87,26.87,0,0,1,347.39,43.59Z"
     id="path12" />
  <path
     class="cls-5"
     d="M435.56,111.93a66.6,66.6,0,0,0-.48-7.05,84.74,84.74,0,0,0-3-13.76A119,119,0,0,0,427.22,78a80.64,80.64,0,0,0-6.62-12.44A95,95,0,0,0,412,54.4c-1.56-1.74-3.15-3.46-4.8-5.11s-3.31-3.28-5.07-4.85a80.36,80.36,0,0,0-23.76-14.92c-2.17-.88-4.42-1.63-6.65-2.3s-4.49-1.28-6.78-1.79a66.89,66.89,0,0,0-14-1.78,44.35,44.35,0,0,0-14,1.92,42.46,42.46,0,0,0-6.55,2.77,46.64,46.64,0,0,0-6,3.79,55,55,0,0,0-5.32,4.67,59.81,59.81,0,0,0-4.61,5.34,67.84,67.84,0,0,0-13.69,39.15c-.09,2.34-.1,4.67,0,7s.23,4.63.41,6.95A111.14,111.14,0,0,0,303,109.05a69.51,69.51,0,0,0,4.15,13.35,47.49,47.49,0,0,0,3.19,6.23,56.6,56.6,0,0,0,3.94,5.78,100.28,100.28,0,0,0,9.3,10.34c1.65,1.63,3.33,3.22,5,4.8l5,4.76c3.37,3.17,6.81,6.27,10.46,9.12,1.83,1.42,3.71,2.77,5.65,4a61,61,0,0,0,6.06,3.4,44.17,44.17,0,0,0,6.47,2.51,50.91,50.91,0,0,0,6.77,1.52,55.37,55.37,0,0,0,13.85.41,60.79,60.79,0,0,0,13.58-2.84c1.09-.37,2.19-.75,3.27-1.17.54-.21,1.07-.45,1.61-.67l.8-.34.79-.37a46.46,46.46,0,0,0,6.08-3.4c1-.62,1.92-1.32,2.86-2,.47-.35.91-.72,1.37-1.08s.9-.74,1.34-1.12c.89-.75,1.72-1.57,2.57-2.38.41-.41.81-.84,1.21-1.26s.79-.86,1.17-1.3a49.89,49.89,0,0,0,4.27-5.55,59.17,59.17,0,0,0,3.56-6A73.62,73.62,0,0,0,435.29,119c.12-1.17.17-2.34.24-3.52S435.59,113.11,435.56,111.93Zm-11.62,33.33A58.73,58.73,0,0,1,420.6,151a55.72,55.72,0,0,1-4,5.27,53.22,53.22,0,0,1-4.7,4.68,51.29,51.29,0,0,1-5.31,4,49.71,49.71,0,0,1-5.82,3.18l-1.53.67c-.51.22-1,.4-1.55.61-1,.42-2.1.75-3.15,1.12a62.66,62.66,0,0,1-6.47,1.67,52.44,52.44,0,0,1-26.38-1.38c-.52-.18-1.06-.33-1.57-.55l-1.54-.61c-1-.47-2-.91-3-1.44a54.2,54.2,0,0,1-5.74-3.45c-1.85-1.25-3.65-2.6-5.4-4s-3.46-2.89-5.14-4.4c-3.36-3-6.61-6.2-9.91-9.34s-6.52-6.3-9.49-9.69c-1.49-1.69-2.92-3.43-4.24-5.24a61.22,61.22,0,0,1-3.66-5.65A58.57,58.57,0,0,1,306.88,114c-2.49-8.67-3.27-17.77-3.64-26.82a72.7,72.7,0,0,1,3.88-26.69,61.3,61.3,0,0,1,2.65-6.25l.77-1.51.39-.76.42-.74.83-1.48.88-1.45.45-.73.47-.71c.31-.47.62-1,.94-1.41.67-.92,1.31-1.85,2-2.73s1.43-1.75,2.17-2.62,1.53-1.67,2.36-2.44,1.67-1.54,2.52-2.28,1.77-1.43,2.7-2.07a39.07,39.07,0,0,1,5.84-3.47A36.12,36.12,0,0,1,340.43,27l.17,0,1-.2.83-.16.51-.08,1.19-.17.48-.06,1.12-.12a53.65,53.65,0,0,1,13.39.67,89.15,89.15,0,0,1,13.16,3.38A73.84,73.84,0,0,1,395.77,43.4a100.28,100.28,0,0,1,9.79,9.33c1.53,1.66,3,3.34,4.48,5.07s2.82,3.5,4.14,5.32,2.57,3.67,3.75,5.57,2.25,3.87,3.26,5.86c.5,1,1,2,1.44,3s.91,2.06,1.34,3.1c.88,2.07,1.68,4.17,2.44,6.28a78.67,78.67,0,0,1,5.21,26.14,68.77,68.77,0,0,1-4.94,26.06C425.87,141.23,424.94,143.26,423.94,145.26Z"
     id="path14" />
  <path
     class="cls-6"
     d="M408.1,95.23a47.75,47.75,0,0,0-2.44-8.45,51.54,51.54,0,0,0-3.92-7.87,59.77,59.77,0,0,0-11.27-13.32A59,59,0,0,0,376,56a37.3,37.3,0,0,0-17.11-3.65A29.19,29.19,0,0,0,350.16,54a32.47,32.47,0,0,0-7.83,4A36.24,36.24,0,0,0,331,71.2a41,41,0,0,0-3.13,8.14,43.34,43.34,0,0,0-1.33,8.6,57.83,57.83,0,0,0,1.8,17.15,65.4,65.4,0,0,0,2.67,8.2,58,58,0,0,0,21.43,26.27,58.66,58.66,0,0,0,7.44,4.23,45.14,45.14,0,0,0,8,2.93,34.64,34.64,0,0,0,8.47,1.15,26.06,26.06,0,0,0,16.1-5.23,31.8,31.8,0,0,0,6.13-6.08,42.7,42.7,0,0,0,4.55-7.38,59.06,59.06,0,0,0,5.21-16.51A55.15,55.15,0,0,0,409,104,51.15,51.15,0,0,0,408.1,95.23Zm-13.23,39a27,27,0,0,1-5.27,5.56,21.23,21.23,0,0,1-6.71,3.51,23.5,23.5,0,0,1-7.57.95,36.48,36.48,0,0,1-15-4.13,53.65,53.65,0,0,1-6.77-4.09,52.6,52.6,0,0,1-6.12-5,54.22,54.22,0,0,1-13.09-19.68,65,65,0,0,1-2.36-7.61,53.31,53.31,0,0,1-1.62-15.81A40.35,40.35,0,0,1,331.58,80a37.75,37.75,0,0,1,2.84-7.45,32.32,32.32,0,0,1,10.45-11.94A26.65,26.65,0,0,1,360,55.88a33.77,33.77,0,0,1,15.33,4.18A47.45,47.45,0,0,1,382,64.4a63.86,63.86,0,0,1,6,5.22,55.77,55.77,0,0,1,9.61,12.54,47.64,47.64,0,0,1,3.23,7.14,44,44,0,0,1,2,7.55,49.64,49.64,0,0,1,.19,15.58,54.93,54.93,0,0,1-4.35,15A39.06,39.06,0,0,1,394.87,134.21Z"
     id="path16" />
  <path
     class="cls-5"
     d="M36.37,176.46V25.39h70.15v8.87h-60V89.83h54.3V98.5H46.51v69.09h62.33v8.87Z"
     id="path18" />
  <path
     class="cls-5"
     d="M222.36,179q-33,0-56.63-22.5t-23.66-55.57q0-33.08,20.71-55.57t53-22.51a165.49,165.49,0,0,1,51.35,8.45l-2.75,8.46a168.69,168.69,0,0,0-48.6-7.61q-27.67,0-45.22,19.86t-17.53,48.6q0,28.74,20.39,48.91t48.91,20.18q24.93,0,43.11-7.6l3.17,7.18q-8,4.65-21,7.18A131.76,131.76,0,0,1,222.36,179Z"
     id="path20" />
  <path
     class="cls-5"
     d="M519.76,34.26H468.63V25.39H581v8.87H529.91v142.2H519.76Z"
     id="path22" />
  <path
     class="cls-5"
     d="M623.4,176.46V25.39h70.15v8.87h-60V89.83h54.3V98.5h-54.3v69.09h62.33v8.87Z"
     id="path24" />
  <path
     class="cls-5"
     d="M748.11,25.39V176.46H738V25.39Zm80.72,0L764.59,98.5q12.88,15.42,29.69,34.44T816,156.39q5,4.44,7.82,6.66a48.77,48.77,0,0,0,21.45,8.34l-.21,6.76q-12.68-.21-20.92-3.9a49.08,49.08,0,0,1-14.37-9.72q-6.13-6-26.73-29.58t-31-36L817,25.39Z"
     id="path26" />
  <path
     class="cls-5"
     d="M899.25,124.06l-21.76,52.4H866.71l63.6-152.13h5.92L1000,176.46H988.63l-21.76-52.4Zm33.39-82.83a10.76,10.76,0,0,0-.85,2.54q-3,9.09-5.71,15.42L902.84,115.4h60.43L940,59.4Q932.64,43.35,932.64,41.23Z"
     id="path28" />
</svg>
