<svg id="Calque_1" data-name="Calque 1" xmlns="http://www.w3.org/2000/svg" viewBox="0 0 336.18 390.62"><defs><style>.cls-1{fill:#161616;}.cls-2{fill:#a2786d;}.cls-3{fill:#734c42;}.cls-4{fill:#009588;}.cls-5{fill:#00c6b8;}.cls-6{fill:#00675b;}</style></defs><rect class="cls-1" y="-1.17" width="336" height="393.34"/><path class="cls-2" d="M198.4,187.4a43,43,0,0,0-1.43-7.69,44.2,44.2,0,0,0-2.86-7.23A47.09,47.09,0,0,0,185,160.21a55.12,55.12,0,0,0-12.1-9,34.48,34.48,0,0,0-15-4.41,24.38,24.38,0,0,0-8.11,1.06,27.19,27.19,0,0,0-7.17,3.52,33.81,33.81,0,0,0-10.23,11.35,36,36,0,0,0-3,6.94c-.35,1.21-.68,2.41-.93,3.68a32.38,32.38,0,0,0-.48,3.77,47.89,47.89,0,0,0,1.45,14.52A74.87,74.87,0,0,0,134.21,205,53,53,0,0,0,141.83,217,33.48,33.48,0,0,0,166.35,229a28.46,28.46,0,0,0,13.8-3A30,30,0,0,0,191,216a40.37,40.37,0,0,0,3.56-6.6,55.38,55.38,0,0,0,2.41-7A43.14,43.14,0,0,0,198.4,187.4ZM181.05,197c-.2,1.6-.45,3.24-.81,4.87a42,42,0,0,1-1.19,4.68,18.12,18.12,0,0,1-4.25,7.5,10.61,10.61,0,0,1-3.25,2.22,15.15,15.15,0,0,1-4.15,1.06,17.3,17.3,0,0,1-8.79-1.45,20.23,20.23,0,0,1-4-2.38,22.72,22.72,0,0,1-3.43-3.31,39.11,39.11,0,0,1-5.44-8.56,68.26,68.26,0,0,1-3.73-9.87c-.53-1.69-1-3.4-1.35-5.11a43.69,43.69,0,0,1-.85-5.16,26.08,26.08,0,0,1,0-5.15,22.89,22.89,0,0,1,1.19-5.07,24.29,24.29,0,0,1,2.35-4.77,21.7,21.7,0,0,1,3.44-4.09c2.63-2.39,6.06-4.14,9.62-4a18.21,18.21,0,0,1,9.8,3.71,34.05,34.05,0,0,1,7.4,7.52,42.05,42.05,0,0,1,5,8.83,35.76,35.76,0,0,1,2.5,9.09,28.57,28.57,0,0,1,.28,4.64A40.76,40.76,0,0,1,181.05,197Z"/><path class="cls-3" d="M229.45,187.53a103.48,103.48,0,0,0-2.64-13.9c-.28-1.15-.64-2.28-1-3.42s-.76-2.35-1.22-3.49a66.27,66.27,0,0,0-3-6.71,91.62,91.62,0,0,0-7.58-12c-1.36-1.89-2.79-3.68-4.21-5.46l-2.13-2.63-1.06-1.3-1.11-1.33c-6.33-7.59-14.51-13.27-22.88-17.41-4.22-2.09-8.34-3.88-12.72-5.55a65.18,65.18,0,0,0-13.89-3.78,40.05,40.05,0,0,0-15,.52,16.41,16.41,0,0,0-1.83.48c-.61.18-1.22.34-1.82.55a37.73,37.73,0,0,0-3.55,1.45,33.69,33.69,0,0,0-6.48,4,48.38,48.38,0,0,0-9.94,10.63,125.29,125.29,0,0,0-7.2,11.75,120.31,120.31,0,0,0-6.05,12.38,63.13,63.13,0,0,0-3.92,13.55,56,56,0,0,0-.7,7.08,59.45,59.45,0,0,0,.23,7.07,81.42,81.42,0,0,0,2.54,13.6c1.18,4.4,2.61,8.67,4.06,12.9.75,2.12,1.35,4.18,2,6.28s1.35,4.16,2,6.31A105.6,105.6,0,0,0,115,231.81a43.05,43.05,0,0,0,3.3,6.08c.32.49.65,1,1,1.43s.69.93,1.06,1.38c.73.91,1.51,1.72,2.28,2.57A63.19,63.19,0,0,0,133,252a77.22,77.22,0,0,0,7.47,4.56c3.11,1.84,6.29,3.5,9.48,5a48.93,48.93,0,0,0,13.15,4.26,48.07,48.07,0,0,0,7,.66,54.13,54.13,0,0,0,7-.37,59.69,59.69,0,0,0,6.81-1.29,62.07,62.07,0,0,0,6.58-2.1,53.7,53.7,0,0,0,8.64-4.26,48.29,48.29,0,0,0,8.85-6.39A52,52,0,0,0,212.8,247a56.83,56.83,0,0,0,4.13-5.67,80,80,0,0,0,11.41-25.54,56.62,56.62,0,0,0,1.22-7.14c.26-2.4.43-4.69.49-7A97.3,97.3,0,0,0,229.45,187.53Zm-20.58,41.62c-.77,1.81-1.64,3.58-2.53,5.35-.46.85-.94,1.8-1.4,2.58s-.93,1.59-1.43,2.36a39.4,39.4,0,0,1-3.35,4.36,38.75,38.75,0,0,1-4,3.82,40.21,40.21,0,0,1-9.54,5.78,46.58,46.58,0,0,1-10.92,3.2,39.07,39.07,0,0,1-11.22.14,39.84,39.84,0,0,1-10.89-3.17c-7.5-3.28-14.6-7.12-20.51-12.27a38,38,0,0,1-7.57-8.51A50.36,50.36,0,0,1,121,222c-.63-2-1.21-3.94-1.78-6s-1.23-4.08-1.84-6.12-1.21-4.13-1.9-6.1-1.33-4-2-5.94A117.18,117.18,0,0,1,110.2,186a57,57,0,0,1-1.44-12,46.12,46.12,0,0,1,1.52-12,66.73,66.73,0,0,1,4.27-11.58c1.78-3.75,3.76-7.47,5.81-11.12a82.93,82.93,0,0,1,4.85-7.51,37.61,37.61,0,0,1,7.45-7.27,28.12,28.12,0,0,1,21.9-4.53,55.44,55.44,0,0,1,11.67,3.63c3.14,1.33,6.33,2.87,9.38,4.48a83.18,83.18,0,0,1,7.56,4.93,55.67,55.67,0,0,1,8.84,8.2,49.83,49.83,0,0,1,3.58,4.7l3.51,5.22c2.31,3.45,4.46,6.92,6.36,10.41a65.84,65.84,0,0,1,4.71,10.59c.33.89.56,1.78.83,2.69s.5,1.9.73,2.86q.71,2.85,1.22,5.78a94.88,94.88,0,0,1,1.44,11.76,99.08,99.08,0,0,1,.09,11.81A64.44,64.44,0,0,1,208.87,229.15Z"/><path class="cls-4" d="M292,204.13a164.18,164.18,0,0,0-4.43-26.21q-1.68-6.4-3.73-12.7c-1.4-4.19-2.84-8.27-4.36-12.36a228.07,228.07,0,0,0-10.53-24.21c-2-4-4.23-7.82-6.61-11.6a122.17,122.17,0,0,0-7.76-11c-1.36-1.79-2.86-3.48-4.33-5.18s-2.91-3.24-4.4-4.84c-3-3.21-6-6.37-9.13-9.45s-6.37-6.09-9.73-9-6.84-5.65-10.46-8.25a115.42,115.42,0,0,0-11.31-7.23A105.74,105.74,0,0,0,193,56.34a161.54,161.54,0,0,0-25.39-7.67A120.45,120.45,0,0,0,141.07,46a91.22,91.22,0,0,0-26.54,4.19c-2.17.65-4.27,1.5-6.37,2.32S104,54.35,102,55.42A84.85,84.85,0,0,0,90.6,62.5a97.1,97.1,0,0,0-10.25,8.59c-1.64,1.5-3.15,3.13-4.7,4.72-.76.8-1.48,1.64-2.22,2.46S72,79.92,71.26,80.78l-2.11,2.56c-.69.85-1.35,1.74-2,2.61-1.37,1.73-2.61,3.55-3.9,5.34s-2.45,3.64-3.65,5.49l-1.75,2.85-1.63,2.92a110,110,0,0,0-9.51,24.76c-1.11,4.26-2,8.57-2.69,12.9s-1.24,8.67-1.62,13l-.28,3.27-.19,3.26c-.15,2.19-.23,4.33-.32,6.5-.18,4.32-.29,8.67-.27,13a169.76,169.76,0,0,0,1.93,26.13,118.57,118.57,0,0,0,6.94,25.35c.76,2.06,1.71,4,2.59,6s1.88,3.95,2.93,5.87c2,3.88,4.25,7.62,6.6,11.29a202.55,202.55,0,0,0,15.55,20.87q4.17,5,8.55,9.75c1.47,1.58,3,3.17,4.51,4.7s3.1,3,4.76,4.45c13,11.61,28.3,20.13,44.17,26.79,4,1.69,8,3.32,12,4.76s8.2,2.69,12.38,3.78a104.18,104.18,0,0,0,25.64,3.44,93.41,93.41,0,0,0,25.7-3.35,107.3,107.3,0,0,0,12.33-4.22,85.58,85.58,0,0,0,22.15-13.84,94.64,94.64,0,0,0,9.37-9.2A138,138,0,0,0,275,280.75,120.64,120.64,0,0,0,281.15,269,110.23,110.23,0,0,0,286,256.69a128.65,128.65,0,0,0,5.59-26A141.53,141.53,0,0,0,292,204.13ZM117.42,57.75A82.7,82.7,0,0,1,142,54.27a113.72,113.72,0,0,1,24.64,3.18,142.65,142.65,0,0,1,23.52,8A88.36,88.36,0,0,1,201,71.27a122.5,122.5,0,0,1,10.05,7.14,167.32,167.32,0,0,1,18,17q4.2,4.56,8.21,9.29c1.33,1.57,2.7,3.18,4,4.76l1.89,2.38,1.8,2.44a134.76,134.76,0,0,1,12.27,21q2.63,5.52,4.92,11.22c1.53,3.79,2.94,7.65,4.36,11.52s2.75,7.8,4,11.67,2.35,7.8,3.35,11.73a142.34,142.34,0,0,1,4.31,47.9A115.42,115.42,0,0,1,264.79,275a118.06,118.06,0,0,1-6.21,10.32,114.41,114.41,0,0,1-7.15,9.67c-1.25,1.57-2.61,3-3.93,4.51s-2.74,2.86-4.21,4.18a71.62,71.62,0,0,1-9.23,7.36,75.62,75.62,0,0,1-10.29,5.76,87.48,87.48,0,0,1-11.16,4.1,83.28,83.28,0,0,1-35.49,2.57A99.1,99.1,0,0,1,165.29,321c-3.92-1-7.77-2.27-11.62-3.61s-7.65-2.93-11.43-4.54c-15.09-6.44-29.44-14.61-41.39-25.64-.77-.67-1.48-1.39-2.2-2.1s-1.46-1.4-2.17-2.13c-1.38-1.5-2.78-2.91-4.15-4.49-2.75-3.1-5.46-6.22-8.07-9.41a196.22,196.22,0,0,1-14.5-19.93c-2.16-3.49-4.25-7-6.09-10.66-.49-.9-.94-1.81-1.37-2.74L61,233c-.8-1.87-1.66-3.72-2.36-5.63a109.9,109.9,0,0,1-6.3-23.6,162.37,162.37,0,0,1-1.87-24.58q0-6.21.18-12.43c.15-4.16.3-8.3.64-12.41.14-2.07.39-4.12.58-6.18s.47-4.1.81-6.14c.59-4.08,1.39-8.14,2.36-12.15a103.58,103.58,0,0,1,8.48-23.18A112.92,112.92,0,0,1,70,96.13c1.21-1.69,2.35-3.43,3.62-5.06l1.87-2.49,2-2.41c1.29-1.63,2.72-3.13,4.08-4.7s2.84-3,4.37-4.44a85.62,85.62,0,0,1,9.49-8,77.12,77.12,0,0,1,10.57-6.54A65.33,65.33,0,0,1,117.42,57.75Z"/><path class="cls-5" d="M325.06,218.71a151.07,151.07,0,0,0-1.13-16.6,200.25,200.25,0,0,0-7-32.41,285,285,0,0,0-11.53-30.95,188.67,188.67,0,0,0-15.59-29.29,222.34,222.34,0,0,0-20.21-26.24c-3.67-4.11-7.42-8.14-11.3-12s-7.8-7.74-11.93-11.43a189.26,189.26,0,0,0-56-35.13c-5.12-2.08-10.41-3.84-15.68-5.41s-10.57-3-16-4.23a157.93,157.93,0,0,0-32.91-4.2,104,104,0,0,0-33,4.54,98.52,98.52,0,0,0-15.44,6.51,111.32,111.32,0,0,0-14.12,8.94,124.83,124.83,0,0,0-12.53,11A142.53,142.53,0,0,0,39.87,54.35a166.38,166.38,0,0,0-17.09,28.3c-9.52,20-14.23,42-15.15,63.91-.19,5.49-.22,11,0,16.48s.55,10.9,1,16.35A261.21,261.21,0,0,0,13,211.94a162.66,162.66,0,0,0,9.76,31.42,114.13,114.13,0,0,0,7.51,14.69,135.83,135.83,0,0,0,9.28,13.6A237.88,237.88,0,0,0,61.44,296c3.87,3.84,7.83,7.58,11.78,11.32l11.86,11.21c7.93,7.46,16,14.75,24.63,21.47q6.47,5,13.32,9.5a143.33,143.33,0,0,0,14.26,8,103.92,103.92,0,0,0,15.24,5.9A122.93,122.93,0,0,0,168.48,367a131.85,131.85,0,0,0,32.61,1,143.24,143.24,0,0,0,32-6.69c2.59-.86,5.17-1.77,7.71-2.76,1.27-.5,2.53-1.05,3.79-1.57l1.89-.8,1.85-.88a109.81,109.81,0,0,0,14.33-8c2.32-1.46,4.51-3.1,6.74-4.71,1.09-.82,2.15-1.7,3.23-2.55s2.12-1.73,3.15-2.64c2.11-1.77,4.06-3.7,6.05-5.6,1-1,1.9-2,2.85-3s1.87-2,2.77-3.06a121.37,121.37,0,0,0,10.05-13.08,137,137,0,0,0,8.37-14.23,173.2,173.2,0,0,0,18.6-63.1c.28-2.75.4-5.52.55-8.29S325.13,221.49,325.06,218.71Zm-20.91,64.12c-1.9,4.9-4.1,9.68-6.44,14.37a135.1,135.1,0,0,1-7.88,13.53,131.53,131.53,0,0,1-9.51,12.41,125,125,0,0,1-11.07,11,118.74,118.74,0,0,1-12.51,9.36A115.19,115.19,0,0,1,243,351l-3.59,1.57c-1.2.52-2.44,1-3.66,1.44-2.43,1-4.94,1.77-7.41,2.64a145.59,145.59,0,0,1-15.24,3.93c-20.57,4.06-42.22,3.3-62.14-3.23-1.22-.44-2.48-.79-3.68-1.3l-3.64-1.45c-2.37-1.09-4.77-2.13-7.08-3.38a126.35,126.35,0,0,1-13.52-8.12c-4.36-3-8.6-6.14-12.71-9.49s-8.15-6.81-12.11-10.38c-7.92-7.11-15.57-14.61-23.34-22S59.55,286.4,52.55,278.42c-3.5-4-6.87-8.08-10-12.35A141.41,141.41,0,0,1,34,252.78,136.8,136.8,0,0,1,22,223.48c-5.86-20.41-7.71-41.85-8.58-63.15-.7-21.25,2-42.75,9.14-62.86A145.21,145.21,0,0,1,28.8,82.75l1.84-3.56.91-1.78,1-1.75,2-3.49,2.08-3.42,1-1.71,1.11-1.67c.74-1.11,1.46-2.23,2.22-3.33,1.57-2.15,3.08-4.36,4.77-6.43s3.39-4.12,5.12-6.15,3.61-4,5.57-5.76,3.92-3.62,5.93-5.38,4.15-3.36,6.36-4.87a90.29,90.29,0,0,1,13.76-8.16A83.74,83.74,0,0,1,101,18.72c.13,0,.26-.07.4-.09.78-.18,1.57-.33,2.36-.48s1.3-.26,2-.37l1.18-.19c.94-.15,1.88-.3,2.83-.42l1.11-.12c.88-.11,1.77-.21,2.65-.29A127.21,127.21,0,0,1,145,18.32a211.38,211.38,0,0,1,31,8,174.69,174.69,0,0,1,55.33,31,238.88,238.88,0,0,1,23,22c3.6,3.91,7.15,7.86,10.53,11.94s6.66,8.25,9.77,12.52,6.06,8.66,8.83,13.14,5.29,9.11,7.67,13.79c1.19,2.34,2.29,4.73,3.39,7.12s2.16,4.85,3.15,7.3c2.08,4.88,4,9.83,5.77,14.8,7.23,19.84,12.09,40.61,12.25,61.54A162.32,162.32,0,0,1,304.15,282.83Z"/><path class="cls-6" d="M262.43,199.93a119.49,119.49,0,0,0-2-20.56,112.08,112.08,0,0,0-5.75-19.9,120.26,120.26,0,0,0-9.22-18.53,140.9,140.9,0,0,0-26.54-31.37,139.3,139.3,0,0,0-34.2-22.68c-12.49-5.73-26.32-9.22-40.3-8.6a69,69,0,0,0-20.45,4,77.77,77.77,0,0,0-18.43,9.51,85.19,85.19,0,0,0-26.78,31A96.46,96.46,0,0,0,71.35,142a102.43,102.43,0,0,0-3.14,20.25,135.93,135.93,0,0,0,4.23,40.41,157.68,157.68,0,0,0,6.29,19.31,134.87,134.87,0,0,0,34.59,49.43,134.11,134.11,0,0,0,15.9,12.43,135.78,135.78,0,0,0,17.52,10,105.92,105.92,0,0,0,18.91,6.9,81.42,81.42,0,0,0,19.95,2.71,61.24,61.24,0,0,0,37.9-12.3A75.2,75.2,0,0,0,238,276.71a100.83,100.83,0,0,0,10.71-17.36,138.68,138.68,0,0,0,12.28-38.9A126.67,126.67,0,0,0,262.43,199.93Zm-33.19,71.26a63,63,0,0,1-12.42,13.08A49.84,49.84,0,0,1,201,292.54a55.21,55.21,0,0,1-17.85,2.24c-12.17-.39-24.19-4.19-35.25-9.71A128.6,128.6,0,0,1,132,275.42a121.08,121.08,0,0,1-14.41-11.84,128.12,128.12,0,0,1-22.85-29.43,125.56,125.56,0,0,1-8-16.92,152.33,152.33,0,0,1-5.57-17.92,125.36,125.36,0,0,1-3.82-37.24,94.42,94.42,0,0,1,2.81-18.53A87.64,87.64,0,0,1,86.88,126a76.12,76.12,0,0,1,24.59-28.14c10.44-7,22.9-11.32,35.55-11.16s25,4,36.09,9.86a112.26,112.26,0,0,1,15.82,10.2,151.42,151.42,0,0,1,14.21,12.31,130.54,130.54,0,0,1,22.63,29.53,112.39,112.39,0,0,1,7.62,16.82,104.45,104.45,0,0,1,4.74,17.77,117,117,0,0,1,.43,36.7,129,129,0,0,1-10.23,35.4A92,92,0,0,1,229.24,271.19Z"/></svg>