<svg width="175" height="222" viewBox="0 0 175 222" fill="none" xmlns="http://www.w3.org/2000/svg">
<path fill-rule="evenodd" clip-rule="evenodd" d="M11.4366 105.503C23.6041 109.277 32.6234 103.792 42.4857 97.8215C45.9845 95.9908 57.6746 105.555 62.6505 107.7C77.4365 114.074 89.9621 107.013 102.532 98.8976C104.39 97.7991 105.815 96.7081 107.926 97.8514C117.177 105.6 130.016 110.196 142.325 106.161C147.532 104.352 152.202 101.857 156.051 98.8079C144.13 97.8589 138.184 90.8722 132.06 82.4732C128.65 82.4059 119.512 84.7373 116.155 84.8419C104.203 85.2081 96.3256 79.5141 89.4473 71.0777C74.1242 83.878 66.5074 87.4274 46.4396 76.3532C33.7648 88.8397 14.0402 93.2185 0.992415 78.7893C-1.49927 89.5122 0.268781 99.7942 11.4366 105.503Z" fill="#FF7733"/>
<path fill-rule="evenodd" clip-rule="evenodd" d="M173.754 78.9686C171.158 88.466 165.444 93.6369 156.611 94.4664C145.801 93.6668 140.751 86.6353 135.2 78.9686C133.134 76.4728 120.631 80.3285 115.998 80.4705C105.77 80.7844 99.153 75.718 93.6027 68.9256C102.07 73.0429 109.433 75.0754 119.019 70.2333L119.37 70.054L119.683 69.8223C128.546 63.4184 131.538 54.3021 130.225 44.1321C127.248 20.9153 103.965 6.48604 80.3162 2.66016C97.467 -2.309 115.163 -0.54551 133.216 9.83369C159.356 24.8458 180.431 54.8401 173.754 78.9686Z" fill="#FF7733"/>
<path fill-rule="evenodd" clip-rule="evenodd" d="M125.383 44.6851C126.599 54.0032 123.697 61.2066 116.684 66.2655C107.456 70.9283 100.772 67.4685 93.4684 63.7174C90.8723 62.6189 81.8903 72.0566 78.1005 74.4702C66.8506 81.6288 57.5627 77.2948 48.2599 72.0865C46.8873 71.399 45.8354 70.6667 44.224 71.8847C37.107 79.4991 27.3566 84.9316 18.1732 83.0934C3.67066 79.8802 -5.08008 67.6255 3.24544 51.2011C17.9121 23.4036 38.6438 6.37398 67.3131 6.17222C94.2816 5.98541 122.369 20.9602 125.383 44.6776V44.6851Z" fill="#FF7733"/>
<path fill-rule="evenodd" clip-rule="evenodd" d="M106.546 165.776C111.343 169.392 114.715 170.767 120.884 172.426C124.652 173.457 126.636 174.167 129.762 176.402C130.956 177.253 132.843 179.405 133.432 180.676C133.649 181.154 133.805 181.677 133.992 182.17C135.7 186.594 137.08 189.717 137.834 194.447C138.55 198.953 138.744 201.651 138.341 206.164C138.08 209.116 137.908 212.165 137.11 215.034C136.916 215.736 136.401 218.554 135.484 218.621C135.245 218.636 134.566 218.24 135.081 218.464C135.238 218.531 134.939 218.157 134.909 217.672C134.82 216.349 135.7 213.599 135.834 211.993C136.267 206.867 136.677 201.77 135.655 196.689C134.82 192.587 133.858 189.12 131.716 185.413C131.127 184.39 129.993 183.328 129.613 185.152C129.195 187.102 128.964 189.359 129.225 191.331C129.449 193.013 129.657 194.38 129.702 196.091C129.717 196.891 129.807 201.076 129.56 201.516C129.374 201.845 129.113 201.643 129.023 201.389C128.822 200.807 128.77 197.235 128.71 196.323C128.598 194.575 128.367 193.364 127.994 191.653C127.576 189.725 127.576 188.342 127.502 186.43C127.382 183.65 126.905 180.504 124.562 178.524C123.846 177.918 122.511 177.47 121.571 177.231C120.317 176.94 119.4 176.499 118.087 176.319L117.908 176.297C115.938 176.035 113.506 175.505 111.686 176.476C109.597 178.008 113.887 180.235 115.08 181.049C119.094 183.807 122.339 187.558 123.197 192.221C123.906 196.233 123.577 202.301 123.473 206.493C123.376 210.267 122.414 214.19 121.481 217.866C121.399 218.187 120.892 220.182 120.258 219.331C119.683 218.554 121.071 212.112 121.198 210.618C121.481 207.352 121.16 202.757 120.884 199.439C120.81 198.55 120.549 195.18 120.146 194.567C119.355 193.386 117.609 195.225 117.117 195.845C115.938 197.339 114.804 200.597 114.655 202.458C114.528 204.042 114.774 205.335 114.752 206.844C114.745 207.151 114.752 207.883 114.275 207.868C114.125 207.584 114.133 206.852 114.096 206.486C113.76 203.467 113.536 202.069 114.327 199.05C115.036 196.316 115.289 195.494 116.722 192.983C117.751 191.175 118.132 189.471 117.162 187.528C116.722 186.646 115.744 185.787 114.961 185.152C114.088 184.479 111.156 182.574 110.015 183C108.411 183.807 108.627 187.588 108.598 189.12C108.538 192.445 108.262 194.119 107.516 197.377C106.658 201.135 106.046 204.61 106.479 208.466C106.718 210.558 107.829 218.576 106.926 219.861C106.449 220.541 105.696 220.28 105.457 219.51C105.091 218.337 104.927 214.22 104.733 212.635C104.338 209.422 103.816 207.173 104.039 203.878C104.271 200.381 105.046 197.608 105.524 194.268C106.255 189.135 104.838 183.231 101.57 179.009C101.219 178.561 100.115 177.224 99.4737 177.313C98.4815 177.455 97.5117 179.891 97.3476 180.713C97.0268 182.327 97.3178 185.309 97.7131 186.923C98.3174 189.404 99.3768 192.557 98.6904 195.075C98.213 196.854 97.452 198.229 97.094 200.089C97.0119 200.508 96.7583 202.45 96.4151 202.607C95.7735 202.884 96.2137 200.747 96.251 200.47C96.5121 198.654 96.9 197.818 97.4371 196.114C98.0862 194.044 98.0116 192.968 97.4893 190.868C96.9746 188.791 96.1241 186.93 95.6616 184.83C95.2438 182.925 94.841 181.109 94.8037 179.159C94.7813 178.195 94.7142 176.103 93.2371 176.035C91.9465 175.983 91.3944 176.095 90.4843 176.955C87.9478 180.818 86.6721 182.544 85.8814 187.192C84.9563 192.602 86.2842 193.573 88.5297 198.243C91.5735 204.58 90.8871 209.445 90.902 216.103C90.902 216.82 90.9841 220.085 90.7901 220.496C90.3649 221.386 89.7606 220.399 89.6189 219.854C89.1564 218.113 89.1265 212.62 89.037 210.536C88.8132 204.909 87.8508 202.017 84.4565 197.309C83.1733 195.523 82.1438 193.999 81.077 192.079C80.0102 190.166 79.1672 190.188 78.0333 192.094C76.877 194.066 75.8848 197.235 75.3999 199.439C75.0343 201.135 76.116 202.764 76.489 204.468C76.7203 205.589 76.8621 206.598 77.1455 207.741C77.7274 210.132 78.1079 211.38 77.8916 213.898C77.7349 215.736 77.623 216.558 77.8617 218.434C77.9214 218.897 78.2571 220.788 77.996 221.117C77.6976 221.505 77.25 221.214 77.1157 220.788C76.8695 219.996 76.5487 217.216 76.5487 216.349C76.5487 213.771 77.0262 212.874 76.3473 210.162C76.1906 209.534 74.6091 204.042 74.154 207.479C74.0347 208.391 73.8631 209.235 73.7363 210.132C73.6393 210.797 73.5871 211.529 73.5199 212.202C73.4602 212.8 73.408 213.398 73.3558 213.995C73.2513 215.243 72.7441 220.601 71.8638 221.214C70.7597 221.976 70.5657 219.906 70.5508 219.353C70.4762 217.395 70.7522 215.086 70.7597 213.031C70.7671 209.086 71.0058 205.066 71.0954 201.105C71.3416 193.715 75.5118 187.715 77.0859 180.773C77.2724 179.921 77.3917 179.189 77.3992 178.329C77.3395 177.179 77.0486 176.372 76.3846 175.408C75.9818 174.862 75.191 174.862 74.542 175.049C71.446 176.2 70.4016 177.395 69.2378 180.257C67.8427 183.784 67.5966 187.423 66.3283 191.085C64.7617 195.613 63.0757 199.334 62.0835 204.094C61.2927 207.853 60.8377 211.387 61.2778 215.221C61.345 215.774 62.1133 220.055 60.6288 219.6C59.8828 219.368 59.8604 217.223 59.7634 216.499C59.4277 213.883 59.2785 212.68 59.4501 209.975C59.7932 204.431 61.0466 200.029 62.8295 194.761C64.1276 190.928 65.7688 186.108 64.1127 182.155C63.7695 181.318 63.3219 180.661 62.2849 181.057C61.7851 181.303 61.4046 181.685 61.0167 182.051C60.6213 182.439 60.2409 182.828 59.8678 183.224C57.1747 186.101 56.0035 188.559 54.5413 192.049C51.9228 198.303 51.4752 206.456 52.0123 213.099C52.072 213.906 52.7285 219.069 51.8631 219.136C50.4681 219.234 50.4233 215.647 50.3412 214.75C49.7519 208.951 49.834 204.184 50.7963 198.423C51.3857 194.881 52.2809 192.407 53.6163 189.075C54.4592 186.96 55.3097 184.89 56.1825 182.783C57.682 179.144 55.2724 179.996 52.8702 181.147C50.6024 182.282 48.6851 183.799 46.7902 185.398C45.3653 186.631 44.5969 187.528 44.4179 189.389C44.2314 191.302 45.1415 193.244 45.3728 195.21C45.5966 197.1 45.5891 199.514 45.5668 201.434C45.5593 202.084 45.4474 205.977 45.2087 206.261C44.9177 206.613 44.6566 206.03 44.6044 205.798C44.4328 205.081 44.5074 203.056 44.4925 202.204C44.4403 200.186 44.1419 196.114 43.0154 194.44C42.2097 193.244 41.3742 193.05 40.8445 194.537C40.1955 196.345 39.7478 198.258 39.4793 200.141C38.9123 204.221 38.7183 208.257 38.7855 212.366C38.8004 213.069 39.0466 217.119 37.7187 216.962C36.816 216.85 36.816 213.674 36.7638 212.949C36.5773 210.431 36.4803 208.428 36.5027 205.895C36.5773 196.749 36.8757 193.304 40.4789 187.386C42.5006 184.068 45.8726 181.169 49.0581 178.8C52.3928 176.334 54.2056 175.714 58.0327 174.257C62.5684 172.531 65.0974 168.458 67.4623 164.692C68.0218 163.796 68.4769 162.981 68.9021 162.047C74.6837 149.703 74.8851 139.331 70.1032 126.688C69.4467 125.215 67.9546 125.014 66.4626 124.573C64.426 123.968 62.464 123.146 60.487 122.376C58.7638 121.703 57.033 120.695 55.444 119.776C53.3701 118.58 51.2738 117.003 49.5952 115.367C48.4613 114.253 47.5661 113.387 46.559 112.169C45.0744 110.39 43.4257 108.709 42.2022 106.751C41.9859 106.407 40.5535 103.986 40.5162 103.785C40.4566 103.493 40.7475 103.508 40.9638 103.74C41.3965 104.188 42.2545 105.765 42.6946 106.415C43.5078 107.625 44.2016 108.395 45.1863 109.464C46.1188 110.48 47.0886 111.571 48.0584 112.55C48.9238 113.424 50.0951 114.433 51.0723 115.217C52.0795 116.032 52.7583 116.555 53.9072 117.242C55.3172 118.079 56.4138 118.58 57.9058 119.215C59.4799 119.895 60.3528 120.224 62.091 120.59C63.3219 120.844 66.0598 121.494 67.1788 120.949C67.6935 120.695 67.3802 120.276 67.1937 119.895C66.5223 118.498 65.4928 116.921 64.4558 115.733C64.2619 115.509 64.0604 115.3 63.8516 115.083C62.188 113.431 60.0469 112.049 58.0103 110.824C53.4447 105.555 64.6125 111.025 65.463 111.571C70.8566 115.06 74.8478 124.192 78.2496 129.086C81.8827 135.341 84.74 127.92 82.9943 121.995C81.7857 117.922 82.6511 116.129 81.9424 112.049C81.8827 111.683 81.6888 111.182 81.4277 110.614H81.5097C84.0163 110.614 86.411 110.091 88.5969 109.135C87.9851 113.035 88.5372 117.19 89.9098 120.814C90.6036 122.63 92.2449 128.615 93.7294 122.488C95.0648 120.142 95.6243 116.712 96.3629 114.104C96.7135 112.864 97.094 111.81 97.5639 110.614C97.9743 109.576 97.6087 109.082 97.4073 108.059C97.2954 107.491 97.2133 106.863 97.1163 106.288C97.0343 105.81 96.7284 104.083 97.0194 103.717C97.4073 103.217 98.0116 103.807 98.2503 104.128C98.5785 104.577 99.3022 106.206 99.9437 106.116C100.145 106.086 100.511 105.578 100.69 105.391C101.883 104.181 103.592 103.164 104.927 102.036L105.024 101.954C107.352 100.87 112.074 97.9635 107.814 102.656C102.622 108.388 101.883 110.36 101.093 117.392C101.025 117.975 100.608 120.866 101.376 121.076C102.324 121.337 105.375 118.303 106.046 117.736C107.15 116.809 108.254 115.987 109.433 115.143C110.388 114.44 111.328 113.491 112.178 112.662C112.798 112.071 113.253 111.369 113.782 110.704C114.125 110.271 114.469 109.83 114.804 109.389C115.267 108.806 116.863 106.43 117.557 106.318C118.072 106.243 118.049 106.818 117.93 107.147C117.721 107.722 117.169 108.537 116.856 109.142C116.684 109.471 116.065 110.584 116.095 110.891C116.192 112.056 120.787 111.025 121.489 110.831C122.943 110.428 124.167 110.024 125.547 109.419C125.823 109.292 126.942 108.769 127.151 109.202C127.322 109.561 126.069 110.136 125.793 110.286C124.555 110.951 123.085 111.533 121.772 112.034C119.758 112.811 117.602 113.431 115.55 114.171C113.051 115.075 113.081 115.658 111.619 117.571C111.544 117.668 111.462 117.773 111.38 117.878C110.962 118.408 110.545 118.931 110.119 119.447C107.344 122.832 107.143 125.656 104.174 128.72C100.182 132.837 100.712 132.314 100.421 137.313C99.9214 145.66 99.0112 158.946 106.591 165.776H106.546Z" fill="white"/>
</svg>
