<svg id="Calque_1" data-name="Calque 1" xmlns="http://www.w3.org/2000/svg" viewBox="0 0 71.43 71.42"><defs><style>.cls-1{fill:#010101;}</style></defs><path class="cls-1" d="M43.8,37.64A1.13,1.13,0,0,0,45.14,37l8-20.12v0A16.59,16.59,0,0,0,52.47,3.6L51,.63A1.13,1.13,0,0,0,49.45.12a1.09,1.09,0,0,0-.54.58l-13.19,32L22.52.7A1.13,1.13,0,0,0,21,.09a1.11,1.11,0,0,0-.58.53L19,3.6a16.59,16.59,0,0,0-.73,13.22v0L26.29,37a1.14,1.14,0,0,0,1.35.67L30.17,37l1.3,1.41-1.25,1.24-1.31-.34A3.81,3.81,0,0,0,24.25,42h0l-1.59,6.16h0L17.57,67.64A1.13,1.13,0,0,0,18.38,69h0l9.06,2.37a1.17,1.17,0,0,0,.86-.12,1.14,1.14,0,0,0,.52-.7L35.5,45a3.83,3.83,0,0,0-2.73-4.67L34.1,39h3.23l1.34,1.31A3.84,3.84,0,0,0,35.94,45l6.67,25.6a1.15,1.15,0,0,0,1.39.82L53.06,69a1.13,1.13,0,0,0,.8-1.38h0L48.78,48.19h0L47.19,42a3.82,3.82,0,0,0-4.67-2.74l-1.3.34L40,38.39,41.28,37ZM28,35.19,20.35,16A14.34,14.34,0,0,1,21,4.63l.38-.77L33.7,33.72Zm10.4,1.52H33l-.34-.38,2.87-.74.19-.07.18.07,2.88.75Zm-.69-3L50.06,3.86l.38.77A14.34,14.34,0,0,1,51.08,16L43.4,35.19Z"/></svg>