<svg id="Calque_1" data-name="Calque 1" xmlns="http://www.w3.org/2000/svg" viewBox="0 0 71.43 71.42"><defs><style>.cls-1{fill:#010101;}</style></defs><path class="cls-1" d="M70.25,65.12,56.06,50.94a31.43,31.43,0,1,0-5.29,5.29L65,70.41a3.45,3.45,0,0,0,4.88,0l.41-.4a3.46,3.46,0,0,0,0-4.89ZM45.94,34.92a20.52,20.52,0,0,1-29,0A22.52,22.52,0,0,1,15.32,33,20.89,20.89,0,0,1,17,31.17,20.44,20.44,0,0,1,27.3,25.59a7.18,7.18,0,1,0,8.3,0,20.5,20.5,0,0,1,10.34,5.57A20.71,20.71,0,0,1,47.57,33,22.4,22.4,0,0,1,45.94,34.92Z"/></svg>