<svg id="Calque_1" data-name="Calque 1" xmlns="http://www.w3.org/2000/svg" viewBox="0 0 71.43 71.42"><defs><style>.cls-1{fill:#010101;}.cls-2{fill:#fff;}</style></defs><path class="cls-1" d="M12.54,31.31a.73.73,0,0,0-.18,1l3.4,5a.76.76,0,0,0,1,.18l1.59-1.1-4.24-6.16ZM20,36.07l3.48,6.4H35.91l3.44-2.38a.67.67,0,0,0,0-1.19L28.2,30.26l-4.91-7.14a.69.69,0,0,0-1-.19l-7.1,4.89a.73.73,0,0,0-.19,1ZM65.82,3.69C65.49,1.38,64.48,0,63.14,0a2,2,0,0,0-.72.13C55.62,2.6,42.3,10.82,37,14.47L24.87,22.82,29.12,29l4.14-2.85a10.13,10.13,0,0,0,2.28-2.34,6.23,6.23,0,0,1,.9-1C41.81,18.29,59.72,10.61,64.11,9.3,65.89,8.77,66.11,5.66,65.82,3.69Z"/><path class="cls-2" d="M5.5,69.11c4.74-.9,9.14-1.77,13.55-2.55a5.88,5.88,0,0,1,3.06,0c3.55,1.44,7,3.07,10.49,4.69a1.66,1.66,0,0,0,1.78-.15q4.41-2.65,8.88-5.2a1.68,1.68,0,0,1,1.22-.15c2.26.72,4.48,1.52,6.73,2.27,1.73.58,3.48,1.12,5.49,1.77-5.72-8-9.19-16.46-9.87-25.87a47.73,47.73,0,0,1-32,0C14.33,53.07,12.18,61.77,5.5,69.11Z"/><path d="M5.5,69.11c6.68-7.34,8.83-16,9.34-25.2,13.11.57,19.34.46,32,0,.68,9.41,4.15,17.91,9.87,25.87-2-.65-3.76-1.19-5.49-1.77-2.25-.75-4.47-1.55-6.73-2.27a1.68,1.68,0,0,0-1.22.15q-4.47,2.55-8.88,5.2a1.66,1.66,0,0,1-1.78.15c-3.47-1.62-6.94-3.25-10.49-4.69a5.88,5.88,0,0,0-3.06,0C14.64,67.34,10.24,68.21,5.5,69.11Z"/></svg>