<svg id="Calque_1" data-name="Calque 1" xmlns="http://www.w3.org/2000/svg" viewBox="0 0 71.43 71.42"><defs><style>.cls-1{fill:#010101;}</style></defs><path class="cls-1" d="M61.56,51.61H25a8.64,8.64,0,1,0,0,17.27H61.56a8.64,8.64,0,0,0,0-17.27ZM25,64.54h0a4.32,4.32,0,1,1,4.3-4.33A4.32,4.32,0,0,1,25,64.54Zm40.92-4.3a4.3,4.3,0,0,1-4.31,4.3h0a4.32,4.32,0,1,1,4.31-4.31Z"/><path class="cls-1" d="M12.16,36.6l1.39-20.8,15.7,25.48v6.47A2.15,2.15,0,0,0,31.4,49.9H68a2.15,2.15,0,0,0,2.15-2.15A23.45,23.45,0,0,0,68,37c-2.16-4.3-6.47-4.3-8.64-4.3H50.76V19.74h-15a2.1,2.1,0,0,0-2.15,2.07.24.24,0,0,0,0,.12l-.36,1.82-1.31,7L14,9.21l.16-2.35A4.63,4.63,0,0,0,9.85,2.55,4.63,4.63,0,0,0,5.54,6.86L7.28,32.77C5,33.72,1.23,41.4,1.23,43.44a4.64,4.64,0,0,0,4.31,4.31h12.9S13.16,42.41,12.16,36.6Zm25.61-14h9.58v9.88H35.29c.49-4.19,1.12-7.56,1.2-8.68A1.29,1.29,0,0,1,37.77,22.55Z"/></svg>