<svg id="Calque_1" data-name="Calque 1" xmlns="http://www.w3.org/2000/svg" viewBox="0 0 71.43 71.42"><defs><style>.cls-1{fill:#010101;}</style></defs><path class="cls-1" d="M7.7.05A2.55,2.55,0,0,0,5.15,2.59V68.83A2.55,2.55,0,0,0,7.7,71.37h56a2.55,2.55,0,0,0,2.55-2.54V2.59A2.55,2.55,0,0,0,63.74.05ZM61.19,66.28H10.24V5.14H61.19Z"/><path class="cls-1" d="M38.26,17.88H53.55a2.55,2.55,0,1,0,0-5.1H38.26a2.55,2.55,0,0,0,0,5.1Z"/><path class="cls-1" d="M38.26,38.26H53.55a2.55,2.55,0,0,0,0-5.1H38.26a2.55,2.55,0,0,0,0,5.1Z"/><path class="cls-1" d="M38.26,57.36H53.55a2.55,2.55,0,1,0,0-5.09H38.26a2.55,2.55,0,0,0,0,5.09Z"/><path class="cls-1" d="M19.72,22.17a2.54,2.54,0,0,0,1.85.8h.06a2.51,2.51,0,0,0,1.87-.89L30,14.44a2.55,2.55,0,1,0-3.88-3.31l-4.66,5.48-1.75-1.85A2.54,2.54,0,0,0,16,18.25Z"/><path class="cls-1" d="M19.72,41.28a2.54,2.54,0,0,0,1.85.8h.06a2.55,2.55,0,0,0,1.87-.89L30,33.55a2.55,2.55,0,0,0-3.88-3.32h0l-4.66,5.48-1.75-1.85A2.55,2.55,0,0,0,16,37.35Z"/><path class="cls-1" d="M19.72,60.38a2.54,2.54,0,0,0,1.85.8h.06a2.51,2.51,0,0,0,1.87-.89L30,52.65a2.55,2.55,0,1,0-3.88-3.31l-4.66,5.48L19.73,53A2.54,2.54,0,0,0,16,56.46Z"/></svg>