<svg id="Calque_1" data-name="Calque 1" xmlns="http://www.w3.org/2000/svg" viewBox="0 0 71.43 71.42"><defs><style>.cls-1{fill:#010101;}</style></defs><path class="cls-1" d="M31.55,12.13A2.38,2.38,0,0,0,29.44,14L23.53,40.24l-3.25-4.88a2.36,2.36,0,0,0-2-1.07H2.45a2.38,2.38,0,0,0-.07,4.76H17l5.65,8.47a2.38,2.38,0,0,0,4.31-.8l4.41-19.64,5.17,32.18a2.38,2.38,0,0,0,4.68.12l5.85-27.22,3.24,5.7a2.38,2.38,0,0,0,2.06,1.21l16.64,0a2.38,2.38,0,0,0,.07-4.76H69l-15.25,0-5.68-9.91a2.37,2.37,0,0,0-3.24-.88,2.4,2.4,0,0,0-1.14,1.55L39.25,45.93,34.13,14.11a2.38,2.38,0,0,0-2.58-2Z"/></svg>