<svg id="calque" xmlns="http://www.w3.org/2000/svg" viewBox="0 0 500 500"><defs><style>.cls-1,.cls-3{fill:#472b22;}.cls-1{opacity:0.1;}.cls-2{fill:#bf620c;}.cls-4{fill:#8cc63f;}.cls-5{fill:#548c0a;}.cls-6{fill:#6d89aa;}.cls-7{fill:#fff;}.cls-8{fill:#44322d;}.cls-9{fill:#e6e6e6;}.cls-10{fill:#ccc;}</style></defs><path class="cls-1" d="M442.66,381.49c8.39-4.81,9.57-9.88,12.23-16,1.56-6.44,1.69-7.22,1.3-10.93C453.14,322.29,445,288,459,258.8c6.77-14.18,18.15-25.5,27.19-38.38s15.88-28.95,11.65-44.1c-5.14-18.48-37-22.64-49.9-36.89-8.46-9.3-14.37-20.62-22.25-30.44S407,90.58,394.46,90c-18.09-.84-20,8.65-37.8,12.3-18.15,3.7-36.43-5.73-51.19-17s-19.06-33.64-36.24-40.66c-18.93-7.81-49.37,2.08-69.28-2.6-18.15-4.3-34.87-13.34-52.89-18.15s-39.16-4.56-53.15,7.8C75.7,47.84,77.13,76.59,65.49,98c-10.8,19.84-31.95,31.68-46.19,49.25-25.63,31.55-24.79,79.82-3.06,114.17S77.39,316.51,117.66,322c18.15,2.41,36.88,2.08,54.32,7.68,46.77,14.83,74.55,68,122.3,79,30.31,7,59.85-5.14,85.67-20.11C402.46,375.51,419.31,391.19,442.66,381.49Z"/><path class="cls-2" d="M342.87,243.71c-4.68,3.45-6.76,9.43-8.13,15.09s-2.34,11.65-5.66,16.46c-4.55,6.51-12.88,10-16.07,17.24-4.75,10.8,4.3,24.07-.71,34.74-2.74,5.72-8.72,9-13.53,13.14a39.7,39.7,0,0,0-13.41,25.44c-.78,7.15.33,14.44-.78,21.46S279.05,401.79,272,403c11.45,2.92,26.48-2.09,34.87-13.73,3.91-5.4,5.86-11.91,9.76-17.3,7.94-11.06,23.48-16.07,28-28.82,4.68-13.14-4.82-28.43.65-41.25,2-4.68,5.72-8.45,7.48-13.2,2.73-7.35.19-15.48-2.86-22.64S342.74,251.52,342.87,243.71Z"/><path class="cls-3" d="M342.29,249.89c-3.13,10.08,2.86,20.3,1.62,30.58a19.2,19.2,0,0,1-2.47,7.22,76.37,76.37,0,0,1-5.46,7.22,20.68,20.68,0,0,0-3.71,7.28,24.52,24.52,0,0,0-.65,7.29c.45,10.15,4.81,20.62.84,30.51-4.68,11.84-17.63,16.91-25.63,26-4.29,5-6.37,11.12-8.72,17.17-2.14,5.6-4.94,11.32-9.82,15a16.9,16.9,0,0,1-3.77,2.08c-.85.39-1.37-1-.52-1.37,5.72-2.27,9.3-7.93,11.64-13.4,2.47-5.79,4.1-12,7.68-17.3,7-10.35,20.1-14.9,26.41-25.83,5.53-9.56,1.5-20.36.65-30.51a25,25,0,0,1,2.15-14.25c2.73-5.2,7.87-8.91,9.43-14.7,1.3-4.81.46-10-.45-14.83s-2-10.08-1.37-15.16a21.64,21.64,0,0,1,.78-3.57C341.24,248.39,342.55,249,342.29,249.89Z"/><path class="cls-4" d="M325,446.55c15.61-5.27,33.31,5.66,48.73,0a18.56,18.56,0,0,0,9.62-7.62,12.66,12.66,0,0,0,.72-11.9c-2.73-5.4-9.37-7.48-15.42-8.33s-12.49-1-17.43-4.55c-.33-4.62,3.77-8.65,8.26-9.95s9.24-.65,14-.26a97.87,97.87,0,0,0,23.87-1c8-1.3,17-4.68,19.26-12.49,2.34-8.13-4.75-16.52-12.88-18.86s-16.85-.33-25.05,1.56c-3.19.71-7.48,1-9-2-1.69-3.44,2.21-6.89,5.66-8.58,8.85-4.49,18-8.46,25.89-14.51s14.38-14.64,15.29-24.52-5.33-20.76-15.09-22.77c-6.83-1.37-14,1.75-19,6.57s-8.26,11.25-11.06,17.56a214.52,214.52,0,0,0-9.43,25.76,20.35,20.35,0,0,1-2.67,6.38,5.64,5.64,0,0,1-7.67,2.21,5.56,5.56,0,0,1-2.93-4.55,20.61,20.61,0,0,1,.26-7.22c1.3-8.07,1.82-17.57-4.23-23.1-5.33-4.94-14.24-4.36-20,0s-8.59,11.78-9.11,19.06,1.17,14.44,2.86,21.47,3.58,14.18,3.58,21.4a10.14,10.14,0,0,1-1,5.14,3.94,3.94,0,0,1-4.49,1.89,5.34,5.34,0,0,1-2.67-3.84c-1.69-6.44-.71-13.21-1.1-19.84s-2.54-13.92-8.33-17.18-13.86-1-18.48,4.1c-6.83,7.42-7.15,18.93-4.35,28.63s8.19,18.41,11.84,27.84,5.2,20.43.45,29.34c-2.28,4.23-5.92,8.26-3.84,13.33,1.77,4.17,5.53,5.14,9.63,4.36C309.24,458.39,315.94,449.6,325,446.55Z"/><path class="cls-3" d="M298.31,368.74a111.94,111.94,0,0,0,11.12,47.69A115.78,115.78,0,0,0,316,428.07c6.57-9.56,13.08-19.25,19.65-28.88l5.79-8.52h0a98.42,98.42,0,0,1-10.28-43.39,116,116,0,0,1,.72-12.63c.13-1,1.75-.78,1.62.27a95.87,95.87,0,0,0,9.11,54.25c10.67-15.48,21.6-30.77,33.44-45.41,8.06-9.95,16.52-19.64,25.5-28.75.71-.78,2,.26,1.3,1a469.54,469.54,0,0,0-43.72,52.56c-4.16,5.79-8.32,11.58-12.36,17.44a131.07,131.07,0,0,0,47.23,0,133,133,0,0,0,13.34-3.26c1-.32,1.63,1.24.58,1.57a130.93,130.93,0,0,1-48.4,5.2,133.69,133.69,0,0,1-13.66-1.82.23.23,0,0,1-.19-.07c-8.52,12.3-16.92,24.79-25.37,37.15a113.52,113.52,0,0,0,40.27,7.8c4,0,7.87-.13,11.84-.52a.84.84,0,0,1,.94.68.82.82,0,0,1-.68.94h-.07a114.37,114.37,0,0,1-42-3.71c-3.78-1-7.55-2.34-11.26-3.77-7,10.34-14.18,20.56-21.6,30.7-.65.85-1.88-.19-1.3-1,6.25-8.58,12.43-17.37,18.48-26.15a113.52,113.52,0,0,1-17.31-46.45,115,115,0,0,1-1-14.24C296.68,367.83,298.31,367.64,298.31,368.74Z"/><path class="cls-5" d="M375.07,477a41.69,41.69,0,0,0-4.23-16,22.9,22.9,0,0,0-12-11c-5.21-1.82-12-1.49-16.07,2.28,0-13-5.85-26.15-16.13-34s-25.05-10.15-36.82-4.69-21,18.93-19.13,31.88a19.81,19.81,0,0,0-23.87,30.84C292.13,477.06,330.84,477.58,375.07,477Z"/><path class="cls-3" d="M305.47,429.24c0-4.1,0-8.19-.13-12.29a.78.78,0,0,0-.85-.65.82.82,0,0,0-.65.65c.13,14.31.19,28.62.32,42.93,0,4.1.07,8.2.07,12.3,0,1,1.56,1,1.5,0C305.75,457.93,305.6,443.62,305.47,429.24Z"/><path class="cls-3" d="M290.18,433.6c-1.11-3.58-2.15-7.16-3.12-10.8a.78.78,0,0,0-1.5.39c3.45,12.69,7.87,25.11,10.8,37.93.84,3.64,1.49,7.35,2,11.06.13,1,1.62.58,1.49-.39C298.05,458.65,294,446.16,290.18,433.6Z"/><path class="cls-3" d="M293.39,471.14A223.86,223.86,0,0,0,278.1,440.5c-.52-.85-1.82-.13-1.3.71a216.67,216.67,0,0,1,15.29,30.64C292.39,472.79,293.76,472.05,293.39,471.14Z"/><path class="cls-6" d="M285,471.79a211.48,211.48,0,0,0-20.56-23.88c-.65-.71-1.75.33-1.1,1a212.26,212.26,0,0,1,20.36,23.55C284.28,473.28,285.62,472.57,285,471.79Z"/><path class="cls-6" d="M275.28,471.14A239.42,239.42,0,0,0,252.9,453.9c-.78-.52-1.56.71-.78,1.3a253.44,253.44,0,0,1,22.06,17C275,472.79,276,471.72,275.28,471.14Z"/><path class="cls-3" d="M325.44,427l-16.27,44.49c-.32.91,1.11,1.3,1.43.46l16.27-44.5C327.26,426.44,325.83,426.05,325.44,427Z"/><path class="cls-3" d="M332.72,442.38c-6,9.7-12,19.32-18,29a.76.76,0,0,0,1.24.88.27.27,0,0,0,.06-.1h0l18-29a.76.76,0,0,0-.34-1,.78.78,0,0,0-1,.24Z"/><path class="cls-3" d="M344.3,454c-7.22,6.18-14.76,12.1-22.51,17.63-.78.52,0,1.88.72,1.3,7.87-5.66,15.48-11.58,22.83-17.89C346.08,454.48,345,453.38,344.3,454Z"/><path class="cls-3" d="M359.78,458.32a271.54,271.54,0,0,1-27.45,13.08c-.91.39-.13,1.69.72,1.3a272.57,272.57,0,0,0,27.45-13.08.73.73,0,0,0,.14-1h0A.66.66,0,0,0,359.78,458.32Z"/><path class="cls-7" d="M43.3,255.62a12.36,12.36,0,0,1,5.21-7.29c2.6-1.56,7-2.67,9.23-.72a14.6,14.6,0,0,1,4.1-14.7c4-3.64,9.24-5.4,14.25-3.32A34.69,34.69,0,0,1,100.29,204,38.39,38.39,0,0,1,135,211.84c9.43,7.93,14.18,20,14.31,32.26a25.19,25.19,0,0,1,16.78,6.12,26.22,26.22,0,0,1,8.39,16.06H42.78C42.94,263.32,42.65,258.54,43.3,255.62Z"/><path class="cls-7" d="M293,176.15a37,37,0,0,1,18.86.71,15.27,15.27,0,0,1,8.91-12.16c4.82-2.08,10.93-2.15,15.1.91a89.42,89.42,0,0,1-.92-19.13,28.76,28.76,0,0,1,7.23-17.37,27.19,27.19,0,0,1,19-7.67A34.78,34.78,0,0,1,390.29,137c6.31,9.62,6.58,22.5,1.76,32.91a23.12,23.12,0,0,1,17.7,2.08c5.2,3.19,9.23,10.8,8.19,16.79H277.43C279.08,182.56,286.8,177.49,293,176.15Z"/><path class="cls-3" d="M108.44,423.61c-.16-.17-16.28-17.54-16.74-36a35.87,35.87,0,0,0-7.48-21.22,58.74,58.74,0,0,0-7.5-7.95l.43-.49A59,59,0,0,1,84.74,366a36.48,36.48,0,0,1,7.61,21.59c.45,18.2,16.41,35.39,16.57,35.56Z"/><path class="cls-4" d="M76.61,346.59c1.24,2.47.39,12,.39,12s-8.13-4.95-9.37-7.42a5,5,0,1,1,8.72-5.07h0A3.6,3.6,0,0,0,76.61,346.59Z"/><path class="cls-4" d="M91,356.58c-.33,2.8-6.18,10.28-6.18,10.28s-4.17-8.59-3.84-11.32a5,5,0,0,1,10,1Z"/><path class="cls-4" d="M102.5,380.26C100.87,382.47,92,386,92,386s.78-9.5,2.41-11.71a5,5,0,0,1,7.09-.71A5,5,0,0,1,102.5,380.26Z"/><path class="cls-4" d="M107.18,400.16c-1.23,2.48-9.36,7.42-9.36,7.42s-.85-9.5.39-12a5,5,0,0,1,9.23,4,3.16,3.16,0,0,1-.26.52Z"/><path class="cls-4" d="M75.57,372.06c2.67.85,11.84-1.56,11.84-1.56s-6.18-7.22-8.85-8.07a5.06,5.06,0,0,0-3.51,9.5h0A3,3,0,0,0,75.57,372.06Z"/><path class="cls-4" d="M81.36,395.28c2.8,0,10.86-5,10.86-5s-8.06-5-10.86-5.08a5.09,5.09,0,0,0-5.08,5.08A5.16,5.16,0,0,0,81.36,395.28Z"/><path class="cls-4" d="M90.08,417.08c2.73.45,11.57-3.13,11.57-3.13s-7.09-6.31-9.82-6.83a5.06,5.06,0,0,0-1.75,10Z"/><path class="cls-8" d="M4.56,477.25,20,477l15.48-.19,31-.39,61.93-.46c20.62-.2,41.31-.2,61.93-.26l61.93-.07,61.93.07,31,.13,15.49.06,15.48.14,61.93.45,31,.39,15.49.2,15.48.26-15.48.26-15.49.19-31,.39-61.93.46-15.48.13-15.49.06-31,.13-61.93.07-61.93-.07c-20.62-.06-41.31-.13-61.93-.26l-61.93-.45-31-.39L20,477.64Z"/><path class="cls-8" d="M262.92,83.12H139.71a36.43,36.43,0,0,0-36.43,36.43v11.13a1.67,1.67,0,0,0-2.07,1.13v0a1.15,1.15,0,0,0-.07.45V141a1.68,1.68,0,0,0,1.67,1.69h0a1,1,0,0,0,.45-.06v12.95a1.67,1.67,0,0,0-2.07,1.13v0a1.15,1.15,0,0,0-.07.45v21.4a1.69,1.69,0,0,0,1.67,1.7h0a1.15,1.15,0,0,0,.45-.07V188a1.67,1.67,0,0,0-2.07,1.13v0a1.15,1.15,0,0,0-.07.45V211a1.69,1.69,0,0,0,1.67,1.69h0a1,1,0,0,0,.45-.07V438.9a36.43,36.43,0,0,0,36.43,36.43H262.92a36.43,36.43,0,0,0,36.43-36.43V119.59A36.46,36.46,0,0,0,262.92,83.12ZM291.67,438.9a28.75,28.75,0,0,1-28.75,28.75H139.71A28.75,28.75,0,0,1,111,438.9V119.59a28.75,28.75,0,0,1,28.75-28.75H262.92a28.75,28.75,0,0,1,28.75,28.75V438.9Z"/><path class="cls-8" d="M262.92,478.9H139.71a40,40,0,0,1-40-40V215.27a6.53,6.53,0,0,1-.63-.55A5.21,5.21,0,0,1,97.56,211v-21.3a4.46,4.46,0,0,1,.23-1.61,5.13,5.13,0,0,1,1.91-2.72v-2.57a5.21,5.21,0,0,1-2.14-4.26v-21.3a4.59,4.59,0,0,1,.22-1.6,5.18,5.18,0,0,1,1.92-2.73v-7.69a5.49,5.49,0,0,1-.63-.56,5.19,5.19,0,0,1-1.51-3.72v-8.55a4.59,4.59,0,0,1,.22-1.6,5.25,5.25,0,0,1,1.92-2.73v-8.5a40.06,40.06,0,0,1,40-40H262.93a40.11,40.11,0,0,1,40,40.05V438.9A40,40,0,0,1,262.92,478.9ZM106.86,207.52V438.9a32.89,32.89,0,0,0,32.85,32.85H262.92a32.89,32.89,0,0,0,32.85-32.85V119.59A32.93,32.93,0,0,0,262.92,86.7H139.71a32.89,32.89,0,0,0-32.85,32.85v15.89l-2.15-.62v3.42l2.15-.78V160.3l-2.15-.63v16.17l2.15-.78v17.69l-2.15-.62v16.18ZM104.71,211v0Zm0-32.47v0Zm0-37.59v0Zm158.21,330.3H139.71a32.38,32.38,0,0,1-32.33-32.33V119.59a32.38,32.38,0,0,1,32.33-32.33H262.92a32.37,32.37,0,0,1,32.33,32.33V438.9A32.38,32.38,0,0,1,262.92,471.23ZM139.71,94.41a25.21,25.21,0,0,0-25.17,25.18V438.9a25.2,25.2,0,0,0,25.17,25.17H262.92A25.22,25.22,0,0,0,288.1,438.9V119.59a25.23,25.23,0,0,0-25.18-25.18Z"/><path class="cls-9" d="M262.92,471.92H139.71a33.11,33.11,0,0,1-33.05-33.05V119.59a33.11,33.11,0,0,1,33.05-33H262.92A33.11,33.11,0,0,1,296,119.59V438.87A33.11,33.11,0,0,1,262.92,471.92Z"/><path class="cls-7" d="M266,466.78H136.72a22.24,22.24,0,0,1-22.25-22.22V113.93a22.24,22.24,0,0,1,22.22-22.25h16.88a3.71,3.71,0,0,1,3.71,3.71,10.87,10.87,0,0,0,10.86,10.86h64.75a10.88,10.88,0,0,0,10.87-10.86,3.71,3.71,0,0,1,3.7-3.71h18.61a22.24,22.24,0,0,1,22.25,22.22V444.46A22.45,22.45,0,0,1,266,466.78Z"/><path class="cls-7" d="M206.91,107.62H191.49A1.68,1.68,0,0,1,189.8,106v0a1.72,1.72,0,0,1,1.69-1.69h15.42a1.69,1.69,0,0,1,0,3.38Z"/><circle class="cls-7" cx="217.64" cy="106.32" r="0.85"/><rect class="cls-9" x="110.11" y="167.01" width="182.34" height="1.95"/><rect class="cls-9" x="110.11" y="206.05" width="182.34" height="1.95"/><rect class="cls-9" x="110.11" y="286.71" width="182.34" height="1.95"/><rect class="cls-9" x="110.11" y="358.92" width="182.34" height="1.95"/><rect class="cls-9" x="110.11" y="422.02" width="182.34" height="1.95"/><rect class="cls-9" x="240.54" y="167.99" width="1.95" height="119.7"/><rect class="cls-9" x="149.27" y="279.23" width="1.95" height="143.83"/><rect class="cls-9" x="150.25" y="318.65" width="137.98" height="1.95"/><rect class="cls-9" x="240.74" y="423" width="1.95" height="43.72"/><rect class="cls-9" x="114.08" y="247.22" width="127.11" height="1.95"/><rect class="cls-9" x="153.12" y="96.3" width="1.95" height="74.49" transform="translate(-39.61 69.84) rotate(-22.71)"/><rect class="cls-9" x="227.27" y="114.71" width="1.95" height="53.34"/><rect class="cls-9" x="126.59" y="350.46" width="159.63" height="1.95" transform="translate(-200.25 378.71) rotate(-63.41)"/><path class="cls-4" d="M222,232.33c0,8.71-13.46,29.08-17.5,34.87a1.3,1.3,0,0,1-1.81.33h0l-.32-.32c-3.91-5.79-17.5-26.09-17.5-34.87a18.57,18.57,0,1,1,37.14,0Z"/><circle class="cls-7" cx="203.46" cy="231.09" r="9.37"/><circle class="cls-4" cx="203.46" cy="277.21" r="4.23"/><path class="cls-10" d="M251.54,303.69h-2.61a.71.71,0,0,1-.71-.72v-5.92a.71.71,0,0,1,.71-.71h2.61a.71.71,0,0,1,.71.71V303A.72.72,0,0,1,251.54,303.69Z"/><path class="cls-10" d="M261.69,359.18H248.51a1.33,1.33,0,0,1-1.37-1.3V304.6a1.33,1.33,0,0,1,1.3-1.37h13.27a1.35,1.35,0,0,1,1.37,1.3v53.28A1.42,1.42,0,0,1,261.69,359.18Z"/><path class="cls-9" d="M253.75,359.18H240.54a1.33,1.33,0,0,1-1.36-1.3V304.6a1.33,1.33,0,0,1,1.3-1.37h13.27a1.34,1.34,0,0,1,1.36,1.3.08.08,0,0,1,0,.07v53.21A1.36,1.36,0,0,1,253.75,359.18Z"/><path class="cls-9" d="M249.16,303.69h-2.61a.71.71,0,0,1-.71-.72v-5.92a.71.71,0,0,1,.71-.71h2.61a.71.71,0,0,1,.71.71V303A.72.72,0,0,1,249.16,303.69Z"/><path class="cls-7" d="M245.75,315.27h-3.06a.42.42,0,0,1-.39-.39V310.2a.43.43,0,0,1,.39-.4h3.06a.44.44,0,0,1,.39.4v4.68A.43.43,0,0,1,245.75,315.27Z"/><path class="cls-7" d="M251.67,315.27h-3.06a.42.42,0,0,1-.39-.39V310.2a.43.43,0,0,1,.39-.4h3.06a.44.44,0,0,1,.39.4v4.68a.39.39,0,0,1-.37.39Z"/><path class="cls-7" d="M245.75,323.82h-3.06a.42.42,0,0,1-.39-.39v-4.69a.42.42,0,0,1,.39-.39h3.06a.43.43,0,0,1,.39.39v4.69A.43.43,0,0,1,245.75,323.82Z"/><path class="cls-7" d="M251.67,323.82h-3.06a.42.42,0,0,1-.39-.39v-4.69a.42.42,0,0,1,.39-.39h3.06a.43.43,0,0,1,.39.39v4.69a.39.39,0,0,1-.37.39Z"/><path class="cls-7" d="M245.75,332.31h-3.06a.41.41,0,0,1-.39-.39v-4.68a.41.41,0,0,1,.39-.39h3.06a.42.42,0,0,1,.39.39v4.68A.42.42,0,0,1,245.75,332.31Z"/><path class="cls-7" d="M251.67,332.31h-3.06a.41.41,0,0,1-.39-.39v-4.68a.41.41,0,0,1,.39-.39h3.06a.42.42,0,0,1,.39.39v4.68a.38.38,0,0,1-.37.39Z"/><path class="cls-7" d="M245.75,340.84h-3.06a.43.43,0,0,1-.39-.4v-4.68a.42.42,0,0,1,.39-.39h3.06a.43.43,0,0,1,.39.39v4.68A.44.44,0,0,1,245.75,340.84Z"/><path class="cls-7" d="M251.67,340.84h-3.06a.43.43,0,0,1-.39-.4v-4.68a.42.42,0,0,1,.39-.39h3.06a.43.43,0,0,1,.39.39v4.68a.4.4,0,0,1-.37.4Z"/><path class="cls-7" d="M245.75,349.36h-3.06a.42.42,0,0,1-.39-.39v-4.69a.42.42,0,0,1,.39-.39h3.06a.43.43,0,0,1,.39.39V349A.43.43,0,0,1,245.75,349.36Z"/><path class="cls-7" d="M251.67,349.36h-3.06a.42.42,0,0,1-.39-.39v-4.69a.42.42,0,0,1,.39-.39h3.06a.43.43,0,0,1,.39.39V349a.39.39,0,0,1-.37.39Z"/><path class="cls-10" d="M257.52,143.62h-2.21a.65.65,0,0,1-.65-.65V140a.65.65,0,0,1,.65-.65h2.21a.65.65,0,0,1,.65.65V143A.65.65,0,0,1,257.52,143.62Z"/><path class="cls-10" d="M276.32,167.4H264.94a1.15,1.15,0,0,1-1.17-1.15V144.11a1.16,1.16,0,0,1,1.15-1.17h11.4a1.16,1.16,0,0,1,1.17,1.16h0v22.12a1.15,1.15,0,0,1-1.15,1.17Z"/><path class="cls-9" d="M269.49,167.4H249.72a1.16,1.16,0,0,1-1.18-1.15V144.11a1.18,1.18,0,0,1,1.16-1.17h19.79a1.17,1.17,0,0,1,1.17,1.16h0v22.12a1.15,1.15,0,0,1-1.16,1.17Z"/><path class="cls-9" d="M255.44,143.62h-2.21a.65.65,0,0,1-.65-.65V140a.65.65,0,0,1,.65-.65h2.21a.65.65,0,0,1,.65.65V143A.65.65,0,0,1,255.44,143.62Z"/><path class="cls-7" d="M258.37,153.81H255.7a.32.32,0,0,1-.33-.29v-4a.31.31,0,0,1,.29-.33h2.71a.3.3,0,0,1,.32.28v4.08a.3.3,0,0,1-.31.3Z"/><path class="cls-7" d="M263.51,153.81h-2.64a.31.31,0,0,1-.33-.29v-4a.31.31,0,0,1,.29-.33h2.7a.31.31,0,0,1,.33.28v4.08a.3.3,0,0,1-.31.3Z"/><path class="cls-7" d="M258.37,161.22H255.7a.3.3,0,0,1-.33-.28v-4.07a.31.31,0,0,1,.29-.33h2.71a.3.3,0,0,1,.32.28v4.08A.34.34,0,0,1,258.37,161.22Z"/><path class="cls-7" d="M263.51,161.22h-2.64a.3.3,0,0,1-.33-.28v-4.07a.31.31,0,0,1,.29-.33h2.7a.31.31,0,0,1,.33.28v4.08A.36.36,0,0,1,263.51,161.22Z"/><path class="cls-10" d="M200.86,398.28h-2.21a.65.65,0,0,1-.65-.65v-2.91a.66.66,0,0,1,.65-.65h2.21a.66.66,0,0,1,.65.65v2.93a.61.61,0,0,1-.6.63Z"/><path class="cls-10" d="M219.66,422.09H208.28a1.16,1.16,0,0,1-1.17-1.16h0V398.8a1.15,1.15,0,0,1,1.15-1.17h11.4a1.15,1.15,0,0,1,1.17,1.15v22.14a1.16,1.16,0,0,1-1.16,1.17Z"/><path class="cls-9" d="M212.83,422.09H193.05a1.18,1.18,0,0,1-1.17-1.16h0V398.8a1.16,1.16,0,0,1,1.16-1.17h19.79a1.15,1.15,0,0,1,1.17,1.15v22.14a1.13,1.13,0,0,1-1.08,1.17Z"/><path class="cls-9" d="M198.78,398.28h-2.21a.65.65,0,0,1-.65-.65v-2.91a.66.66,0,0,1,.65-.65h2.21a.66.66,0,0,1,.65.65v2.93a.61.61,0,0,1-.6.63Z"/><path class="cls-7" d="M201.71,408.49h-2.64a.31.31,0,0,1-.33-.28v-4.08a.3.3,0,0,1,.28-.32h2.71a.3.3,0,0,1,.33.28v4.07C202.1,408.39,201.9,408.49,201.71,408.49Z"/><path class="cls-7" d="M206.87,408.49H204.2a.31.31,0,0,1-.32-.28v-4.08a.3.3,0,0,1,.28-.32h2.71a.3.3,0,0,1,.33.28v4.07C207.24,408.39,207,408.49,206.87,408.49Z"/><path class="cls-7" d="M201.71,415.91h-2.64a.31.31,0,0,1-.33-.29v-4.07a.31.31,0,0,1,.28-.33h2.71a.31.31,0,0,1,.33.29v4.07C202.1,415.71,201.9,415.91,201.71,415.91Z"/><path class="cls-7" d="M206.87,415.91H204.2a.31.31,0,0,1-.32-.29v-4.07a.31.31,0,0,1,.28-.33h2.71a.31.31,0,0,1,.33.29v4.07C207.24,415.71,207,415.91,206.87,415.91Z"/><path class="cls-10" d="M146.48,192.12h-2.61a.71.71,0,0,1-.71-.71v-5.92a.72.72,0,0,1,.71-.72h2.61a.72.72,0,0,1,.71.72v5.92A.71.71,0,0,1,146.48,192.12Z"/><path class="cls-10" d="M156.56,247.61H143.35a1.33,1.33,0,0,1-1.36-1.3V193.06a1.33,1.33,0,0,1,1.3-1.37h13.27a1.35,1.35,0,0,1,1.37,1.3v53.28a1.33,1.33,0,0,1-1.33,1.34Z"/><path class="cls-9" d="M148.69,247.61H135.48a1.32,1.32,0,0,1-1.36-1.3V193.06a1.33,1.33,0,0,1,1.3-1.37h13.27a1.34,1.34,0,0,1,1.36,1.3v53.28a1.32,1.32,0,0,1-1.32,1.34Z"/><path class="cls-9" d="M144,192.12h-2.6a.71.71,0,0,1-.71-.71v-5.92a.72.72,0,0,1,.71-.72H144a.72.72,0,0,1,.72.72v5.92a.64.64,0,0,1-.58.71Z"/><path class="cls-7" d="M140.69,203.7h-3.06a.41.41,0,0,1-.39-.39v-4.68a.41.41,0,0,1,.39-.39h3.06a.42.42,0,0,1,.39.39v4.68A.42.42,0,0,1,140.69,203.7Z"/><path class="cls-7" d="M146.61,203.7h-3.06a.41.41,0,0,1-.39-.39v-4.68a.41.41,0,0,1,.39-.39h3.06a.42.42,0,0,1,.39.39v4.68A.42.42,0,0,1,146.61,203.7Z"/><path class="cls-7" d="M140.69,212.23h-3.06a.43.43,0,0,1-.39-.39v-4.69a.42.42,0,0,1,.39-.39h3.06a.43.43,0,0,1,.39.39v4.69a.39.39,0,0,1-.37.39Z"/><path class="cls-7" d="M146.61,212.23h-3.06a.43.43,0,0,1-.39-.39v-4.69a.42.42,0,0,1,.39-.39h3.06a.43.43,0,0,1,.39.39v4.69a.39.39,0,0,1-.37.39Z"/><path class="cls-7" d="M140.69,220.75h-3.06a.42.42,0,0,1-.39-.39v-4.69a.42.42,0,0,1,.39-.39h3.06a.43.43,0,0,1,.39.39v4.71a.39.39,0,0,1-.39.37Z"/><path class="cls-7" d="M146.61,220.75h-3.06a.42.42,0,0,1-.39-.39v-4.69a.42.42,0,0,1,.39-.39h3.06a.43.43,0,0,1,.39.39v4.71a.39.39,0,0,1-.39.37Z"/><path class="cls-7" d="M140.69,229.27h-3.06a.42.42,0,0,1-.39-.39V224.2a.43.43,0,0,1,.39-.4h3.06a.44.44,0,0,1,.39.4v4.68a.39.39,0,0,1-.37.39Z"/><path class="cls-7" d="M146.61,229.27h-3.06a.42.42,0,0,1-.39-.39V224.2a.43.43,0,0,1,.39-.4h3.06a.44.44,0,0,1,.39.4v4.68a.39.39,0,0,1-.37.39Z"/><path class="cls-7" d="M140.69,237.79h-3.06a.41.41,0,0,1-.39-.39v-4.66a.42.42,0,0,1,.39-.39h3.06a.43.43,0,0,1,.39.39v4.69a.37.37,0,0,1-.39.36Z"/><path class="cls-7" d="M146.61,237.79h-3.06a.41.41,0,0,1-.39-.39v-4.66a.42.42,0,0,1,.39-.39h3.06a.43.43,0,0,1,.39.39v4.69a.37.37,0,0,1-.39.36Z"/></svg>