<svg width="378" height="378" viewBox="0 0 378 378" fill="none" xmlns="http://www.w3.org/2000/svg">
<g clip-path="url(#clip0)">
<path opacity="0.1" d="M33.8613 52.1641C31.4647 53.1695 19.7089 58.3482 21.7653 77.4447C24.0333 101.244 39.9093 126.585 29.5823 148.123C24.5927 158.579 16.1935 166.932 9.52561 176.428C2.85769 185.923 -2.17727 197.777 0.937451 208.936C4.71745 222.544 30.4215 225.87 39.9924 236.379C46.2294 243.243 50.5764 251.589 56.4052 258.839C62.2339 266.089 70.1719 272.447 79.4329 272.848C92.7688 273.468 103.625 261.954 116.711 259.24C130.1 256.503 143.58 263.458 154.511 271.759C165.443 280.06 175.241 290.183 187.904 295.369C201.867 301.122 217.652 300.215 232.334 303.685C245.723 306.845 258.038 313.513 271.344 317.066C284.649 320.62 300.23 320.431 310.542 311.313C323.976 299.414 322.918 278.208 331.506 262.423C339.474 247.787 354.012 245.481 364.521 232.531C383.421 209.261 381.364 189.151 365.337 163.818C349.31 138.484 323.001 130.236 293.222 126.252C279.833 124.475 249.609 115.071 236.749 110.943C202.222 100.004 207.499 31.873 144.071 28.3274C121.708 23.1412 99.9281 32.1074 80.8769 43.1525C64.26 52.7462 51.0376 44.9745 33.8613 52.1641Z" fill="#472B22"/>
<path d="M362.184 190.02H293.147C293.002 183.104 295.408 176.377 299.905 171.12C304.275 165.987 311.185 163.062 317.853 164.165C324.521 165.269 330.228 170.969 330.81 177.599C331.963 176.937 333.243 176.527 334.566 176.397C335.889 176.266 337.224 176.419 338.484 176.843C339.669 177.26 340.746 177.938 341.634 178.826C342.523 179.715 343.2 180.791 343.617 181.977C347.631 180.826 351.901 180.927 355.857 182.264C357.435 182.664 358.886 183.457 360.075 184.57C361.134 185.651 362.759 188.531 362.184 190.02Z" fill="white"/>
<path d="M179.527 102.816H75.8873C75.1313 98.401 78.0948 92.7915 81.9353 90.4403C85.9134 88.2298 90.6056 87.6861 94.9838 88.9283C91.3853 81.2549 91.5818 71.752 96.2842 64.6532C98.6329 61.1074 101.828 58.2023 105.58 56.2C109.332 54.1978 113.524 53.1615 117.777 53.1847C120.37 53.1577 122.943 53.6442 125.347 54.616C127.752 55.5879 129.94 57.0258 131.786 58.8471C134.921 62.4323 136.794 66.9472 137.116 71.6991C137.417 76.4118 137.192 81.1435 136.443 85.8061C139.558 83.5381 144.003 83.5381 147.571 85.1332C149.346 85.9378 150.884 87.1862 152.036 88.758C153.188 90.3299 153.916 92.1721 154.148 94.1069C158.658 92.7087 163.456 92.5262 168.059 93.5777C172.617 94.5001 178.333 98.2347 179.527 102.816Z" fill="white"/>
<path d="M270.981 277.24C291.197 277.24 307.586 260.851 307.586 240.635C307.586 220.418 291.197 204.029 270.981 204.029C250.764 204.029 234.375 220.418 234.375 240.635C234.375 260.851 250.764 277.24 270.981 277.24Z" fill="#8CC63F"/>
<path d="M232.304 266.445C252.52 266.445 268.909 250.056 268.909 229.839C268.909 209.623 252.52 193.234 232.304 193.234C212.087 193.234 195.698 209.623 195.698 229.839C195.698 250.056 212.087 266.445 232.304 266.445Z" fill="#8CC63F"/>
<path d="M189.461 265.968C209.678 265.968 226.067 249.58 226.067 229.363C226.067 209.146 209.678 192.757 189.461 192.757C169.245 192.757 152.856 209.146 152.856 229.363C152.856 249.58 169.245 265.968 189.461 265.968Z" fill="#47B9B2"/>
<path d="M175.354 275.32C195.571 275.32 211.96 258.931 211.96 238.714C211.96 218.498 195.571 202.109 175.354 202.109C155.138 202.109 138.749 218.498 138.749 238.714C138.749 258.931 155.138 275.32 175.354 275.32Z" fill="#47B9B2"/>
<path d="M151.699 278.057C171.916 278.057 188.304 261.668 188.304 241.451C188.304 221.235 171.916 204.846 151.699 204.846C131.482 204.846 115.093 221.235 115.093 241.451C115.093 261.668 131.482 278.057 151.699 278.057Z" fill="#8CC63F"/>
<path d="M142.68 248.936C162.897 248.936 179.285 232.547 179.285 212.33C179.285 192.113 162.897 175.725 142.68 175.725C122.463 175.725 106.074 192.113 106.074 212.33C106.074 232.547 122.463 248.936 142.68 248.936Z" fill="#8CC63F"/>
<path d="M154.05 215.588C174.267 215.588 190.656 199.2 190.656 178.983C190.656 158.766 174.267 142.377 154.05 142.377C133.833 142.377 117.445 158.766 117.445 178.983C117.445 199.2 133.833 215.588 154.05 215.588Z" fill="#47B9B2"/>
<path d="M174.394 216.012C194.611 216.012 211 199.623 211 179.406C211 159.19 194.611 142.801 174.394 142.801C154.177 142.801 137.789 159.19 137.789 179.406C137.789 199.623 154.177 216.012 174.394 216.012Z" fill="#47B9B2"/>
<path d="M186.483 201.24C206.699 201.24 223.088 184.851 223.088 164.634C223.088 144.418 206.699 128.029 186.483 128.029C166.266 128.029 149.877 144.418 149.877 164.634C149.877 184.851 166.266 201.24 186.483 201.24Z" fill="#47B9B2"/>
<path d="M216.133 218.273C236.35 218.273 252.738 201.884 252.738 181.667C252.738 161.45 236.35 145.062 216.133 145.062C195.916 145.062 179.527 161.45 179.527 181.667C179.527 201.884 195.916 218.273 216.133 218.273Z" fill="#47B9B2"/>
<path d="M285.466 251.861C305.682 251.861 322.071 235.473 322.071 215.256C322.071 195.039 305.682 178.65 285.466 178.65C265.249 178.65 248.86 195.039 248.86 215.256C248.86 235.473 265.249 251.861 285.466 251.861Z" fill="#8CC63F"/>
<path d="M264.736 233.196C284.953 233.196 301.342 216.807 301.342 196.59C301.342 176.374 284.953 159.985 264.736 159.985C244.519 159.985 228.131 176.374 228.131 196.59C228.131 216.807 244.519 233.196 264.736 233.196Z" fill="#47B9B2"/>
<path d="M251.544 214.727C271.761 214.727 288.149 198.338 288.149 178.121C288.149 157.904 271.761 141.516 251.544 141.516C231.327 141.516 214.938 157.904 214.938 178.121C214.938 198.338 231.327 214.727 251.544 214.727Z" fill="#47B9B2"/>
<path d="M226.407 186.702C246.624 186.702 263.012 170.313 263.012 150.096C263.012 129.88 246.624 113.491 226.407 113.491C206.19 113.491 189.801 129.88 189.801 150.096C189.801 170.313 206.19 186.702 226.407 186.702Z" fill="#47B9B2"/>
<path d="M273.619 218.038C293.836 218.038 310.225 201.649 310.225 181.433C310.225 161.216 293.836 144.827 273.619 144.827C253.402 144.827 237.014 161.216 237.014 181.433C237.014 201.649 253.402 218.038 273.619 218.038Z" fill="#47B9B2"/>
<g opacity="0.1">
<path opacity="0.1" d="M270.807 277.051C291.023 277.051 307.412 260.663 307.412 240.446C307.412 220.229 291.023 203.84 270.807 203.84C250.59 203.84 234.201 220.229 234.201 240.446C234.201 260.663 250.59 277.051 270.807 277.051Z" fill="black"/>
<path opacity="0.1" d="M232.13 266.255C252.346 266.255 268.735 249.867 268.735 229.65C268.735 209.433 252.346 193.044 232.13 193.044C211.913 193.044 195.524 209.433 195.524 229.65C195.524 249.867 211.913 266.255 232.13 266.255Z" fill="black"/>
<path opacity="0.1" d="M189.287 265.772C209.504 265.772 225.893 249.383 225.893 229.167C225.893 208.95 209.504 192.561 189.287 192.561C169.071 192.561 152.682 208.95 152.682 229.167C152.682 249.383 169.071 265.772 189.287 265.772Z" fill="black"/>
<path opacity="0.1" d="M175.18 275.131C195.397 275.131 211.786 258.742 211.786 238.525C211.786 218.309 195.397 201.92 175.18 201.92C154.964 201.92 138.575 218.309 138.575 238.525C138.575 258.742 154.964 275.131 175.18 275.131Z" fill="black"/>
<path opacity="0.1" d="M151.525 277.868C171.742 277.868 188.131 261.479 188.131 241.262C188.131 221.046 171.742 204.657 151.525 204.657C131.308 204.657 114.92 221.046 114.92 241.262C114.92 261.479 131.308 277.868 151.525 277.868Z" fill="black"/>
<path opacity="0.1" d="M142.506 248.739C162.723 248.739 179.112 232.351 179.112 212.134C179.112 191.917 162.723 175.528 142.506 175.528C122.289 175.528 105.901 191.917 105.901 212.134C105.901 232.351 122.289 248.739 142.506 248.739Z" fill="black"/>
<path opacity="0.1" d="M153.876 215.4C174.093 215.4 190.482 199.011 190.482 178.794C190.482 158.577 174.093 142.188 153.876 142.188C133.66 142.188 117.271 158.577 117.271 178.794C117.271 199.011 133.66 215.4 153.876 215.4Z" fill="black"/>
<path opacity="0.1" d="M174.22 215.823C194.437 215.823 210.826 199.434 210.826 179.217C210.826 159.001 194.437 142.612 174.22 142.612C154.004 142.612 137.615 159.001 137.615 179.217C137.615 199.434 154.004 215.823 174.22 215.823Z" fill="black"/>
<path opacity="0.1" d="M186.316 201.051C206.533 201.051 222.922 184.662 222.922 164.445C222.922 144.229 206.533 127.84 186.316 127.84C166.1 127.84 149.711 144.229 149.711 164.445C149.711 184.662 166.1 201.051 186.316 201.051Z" fill="black"/>
<path opacity="0.1" d="M215.967 218.084C236.183 218.084 252.572 201.695 252.572 181.478C252.572 161.261 236.183 144.873 215.967 144.873C195.75 144.873 179.361 161.261 179.361 181.478C179.361 201.695 195.75 218.084 215.967 218.084Z" fill="black"/>
<path opacity="0.1" d="M285.292 251.672C305.508 251.672 321.897 235.284 321.897 215.067C321.897 194.85 305.508 178.461 285.292 178.461C265.075 178.461 248.686 194.85 248.686 215.067C248.686 235.284 265.075 251.672 285.292 251.672Z" fill="black"/>
<path opacity="0.1" d="M264.57 233.007C284.786 233.007 301.175 216.618 301.175 196.401C301.175 176.185 284.786 159.796 264.57 159.796C244.353 159.796 227.964 176.185 227.964 196.401C227.964 216.618 244.353 233.007 264.57 233.007Z" fill="black"/>
<path opacity="0.1" d="M251.37 214.53C271.587 214.53 287.976 198.142 287.976 177.925C287.976 157.708 271.587 141.319 251.37 141.319C231.153 141.319 214.765 157.708 214.765 177.925C214.765 198.142 231.153 214.53 251.37 214.53Z" fill="black"/>
<path opacity="0.1" d="M226.233 186.513C246.45 186.513 262.839 170.124 262.839 149.907C262.839 129.691 246.45 113.302 226.233 113.302C206.016 113.302 189.628 129.691 189.628 149.907C189.628 170.124 206.016 186.513 226.233 186.513Z" fill="black"/>
<path opacity="0.1" d="M273.445 217.841C293.662 217.841 310.051 201.453 310.051 181.236C310.051 161.019 293.662 144.63 273.445 144.63C253.229 144.63 236.84 161.019 236.84 181.236C236.84 201.453 253.229 217.841 273.445 217.841Z" fill="black"/>
</g>
<path opacity="0.8" d="M240.128 291.4L252.89 254.696L263.844 259.058C274.428 286.07 251.612 304.418 251.612 304.418L240.128 291.4Z" fill="#472B22"/>
<path opacity="0.1" d="M241.088 290.153L252.602 303.156C252.602 303.156 253.131 302.725 253.993 301.909L243.916 290.569L256.435 254.538L253.797 253.479L241.088 290.153Z" fill="black"/>
<path opacity="0.8" d="M190.331 264.6C217.199 258.174 214.893 230.202 214.893 230.202L236.915 233.559C236.915 233.559 237.633 254.523 236.242 267.292C235.622 272.659 240.703 281.3 246.826 289.548C255.261 300.798 262.756 312.722 269.234 325.201C270.338 327.356 271.684 328.943 273.362 329.132C279.168 329.85 286.607 336.382 286.607 336.382L297.35 349.99L190.882 350.134L201.391 343.421C204.957 341.151 208.992 339.719 213.192 339.232C215.217 339.01 217.112 338.122 218.578 336.707C220.045 335.292 221.001 333.431 221.296 331.415C225.235 304.736 204.793 278.541 200.567 275.23C198.125 273.309 196.303 273.551 195.101 274.224C192.995 275.448 190.657 276.221 188.236 276.492C174.515 277.883 154.027 274.814 154.027 274.814L151.344 263.111C151.412 263.186 163.462 271.011 190.331 264.6Z" fill="#472B22"/>
<g opacity="0.1">
<path opacity="0.1" d="M171.136 276.62C161.92 276.046 154.103 274.844 154.103 274.844L151.419 263.141C151.419 263.141 163.462 270.958 190.376 264.532C217.29 258.106 214.938 230.126 214.938 230.126L236.961 233.491C236.961 233.491 237.014 234.542 237.059 236.363L232.84 235.744C232.84 235.744 235.192 263.761 208.323 270.142C181.455 276.522 169.344 268.751 169.344 268.751L171.136 276.62Z" fill="black"/>
<path opacity="0.1" d="M217.675 350.028L190.905 350.081L201.414 343.36C204.972 341.093 209 339.666 213.192 339.187C215.205 338.951 217.086 338.064 218.548 336.661C220.011 335.258 220.976 333.417 221.296 331.415C224.23 311.759 213.812 292.262 206.524 282.094C208.221 281.921 209.903 281.631 211.559 281.225C211.559 281.225 213.956 277.195 218.567 280.794C222.74 284.105 243.228 310.353 239.244 336.98C238.937 338.982 237.978 340.828 236.515 342.23C235.053 343.633 233.168 344.513 231.155 344.736C226.96 345.233 222.928 346.659 219.353 348.909L217.675 350.028Z" fill="black"/>
</g>
<path d="M271.17 269.038C291.386 269.038 307.775 252.649 307.775 232.432C307.775 212.216 291.386 195.827 271.17 195.827C250.953 195.827 234.564 212.216 234.564 232.432C234.564 252.649 250.953 269.038 271.17 269.038Z" fill="#8CC63F"/>
<path d="M232.447 258.242C252.664 258.242 269.053 241.853 269.053 221.636C269.053 201.42 252.664 185.031 232.447 185.031C212.231 185.031 195.842 201.42 195.842 221.636C195.842 241.853 212.231 258.242 232.447 258.242Z" fill="#8CC63F"/>
<path d="M189.605 257.766C209.821 257.766 226.21 241.377 226.21 221.16C226.21 200.944 209.821 184.555 189.605 184.555C169.388 184.555 152.999 200.944 152.999 221.16C152.999 241.377 169.388 257.766 189.605 257.766Z" fill="#8CC63F"/>
<path d="M175.498 267.117C195.715 267.117 212.103 250.728 212.103 230.512C212.103 210.295 195.715 193.906 175.498 193.906C155.281 193.906 138.892 210.295 138.892 230.512C138.892 250.728 155.281 267.117 175.498 267.117Z" fill="#8CC63F"/>
<path d="M151.888 269.854C172.105 269.854 188.494 253.465 188.494 233.249C188.494 213.032 172.105 196.643 151.888 196.643C131.671 196.643 115.282 213.032 115.282 233.249C115.282 253.465 131.671 269.854 151.888 269.854Z" fill="#8CC63F"/>
<path d="M142.824 240.726C163.04 240.726 179.429 224.337 179.429 204.12C179.429 183.903 163.04 167.515 142.824 167.515C122.607 167.515 106.218 183.903 106.218 204.12C106.218 224.337 122.607 240.726 142.824 240.726Z" fill="#8CC63F"/>
<path d="M154.239 207.379C174.456 207.379 190.845 190.99 190.845 170.773C190.845 150.556 174.456 134.167 154.239 134.167C134.022 134.167 117.634 150.556 117.634 170.773C117.634 190.99 134.022 207.379 154.239 207.379Z" fill="#8CC63F"/>
<path d="M174.583 207.817C194.8 207.817 211.189 191.428 211.189 171.211C211.189 150.995 194.8 134.606 174.583 134.606C154.366 134.606 137.978 150.995 137.978 171.211C137.978 191.428 154.366 207.817 174.583 207.817Z" fill="#8CC63F"/>
<path d="M186.679 193.037C206.896 193.037 223.285 176.648 223.285 156.432C223.285 136.215 206.896 119.826 186.679 119.826C166.462 119.826 150.074 136.215 150.074 156.432C150.074 176.648 166.462 193.037 186.679 193.037Z" fill="#8CC63F"/>
<path d="M218.295 214.008C239.601 214.008 256.874 196.736 256.874 175.43C256.874 154.123 239.601 136.851 218.295 136.851C196.989 136.851 179.716 154.123 179.716 175.43C179.716 196.736 196.989 214.008 218.295 214.008Z" fill="#8CC63F"/>
<path d="M285.609 243.659C305.826 243.659 322.215 227.27 322.215 207.053C322.215 186.837 305.826 170.448 285.609 170.448C265.393 170.448 249.004 186.837 249.004 207.053C249.004 227.27 265.393 243.659 285.609 243.659Z" fill="#8CC63F"/>
<path d="M264.933 224.993C285.149 224.993 301.538 208.604 301.538 188.388C301.538 168.171 285.149 151.782 264.933 151.782C244.716 151.782 228.327 168.171 228.327 188.388C228.327 208.604 244.716 224.993 264.933 224.993Z" fill="#8CC63F"/>
<path d="M251.74 206.517C271.957 206.517 288.346 190.128 288.346 169.911C288.346 149.695 271.957 133.306 251.74 133.306C231.524 133.306 215.135 149.695 215.135 169.911C215.135 190.128 231.524 206.517 251.74 206.517Z" fill="#8CC63F"/>
<path d="M262.736 147.763C265.975 127.807 252.424 109.004 232.468 105.765C212.513 102.526 193.71 116.077 190.471 136.032C187.231 155.988 200.783 174.791 220.738 178.03C240.693 181.269 259.497 167.718 262.736 147.763Z" fill="#8CC63F"/>
<path d="M273.808 209.828C294.025 209.828 310.414 193.439 310.414 173.222C310.414 153.006 294.025 136.617 273.808 136.617C253.591 136.617 237.203 153.006 237.203 173.222C237.203 193.439 253.591 209.828 273.808 209.828Z" fill="#8CC63F"/>
<path opacity="0.1" d="M253.751 191.026C274.957 162.812 308.69 179.686 308.69 179.686L253.751 191.026Z" fill="black"/>
<path opacity="0.1" d="M174.054 177.547C182.166 143.187 219.83 145.107 219.83 145.107L174.054 177.547Z" fill="black"/>
<path opacity="0.1" d="M116.53 230.369C137.736 202.155 171.468 219.029 171.468 219.029L116.53 230.369Z" fill="black"/>
<path d="M170.1 306.656C170.469 306.656 170.823 306.509 171.084 306.248C171.344 305.988 171.491 305.634 171.491 305.265C171.491 304.896 171.344 304.542 171.084 304.281C170.823 304.02 170.469 303.874 170.1 303.874H156.741V298.257H170.1C170.469 298.257 170.823 298.11 171.084 297.849C171.344 297.588 171.491 297.235 171.491 296.866C171.491 296.497 171.344 296.143 171.084 295.882C170.823 295.621 170.469 295.475 170.1 295.475H56.322C55.9531 295.475 55.5993 295.621 55.3384 295.882C55.0775 296.143 54.931 296.497 54.931 296.866C54.931 297.235 55.0775 297.588 55.3384 297.849C55.5993 298.11 55.9531 298.257 56.322 298.257H69.6578V303.828H56.322C55.9531 303.828 55.5993 303.975 55.3384 304.236C55.0775 304.497 54.931 304.851 54.931 305.219C54.931 305.588 55.0775 305.942 55.3384 306.203C55.5993 306.464 55.9531 306.61 56.322 306.61H69.6578V312.228H56.322C55.9531 312.228 55.5993 312.374 55.3384 312.635C55.0775 312.896 54.931 313.25 54.931 313.619C54.931 313.988 55.0775 314.341 55.3384 314.602C55.5993 314.863 55.9531 315.01 56.322 315.01H69.6578V320.627H57.713C57.3289 320.607 56.9448 320.665 56.584 320.799C56.2232 320.932 55.8934 321.137 55.6145 321.402C55.3356 321.667 55.1135 321.986 54.9617 322.339C54.81 322.693 54.7317 323.073 54.7317 323.458C54.7317 323.843 54.81 324.223 54.9617 324.577C55.1135 324.93 55.3356 325.249 55.6145 325.514C55.8934 325.779 56.2232 325.984 56.584 326.117C56.9448 326.251 57.3289 326.309 57.713 326.289H69.053C68.951 326.528 68.902 326.786 68.9094 327.045V346.701C68.9094 347.261 69.1316 347.797 69.5272 348.193C69.9227 348.588 70.4592 348.81 71.0186 348.81C71.578 348.81 72.1145 348.588 72.5101 348.193C72.9057 347.797 73.1279 347.261 73.1279 346.701V327.045C73.1353 326.786 73.0863 326.528 72.9842 326.289H153.332C153.238 326.53 153.189 326.786 153.188 327.045V346.701C153.221 347.24 153.457 347.746 153.85 348.116C154.243 348.486 154.762 348.692 155.301 348.692C155.841 348.692 156.36 348.486 156.753 348.116C157.145 347.746 157.382 347.24 157.414 346.701V327.045C157.418 326.786 157.369 326.529 157.271 326.289H168.611C169.336 326.252 170.02 325.937 170.52 325.41C171.02 324.883 171.299 324.185 171.299 323.458C171.299 322.731 171.02 322.033 170.52 321.506C170.02 320.979 169.336 320.664 168.611 320.627H156.741V315.01H170.1C170.469 315.01 170.823 314.863 171.084 314.602C171.344 314.341 171.491 313.988 171.491 313.619C171.491 313.25 171.344 312.896 171.084 312.635C170.823 312.374 170.469 312.228 170.1 312.228H156.741V306.618L170.1 306.656ZM72.4853 298.211H153.906V303.828H72.4853V298.211ZM153.906 320.717H72.4853V315.1H153.906V320.717ZM153.906 312.273H72.4853V306.656H153.906V312.273Z" fill="#44322D"/>
<path d="M277.407 349.408C277.525 344.174 279.693 339.196 283.443 335.543C287.193 331.89 292.227 329.854 297.462 329.873C302.697 329.892 307.716 331.964 311.44 335.644C315.163 339.323 317.295 344.317 317.376 349.551V349.65" fill="#8CC63F"/>
<path d="M297.365 349.507C297.226 349.503 297.093 349.446 296.995 349.347C296.897 349.249 296.84 349.117 296.836 348.977L296.889 338.469C296.904 338.34 296.966 338.222 297.063 338.136C297.16 338.05 297.285 338.003 297.414 338.003C297.544 338.003 297.668 338.05 297.765 338.136C297.862 338.222 297.924 338.34 297.94 338.469L297.894 348.977C297.907 349.105 297.869 349.232 297.788 349.331C297.707 349.43 297.59 349.493 297.463 349.507H297.365Z" fill="#44322D"/>
<path d="M297.41 345.855C297.348 345.858 297.285 345.847 297.227 345.822C297.17 345.797 297.118 345.759 297.078 345.711L290.652 340.102C290.548 340.006 290.485 339.875 290.475 339.734C290.465 339.594 290.509 339.455 290.599 339.346C290.694 339.241 290.827 339.178 290.968 339.17C291.109 339.161 291.248 339.208 291.355 339.3L297.781 344.91C297.889 345.002 297.956 345.134 297.967 345.275C297.979 345.417 297.933 345.557 297.841 345.666C297.785 345.726 297.717 345.774 297.642 345.806C297.566 345.839 297.485 345.855 297.403 345.855H297.41Z" fill="#44322D"/>
<path d="M304.23 77.9814H351.2C351.804 77.9833 352.384 78.2217 352.815 78.6455C353.246 79.0694 353.494 79.6451 353.506 80.2494C353.494 80.8538 353.246 81.4295 352.815 81.8533C352.384 82.2772 351.804 82.5156 351.2 82.5174H304.23C303.929 82.5225 303.63 82.4675 303.35 82.3558C303.07 82.244 302.816 82.0778 302.601 81.8667C302.387 81.6556 302.216 81.4038 302.1 81.1262C301.984 80.8485 301.924 80.5505 301.924 80.2494C301.943 79.6476 302.193 79.0762 302.623 78.6539C303.052 78.2317 303.627 77.9908 304.23 77.9814Z" fill="#44322D"/>
<path d="M304.23 94.9232H351.2C351.501 94.9181 351.8 94.9731 352.079 95.0848C352.359 95.1966 352.613 95.3628 352.828 95.5739C353.043 95.785 353.213 96.0368 353.329 96.3144C353.446 96.5921 353.506 96.8901 353.506 97.1912C353.511 97.4954 353.455 97.7975 353.341 98.0796C353.226 98.3616 353.057 98.6179 352.842 98.833C352.626 99.0481 352.37 99.2178 352.088 99.3319C351.806 99.4459 351.504 99.5021 351.2 99.497H304.23C303.925 99.5021 303.623 99.4459 303.341 99.3319C303.059 99.2178 302.803 99.0481 302.588 98.833C302.373 98.6179 302.203 98.3616 302.089 98.0796C301.975 97.7975 301.919 97.4954 301.924 97.1912C301.924 96.8901 301.984 96.5921 302.1 96.3144C302.216 96.0368 302.387 95.785 302.601 95.5739C302.816 95.3628 303.07 95.1966 303.35 95.0848C303.63 94.9731 303.929 94.9181 304.23 94.9232Z" fill="#44322D"/>
<path d="M304.23 110.081H351.2C351.804 110.083 352.384 110.322 352.815 110.745C353.246 111.169 353.494 111.745 353.506 112.349C353.504 112.96 353.26 113.546 352.828 113.978C352.396 114.41 351.811 114.653 351.2 114.655H304.23C303.925 114.66 303.623 114.604 303.341 114.49C303.059 114.376 302.803 114.206 302.588 113.991C302.373 113.776 302.203 113.52 302.089 113.238C301.975 112.956 301.919 112.654 301.924 112.349C301.924 112.048 301.984 111.75 302.1 111.473C302.216 111.195 302.387 110.943 302.601 110.732C302.816 110.521 303.07 110.355 303.35 110.243C303.63 110.131 303.929 110.076 304.23 110.081Z" fill="#44322D"/>
<path d="M282.54 80.2871C282.538 79.0992 282.889 77.9376 283.548 76.9493C284.207 75.961 285.145 75.1905 286.242 74.7352C287.339 74.28 288.547 74.1605 289.712 74.3918C290.877 74.6232 291.947 75.1951 292.787 76.035C293.627 76.8749 294.199 77.9452 294.43 79.1103C294.662 80.2754 294.542 81.483 294.087 82.5801C293.632 83.6773 292.861 84.6147 291.873 85.2737C290.884 85.9327 289.723 86.2836 288.535 86.2821C287.748 86.2821 286.968 86.1271 286.241 85.8258C285.513 85.5245 284.853 85.0829 284.296 84.5262C283.739 83.9695 283.298 83.3086 282.996 82.5813C282.695 81.8539 282.54 81.0743 282.54 80.2871Z" fill="#8CC63F"/>
<path d="M282.54 97.2214C282.54 96.0339 282.892 94.873 283.552 93.8857C284.212 92.8984 285.15 92.1291 286.247 91.675C287.344 91.2209 288.552 91.1024 289.716 91.3346C290.881 91.5669 291.951 92.1393 292.79 92.9796C293.629 93.8198 294.2 94.8901 294.431 96.055C294.662 97.2199 294.542 98.427 294.086 99.5237C293.631 100.62 292.86 101.557 291.872 102.216C290.884 102.875 289.723 103.226 288.535 103.224C287.747 103.224 286.967 103.069 286.239 102.767C285.511 102.465 284.85 102.023 284.293 101.465C283.736 100.908 283.295 100.246 282.994 99.5179C282.693 98.7897 282.539 98.0093 282.54 97.2214Z" fill="#8CC63F"/>
<path d="M282.54 112.387C282.538 111.199 282.889 110.038 283.548 109.049C284.207 108.061 285.145 107.291 286.242 106.835C287.339 106.38 288.547 106.261 289.712 106.492C290.877 106.723 291.947 107.295 292.787 108.135C293.627 108.975 294.199 110.045 294.43 111.21C294.662 112.375 294.542 113.583 294.087 114.68C293.632 115.777 292.861 116.715 291.873 117.374C290.884 118.033 289.723 118.384 288.535 118.382C286.945 118.382 285.42 117.751 284.296 116.626C283.172 115.502 282.54 113.977 282.54 112.387Z" fill="#8CC63F"/>
<path d="M231.631 120.348C231.538 120.266 231.479 120.154 231.462 120.032C231.445 119.91 231.473 119.786 231.54 119.682L250.493 95.256C250.592 95.1496 250.726 95.0825 250.871 95.067H275.532C275.651 95.0587 275.769 95.0977 275.859 95.1755C275.95 95.2533 276.006 95.3638 276.016 95.4828V95.5433C276.02 95.6029 276.012 95.6627 275.993 95.7193C275.974 95.7759 275.944 95.8282 275.904 95.8732C275.865 95.9181 275.817 95.9549 275.764 95.9813C275.71 96.0077 275.652 96.0233 275.592 96.0271H251.355C251.28 96.0222 251.205 96.037 251.137 96.0702C251.069 96.1034 251.011 96.1537 250.969 96.2161L232.304 120.257C232.226 120.357 232.112 120.423 231.986 120.44C231.86 120.457 231.732 120.424 231.631 120.348Z" fill="#44322D"/>
<path d="M9.53314 349.884L20.9563 349.695L32.3719 349.552L55.188 349.272L100.865 348.932C116.076 348.788 131.332 348.788 146.543 348.743L192.221 348.697L237.898 348.743L260.737 348.841L272.152 348.886L283.576 348.985L329.253 349.317L352.092 349.604L363.507 349.748L374.923 349.945L363.507 350.134L352.092 350.277L329.253 350.565L283.576 350.905L272.152 350.996L260.737 351.048L237.898 351.139L192.221 351.192L146.543 351.139C131.332 351.094 116.076 351.048 100.865 350.95L55.188 350.602L32.3492 350.315L20.9336 350.171L9.53314 349.884Z" fill="#44322D"/>
</g>
<defs>
<clipPath id="clip0">
<rect width="378" height="378" fill="white"/>
</clipPath>
</defs>
</svg>
