<svg width="325" height="325" viewBox="0 0 325 325" fill="none" xmlns="http://www.w3.org/2000/svg">
<g clip-path="url(#clip0)">
<path opacity="0.1" d="M290.842 249.36C292.955 248.476 295.145 247.377 296.283 245.395C297.42 243.412 297.381 240.702 297.128 238.297C295.145 217.354 289.867 195.098 298.948 176.137C303.342 166.927 310.726 159.582 316.602 151.223C322.478 142.864 326.904 132.425 324.155 122.584C320.82 110.591 308.405 103.916 300.04 94.6856C294.547 88.6471 290.712 81.3021 285.603 74.9191C280.494 68.5361 273.481 62.9721 265.31 62.5691C253.571 62.0231 244.029 72.1566 232.498 74.5226C220.72 76.9276 208.851 70.8046 199.264 63.4726C189.676 56.1406 181.025 47.2226 169.871 42.6726C157.586 37.6026 143.689 38.4086 130.767 35.3666C118.982 32.5846 108.127 26.7151 96.434 23.5886C84.7405 20.4621 71.0125 20.6311 61.932 28.6586C50.0955 39.1951 51.0315 57.8501 43.4785 71.7601C36.465 84.6366 22.75 92.3001 13.494 103.727C-3.14602 124.209 -2.60002 155.545 11.505 177.84C25.61 200.135 51.2005 213.59 77.3435 217.152C89.128 218.712 101.289 218.504 112.606 222.138C142.967 231.764 161.005 266.266 192.003 273.449C211.685 277.999 230.854 270.114 247.617 260.397C262.249 251.895 275.678 255.658 290.842 249.36Z" fill="#472B22"/>
<path d="M158.528 83.1999H67.314C66.664 79.2999 69.264 74.3729 72.631 72.3059C76.1326 70.3547 80.2642 69.8686 84.123 70.9539C80.951 64.1939 81.12 55.8349 85.254 49.5884C87.3245 46.4715 90.1382 43.9191 93.4415 42.1614C96.7448 40.4036 100.434 39.4958 104.176 39.5199C106.461 39.4916 108.73 39.9171 110.849 40.7718C112.969 41.6264 114.899 42.8933 116.526 44.4989C119.275 47.6461 120.919 51.607 121.206 55.7764C121.477 59.9259 121.278 64.0929 120.614 68.1979C123.364 66.1634 127.29 66.2089 130.416 67.5999C131.975 68.3118 133.325 69.4117 134.338 70.7943C135.351 72.1769 135.992 73.7962 136.201 75.4974C140.175 74.2672 144.404 74.108 148.46 75.0359C152.406 75.8809 157.43 79.1699 158.528 83.1999Z" fill="white"/>
<path d="M236.32 112.281C237.361 111.295 238.64 110.596 240.032 110.253C243.512 109.072 247.27 108.984 250.802 110C251.169 108.956 251.765 108.008 252.547 107.226C253.329 106.444 254.277 105.848 255.32 105.482C256.429 105.103 257.607 104.964 258.773 105.076C259.94 105.188 261.07 105.548 262.086 106.132C262.593 100.282 267.618 95.3226 273.5 94.2956C279.383 93.2686 285.448 95.9011 289.296 100.419C293.261 105.043 295.381 110.968 295.25 117.059H234.474C233.87 115.791 235.345 113.25 236.32 112.281Z" fill="white"/>
<path d="M83.655 224.9C66.846 226.506 52.026 212.7 45.188 197.282C38.35 181.864 37.154 164.567 32.929 148.2C28.704 131.833 20.15 115.05 4.60852 108.433C19.7759 107.796 34.8978 110.504 48.9013 116.365C62.9048 122.227 75.4468 131.098 85.6375 142.35C95.9855 153.959 103.838 168.493 104.559 184.028C105.281 199.563 99.151 223.392 83.655 224.9Z" fill="#548C0A"/>
<path d="M96.1155 185.594C93.0961 189.441 89.0147 192.318 84.3765 193.869C83.6949 187.889 82.4788 181.983 80.743 176.221C85.7714 172.414 89.9085 167.556 92.8655 161.986C93.288 161.18 92.105 160.426 91.7215 161.226C88.9323 166.527 85.0431 171.172 80.314 174.85C79.123 171.069 77.7101 167.362 76.0825 163.748C74.6136 160.518 72.9643 157.374 71.1425 154.329C74.9024 150.823 77.5187 146.266 78.65 141.251C78.8645 140.367 77.5515 139.899 77.35 140.79C76.3082 145.482 73.8806 149.753 70.382 153.049C66.9765 147.48 63.0127 142.272 58.552 137.507C59.9621 134.087 60.7607 130.446 60.9115 126.75C60.8966 126.563 60.8082 126.389 60.6656 126.267C60.5231 126.146 60.338 126.085 60.151 126.1C59.9984 126.112 59.8533 126.171 59.7366 126.271C59.6199 126.37 59.5375 126.503 59.501 126.652C59.3694 129.97 58.6702 133.242 57.434 136.324C52.8217 131.509 47.7419 127.165 42.2695 123.357C41.9212 123.095 41.5565 122.856 41.1775 122.642C41.3009 122.511 41.3863 122.349 41.4245 122.174C41.5992 120.433 41.4065 118.674 40.859 117.013C40.8117 116.836 40.6986 116.684 40.5429 116.589C40.3872 116.493 40.2008 116.46 40.022 116.498C39.8431 116.535 39.6854 116.64 39.5811 116.79C39.4769 116.94 39.4341 117.124 39.4615 117.305C39.96 118.767 40.1482 120.316 40.014 121.855C32.5481 116.955 24.4595 113.077 15.964 110.324C15.7935 110.306 15.6227 110.356 15.4887 110.463C15.3548 110.57 15.2687 110.726 15.249 110.896C15.249 110.896 15.249 110.942 15.249 110.961C15.2423 111.086 15.266 111.21 15.3181 111.323C15.3702 111.436 15.4491 111.535 15.548 111.611C26.7194 115.24 37.1578 120.824 46.3775 128.102C41.5939 128.569 36.7662 128.268 32.0775 127.211C31.187 127.003 30.7255 128.31 31.6095 128.511C36.9094 129.733 42.3801 130.032 47.7815 129.395H47.866C51.5731 132.442 55.0493 135.76 58.266 139.321C59.787 140.965 61.23 142.701 62.5755 144.43C54.731 145.814 46.6842 145.548 38.948 143.65C38.103 143.435 37.596 144.748 38.4865 144.95C46.5851 146.975 55.0244 147.234 63.232 145.71C63.3212 145.699 63.4074 145.67 63.4855 145.626C67.1157 150.385 70.2826 155.48 72.943 160.842C72.8731 160.804 72.7959 160.78 72.7164 160.774C72.6369 160.767 72.5569 160.777 72.4815 160.803C62.7577 163.51 52.4406 163.194 42.9 159.9C42.8147 159.868 42.724 159.854 42.6332 159.858C42.5425 159.862 42.4533 159.884 42.3709 159.922C42.2885 159.96 42.2145 160.015 42.1531 160.082C42.0916 160.149 42.044 160.227 42.0128 160.312C41.9816 160.398 41.9676 160.488 41.9715 160.579C41.9754 160.67 41.9971 160.759 42.0354 160.841C42.0737 160.924 42.1279 160.998 42.1949 161.059C42.2618 161.121 42.3402 161.168 42.4255 161.2C52.1981 164.541 62.75 164.865 72.709 162.129C72.8518 162.089 72.978 162.004 73.0692 161.887C73.1604 161.77 73.2119 161.627 73.216 161.479C76.7968 168.721 79.4627 176.381 81.1525 184.281C81.0144 184.195 80.8537 184.152 80.691 184.158C70.2185 185.34 59.6161 183.904 49.8355 179.978C48.9905 179.634 48.568 180.947 49.3675 181.278C59.3998 185.329 70.2922 186.782 81.0355 185.503C81.111 185.5 81.1847 185.479 81.2512 185.443C81.3176 185.407 81.375 185.356 81.419 185.295C81.5425 185.945 81.7115 186.595 81.796 187.317C82.7711 192.588 83.3232 197.928 83.447 203.287C75.5414 202.869 67.714 201.507 60.1315 199.231C59.2865 198.978 58.786 200.284 59.67 200.531C67.3757 202.831 75.3307 204.193 83.3625 204.587C83.3843 209.219 83.0867 213.847 82.472 218.439C82.3485 219.323 83.7005 219.407 83.8695 218.523C84.9426 210.783 85.0845 202.942 84.292 195.169C89.3234 193.531 93.7508 190.428 97.0061 186.257C97.8055 185.679 96.668 184.879 96.1155 185.594Z" fill="#472B22"/>
<path d="M249.958 202.528C242.99 197.549 241.891 187.311 244.426 179.128C246.961 170.944 252.226 163.911 256.042 156.3C259.857 148.688 262.165 139.322 258.408 131.639C264.438 136.438 269.338 142.506 272.759 149.413C276.18 156.32 278.037 163.895 278.2 171.601C278.285 179.498 276.471 187.662 271.57 193.857C266.669 200.051 256.373 207.136 249.958 202.528Z" fill="#BF620C"/>
<path d="M267.8 191.633C265.361 192.088 262.843 191.84 260.54 190.918C262.273 188.396 263.77 185.72 265.012 182.923C268.203 183.148 271.405 182.659 274.385 181.493C274.807 181.324 274.599 180.648 274.216 180.843C271.378 181.935 268.34 182.409 265.304 182.234C266.096 180.385 266.788 178.495 267.378 176.572C267.891 174.854 268.301 173.107 268.606 171.34C271.205 171.243 273.716 170.377 275.821 168.85C276.205 168.597 275.867 167.96 275.483 168.259C273.518 169.707 271.162 170.529 268.723 170.618C269.277 167.356 269.495 164.045 269.373 160.738C271.044 159.89 272.557 158.759 273.845 157.397C273.874 157.362 273.895 157.321 273.907 157.277C273.92 157.233 273.923 157.187 273.918 157.141C273.912 157.096 273.898 157.052 273.876 157.012C273.853 156.973 273.823 156.938 273.787 156.91C273.724 156.868 273.65 156.846 273.575 156.846C273.5 156.846 273.427 156.868 273.364 156.91C272.21 158.134 270.853 159.15 269.354 159.913C269.184 156.536 268.69 153.184 267.878 149.903C267.833 149.695 267.748 149.48 267.709 149.253C267.798 149.24 267.884 149.212 267.963 149.168C268.598 148.561 269.1 147.828 269.438 147.017C269.469 146.929 269.474 146.835 269.452 146.745C269.43 146.655 269.382 146.573 269.315 146.51C269.228 146.475 269.132 146.468 269.041 146.49C268.95 146.512 268.869 146.562 268.808 146.633C268.505 147.361 268.063 148.024 267.508 148.583C266.275 144.227 264.472 140.052 262.145 136.168C262.076 136.105 261.985 136.07 261.892 136.07C261.798 136.07 261.707 136.105 261.638 136.168C261.593 136.211 261.562 136.265 261.547 136.325C261.532 136.385 261.534 136.448 261.554 136.506C264.598 141.598 266.713 147.191 267.8 153.023C265.804 151.61 264.048 149.885 262.6 147.914C262.347 147.537 261.71 147.875 261.95 148.252C263.577 150.482 265.581 152.411 267.872 153.952L267.911 153.998C268.318 156.397 268.536 158.825 268.561 161.258C268.606 162.402 268.561 163.54 268.522 164.638C265.056 162.566 262.064 159.789 259.74 156.487C259.487 156.11 258.85 156.442 259.142 156.825C261.578 160.284 264.717 163.19 268.353 165.353C268.368 165.37 268.388 165.382 268.409 165.39C268.43 165.398 268.453 165.401 268.476 165.399C268.281 168.421 267.8 171.418 267.04 174.349C267.04 174.265 266.955 174.226 266.871 174.18C262.244 171.983 258.392 168.437 255.821 164.008C255.802 163.966 255.776 163.929 255.743 163.898C255.71 163.866 255.672 163.842 255.629 163.826C255.587 163.809 255.542 163.802 255.497 163.803C255.452 163.804 255.407 163.814 255.366 163.832C255.283 163.87 255.219 163.94 255.187 164.025C255.156 164.11 255.159 164.204 255.197 164.287C255.205 164.308 255.216 164.328 255.229 164.346C257.868 168.871 261.797 172.505 266.513 174.785C266.583 174.82 266.662 174.83 266.739 174.815C266.815 174.8 266.885 174.759 266.936 174.7C265.889 178.659 264.361 182.475 262.386 186.062C262.386 185.978 262.301 185.932 262.256 185.848C257.878 182.793 254.309 178.72 251.856 173.979C251.654 173.556 251.056 173.933 251.206 174.317C253.703 179.208 257.391 183.393 261.931 186.485C261.958 186.513 261.993 186.531 262.032 186.538C262.07 186.545 262.11 186.54 262.145 186.524C261.977 186.828 261.793 187.123 261.593 187.408C260.208 189.753 258.641 191.985 256.906 194.083C254.024 191.295 251.486 188.173 249.347 184.782C249.093 184.405 248.463 184.743 248.697 185.12C250.881 188.561 253.476 191.724 256.425 194.538C254.907 196.31 253.279 197.983 251.55 199.55C251.212 199.849 251.68 200.31 252.051 200.057C255.027 197.446 257.695 194.501 260 191.282C262.456 192.344 265.179 192.625 267.8 192.088C268.45 192.224 268.249 191.548 267.8 191.633Z" fill="#472B22"/>
<path d="M95.095 186.186C89.063 181.792 79.8785 184.197 74.0285 179.641C72.465 178.531 71.3494 176.899 70.8825 175.039C70.6485 174.119 70.6447 173.156 70.8715 172.234C71.0982 171.312 71.5485 170.461 72.1825 169.754C74.1325 167.772 77.2135 167.733 79.9825 168.24C82.7515 168.747 85.553 169.462 88.1335 168.578C88.9395 166.589 87.711 164.398 85.891 163.17C84.0236 162.157 81.9967 161.471 79.898 161.142C76.3724 160.341 72.9551 159.121 69.719 157.508C66.469 155.909 63.011 153.205 63.0955 149.526C63.18 145.847 67.3595 143.026 71.201 143.065C75.0425 143.104 78.507 145.178 81.8415 147.121C83.1415 147.882 84.968 148.597 85.9755 147.498C87.204 146.231 85.9365 144.209 84.6755 143.026C81.4645 139.9 78 136.942 75.426 133.276C72.852 129.61 71.162 125.041 72.1305 120.647C73.099 116.253 77.207 112.45 81.6335 112.847C83.2182 113.089 84.7207 113.712 86.0122 114.662C87.3038 115.611 88.3461 116.86 89.05 118.3C90.4512 121.143 91.269 124.237 91.455 127.4C91.9282 131.521 92.1453 135.668 92.105 139.815C92.0351 140.867 92.136 141.923 92.404 142.942C92.5443 143.45 92.8236 143.909 93.2106 144.268C93.5976 144.626 94.0769 144.869 94.5945 144.97C95.1475 144.995 95.6955 144.856 96.1697 144.57C96.6439 144.284 97.023 143.865 97.2595 143.364C97.7263 142.367 98.0124 141.296 98.1045 140.199C98.6505 136.52 99.6645 132.399 103.084 130.819C106.041 129.428 109.85 130.819 111.742 133.523C112.62 134.919 113.197 136.483 113.437 138.115C113.676 139.747 113.573 141.411 113.133 143C112.243 146.173 110.844 149.18 108.992 151.905C107.172 154.633 105.684 157.568 104.559 160.648C104.277 161.403 104.203 162.22 104.345 163.014C104.415 163.409 104.624 163.766 104.933 164.022C105.243 164.278 105.633 164.416 106.035 164.411C106.401 164.346 106.746 164.194 107.041 163.968C107.336 163.741 107.573 163.448 107.731 163.111C109.337 160.576 109.844 157.495 110.858 154.661C111.872 151.827 113.854 148.961 116.812 148.369C119.769 147.778 122.935 149.806 124.241 152.633C126.191 156.774 124.748 161.733 122.291 165.601C119.834 169.468 116.292 172.445 113.464 176.001C110.637 179.556 108.498 184.113 109.343 188.637C109.766 190.749 110.78 193.024 109.22 194.929C107.92 196.489 106.139 196.404 104.488 195.52C100.295 193.447 98.605 188.676 95.095 186.186Z" fill="#BF620C"/>
<path d="M117.097 156.117C114.83 163.253 110.992 169.789 105.865 175.246C104.486 176.712 103.021 178.095 101.478 179.387C99.9115 174.31 98.3905 169.292 96.876 164.268L95.4785 159.835C100.193 154.913 103.718 148.976 105.781 142.48C106.383 140.661 106.836 138.796 107.133 136.903C107.217 136.435 106.483 136.311 106.418 136.773C105.213 143.385 102.526 149.638 98.5595 155.064C97.5175 156.442 96.4045 157.766 95.225 159.029C92.69 150.923 89.986 142.818 86.866 134.914C84.734 129.519 82.3376 124.241 79.677 119.08C79.469 118.618 78.7865 118.956 78.9555 119.333C83.621 128.552 87.578 138.113 90.792 147.933C91.806 150.975 92.8655 154.102 93.795 157.098C86.6319 156.259 79.687 154.097 73.3135 150.722C71.4557 149.773 69.6563 148.714 67.925 147.55C67.548 147.296 67.08 147.888 67.4635 148.141C75.3379 153.491 84.3989 156.837 93.86 157.891L93.899 157.93C95.966 164.391 97.8705 170.93 99.8985 177.43C91.8742 178.005 83.8279 176.669 76.4205 173.53C76.3775 173.494 76.3269 173.467 76.2723 173.452C76.2176 173.438 76.1604 173.436 76.1049 173.446C76.0494 173.457 75.9969 173.48 75.9514 173.513C75.9059 173.547 75.8685 173.59 75.8421 173.64C75.8156 173.69 75.8007 173.745 75.7985 173.802C75.7962 173.858 75.8067 173.915 75.8292 173.966C75.8517 174.018 75.8855 174.064 75.9282 174.101C75.9709 174.139 76.0214 174.165 76.076 174.18C82.057 176.672 88.4486 178.032 94.926 178.191C96.7142 178.256 98.5047 178.217 100.288 178.074C101.978 183.475 103.668 188.922 105.527 194.246C105.696 194.707 106.372 194.415 106.242 193.992C104.682 189.442 103.161 184.782 101.692 180.225C107.501 175.371 112.185 169.312 115.42 162.467C116.338 160.521 117.126 158.517 117.78 156.468C117.903 155.948 117.227 155.61 117.097 156.117Z" fill="#472B22"/>
<path d="M235.56 243.874C234.969 238.089 237.926 232.512 241.176 227.695C244.426 222.879 248.183 218.108 249.451 212.453C251.186 204.724 248.099 196.203 251.271 188.975C255.957 178.204 271.921 175.871 276.309 164.925C278.675 159.075 276.959 152.464 276.777 146.133C276.482 136.235 279.902 126.584 286.364 119.08C291.051 113.672 297.174 109.616 301.607 103.961C306.04 98.3063 308.49 90.0708 304.603 84.0908C314.49 90.5063 320.99 104.949 318.078 118.976C316.726 125.476 313.3 131.326 311.955 137.826C309.205 151.041 316.095 165.906 309.797 177.905C303.342 190.255 285.747 193.609 279.942 206.278C277.83 210.886 277.622 216.164 275.295 220.682C271.746 227.604 264.063 231.322 256.692 233.903C249.321 236.483 241.241 238.511 235.56 243.874Z" fill="#548C0A"/>
<path d="M239.694 239.272C244.972 230.107 256.503 227.611 263.179 219.889C264.895 217.919 266.162 215.599 266.89 213.09C267.54 210.132 268.119 207.168 268.502 204.178C268.915 201.456 269.891 198.85 271.369 196.528C272.749 194.51 274.418 192.705 276.322 191.172C284.05 184.672 294.697 180.739 299.338 171.152C304.87 159.666 299.806 146.783 301.113 134.752C301.828 128.213 304.954 122.551 307.827 116.76C310.427 111.404 312.767 105.534 312.137 99.4307C311.969 98.0016 311.629 96.5981 311.123 95.2512C310.785 94.3672 309.472 94.9132 309.771 95.8037C311.968 101.589 310.278 107.926 307.821 113.412C305.221 119.158 301.782 124.56 300.3 130.767C297.434 142.935 302.965 155.604 299.163 167.544C295.867 178.061 285.214 182.41 277.121 188.617C273.28 191.575 269.724 195.163 268.125 199.81C266.175 205.335 266.942 211.588 263.731 216.71C261.073 220.974 256.679 223.802 252.538 226.46C248.398 229.119 243.796 231.784 240.507 235.71C239.712 236.644 239.005 237.649 238.394 238.713C237.9 239.48 239.233 240.071 239.694 239.272Z" fill="#472B22"/>
<path d="M256.191 230.522C256.874 221.422 248.469 213.382 249.399 204.256C249.574 201.922 250.542 199.718 252.142 198.009C252.95 197.177 253.951 196.556 255.057 196.203C256.162 195.849 257.337 195.773 258.479 195.981C261.775 196.696 263.848 199.953 265.109 203.131C266.37 206.31 267.391 209.722 270.049 211.874C272.584 211.412 274.144 208.702 274.281 206.024C274.159 203.431 273.557 200.883 272.506 198.51C271.076 194.299 270.14 189.937 269.718 185.51C269.295 181.031 269.887 175.669 273.774 173.394C277.661 171.119 283.355 173.641 285.727 177.697C288.1 181.753 288.217 186.693 288.386 191.418C288.425 193.277 288.893 195.598 290.667 195.968C292.78 196.43 294.047 193.817 294.509 191.704C295.685 186.342 296.537 180.81 298.688 175.74C300.84 170.67 304.538 165.945 309.738 164.086C314.938 162.227 321.607 164.047 324.038 168.987C324.806 170.792 325.127 172.756 324.973 174.711C324.82 176.667 324.195 178.556 323.154 180.219C321.088 183.514 318.394 186.37 315.224 188.623C311.218 191.783 307.008 194.676 302.621 197.281C301.469 197.859 300.437 198.648 299.579 199.608C299.095 200.074 298.774 200.682 298.662 201.344C298.549 202.005 298.652 202.685 298.954 203.284C299.257 203.883 299.743 204.369 300.342 204.672C300.941 204.974 301.621 205.077 302.283 204.964C303.622 204.827 304.924 204.444 306.124 203.833C310.304 202.013 315.335 200.408 319.176 202.943C322.556 205.094 323.525 209.995 321.958 213.707C321.073 215.528 319.815 217.143 318.265 218.447C316.715 219.75 314.908 220.713 312.962 221.273C309.065 222.381 305.017 222.863 300.97 222.703C296.931 222.567 292.891 222.923 288.938 223.762C287.968 223.946 287.067 224.396 286.338 225.062C285.977 225.395 285.743 225.842 285.674 226.328C285.605 226.813 285.707 227.308 285.961 227.727C286.261 228.058 286.636 228.311 287.055 228.465C287.474 228.619 287.924 228.669 288.366 228.611C292.084 228.657 295.588 227.175 299.221 226.414C302.855 225.654 307.073 225.868 309.621 228.572C312.169 231.276 312.033 235.917 310.005 239.089C306.963 243.769 300.794 245.505 295.178 245.427C289.562 245.349 284.128 243.574 278.538 242.937C272.948 242.3 266.799 242.983 262.665 246.779C260.676 248.592 259.032 251.127 256.029 250.679C253.539 250.341 252.486 248.443 252.356 246.077C252.012 240.662 255.814 235.807 256.191 230.522Z" fill="#8CC63F"/>
<path d="M301.808 234.032C292.889 236.271 283.582 236.493 274.566 234.682C272.139 234.172 269.739 233.536 267.377 232.778C271.65 227.881 275.916 223.01 280.176 218.166L283.933 213.856C292.124 215.594 300.605 215.42 308.718 213.349C310.998 212.763 313.242 212.044 315.439 211.198C315.985 210.99 315.608 210.145 315.055 210.353C307.371 213.392 299.091 214.62 290.856 213.941C288.741 213.758 286.64 213.447 284.564 213.011C291.408 205.114 298.123 197.093 304.369 188.688C308.646 182.936 312.676 177.021 316.336 170.911C316.628 170.404 315.913 169.851 315.575 170.358C308.941 181.179 301.515 191.495 293.358 201.22C290.823 204.256 288.288 207.343 285.675 210.32C281.95 202.29 279.73 193.645 279.123 184.814C278.954 182.273 278.915 179.699 279 177.17C279.001 177.052 278.958 176.938 278.88 176.85C278.801 176.762 278.691 176.708 278.574 176.697C278.456 176.686 278.339 176.72 278.246 176.792C278.152 176.865 278.09 176.969 278.07 177.086C277.586 188.744 279.949 200.345 284.954 210.886V210.97C279.507 217.314 273.962 223.515 268.469 229.82C262.683 221.815 258.868 212.557 257.335 202.8C257.334 202.735 257.32 202.672 257.293 202.613C257.266 202.554 257.228 202.502 257.18 202.459C257.132 202.416 257.076 202.383 257.015 202.363C256.954 202.342 256.889 202.335 256.825 202.341C256.761 202.347 256.698 202.366 256.642 202.397C256.585 202.428 256.536 202.47 256.496 202.521C256.457 202.572 256.429 202.631 256.413 202.693C256.397 202.756 256.395 202.821 256.405 202.884C257.669 210.732 260.375 218.278 264.387 225.14C265.486 227.038 266.708 228.897 267.982 230.665C263.373 235.904 258.882 241.182 254.455 246.59C254.072 247.058 254.832 247.604 255.216 247.143C258.973 242.534 262.821 237.978 266.701 233.538C275.531 236.493 284.901 237.474 294.151 236.411C296.769 236.105 299.364 235.625 301.919 234.975C302.53 234.793 302.4 233.863 301.808 234.032Z" fill="#472B22"/>
<path d="M246.064 174.2C249.908 169.912 252.129 164.413 252.34 158.658C252.551 152.904 250.739 147.257 247.22 142.699C243.7 138.141 238.695 134.96 233.074 133.709C227.452 132.458 221.571 133.215 216.45 135.85C218.705 119.763 207.473 102.993 192.777 96.1155C178.08 89.2385 159.75 91.8905 146.867 101.771C133.984 111.651 126.646 127.959 126.646 144.17C121.615 139.445 113.171 138.97 106.671 141.258C100.166 143.765 94.8167 148.587 91.6499 154.798C88.5645 160.996 86.7543 167.751 86.3264 174.662C86.3264 174.662 86.3654 186.615 95.1079 192.023C95.1079 192.023 89.2579 194.727 90.7139 204.282L241.514 201.24C241.514 201.24 260.637 188.442 246.064 174.187V174.2Z" fill="#8CC63F"/>
<path d="M173.088 116.35C173.088 111.241 173.218 106.132 173.257 101.023C173.257 99.8397 175.162 99.7552 175.162 101.023L174.57 154.531C174.57 159.64 174.525 164.71 174.401 169.819C174.401 170.065 174.304 170.302 174.129 170.476C173.955 170.65 173.718 170.748 173.472 170.748C173.225 170.748 172.989 170.65 172.815 170.476C172.64 170.302 172.542 170.065 172.542 169.819L173.088 116.35Z" fill="#472B22"/>
<path d="M192.179 121.797C193.531 117.318 194.877 112.84 196.079 108.368C196.139 108.126 196.293 107.919 196.506 107.791C196.72 107.663 196.975 107.625 197.217 107.685C197.458 107.746 197.665 107.899 197.793 108.113C197.921 108.326 197.959 108.581 197.899 108.823C193.59 124.624 187.974 140.023 184.301 156C183.242 160.517 182.397 165.1 181.701 169.728C181.532 170.904 179.719 170.443 179.888 169.26C182.254 152.997 187.408 137.377 192.179 121.797Z" fill="#472B22"/>
<path d="M188.038 168.552C193.415 155.369 199.827 142.633 207.213 130.462C207.863 129.448 209.495 130.332 208.819 131.385C201.429 143.55 195.026 156.288 189.67 169.475C189.306 170.612 187.661 169.65 188.038 168.552Z" fill="#472B22"/>
<path d="M198.432 169.344C206.253 158.809 214.848 148.871 224.146 139.613C224.991 138.768 226.382 140.075 225.498 140.913C216.338 150.046 207.865 159.842 200.148 170.222C199.355 171.242 197.697 170.3 198.432 169.344Z" fill="#472B22"/>
<path d="M205.478 175.844C214.371 168.204 223.687 161.071 233.382 154.479C234.39 153.829 235.365 155.408 234.351 156.084C224.797 162.603 215.605 169.638 206.817 177.157C205.946 177.963 204.548 176.65 205.478 175.844Z" fill="#472B22"/>
<path d="M148.239 113.386L168.35 168.798C168.772 169.936 166.959 170.397 166.536 169.344C159.863 150.893 153.175 132.424 146.471 113.938C146.022 112.755 147.816 112.248 148.239 113.386Z" fill="#472B22"/>
<path d="M139.178 132.561C146.653 144.638 154.128 156.676 161.518 168.799C161.59 168.901 161.641 169.016 161.668 169.138C161.695 169.259 161.698 169.385 161.677 169.508C161.656 169.631 161.61 169.748 161.543 169.853C161.477 169.959 161.39 170.05 161.288 170.122C161.186 170.193 161.071 170.244 160.949 170.271C160.827 170.299 160.701 170.302 160.579 170.28C160.456 170.259 160.338 170.213 160.233 170.146C160.128 170.08 160.037 169.993 159.965 169.891C159.945 169.866 159.928 169.84 159.913 169.813L137.527 133.621C136.903 132.522 138.521 131.502 139.178 132.561Z" fill="#472B22"/>
<path d="M124.8 147.049C133.796 154.78 143.113 162.127 152.75 169.091C153.719 169.812 152.75 171.457 151.821 170.696C142.097 163.65 132.656 156.203 123.5 148.356C122.538 147.595 123.851 146.25 124.8 147.049Z" fill="#472B22"/>
<path d="M237.855 170.696C237.976 170.919 238.004 171.181 237.933 171.424C237.863 171.667 237.699 171.873 237.478 171.996C226.411 178.08 215.024 183.561 203.366 188.415C202.274 188.922 201.344 187.278 202.443 186.81C214.11 181.948 225.5 176.445 236.561 170.326C236.782 170.205 237.042 170.176 237.284 170.245C237.526 170.314 237.731 170.477 237.855 170.696Z" fill="#472B22"/>
<path d="M242.931 182.65C243.05 182.873 243.078 183.134 243.007 183.377C242.937 183.62 242.774 183.826 242.554 183.95C231.482 190.035 220.09 195.52 208.429 200.382C207.33 200.883 206.401 199.238 207.499 198.77C219.17 193.909 230.562 188.406 241.624 182.286C241.843 182.161 242.102 182.127 242.345 182.191C242.589 182.256 242.797 182.414 242.924 182.631L242.931 182.65Z" fill="#472B22"/>
<path d="M108.856 152.159C118.924 159.802 129.4 166.893 140.238 173.401C141.252 174.051 140.108 175.513 139.094 174.831C128.252 168.35 117.777 161.274 107.718 153.634C107.524 153.485 107.395 153.265 107.36 153.023C107.325 152.78 107.386 152.533 107.53 152.334C107.604 152.234 107.697 152.149 107.805 152.086C107.912 152.023 108.031 151.981 108.155 151.965C108.279 151.949 108.405 151.957 108.525 151.991C108.645 152.024 108.758 152.081 108.856 152.159Z" fill="#472B22"/>
<path d="M104.422 165.1C114.749 172.379 125.476 179.074 136.552 185.152C137.598 185.744 136.506 187.271 135.447 186.634C124.4 180.546 113.685 173.872 103.35 166.64C103.246 166.574 103.157 166.487 103.086 166.386C103.016 166.285 102.966 166.171 102.94 166.051C102.914 165.93 102.911 165.806 102.933 165.684C102.955 165.563 103.001 165.447 103.067 165.344C103.134 165.24 103.22 165.15 103.321 165.08C103.423 165.01 103.537 164.96 103.657 164.934C103.777 164.907 103.902 164.905 104.023 164.927C104.144 164.949 104.26 164.994 104.364 165.061L104.448 165.126L104.422 165.1Z" fill="#472B22"/>
<path d="M100.055 177.008C110.126 184.619 120.607 191.673 131.45 198.139C132.464 198.789 131.326 200.252 130.312 199.576C119.45 193.112 108.946 186.064 98.8455 178.464C98.6352 178.324 98.489 178.107 98.439 177.859C98.389 177.612 98.4394 177.354 98.579 177.144C98.7187 176.934 98.9361 176.788 99.1836 176.738C99.431 176.688 99.6882 176.738 99.8985 176.878C99.9446 176.909 99.9881 176.943 100.029 176.982L100.055 177.008Z" fill="#472B22"/>
<path d="M41.405 232.596C34.3525 229.931 26 234.65 18.9995 231.797C17.1981 231.108 15.6866 229.823 14.716 228.157C14.2368 227.324 13.9739 226.384 13.9512 225.424C13.9284 224.463 14.1467 223.512 14.586 222.658C15.938 220.214 18.98 219.369 21.8075 219.115C24.635 218.862 27.5535 218.862 29.8805 217.25C30.1275 215.137 28.314 213.239 26.2405 212.563C24.1572 212.055 21.9992 211.928 19.8705 212.186C16.2012 212.345 12.5261 212.061 8.92451 211.341C5.29751 210.6 1.20251 208.884 0.273007 205.296C-0.656493 201.708 2.72351 197.782 6.48051 196.846C10.2375 195.91 14.209 196.97 17.966 197.984C19.448 198.406 21.385 198.575 22.1065 197.223C22.9515 195.663 21.177 194.012 19.656 193.167C15.6845 190.97 11.505 188.988 8.00151 186.115C4.49801 183.242 1.62501 179.147 1.37151 174.629C1.11801 170.112 4.11451 165.211 8.63201 164.483C10.237 164.301 11.8621 164.509 13.3695 165.09C14.8768 165.67 16.2217 166.606 17.29 167.817C19.4107 170.243 21.0438 173.055 22.1 176.098C23.6515 180.01 24.9541 184.015 26 188.091C26.2017 189.132 26.5728 190.134 27.0985 191.055C27.3762 191.514 27.7761 191.888 28.2535 192.133C28.7309 192.379 29.2672 192.487 29.8025 192.446C30.3535 192.326 30.8564 192.045 31.2476 191.639C31.6387 191.233 31.9004 190.719 31.9995 190.164C32.2075 189.063 32.2075 187.932 31.9995 186.83C31.5315 183.073 31.447 178.724 34.3655 176.319C36.9005 174.116 40.989 174.538 43.563 176.651C44.8029 177.778 45.7903 179.155 46.4603 180.691C47.1302 182.226 47.4675 183.887 47.45 185.562C47.4164 188.912 46.8458 192.234 45.76 195.403C44.7135 198.561 44.0586 201.836 43.81 205.153C43.7103 205.964 43.8576 206.787 44.2325 207.513C44.4104 207.879 44.7099 208.172 45.0798 208.341C45.4498 208.511 45.8671 208.547 46.2605 208.442C46.5994 208.279 46.8942 208.036 47.1203 207.736C47.3465 207.435 47.4974 207.084 47.5605 206.713C48.4445 203.801 48.1065 200.636 48.36 197.613C48.6135 194.591 49.7965 191.23 52.5395 189.878C55.2825 188.526 58.916 189.67 60.9895 192.075C63.986 195.579 63.9015 200.863 62.5105 205.296C61.1195 209.729 58.409 213.616 56.6605 217.88C54.912 222.144 53.9175 227.182 55.9455 231.348C56.914 233.337 58.5455 235.248 57.4665 237.517C56.6215 239.415 54.8665 239.798 52.9165 239.376C48.4575 238.297 45.5455 234.117 41.405 232.596Z" fill="#8CC63F"/>
<path d="M54.9185 197.294C54.5211 206.974 51.3636 216.338 45.8185 224.282C42.9455 219.765 40.1115 215.241 37.245 210.684L34.6905 206.7C37.9838 200.61 39.8466 193.85 40.1375 186.933C40.2218 184.982 40.1783 183.028 40.0075 181.083C39.9685 180.583 39.208 180.713 39.247 181.168C39.8368 187.981 38.8631 194.84 36.4 201.22C35.7604 202.853 35.029 204.448 34.2095 205.998C29.575 198.685 24.8105 191.509 19.617 184.6C16.0869 179.86 12.3162 175.304 8.31999 170.95C7.98849 170.573 7.39699 171.034 7.73499 171.418C14.7421 179.229 21.1641 187.545 26.949 196.3C28.7625 199.004 30.576 201.753 32.357 204.496C25.1192 205.562 17.747 205.289 10.608 203.69C8.55895 203.229 6.53661 202.656 4.54999 201.974C4.08199 201.805 3.78949 202.527 4.25099 202.696C11.3706 205.102 18.8762 206.16 26.3835 205.816C28.5071 205.726 30.6234 205.509 32.721 205.166H32.8055C36.5235 210.951 40.157 216.82 43.8555 222.644C36.1467 225.357 27.903 226.197 19.8055 225.095C19.7068 225.078 19.6054 225.1 19.5223 225.155C19.4392 225.211 19.3808 225.297 19.359 225.395C19.3373 225.492 19.354 225.595 19.4057 225.68C19.4573 225.766 19.54 225.829 19.6365 225.855C26.1487 226.693 32.7596 226.321 39.1365 224.757C40.9126 224.342 42.6621 223.822 44.3755 223.197C47.463 228.052 50.5895 232.947 53.794 237.64C54.093 238.062 54.6845 237.601 54.3855 237.178C51.6425 233.122 48.893 228.982 46.319 224.88C50.7505 218.593 53.7238 211.396 55.0225 203.814C55.3849 201.664 55.6021 199.493 55.6725 197.314C55.666 196.911 54.964 196.787 54.9185 197.294Z" fill="#472B22"/>
<path d="M306.209 228.917V302.439H23.8745V228.917L165.022 155.402L165.334 155.558L306.209 228.917Z" fill="#F2F2F2"/>
<path opacity="0.1" d="M306.208 228.917V302.438H165.334V155.558L306.208 228.917Z" fill="black"/>
<path d="M152.977 200.401L142.389 204.399V188.636L152.977 184.002V200.401Z" fill="#44322D"/>
<path d="M35.919 244.536L32.3895 245.869V236.294L35.919 234.728V244.536Z" fill="#44322D"/>
<path d="M48.2754 240.416L44.1544 241.95V231.589L48.2754 229.788V240.416Z" fill="#44322D"/>
<path d="M61.8085 235.118L57.1025 236.886V225.706L61.8085 223.626V235.118Z" fill="#44322D"/>
<path d="M78.2859 228.651L72.4034 230.841V219.233L78.2859 216.646V228.651Z" fill="#44322D"/>
<path d="M98.254 221L91.1885 223.665V210.99L98.254 207.896V221Z" fill="#44322D"/>
<path d="M122.382 212.173L114.14 215.267V200.993L122.382 197.379V212.173Z" fill="#44322D"/>
<path d="M35.919 263.913L32.3895 264.816V255.086L35.919 253.987V263.913Z" fill="#44322D"/>
<path d="M48.2754 260.975L44.1544 262.028V251.556L48.2754 250.263V260.975Z" fill="#44322D"/>
<path d="M61.8085 257.439L57.1025 258.655V247.475L61.8085 245.986V257.439Z" fill="#44322D"/>
<path d="M78.2859 253.325L72.4034 254.813V242.769L78.2859 240.884V253.325Z" fill="#44322D"/>
<path d="M98.254 248.066L91.1885 249.834V236.886L98.254 234.65V248.066Z" fill="#44322D"/>
<path d="M122.382 242.177L113.555 244.38V229.82L122.382 227.038V242.177Z" fill="#44322D"/>
<path d="M152.977 234.533L142.389 237.198V221L152.977 217.665V234.533Z" fill="#44322D"/>
<path d="M152.977 268.034L142.389 269.405V253.324L152.977 251.322V268.034Z" fill="#44322D"/>
<path d="M35.919 282.744L32.3895 283.218V273.917L35.919 273.247V282.744Z" fill="#44322D"/>
<path d="M48.2754 281.567L44.1544 282.074V272.148L48.2754 271.407V281.567Z" fill="#44322D"/>
<path d="M61.8085 279.799L57.1025 280.39V269.21L61.8085 268.307V279.799Z" fill="#44322D"/>
<path d="M78.2859 277.445L72.4034 278.193V266.272L78.2859 265.167V277.445Z" fill="#44322D"/>
<path d="M98.254 275.093L91.1885 275.997V262.737L98.254 261.404V275.093Z" fill="#44322D"/>
<path d="M122.382 272.148L113.555 273.292V258.622L122.382 256.971V272.148Z" fill="#44322D"/>
<path d="M294.716 244.536L298.246 245.869V236.294L294.716 234.728V244.536Z" fill="#44322D"/>
<path d="M282.36 240.416L286.474 241.95V231.589L282.36 229.788V240.416Z" fill="#44322D"/>
<path d="M268.859 235.118L273.572 236.886V225.706L268.859 223.626V235.118Z" fill="#44322D"/>
<path d="M252.389 228.651L258.271 230.841V219.233L252.389 216.646V228.651Z" fill="#44322D"/>
<path d="M232.375 221L239.44 223.665V210.99L232.375 207.896V221Z" fill="#44322D"/>
<path d="M208.254 212.173L216.496 215.267V200.993L208.254 197.379V212.173Z" fill="#44322D"/>
<path d="M294.716 263.913L298.246 264.816V255.086L294.716 253.987V263.913Z" fill="#44322D"/>
<path d="M282.36 260.975L286.474 262.028V251.556L282.36 250.263V260.975Z" fill="#44322D"/>
<path d="M268.859 257.439L273.572 258.655V247.475L268.859 245.986V257.439Z" fill="#44322D"/>
<path d="M252.389 253.325L258.271 254.813V242.769L252.389 240.884V253.325Z" fill="#44322D"/>
<path d="M232.375 248.066L239.44 249.834V236.886L232.375 234.65V248.066Z" fill="#44322D"/>
<path d="M208.254 242.177L217.081 244.38V229.82L208.254 227.038V242.177Z" fill="#44322D"/>
<path d="M177.697 234.533L188.247 237.198V221L177.697 217.665V234.533Z" fill="#44322D"/>
<path d="M177.697 268.034L188.247 269.405V253.324L177.697 251.322V268.034Z" fill="#44322D"/>
<path d="M294.716 282.744L298.246 283.218V273.917L294.716 273.247V282.744Z" fill="#44322D"/>
<path d="M282.36 281.567L286.474 282.074V272.148L282.36 271.407V281.567Z" fill="#44322D"/>
<path d="M268.859 279.799L273.572 280.39V269.21L268.859 268.307V279.799Z" fill="#44322D"/>
<path d="M252.389 277.445L258.271 278.193V266.272L252.389 265.167V277.445Z" fill="#44322D"/>
<path d="M232.375 275.093L239.44 275.997V262.737L232.375 261.404V275.093Z" fill="#44322D"/>
<path d="M208.254 272.148L217.081 273.292V258.622L208.254 256.971V272.148Z" fill="#44322D"/>
<path d="M187.661 204.522L177.105 200.518V183.924L187.661 188.591V204.522Z" fill="#44322D"/>
<path d="M261.8 284.979V302.75L250.308 302.711H238.855V282.743L250.308 283.881L261.8 284.979Z" fill="#44322D"/>
<path d="M68.874 302.75L91.78 302.711V282.743L68.874 284.979V302.75Z" fill="#44322D"/>
<path opacity="0.1" d="M261.801 284.979V302.75L250.309 302.711V283.881L261.801 284.979Z" fill="black"/>
<path d="M0 302.081L10.1465 301.912L20.293 301.789L40.534 301.529L81.0225 301.229C94.51 301.106 108.03 301.106 121.518 301.061L162.006 301.021L202.501 301.061L222.742 301.145L232.869 301.19L243.016 301.275L283.504 301.574L303.752 301.828L313.872 301.957L323.993 302.126L313.872 302.296L303.752 302.425L283.504 302.679L243.016 302.971L232.869 303.056L222.742 303.108L202.501 303.193L162.006 303.232L121.55 303.193C108.063 303.147 94.5425 303.108 81.0615 303.017L40.5665 302.718L20.3255 302.464L10.179 302.335L0 302.081Z" fill="#44322D"/>
</g>
<defs>
<clipPath id="clip0">
<rect width="325" height="325" fill="white"/>
</clipPath>
</defs>
</svg>
