<svg id="Calque_1" data-name="Calque 1" xmlns="http://www.w3.org/2000/svg" width="355.93" height="427.47" viewBox="0 0 355.93 427.47">
  <defs>
    <style>
      .cls-1 {
        fill: #44241b;
      }

      .cls-2 {
        fill: #00c6b8;
      }

      .cls-3 {
        fill: #00675b;
      }
    </style>
  </defs>
  <g>
    <g>
      <path class="cls-1" d="M183.5,266.07A40.91,40.91,0,0,1,157.12,258c-8.49-6.23-15.73-16.79-21-30.52-5.66-14.88-7.38-26.94-5.26-36.86,3-14.25,12.64-26.35,24.43-30.84,11-4.16,24.25-1.11,37.46,8.58,7.49,5.5,17.54,15,22.83,28.91h0c4.09,10.76,4.63,22.75,1.65,36.68-3.19,14.91-11.16,25.48-22.43,29.77A37.7,37.7,0,0,1,183.5,266.07Zm-15.22-84.36a12.56,12.56,0,0,0-3.83.78c-6.1,2.32-11.31,9.07-13,16.81-1.2,5.6,0,13.09,3.44,22.26,3.24,8.5,7.56,14.92,12.5,18.54a21.28,21.28,0,0,0,20.14,3.16c7.29-2.77,10.3-10.25,11.54-16,1.82-8.54,1.54-15.78-.87-22.13-3.15-8.3-9.27-14-13.84-17.4-5.66-4.21-11.32-6.27-16.09-6Z"/>
      <g>
        <path class="cls-1" d="M183.5,266.46c-13.05.71-26.17-5-35.1-14.82a78.68,78.68,0,0,1-11.5-16.14c-1.59-2.91-3.07-5.9-4.4-8.92s-2.58-6.12-3.67-9.3A66,66,0,0,1,124.9,197a47.41,47.41,0,0,1,.26-5.46c.22-1.85.55-3.62.92-5.4a46.35,46.35,0,0,1,3.56-10.3,51.37,51.37,0,0,1,5.8-9.4,42.68,42.68,0,0,1,8-8,38.84,38.84,0,0,1,10.27-5.65,35.72,35.72,0,0,1,11.86-2A42.66,42.66,0,0,1,177,152.45a53.34,53.34,0,0,1,10.21,4.26,49.08,49.08,0,0,1,4.62,2.77l2.2,1.52,2.11,1.6a80.35,80.35,0,0,1,7.86,7,68.6,68.6,0,0,1,12.22,17,58.33,58.33,0,0,1,5.83,20A69.22,69.22,0,0,1,221,226.81a81.91,81.91,0,0,1-2.39,9.65,63.77,63.77,0,0,1-3.76,9.23,42.22,42.22,0,0,1-5.46,8.28,36.29,36.29,0,0,1-7.36,6.58,33.47,33.47,0,0,1-8.86,4.19A38.35,38.35,0,0,1,183.5,266.46Zm0-.8a34.32,34.32,0,0,0,17.88-6,36.22,36.22,0,0,0,11.78-14.75,71,71,0,0,0,4.62-37.58,53.84,53.84,0,0,0-6.53-17.87,64.44,64.44,0,0,0-11.95-14.87,68.86,68.86,0,0,0-15.55-11,40.5,40.5,0,0,0-18.17-4.83,27.92,27.92,0,0,0-9.24,1.5,32,32,0,0,0-8.31,4.4A42,42,0,0,0,135.85,179a45.88,45.88,0,0,0-3.54,8.83c-.41,1.53-.79,3.08-1.06,4.64a41.65,41.65,0,0,0-.49,4.73,62.74,62.74,0,0,0,2.37,18.93c.83,3.1,1.81,6.15,2.89,9.17s2.28,6,3.64,8.9a72.12,72.12,0,0,0,10.19,16.22,44,44,0,0,0,15,11.57,39.81,39.81,0,0,0,18.65,3.64Z"/>
        <path class="cls-1" d="M168.29,182.11A14.06,14.06,0,0,0,159,186.8a22.09,22.09,0,0,0-5.15,9.15,21,21,0,0,0-.31,10.12,45.88,45.88,0,0,0,3.43,9.79,68.73,68.73,0,0,0,5,9,37.63,37.63,0,0,0,6.08,7.3,17.55,17.55,0,0,0,14,5,10,10,0,0,0,1.72-.29,6,6,0,0,0,.83-.24l.41-.13.34-.14a8.69,8.69,0,0,0,2.54-1.5,17,17,0,0,0,4.35-6.3c.28-.69.57-1.39.84-2.12s.53-1.56.77-2.33a46.67,46.67,0,0,0,1.18-4.8,33.91,33.91,0,0,0,.65-9.69A28.2,28.2,0,0,0,193,200a36,36,0,0,0-6-8.62,35.17,35.17,0,0,0-8.42-6.64A19.85,19.85,0,0,0,168.29,182.11Zm0-.8A22.27,22.27,0,0,1,179,183.87a42,42,0,0,1,9.15,6.26c5.53,4.87,10,11.25,11.77,18.55a37.38,37.38,0,0,1,.87,11.11,51.35,51.35,0,0,1-.68,5.52,41.92,41.92,0,0,1-1.26,5.43,23.19,23.19,0,0,1-5.62,9.73,16.15,16.15,0,0,1-4.75,3.22,19.75,19.75,0,0,1-5.5,1.49,21.91,21.91,0,0,1-11.14-1.67,24.84,24.84,0,0,1-9-6.68c-4.91-5.69-7.88-12.65-10.09-19.66a49.23,49.23,0,0,1-2.2-10.87,27.59,27.59,0,0,1,.14-5.6,24.71,24.71,0,0,1,1.45-5.41,25.86,25.86,0,0,1,6.1-9.28,19.31,19.31,0,0,1,4.56-3.25,13,13,0,0,1,5.41-1.45Z"/>
      </g>
    </g>
    <g>
      <path class="cls-2" d="M213.21,394.05A113.5,113.5,0,0,1,166,388.83c-25.23-8.48-46.49-28.91-67.85-50.89l-4.51-4.63c-17-17.42-36.33-37.15-47.28-62.44-11.73-27.06-14.47-56-15.68-83.26-1.35-30.31,3.77-58.83,14.82-82.49,14.33-30.67,33.78-51.4,57.83-61.6,29.64-12.58,62.25-4.21,84.2,3.18,25.4,8.54,48.92,23.83,69.91,45.43,22.62,23.28,37.92,45.12,48.15,68.73h0c13.14,30.34,20.07,57.07,21.17,81.73A177.53,177.53,0,0,1,310,325.21c-13,27.85-33.39,48.3-59,59.15A127.87,127.87,0,0,1,213.21,394.05Zm-83-344.23A74.41,74.41,0,0,0,108.1,55.3C86.1,64.65,68.19,83.74,55,112c-10.22,21.89-15,48.31-13.71,76.41C42.4,213.8,45,240.75,55.81,265.83c10.12,23.36,27.32,41,43.94,58l4.25,4.35c19.85,20.44,39.6,39.42,62.8,47.23,24.59,8.28,52.35,6.81,78.14-4.14,23.49-10,42.23-28.78,54.2-54.4a164.63,164.63,0,0,0,15.58-76.54c-1-22.88-7.46-47.73-19.69-76-9.5-21.92-23.72-42.22-44.77-63.88-19.46-20-41.24-34.18-64.74-42.09-14.82-5-34.94-10.49-55.29-8.54Z"/>
      <g>
        <path class="cls-2" d="M213.23,394.3a116.74,116.74,0,0,1-32-1.21,109.84,109.84,0,0,1-15.55-4,100,100,0,0,1-14.7-6.45,155.27,155.27,0,0,1-26.27-18.36c-8.18-6.9-15.85-14.36-23.4-21.92s-15.14-15-22.51-22.81A231.92,231.92,0,0,1,58.11,294.9a154.36,154.36,0,0,1-8.68-13.66,140.49,140.49,0,0,1-7-14.65c-2-5-3.78-10.13-5.31-15.32s-2.8-10.43-3.88-15.72a287.31,287.31,0,0,1-4.45-32q-.67-8-1.13-16.06c-.27-5.4-.39-10.81-.28-16.23a194.43,194.43,0,0,1,3.35-32.38c1.05-5.34,2.3-10.65,3.85-15.89a153.54,153.54,0,0,1,5.51-15.46l1.65-3.77c.56-1.24,1.17-2.46,1.75-3.69,1.14-2.48,2.45-4.87,3.7-7.3a157.36,157.36,0,0,1,8.52-14c.76-1.14,1.53-2.28,2.37-3.38l2.46-3.31c1.73-2.15,3.42-4.33,5.29-6.37s3.77-4.06,5.71-6a78.6,78.6,0,0,1,6.22-5.55,94.7,94.7,0,0,1,28.95-16.64,86.26,86.26,0,0,1,16.38-3.92l2.08-.31c.69-.09,1.39-.13,2.08-.2l4.18-.35c2.78-.05,5.57-.24,8.35-.09a124.83,124.83,0,0,1,16.49,1.55,163,163,0,0,1,16.09,3.39c5.28,1.36,10.49,3,15.61,4.69a157,157,0,0,1,15.31,6c20,9,37.87,22.21,53.26,37.52A297.86,297.86,0,0,1,278.1,110a229.63,229.63,0,0,1,18.47,26.69q4.11,7,7.66,14.34c2.35,4.89,4.42,9.9,6.43,14.87a302.77,302.77,0,0,1,10.39,30.56,213.49,213.49,0,0,1,6.37,31.67,168.44,168.44,0,0,1,.71,32.3,182.59,182.59,0,0,1-16.05,62.07,135.32,135.32,0,0,1-16.42,27.58,121.77,121.77,0,0,1-10.7,12L282,364.83c-1,.91-2,1.75-3,2.64S277,369.2,275.93,370s-2.07,1.69-3.18,2.44a110.86,110.86,0,0,1-28.32,14.9A127.87,127.87,0,0,1,213.23,394.3Zm0-.5a126.9,126.9,0,0,0,31.06-7.07,109.48,109.48,0,0,0,28.12-14.9,113.8,113.8,0,0,0,12.09-10.37,122.41,122.41,0,0,0,10.52-12A135.13,135.13,0,0,0,311.11,322a179.33,179.33,0,0,0,15.19-61.72,167.27,167.27,0,0,0-1.11-31.87,210.56,210.56,0,0,0-6.69-31.22A300,300,0,0,0,307.83,167c-2.06-4.91-4.16-9.81-6.53-14.58s-5-9.43-7.7-14c-11-18.23-24.94-34.6-40-49.63a175.84,175.84,0,0,0-52.18-36.22,196.08,196.08,0,0,0-30.19-10.31A156,156,0,0,0,155.62,39a117.15,117.15,0,0,0-15.87-1.44c-2.65-.14-5.3,0-8,.07l-4,.32c-.67.06-1.33.1-2,.18l-2,.29a81.88,81.88,0,0,0-15.45,3.65A90,90,0,0,0,80.8,57.82c-2.08,1.66-4,3.49-6,5.29a63.54,63.54,0,0,0-5.51,5.75c-1.74,2-3.45,4-5.14,6.09l-2.4,3.19c-.81,1-1.57,2.14-2.31,3.24A165.93,165.93,0,0,0,44,109.28c-8.41,19.58-12.4,40.87-13.13,62.13a306.56,306.56,0,0,0,1,31.93,279.33,279.33,0,0,0,4,31.7c1,5.23,2.22,10.42,3.62,15.55s3.14,10.18,5,15.15a138.43,138.43,0,0,0,6.67,14.49,152.29,152.29,0,0,0,8.39,13.57A230.48,230.48,0,0,0,79.8,318.53c7.25,7.82,14.79,15.37,22.22,23s15.07,15.1,23.16,22.05a149.78,149.78,0,0,0,26,18.43,99.74,99.74,0,0,0,14.58,6.45,108.05,108.05,0,0,0,15.44,4,115.52,115.52,0,0,0,32,1.34Z"/>
        <path class="cls-2" d="M130.25,50.07a73.41,73.41,0,0,0-28,8.44A89.52,89.52,0,0,0,79,76.43a121.07,121.07,0,0,0-17.19,23.88,143.22,143.22,0,0,0-11.84,26.93c-.78,2.32-1.42,4.69-2.08,7s-1.19,4.76-1.67,7.17c-1,4.8-1.81,9.64-2.35,14.51s-1,9.76-1.1,14.66c-.12,2.45-.09,4.9-.13,7.35s.06,4.89.2,7.34c1,19.61,2.82,39.31,8,58.11a143.32,143.32,0,0,0,4.49,13.85,117.6,117.6,0,0,0,5.89,13.23,114.28,114.28,0,0,0,7.44,12.4c2.73,4,5.63,7.87,8.74,11.6C83.47,302,90.25,309,97.19,316l10.47,10.45c3.49,3.48,7,6.94,10.48,10.34s7.09,6.71,10.74,9.91,7.39,6.27,11.24,9.14A133.2,133.2,0,0,0,152,363.74a99.53,99.53,0,0,0,12.68,6.16,96.26,96.26,0,0,0,27.54,6A106.44,106.44,0,0,0,220.52,374a119.21,119.21,0,0,0,13.78-3.59,122.14,122.14,0,0,0,13.2-5.26,99.83,99.83,0,0,0,12.22-7.09,96.47,96.47,0,0,0,11-8.86,108.25,108.25,0,0,0,18-21.92,127.53,127.53,0,0,0,6.88-12.57c2.06-4.36,3.92-8.81,5.62-13.32a161.15,161.15,0,0,0,10.42-56.68c0-19.35-4.05-38.65-10.16-57.21-.73-2.34-1.58-4.64-2.37-7s-1.66-4.61-2.57-6.89c-1.75-4.58-3.62-9.12-5.62-13.56s-4.24-8.8-6.63-13.06-5-8.44-7.69-12.5a234,234,0,0,0-17.93-23.32,225.26,225.26,0,0,0-20.54-21.14C223.46,77.06,206.55,66.3,188,59.6a189.5,189.5,0,0,0-28.44-7.93A106.79,106.79,0,0,0,130.25,50.07Zm0-.5a107.62,107.62,0,0,1,29.54,1.61A188.5,188.5,0,0,1,188.36,59,158.38,158.38,0,0,1,239,89.28a239.53,239.53,0,0,1,20.91,21,237.81,237.81,0,0,1,18.39,23.24c2.82,4.06,5.46,8.25,7.94,12.53s4.81,8.64,6.9,13.12,4,9,5.87,13.62c.94,2.28,1.79,4.6,2.68,6.91s1.72,4.63,2.5,7c6.42,18.66,10.81,38.21,11.12,58a163.9,163.9,0,0,1-9.9,58.22c-1.71,4.64-3.58,9.23-5.66,13.72a129.36,129.36,0,0,1-7,13.09,110.76,110.76,0,0,1-18.66,23,100.76,100.76,0,0,1-11.57,9.34,104.07,104.07,0,0,1-12.83,7.5,126.33,126.33,0,0,1-13.78,5.56,123,123,0,0,1-14.37,3.79c-19.42,3.86-40,2.62-58.54-4.54a98.71,98.71,0,0,1-13.33-6.57,136.07,136.07,0,0,1-12.29-8.34c-3.94-3-7.72-6.19-11.43-9.46s-7.28-6.69-10.81-10.15c-7-6.93-13.87-14.06-20.77-21.12s-13.63-14.32-19.82-22c-3.11-3.84-6-7.85-8.76-12a118,118,0,0,1-7.45-12.83,122.47,122.47,0,0,1-5.85-13.64,143.31,143.31,0,0,1-4.37-14.18c-5-19.19-6.49-39-7.22-58.75-.56-19.74,1.78-39.68,8-58.5a143.85,143.85,0,0,1,12.15-27,124.16,124.16,0,0,1,17.48-23.9,90.28,90.28,0,0,1,23.47-18,73.72,73.72,0,0,1,28.21-8.37Z"/>
      </g>
    </g>
    <g>
      <path class="cls-3" d="M201,338.46c-21.74,0-45.79-9.08-68.54-26.27a150.09,150.09,0,0,1-50.72-69.82c-10.43-30-12.21-60-5-84.54,9.2-31.27,31.78-55,60.4-63.4,26.67-7.86,57.47,0,86.72,22.1,17.47,13.2,40.69,35.83,52.09,68.66s6.73,63.65.82,83.76c-10.45,35.5-30.28,59.2-55.85,66.73A70.27,70.27,0,0,1,201,338.46ZM160.5,109.81a60.06,60.06,0,0,0-17.06,2.41c-23.83,7-42.69,26.94-50.45,53.29-6.18,21-4.61,46.94,4.43,73a129.55,129.55,0,0,0,43.74,60.25c25.39,19.19,52.38,26.53,74.05,20.15,28.39-8.35,41.23-38.85,46.36-56.28s9.15-44-.66-72.26h0c-9.81-28.26-29.87-47.8-45-59.21C197.39,117.09,178.24,109.81,160.5,109.81Z"/>
      <g>
        <path class="cls-3" d="M201,338.71c-15,0-29.76-4.15-43.26-10.52a154.14,154.14,0,0,1-65.73-59.63,149.77,149.77,0,0,1-10.18-20.2,176.35,176.35,0,0,1-7.16-21.49,152,152,0,0,1-5.22-45.12A114.52,114.52,0,0,1,72.77,159a104.22,104.22,0,0,1,8.12-21.67,95.54,95.54,0,0,1,30.17-35.1A88.12,88.12,0,0,1,132,91.5a78.37,78.37,0,0,1,23.18-4.44,88.81,88.81,0,0,1,23.37,2.4,111.94,111.94,0,0,1,21.92,7.73,134.58,134.58,0,0,1,19.89,11.63c3.1,2.25,6.19,4.5,9.15,6.9s5.86,4.88,8.66,7.47a155.84,155.84,0,0,1,28.73,35.41,129.05,129.05,0,0,1,15.93,42.59,137.36,137.36,0,0,1,.47,45.19,154.62,154.62,0,0,1-5,22,166,166,0,0,1-8.13,21,109.71,109.71,0,0,1-11.51,19.3,84.23,84.23,0,0,1-15.68,16.05A66.19,66.19,0,0,1,223.2,335.3,67.82,67.82,0,0,1,201,338.71Zm0-.5A67.13,67.13,0,0,0,223,334.72a65.55,65.55,0,0,0,19.49-10.54,80.76,80.76,0,0,0,15.39-16A110,110,0,0,0,269,288.93a152.81,152.81,0,0,0,12.29-42.75,134.81,134.81,0,0,0-1.25-44.4,126.07,126.07,0,0,0-16.27-41.27,153.8,153.8,0,0,0-28.6-34,151,151,0,0,0-36.83-24.87c-13.43-6.26-28.2-10.07-43.05-9.5a79.18,79.18,0,0,0-41.52,14.11,91.68,91.68,0,0,0-29,33.15,104.5,104.5,0,0,0-8.12,20.69,111.55,111.55,0,0,0-3.56,22,148.81,148.81,0,0,0,4.32,44.24,172.18,172.18,0,0,0,6.67,21.29,146.65,146.65,0,0,0,9.67,20.09,150,150,0,0,0,27.66,34.83,147.61,147.61,0,0,0,17.42,13.92,145.3,145.3,0,0,0,19.27,11.22C171.5,334,186.13,338.14,201,338.21Z"/>
        <path class="cls-3" d="M160.5,110.06a58.24,58.24,0,0,0-18.6,3A68.46,68.46,0,0,0,125,121.35a75.84,75.84,0,0,0-24.54,28.14A83.3,83.3,0,0,0,93.82,167a94,94,0,0,0-2.69,18.5,124.93,124.93,0,0,0,4.16,37.07,151.51,151.51,0,0,0,5.79,17.76A124.09,124.09,0,0,0,109.24,257a129.91,129.91,0,0,0,23,28.83,120.26,120.26,0,0,0,14.26,11.61,137.86,137.86,0,0,0,15.74,9.46c10.87,5.47,22.66,9.2,34.5,9.63a54.13,54.13,0,0,0,17.36-2,48.68,48.68,0,0,0,15.46-7.85c9.41-7,16.58-17.19,21.87-28.18,10.59-22.08,15.27-47.61,11.31-72.13a108.82,108.82,0,0,0-12.33-35,127.56,127.56,0,0,0-23.08-29.62,152.62,152.62,0,0,0-14.47-12.16,110.71,110.71,0,0,0-16-10,91.38,91.38,0,0,0-17.61-6.88A72.46,72.46,0,0,0,160.5,110.06Zm0-.5a73.54,73.54,0,0,1,18.84,2.59A92,92,0,0,1,197.11,119a136,136,0,0,1,31,21.94,132.33,132.33,0,0,1,23.95,29.49,111.22,111.22,0,0,1,13.36,35.52,118.18,118.18,0,0,1,.63,38,132.39,132.39,0,0,1-10.7,36.48,95.49,95.49,0,0,1-9.63,16.46,66.54,66.54,0,0,1-13.26,13.71,53,53,0,0,1-17,8.72,59,59,0,0,1-19,2.25c-12.8-.52-25.19-4.58-36.5-10.34a130.48,130.48,0,0,1-16.23-10A124.57,124.57,0,0,1,129.1,289,130.07,130.07,0,0,1,98,241.51a154.83,154.83,0,0,1-5.51-18.23,127.16,127.16,0,0,1-3.4-37.84,94.86,94.86,0,0,1,3.15-18.78A89.2,89.2,0,0,1,99.35,149a77.55,77.55,0,0,1,25.17-28.16,69.12,69.12,0,0,1,17.12-8.29A58.91,58.91,0,0,1,160.5,109.56Z"/>
      </g>
    </g>
  </g>
</svg>
