<?xml version="1.0" encoding="utf-8"?>
<!-- Generator: Adobe Illustrator 24.3.0, SVG Export Plug-In . SVG Version: 6.00 Build 0)  -->
<svg version="1.1" id="Calque_1" xmlns="http://www.w3.org/2000/svg" xmlns:xlink="http://www.w3.org/1999/xlink" x="0px" y="0px"
	 viewBox="0 0 1280 800" style="enable-background:new 0 0 1280 800;" xml:space="preserve">
<style type="text/css">
	.st0{clip-path:url(#SVGID_2_);}
	.st1{fill:#FFFFFF;}
	.st2{fill:#B3EAF4;}
	.st3{clip-path:url(#SVGID_4_);}
	.st4{opacity:0.6;}
	.st5{fill:#FFF9EB;}
	.st6{fill:#7ADAEA;}
	.st7{fill:#06B0CC;}
	.st8{fill:#6FB331;}
	.st9{fill:#8DD03C;}
	.st10{fill:#FAD08F;}
	.st11{fill:#FC7B3F;}
	.st12{fill:#D14F22;}
	.st13{fill:#309FC1;}
	.st14{fill:#17647A;}
	.st15{fill:#E25C27;}
	.st16{fill:#0D677C;}
	.st17{fill:#73DBDF;}
	.st18{fill:#A5B2BF;}
	.st19{fill:#2B7D9C;}
	.st20{fill:#808F9B;}
	.st21{fill:#E4FFFF;}
</style>
<g>
	<defs>
		<rect id="SVGID_1_" width="1280" height="800"/>
	</defs>
	<clipPath id="SVGID_2_">
		<use xlink:href="#SVGID_1_"  style="overflow:visible;"/>
	</clipPath>
	<g id="ERROR_404_1" class="st0">
		<rect class="st1" width="1280" height="800"/>
		<g id="Groupe_147" transform="translate(-210.271)">
			<g id="BACKGROUND" transform="translate(2.043)">
				<rect id="Rectangle_678" x="0" class="st2" width="1697.2" height="800"/>
			</g>
			<g id="OBJECTS" transform="translate(2.042 0)">
				<g id="Groupe_146">
					<g>
						<defs>
							<rect id="SVGID_3_" x="0" width="1697.2" height="800"/>
						</defs>
						<clipPath id="SVGID_4_">
							<use xlink:href="#SVGID_3_"  style="overflow:visible;"/>
						</clipPath>
						<g id="Groupe_145" class="st3">
							<g id="Groupe_70" transform="translate(57.65 36.434)" class="st4">
								<path id="Tracé_2046" class="st5" d="M250.7,63.7c-7.7,0-15.3,1.9-22.1,5.5c-3.5-25.8-27.3-43.8-53-40.3
									c-16.4,2.2-30.4,12.9-36.9,28.1C115,46.3,87.1,56.7,76.3,80.4c-1,2.1-1.8,4.4-2.4,6.6h217.5
									C282.9,72.6,267.5,63.7,250.7,63.7z"/>
								<path id="Tracé_2047" class="st5" d="M582.4,381.7c-3.9,0-7.8,1-11.3,2.8c-1.8-13.2-14-22.5-27.2-20.7
									c-8.4,1.1-15.6,6.6-19,14.5c-12.2-5.5-26.5-0.2-32,12c-0.5,1.1-0.9,2.2-1.3,3.4h111.7C598.9,386.3,591,381.7,582.4,381.7z"
									/>
								<path id="Tracé_2048" class="st5" d="M1539,64.4c-7.9,0-15.6,1.9-22.6,5.6c-3.6-26.4-27.9-44.8-54.2-41.2
									c-16.8,2.3-31.1,13.2-37.8,28.8c-24.2-11-52.8-0.3-63.8,23.9c-1,2.2-1.8,4.5-2.5,6.8h222.4C1572,73.5,1556.2,64.4,1539,64.4
									z"/>
								<path id="Tracé_2049" class="st5" d="M93.2,33.3c-5.3-7.5-15.7-9.3-23.2-4c-0.3,0.2-0.7,0.5-1,0.8
									c-7.1-14-24.2-19.6-38.2-12.5c-4.5,2.3-8.2,5.7-11,9.8C12.6,24.6,4.4,27,0,33.3H93.2z"/>
								<path id="Tracé_2050" class="st5" d="M1622.9,127.8c-5.1-7.2-15.1-8.9-22.3-3.8c-0.3,0.2-0.6,0.5-1,0.7
									c-6.8-13.5-23.3-18.8-36.7-12c-4.3,2.2-7.9,5.4-10.5,9.5c-6.9-2.7-14.7-0.4-19,5.7L1622.9,127.8z"/>
								<path id="Tracé_2051" class="st5" d="M1106.4,381.2c-6.7-9.4-19.8-11.7-29.2-5c-0.4,0.3-0.8,0.6-1.2,1
									c-8.9-17.6-30.4-24.6-48-15.7c-5.6,2.8-10.4,7.1-13.8,12.4c-9-3.5-19.2-0.5-24.8,7.4H1106.4z"/>
								<path id="Tracé_2052" class="st5" d="M639.4,423.5c-3.4-4.8-10-5.9-14.8-2.5c-0.2,0.2-0.4,0.3-0.6,0.5
									c-4.5-8.9-15.4-12.5-24.3-8c-2.8,1.4-5.3,3.6-7,6.3c-4.6-1.8-9.7-0.2-12.6,3.7H639.4z"/>
								<path id="Tracé_2053" class="st5" d="M641.2,23.6c-6.7-9.4-19.8-11.7-29.2-5c-0.4,0.3-0.8,0.6-1.2,1
									c-8.9-17.6-30.4-24.6-48-15.7c-5.6,2.8-10.4,7.1-13.8,12.4c-9-3.5-19.2-0.5-24.8,7.4L641.2,23.6z"/>
							</g>
							<g id="Groupe_73" transform="translate(-460.641 442.901)">
								<g id="Groupe_71" transform="translate(1329.414 11.835)">
									<path id="Tracé_2054" class="st6" d="M839.5,127.8c-19.4-8.2-40.3-11.3-59-21.8c-22.7-12.8-40.9-35.6-63.4-49
										C678.5,34,635,42.8,595,55c-43.3,13.3-60.6-10.3-97.4-35.8C464-4.1,421.2-6.4,386.1,13.3C349,34.1,322.5,75.4,285.8,96.7
										c-36.2,20.9-72.8-4.7-105.6,25.7c-16.3,15.2-30.9,35.1-50.7,41.6c-18.3,6-37.7-0.7-56.7-0.1c-28.7,0.8-56.7,29.7-72.8,58.9
										h924.5C908.2,178.7,876.7,143.5,839.5,127.8z"/>
									<path id="Tracé_2055" class="st7" d="M242.7,147.3c15.4-6.5,32-9,46.8-17.3c18.1-10.1,32.5-28.3,50.3-38.9
										c30.7-18.2,65.2-11.3,97-1.6c34.4,10.5,48.1-8.2,77.4-28.4c26.7-18.5,60.7-20.3,88.6-4.7c29.5,16.5,50.4,49.3,79.7,66.2
										c28.7,16.6,57.8-3.7,83.8,20.4c13,12,24.5,27.8,40.2,33c14.6,4.8,30-0.6,45-0.1c22.8,0.7,45,23.6,57.8,46.8H175.2
										C188.1,187.7,213.1,159.8,242.7,147.3z"/>
								</g>
								<g id="Groupe_72">
									<path id="Tracé_2056" class="st6" d="M919.4,134.6c-21.3-8.6-44.1-11.9-64.6-22.9C829.9,98.2,810,74.1,785.4,60
										c-42.3-24.2-90-15-133.7-2.1c-47.5,14-66.4-10.8-106.7-37.7C508.1-4.3,461.3-6.7,422.8,14c-40.6,21.9-69.6,65.4-109.8,87.8
										c-39.6,22-79.7-4.9-115.6,27.1c-17.9,16-33.8,36.9-55.5,43.8c-20.1,6.4-41.3-0.7-62.1-0.2c-31.4,0.9-62.1,31.2-79.8,62
										h1012.4C994.6,188.2,960.1,151.1,919.4,134.6z"/>
									<path id="Tracé_2057" class="st7" d="M157.9,155.2c16.9-6.9,35-9.4,51.3-18.2c19.8-10.7,35.6-29.8,55.1-41
										c33.6-19.2,71.5-11.9,106.2-1.7c37.7,11.1,52.7-8.6,84.7-29.9c28.9-19.5,66.3-21.4,97-4.9c32.3,17.4,55.2,51.9,87.2,69.7
										c31.5,17.5,63.3-3.9,91.8,21.5c14.2,12.7,26.9,29.3,44.1,34.8c16,5,32.8-0.6,49.3-0.1c25,0.7,49.3,24.8,63.3,49.3H84
										C98.2,197.7,125.6,168.3,157.9,155.2z"/>
								</g>
							</g>
							<rect id="Rectangle_679" x="0" y="677.5" class="st8" width="1697.2" height="122.5"/>
							<g id="Groupe_74" transform="translate(130.049 698.473)">
								<ellipse id="Ellipse_87" class="st9" cx="742.3" cy="19.7" rx="576.6" ry="19.7"/>
								<path id="Tracé_2058" class="st9" d="M381.3,46.6c0,3.6-85.4,6.5-190.7,6.5S0,50.2,0,46.6s85.4-6.5,190.7-6.5
									S381.3,43,381.3,46.6z"/>
								<path id="Tracé_2059" class="st9" d="M1444.3,53.1c0,6.4-151.1,11.5-337.5,11.5s-337.5-5.2-337.5-11.5
									s151.1-11.5,337.5-11.5S1444.3,46.7,1444.3,53.1z"/>
							</g>
							<g id="Groupe_120" transform="translate(1147.641 404.591)">
								<g id="Groupe_82" transform="translate(402.929 143.083)">
									<g id="Groupe_75" transform="translate(3.628 6.395)">
										<rect id="Rectangle_680" x="86.5" y="0" class="st10" width="54.7" height="123.4"/>
										<rect id="Rectangle_681" x="0" y="0" class="st5" width="86.5" height="123.4"/>
									</g>
									<rect id="Rectangle_682" x="0" y="0" class="st11" width="90.1" height="6.4"/>
									<rect id="Rectangle_683" x="90.1" y="0" class="st12" width="58.7" height="6.4"/>
									<g id="Groupe_76" transform="translate(15.959 22.067)">
										<rect id="Rectangle_684" x="0" y="0" class="st5" width="12.6" height="18.8"/>
										<rect id="Rectangle_685" x="1" y="1" class="st13" width="10.6" height="16.8"/>
										<rect id="Rectangle_686" x="1" y="1" class="st14" width="1" height="16.8"/>
										<rect id="Rectangle_687" x="12.6" y="0" class="st15" width="1" height="18.8"/>
									</g>
									<g id="Groupe_77" transform="translate(64.668 22.067)">
										<rect id="Rectangle_688" x="0" y="0" class="st5" width="12.6" height="18.8"/>
										<rect id="Rectangle_689" x="1" y="1" class="st13" width="10.6" height="16.8"/>
										<rect id="Rectangle_690" x="1" y="1" class="st14" width="1" height="16.8"/>
										<rect id="Rectangle_691" x="12.6" y="0" class="st15" width="1" height="18.8"/>
									</g>
									<g id="Groupe_78" transform="translate(40.314 22.067)">
										<rect id="Rectangle_692" x="0" y="0" class="st5" width="12.6" height="18.8"/>
										<rect id="Rectangle_693" x="1" y="1" class="st13" width="10.6" height="16.8"/>
										<rect id="Rectangle_694" x="1" y="1" class="st14" width="1" height="16.8"/>
										<rect id="Rectangle_695" x="12.6" y="0" class="st15" width="1" height="18.8"/>
									</g>
									<g id="Groupe_79" transform="translate(15.959 53.797)">
										<rect id="Rectangle_696" x="0" y="0" class="st5" width="12.6" height="18.8"/>
										<rect id="Rectangle_697" x="1" y="1" class="st13" width="10.6" height="16.8"/>
										<rect id="Rectangle_698" x="1" y="1" class="st14" width="1" height="16.8"/>
										<rect id="Rectangle_699" x="12.6" y="0" class="st15" width="1" height="18.8"/>
									</g>
									<g id="Groupe_80" transform="translate(64.668 53.797)">
										<rect id="Rectangle_700" x="0" y="0" class="st5" width="12.6" height="18.8"/>
										<rect id="Rectangle_701" x="1" y="1" class="st13" width="10.6" height="16.8"/>
										<rect id="Rectangle_702" x="1" y="1" class="st14" width="1" height="16.8"/>
										<rect id="Rectangle_703" x="12.6" y="0" class="st15" width="1" height="18.8"/>
									</g>
									<g id="Groupe_81" transform="translate(40.314 53.797)">
										<rect id="Rectangle_704" x="0" y="0" class="st5" width="12.6" height="18.8"/>
										<rect id="Rectangle_705" x="1" y="1" class="st13" width="10.6" height="16.8"/>
										<rect id="Rectangle_706" x="1" y="1" class="st14" width="1" height="16.8"/>
										<rect id="Rectangle_707" x="12.6" y="0" class="st15" width="1" height="18.8"/>
									</g>
								</g>
								<g id="Groupe_108" transform="translate(183.604)">
									<rect id="Rectangle_708" x="6.5" y="50.1" class="st5" width="75.8" height="222.7"/>
									<path id="Tracé_2060" class="st5" d="M77.3,272.9V51.9l-36.2-44L6.5,50.1v222.7H77.3z"/>
									<rect id="Rectangle_709" x="82.3" y="50.1" class="st10" width="119.9" height="222.7"/>
									<path id="Tracé_2061" class="st12" d="M167.1,0H41.2l41.2,50.1h125.9L167.1,0z"/>
									<g id="Groupe_107" transform="translate(99.551 70.584)">
										<g id="Groupe_83">
											<rect id="Rectangle_710" x="1.1" y="0" class="st12" width="13" height="14.3"/>
											<rect id="Rectangle_711" x="2.1" y="1" class="st16" width="10.9" height="12.3"/>
											<rect id="Rectangle_712" x="12" y="1" class="st17" width="1.1" height="12.3"/>
											<rect id="Rectangle_713" x="0" y="0" class="st5" width="1.1" height="14.3"/>
										</g>
										<g id="Groupe_84" transform="translate(23.807)">
											<rect id="Rectangle_714" x="1.1" y="0" class="st12" width="13" height="14.3"/>
											<rect id="Rectangle_715" x="2.1" y="1" class="st16" width="10.9" height="12.3"/>
											<rect id="Rectangle_716" x="12" y="1" class="st17" width="1.1" height="12.3"/>
											<rect id="Rectangle_717" x="0" y="0" class="st5" width="1.1" height="14.3"/>
										</g>
										<g id="Groupe_85" transform="translate(47.614)">
											<rect id="Rectangle_718" x="1.1" y="0" class="st12" width="13" height="14.3"/>
											<rect id="Rectangle_719" x="2.1" y="1" class="st16" width="10.9" height="12.3"/>
											<rect id="Rectangle_720" x="12" y="1" class="st17" width="1.1" height="12.3"/>
											<rect id="Rectangle_721" x="0" y="0" class="st5" width="1.1" height="14.3"/>
										</g>
										<g id="Groupe_86" transform="translate(71.42)">
											<rect id="Rectangle_722" x="1.1" y="0" class="st12" width="13" height="14.3"/>
											<rect id="Rectangle_723" x="2.1" y="1" class="st16" width="10.9" height="12.3"/>
											<rect id="Rectangle_724" x="12" y="1" class="st17" width="1.1" height="12.3"/>
											<rect id="Rectangle_725" x="0" y="0" class="st5" width="1.1" height="14.3"/>
										</g>
										<g id="Groupe_87" transform="translate(0 24.694)">
											<rect id="Rectangle_726" x="1.1" y="0" class="st12" width="13" height="14.3"/>
											<rect id="Rectangle_727" x="2.1" y="1" class="st16" width="10.9" height="12.3"/>
											<rect id="Rectangle_728" x="12" y="1" class="st17" width="1.1" height="12.3"/>
											<rect id="Rectangle_729" x="0" y="0" class="st5" width="1.1" height="14.3"/>
										</g>
										<g id="Groupe_88" transform="translate(23.807 24.694)">
											<rect id="Rectangle_730" x="1.1" y="0" class="st12" width="13" height="14.3"/>
											<rect id="Rectangle_731" x="2.1" y="1" class="st16" width="10.9" height="12.3"/>
											<rect id="Rectangle_732" x="12" y="1" class="st17" width="1.1" height="12.3"/>
											<rect id="Rectangle_733" x="0" y="0" class="st5" width="1.1" height="14.3"/>
										</g>
										<g id="Groupe_89" transform="translate(47.614 24.694)">
											<rect id="Rectangle_734" x="1.1" y="0" class="st12" width="13" height="14.3"/>
											<rect id="Rectangle_735" x="2.1" y="1" class="st16" width="10.9" height="12.3"/>
											<rect id="Rectangle_736" x="12" y="1" class="st17" width="1.1" height="12.3"/>
											<rect id="Rectangle_737" x="0" y="0" class="st5" width="1.1" height="14.3"/>
										</g>
										<g id="Groupe_90" transform="translate(71.42 24.694)">
											<rect id="Rectangle_738" x="1.1" y="0" class="st12" width="13" height="14.3"/>
											<rect id="Rectangle_739" x="2.1" y="1" class="st16" width="10.9" height="12.3"/>
											<rect id="Rectangle_740" x="12" y="1" class="st17" width="1.1" height="12.3"/>
											<rect id="Rectangle_741" x="0" y="0" class="st5" width="1.1" height="14.3"/>
										</g>
										<g id="Groupe_91" transform="translate(0 49.389)">
											<rect id="Rectangle_742" x="1.1" y="0" class="st12" width="13" height="14.3"/>
											<rect id="Rectangle_743" x="2.1" y="1" class="st16" width="10.9" height="12.3"/>
											<rect id="Rectangle_744" x="12" y="1" class="st17" width="1.1" height="12.3"/>
											<rect id="Rectangle_745" x="0" y="0" class="st5" width="1.1" height="14.3"/>
										</g>
										<g id="Groupe_92" transform="translate(23.807 49.389)">
											<rect id="Rectangle_746" x="1.1" y="0" class="st12" width="13" height="14.3"/>
											<rect id="Rectangle_747" x="2.1" y="1" class="st16" width="10.9" height="12.3"/>
											<rect id="Rectangle_748" x="12" y="1" class="st17" width="1.1" height="12.3"/>
											<rect id="Rectangle_749" x="0" y="0" class="st5" width="1.1" height="14.3"/>
										</g>
										<g id="Groupe_93" transform="translate(47.614 49.389)">
											<rect id="Rectangle_750" x="1.1" y="0" class="st12" width="13" height="14.3"/>
											<rect id="Rectangle_751" x="2.1" y="1" class="st16" width="10.9" height="12.3"/>
											<rect id="Rectangle_752" x="12" y="1" class="st17" width="1.1" height="12.3"/>
											<rect id="Rectangle_753" x="0" y="0" class="st5" width="1.1" height="14.3"/>
										</g>
										<g id="Groupe_94" transform="translate(71.42 49.389)">
											<rect id="Rectangle_754" x="1.1" y="0" class="st12" width="13" height="14.3"/>
											<rect id="Rectangle_755" x="2.1" y="1" class="st16" width="10.9" height="12.3"/>
											<rect id="Rectangle_756" x="12" y="1" class="st17" width="1.1" height="12.3"/>
											<rect id="Rectangle_757" x="0" y="0" class="st5" width="1.1" height="14.3"/>
										</g>
										<g id="Groupe_95" transform="translate(0 74.083)">
											<rect id="Rectangle_758" x="1.1" y="0" class="st12" width="13" height="14.3"/>
											<rect id="Rectangle_759" x="2.1" y="1" class="st16" width="10.9" height="12.3"/>
											<rect id="Rectangle_760" x="12" y="1" class="st17" width="1.1" height="12.3"/>
											<rect id="Rectangle_761" x="0" y="0" class="st5" width="1.1" height="14.3"/>
										</g>
										<g id="Groupe_96" transform="translate(23.807 74.083)">
											<rect id="Rectangle_762" x="1.1" y="0" class="st12" width="13" height="14.3"/>
											<rect id="Rectangle_763" x="2.1" y="1" class="st16" width="10.9" height="12.3"/>
											<rect id="Rectangle_764" x="12" y="1" class="st17" width="1.1" height="12.3"/>
											<rect id="Rectangle_765" x="0" y="0" class="st5" width="1.1" height="14.3"/>
										</g>
										<g id="Groupe_97" transform="translate(47.614 74.083)">
											<rect id="Rectangle_766" x="1.1" y="0" class="st12" width="13" height="14.3"/>
											<rect id="Rectangle_767" x="2.1" y="1" class="st16" width="10.9" height="12.3"/>
											<rect id="Rectangle_768" x="12" y="1" class="st17" width="1.1" height="12.3"/>
											<rect id="Rectangle_769" x="0" y="0" class="st5" width="1.1" height="14.3"/>
										</g>
										<g id="Groupe_98" transform="translate(71.42 74.083)">
											<rect id="Rectangle_770" x="1.1" y="0" class="st12" width="13" height="14.3"/>
											<rect id="Rectangle_771" x="2.1" y="1" class="st16" width="10.9" height="12.3"/>
											<rect id="Rectangle_772" x="12" y="1" class="st17" width="1.1" height="12.3"/>
											<rect id="Rectangle_773" x="0" y="0" class="st5" width="1.1" height="14.3"/>
										</g>
										<g id="Groupe_99" transform="translate(0 98.777)">
											<rect id="Rectangle_774" x="1.1" y="0" class="st12" width="13" height="14.3"/>
											<rect id="Rectangle_775" x="2.1" y="1" class="st16" width="10.9" height="12.3"/>
											<rect id="Rectangle_776" x="12" y="1" class="st17" width="1.1" height="12.3"/>
											<rect id="Rectangle_777" x="0" y="0" class="st5" width="1.1" height="14.3"/>
										</g>
										<g id="Groupe_100" transform="translate(23.807 98.777)">
											<rect id="Rectangle_778" x="1.1" y="0" class="st12" width="13" height="14.3"/>
											<rect id="Rectangle_779" x="2.1" y="1" class="st16" width="10.9" height="12.3"/>
											<rect id="Rectangle_780" x="12" y="1" class="st17" width="1.1" height="12.3"/>
											<rect id="Rectangle_781" x="0" y="0" class="st5" width="1.1" height="14.3"/>
										</g>
										<g id="Groupe_101" transform="translate(47.614 98.777)">
											<rect id="Rectangle_782" x="1.1" y="0" class="st12" width="13" height="14.3"/>
											<rect id="Rectangle_783" x="2.1" y="1" class="st16" width="10.9" height="12.3"/>
											<rect id="Rectangle_784" x="12" y="1" class="st17" width="1.1" height="12.3"/>
											<rect id="Rectangle_785" x="0" y="0" class="st5" width="1.1" height="14.3"/>
										</g>
										<g id="Groupe_102" transform="translate(71.42 98.777)">
											<rect id="Rectangle_786" x="1.1" y="0" class="st12" width="13" height="14.3"/>
											<rect id="Rectangle_787" x="2.1" y="1" class="st16" width="10.9" height="12.3"/>
											<rect id="Rectangle_788" x="12" y="1" class="st17" width="1.1" height="12.3"/>
											<rect id="Rectangle_789" x="0" y="0" class="st5" width="1.1" height="14.3"/>
										</g>
										<g id="Groupe_103" transform="translate(47.614 123.472)">
											<rect id="Rectangle_790" x="1.1" y="0" class="st12" width="13" height="14.3"/>
											<rect id="Rectangle_791" x="2.1" y="1" class="st16" width="10.9" height="12.3"/>
											<rect id="Rectangle_792" x="12" y="1" class="st17" width="1.1" height="12.3"/>
											<rect id="Rectangle_793" x="0" y="0" class="st5" width="1.1" height="14.3"/>
										</g>
										<g id="Groupe_104" transform="translate(71.42 123.472)">
											<rect id="Rectangle_794" x="1.1" y="0" class="st12" width="13" height="14.3"/>
											<rect id="Rectangle_795" x="2.1" y="1" class="st16" width="10.9" height="12.3"/>
											<rect id="Rectangle_796" x="12" y="1" class="st17" width="1.1" height="12.3"/>
											<rect id="Rectangle_797" x="0" y="0" class="st5" width="1.1" height="14.3"/>
										</g>
										<g id="Groupe_105" transform="translate(47.614 148.166)">
											<rect id="Rectangle_798" x="1.1" y="0" class="st12" width="13" height="14.3"/>
											<rect id="Rectangle_799" x="2.1" y="1" class="st16" width="10.9" height="12.3"/>
											<rect id="Rectangle_800" x="12" y="1" class="st17" width="1.1" height="12.3"/>
											<rect id="Rectangle_801" x="0" y="0" class="st5" width="1.1" height="14.3"/>
										</g>
										<g id="Groupe_106" transform="translate(71.42 148.166)">
											<rect id="Rectangle_802" x="1.1" y="0" class="st12" width="13" height="14.3"/>
											<rect id="Rectangle_803" x="2.1" y="1" class="st16" width="10.9" height="12.3"/>
											<rect id="Rectangle_804" x="12" y="1" class="st17" width="1.1" height="12.3"/>
											<rect id="Rectangle_805" x="0" y="0" class="st5" width="1.1" height="14.3"/>
										</g>
									</g>
									<path id="Tracé_2062" class="st11" d="M41.2,0l41.2,50.1h125.9l-4,2.9l-126,0L41.2,7.9L6.5,50.1H0L41.2,0z"/>
								</g>
								<g id="Groupe_113" transform="translate(0 126.426)">
									<rect id="Rectangle_806" x="139.2" y="55.4" class="st12" width="83.8" height="91"/>
									<path id="Tracé_2063" class="st12" d="M144.8,146.5v-89l40-48.7l38.3,46.7v91L144.8,146.5z"/>
									<rect id="Rectangle_807" x="6.7" y="55.4" class="st11" width="132.6" height="91"/>
									<path id="Tracé_2064" class="st5" d="M45.5,0h139.2l-45.5,55.4H0L45.5,0z"/>
									<g id="Groupe_109" transform="translate(17.292 75.664)">
										<rect id="Rectangle_808" x="0" y="0" class="st5" width="16.9" height="25.3"/>
										<rect id="Rectangle_809" x="1.3" y="1.3" class="st13" width="14.2" height="22.6"/>
										<rect id="Rectangle_810" x="1.3" y="1.3" class="st14" width="1.4" height="22.6"/>
										<rect id="Rectangle_811" x="16.9" y="0" class="st15" width="1.4" height="25.3"/>
									</g>
									<g id="Groupe_110" transform="translate(47.71 75.664)">
										<rect id="Rectangle_812" x="0" y="0" class="st5" width="16.9" height="25.3"/>
										<rect id="Rectangle_813" x="1.3" y="1.3" class="st13" width="14.2" height="22.6"/>
										<rect id="Rectangle_814" x="1.3" y="1.3" class="st14" width="1.4" height="22.6"/>
										<rect id="Rectangle_815" x="16.9" y="0" class="st15" width="1.4" height="25.3"/>
									</g>
									<g id="Groupe_111" transform="translate(78.128 75.664)">
										<rect id="Rectangle_816" x="0" y="0" class="st5" width="16.9" height="25.3"/>
										<rect id="Rectangle_817" x="1.3" y="1.3" class="st13" width="14.2" height="22.6"/>
										<rect id="Rectangle_818" x="1.3" y="1.3" class="st14" width="1.4" height="22.6"/>
										<rect id="Rectangle_819" x="16.9" y="0" class="st15" width="1.4" height="25.3"/>
									</g>
									<g id="Groupe_112" transform="translate(108.546 75.664)">
										<rect id="Rectangle_820" x="0" y="0" class="st5" width="16.9" height="25.3"/>
										<rect id="Rectangle_821" x="1.3" y="1.3" class="st13" width="14.2" height="22.6"/>
										<rect id="Rectangle_822" x="1.3" y="1.3" class="st14" width="1.4" height="22.6"/>
										<rect id="Rectangle_823" x="16.9" y="0" class="st15" width="1.4" height="25.3"/>
									</g>
									<path id="Tracé_2065" class="st10" d="M184.7,0l-45.5,55.4H0l4.4,3.2l139.3,0l41-49.9l38.3,46.7h7.2L184.7,0z"/>
								</g>
								<g id="Groupe_115" transform="translate(32.639 136.195)">
									<path id="Tracé_2066" class="st18" d="M28,2.5L106.7,0l1.7,2.5l-26.3,32H1.7L0,32L28,2.5z"/>
									<path id="Tracé_2067" class="st5" d="M26.3,0h80.4L80.4,32H0L26.3,0z"/>
									<g id="Groupe_114" transform="translate(6.98 2.817)">
										<path id="Tracé_2068" class="st19" d="M21.6,0h21.3L33,12.1H11.7L21.6,0z"/>
										<path id="Tracé_2069" class="st19" d="M46.5,0h21.3l-9.9,12.1H36.6L46.5,0z"/>
										<path id="Tracé_2070" class="st19" d="M71.4,0h21.3l-9.9,12.1H61.5L71.4,0z"/>
										<path id="Tracé_2071" class="st19" d="M9.9,14.3h21.3l-9.9,12.1H0L9.9,14.3z"/>
										<path id="Tracé_2072" class="st19" d="M34.8,14.3h21.3l-9.9,12.1H24.9L34.8,14.3z"/>
										<path id="Tracé_2073" class="st19" d="M59.7,14.3H81l-9.9,12.1H49.8L59.7,14.3z"/>
									</g>
									<path id="Tracé_2074" class="st17" d="M27.2,4.5l-8.6,10.5h21.3l1.8-2.2L27.2,4.5z"/>
									<path id="Tracé_2075" class="st17" d="M15.6,18.7L7,29.2h21.3l1.8-2.2L15.6,18.7z"/>
									<path id="Tracé_2076" class="st17" d="M40.5,18.7l-8.6,10.5h21.3L55,27L40.5,18.7z"/>
									<path id="Tracé_2077" class="st17" d="M65.4,18.7l-8.6,10.5h21.3l1.8-2.2L65.4,18.7z"/>
									<path id="Tracé_2078" class="st17" d="M52.1,4.5l-8.6,10.5h21.3l1.8-2.2L52.1,4.5z"/>
									<path id="Tracé_2079" class="st17" d="M77,4.5l-8.6,10.5h21.3l1.8-2.2L77,4.5z"/>
									<path id="Tracé_2080" class="st20" d="M82.1,34.6L80.4,32H0l1.7,2.5L82.1,34.6z"/>
								</g>
								<g id="Groupe_119" transform="translate(170.537 200.772)">
									<g id="Groupe_116" transform="translate(9.133 12.709)">
										<rect id="Rectangle_824" x="86.5" y="0" class="st12" width="54.7" height="59.4"/>
										<rect id="Rectangle_825" x="0" y="0" class="st11" width="86.5" height="59.4"/>
									</g>
									<path id="Tracé_2081" class="st5" d="M95.6,0H27.4L0,12.7h95.6L95.6,0z"/>
									<path id="Tracé_2082" class="st5" d="M132.1,0H95.6v12.7h63.9L132.1,0z"/>
									<g id="Groupe_117" transform="translate(106.17 26.724)">
										<path id="Tracé_2083" class="st21" d="M12,31.6V6c0-3.3-2.7-6-6-6c0,0,0,0,0,0l0,0C2.7,0,0,2.7,0,6v25.5H12z"/>
										<path id="Tracé_2084" class="st10" d="M12.8,31.6V6c0-3.3-2.7-6-6-6c0,0,0,0,0,0l0,0c-3.3,0-6,2.7-6,6v25.5H12.8z"/>
										<path id="Tracé_2085" class="st16" d="M1.7,30.6h10.1V6C11.8,3.2,9.6,1,6.8,1c0,0,0,0,0,0l0,0C4,1,1.7,3.2,1.7,6V30.6z"
											/>
										<path id="Tracé_2086" class="st17" d="M6.8,1C6.6,1,6.4,1,6.3,1c2.6,0.2,4.6,2.4,4.6,5v24.6h1V6C11.8,3.2,9.6,1,6.8,1
											C6.8,1,6.8,1,6.8,1z"/>
									</g>
									<g id="Groupe_118" transform="translate(127.573 26.724)">
										<path id="Tracé_2087" class="st21" d="M12,31.6V6c0-3.3-2.7-6-6-6c0,0,0,0,0,0l0,0C2.7,0,0,2.7,0,6v25.5H12z"/>
										<path id="Tracé_2088" class="st10" d="M12.8,31.6V6c0-3.3-2.7-6-6-6c0,0,0,0,0,0l0,0c-3.3,0-6,2.7-6,6v25.5H12.8z"/>
										<path id="Tracé_2089" class="st16" d="M1.7,30.6h10.1V6C11.8,3.2,9.6,1,6.8,1c0,0,0,0,0,0l0,0C4,1,1.7,3.2,1.7,6
											L1.7,30.6z"/>
										<path id="Tracé_2090" class="st17" d="M6.8,1C6.6,1,6.4,1,6.3,1c2.6,0.2,4.6,2.4,4.6,5v24.6h1V6C11.8,3.2,9.6,1,6.8,1
											C6.8,1,6.8,1,6.8,1z"/>
									</g>
								</g>
							</g>
							<g id="Groupe_144" transform="translate(105.28 419.167)">
								<g id="Groupe_137" transform="translate(130.236)">
									<rect id="Rectangle_826" x="119.2" y="47.5" class="st10" width="71.8" height="210.8"/>
									<path id="Tracé_2091" class="st10" d="M123.9,258.3V49.2l34.2-41.7l32.8,40v210.8H123.9z"/>
									<rect id="Rectangle_827" x="5.7" y="47.5" class="st5" width="113.5" height="210.8"/>
									<path id="Tracé_2092" class="st11" d="M39,0h119.2l-39,47.5H0L39,0z"/>
									<g id="Groupe_136" transform="translate(20.555 66.814)">
										<g id="Groupe_121" transform="translate(64.169)">
											<rect id="Rectangle_828" x="0" y="0" class="st1" width="17.5" height="19.3"/>
											<rect id="Rectangle_829" x="1.4" y="1.4" class="st13" width="14.7" height="16.5"/>
											<rect id="Rectangle_830" x="1.4" y="1.4" class="st14" width="1.4" height="16.5"/>
											<rect id="Rectangle_831" x="17.5" y="0" class="st10" width="1.4" height="19.3"/>
										</g>
										<g id="Groupe_122" transform="translate(32.084)">
											<rect id="Rectangle_832" x="0" y="0" class="st1" width="17.5" height="19.3"/>
											<rect id="Rectangle_833" x="1.4" y="1.4" class="st13" width="14.7" height="16.5"/>
											<rect id="Rectangle_834" x="1.4" y="1.4" class="st14" width="1.4" height="16.5"/>
											<rect id="Rectangle_835" x="17.5" y="0" class="st10" width="1.4" height="19.3"/>
										</g>
										<g id="Groupe_123">
											<rect id="Rectangle_836" x="0" y="0" class="st1" width="17.5" height="19.3"/>
											<rect id="Rectangle_837" x="1.4" y="1.4" class="st13" width="14.7" height="16.5"/>
											<rect id="Rectangle_838" x="1.4" y="1.4" class="st14" width="1.4" height="16.5"/>
											<rect id="Rectangle_839" x="17.5" y="0" class="st10" width="1.4" height="19.3"/>
										</g>
										<g id="Groupe_124" transform="translate(64.169 33.28)">
											<rect id="Rectangle_840" x="0" y="0" class="st1" width="17.5" height="19.3"/>
											<rect id="Rectangle_841" x="1.4" y="1.4" class="st13" width="14.7" height="16.5"/>
											<rect id="Rectangle_842" x="1.4" y="1.4" class="st14" width="1.4" height="16.5"/>
											<rect id="Rectangle_843" x="17.5" y="0" class="st10" width="1.4" height="19.3"/>
										</g>
										<g id="Groupe_125" transform="translate(32.084 33.28)">
											<rect id="Rectangle_844" x="0" y="0" class="st1" width="17.5" height="19.3"/>
											<rect id="Rectangle_845" x="1.4" y="1.4" class="st13" width="14.7" height="16.5"/>
											<rect id="Rectangle_846" x="1.4" y="1.4" class="st14" width="1.4" height="16.5"/>
											<rect id="Rectangle_847" x="17.5" y="0" class="st10" width="1.4" height="19.3"/>
										</g>
										<g id="Groupe_126" transform="translate(0 33.28)">
											<rect id="Rectangle_848" x="0" y="0" class="st1" width="17.5" height="19.3"/>
											<rect id="Rectangle_849" x="1.4" y="1.4" class="st13" width="14.7" height="16.5"/>
											<rect id="Rectangle_850" x="1.4" y="1.4" class="st14" width="1.4" height="16.5"/>
											<rect id="Rectangle_851" x="17.5" y="0" class="st10" width="1.4" height="19.3"/>
										</g>
										<g id="Groupe_127" transform="translate(64.169 66.561)">
											<rect id="Rectangle_852" x="0" y="0" class="st1" width="17.5" height="19.3"/>
											<rect id="Rectangle_853" x="1.4" y="1.4" class="st13" width="14.7" height="16.5"/>
											<rect id="Rectangle_854" x="1.4" y="1.4" class="st14" width="1.4" height="16.5"/>
											<rect id="Rectangle_855" x="17.5" y="0" class="st10" width="1.4" height="19.3"/>
										</g>
										<g id="Groupe_128" transform="translate(32.084 66.561)">
											<rect id="Rectangle_856" x="0" y="0" class="st1" width="17.5" height="19.3"/>
											<rect id="Rectangle_857" x="1.4" y="1.4" class="st13" width="14.7" height="16.5"/>
											<rect id="Rectangle_858" x="1.4" y="1.4" class="st14" width="1.4" height="16.5"/>
											<rect id="Rectangle_859" x="17.5" y="0" class="st10" width="1.4" height="19.3"/>
										</g>
										<g id="Groupe_129" transform="translate(0 66.561)">
											<rect id="Rectangle_860" x="0" y="0" class="st1" width="17.5" height="19.3"/>
											<rect id="Rectangle_861" x="1.4" y="1.4" class="st13" width="14.7" height="16.5"/>
											<rect id="Rectangle_862" x="1.4" y="1.4" class="st14" width="1.4" height="16.5"/>
											<rect id="Rectangle_863" x="17.5" y="0" class="st10" width="1.4" height="19.3"/>
										</g>
										<g id="Groupe_130" transform="translate(64.169 99.842)">
											<rect id="Rectangle_864" x="0" y="0" class="st1" width="17.5" height="19.3"/>
											<rect id="Rectangle_865" x="1.4" y="1.4" class="st13" width="14.7" height="16.5"/>
											<rect id="Rectangle_866" x="1.4" y="1.4" class="st14" width="1.4" height="16.5"/>
											<rect id="Rectangle_867" x="17.5" y="0" class="st10" width="1.4" height="19.3"/>
										</g>
										<g id="Groupe_131" transform="translate(32.084 99.842)">
											<rect id="Rectangle_868" x="0" y="0" class="st1" width="17.5" height="19.3"/>
											<rect id="Rectangle_869" x="1.4" y="1.4" class="st13" width="14.7" height="16.5"/>
											<rect id="Rectangle_870" x="1.4" y="1.4" class="st14" width="1.4" height="16.5"/>
											<rect id="Rectangle_871" x="17.5" y="0" class="st10" width="1.4" height="19.3"/>
										</g>
										<g id="Groupe_132" transform="translate(0 99.842)">
											<rect id="Rectangle_872" x="0" y="0" class="st1" width="17.5" height="19.3"/>
											<rect id="Rectangle_873" x="1.4" y="1.4" class="st13" width="14.7" height="16.5"/>
											<rect id="Rectangle_874" x="1.4" y="1.4" class="st14" width="1.4" height="16.5"/>
											<rect id="Rectangle_875" x="17.5" y="0" class="st10" width="1.4" height="19.3"/>
										</g>
										<g id="Groupe_133" transform="translate(64.169 133.122)">
											<rect id="Rectangle_876" x="0" y="0" class="st1" width="17.5" height="19.3"/>
											<rect id="Rectangle_877" x="1.4" y="1.4" class="st13" width="14.7" height="16.5"/>
											<rect id="Rectangle_878" x="1.4" y="1.4" class="st14" width="1.4" height="16.5"/>
											<rect id="Rectangle_879" x="17.5" y="0" class="st10" width="1.4" height="19.3"/>
										</g>
										<g id="Groupe_134" transform="translate(32.084 133.122)">
											<rect id="Rectangle_880" x="0" y="0" class="st1" width="17.5" height="19.3"/>
											<rect id="Rectangle_881" x="1.4" y="1.4" class="st13" width="14.7" height="16.5"/>
											<rect id="Rectangle_882" x="1.4" y="1.4" class="st14" width="1.4" height="16.5"/>
											<rect id="Rectangle_883" x="17.5" y="0" class="st10" width="1.4" height="19.3"/>
										</g>
										<g id="Groupe_135" transform="translate(0 133.122)">
											<rect id="Rectangle_884" x="0" y="0" class="st1" width="17.5" height="19.3"/>
											<rect id="Rectangle_885" x="1.4" y="1.4" class="st13" width="14.7" height="16.5"/>
											<rect id="Rectangle_886" x="1.4" y="1.4" class="st14" width="1.4" height="16.5"/>
											<rect id="Rectangle_887" x="17.5" y="0" class="st10" width="1.4" height="19.3"/>
										</g>
									</g>
									<path id="Tracé_2093" class="st12" d="M158.2,0l-39,47.5H0l3.8,2.7l119.3,0l35.1-42.7l32.8,40h6.1L158.2,0z"/>
								</g>
								<g id="Groupe_141" transform="translate(0 132.907)">
									<rect id="Rectangle_888" x="6.1" y="47.5" class="st11" width="71.8" height="77.9"/>
									<path id="Tracé_2094" class="st11" d="M73.2,125.4V49.2L39,7.5l-32.8,40v77.9H73.2z"/>
									<rect id="Rectangle_889" x="77.9" y="47.5" class="st12" width="91.3" height="77.9"/>
									<path id="Tracé_2095" class="st10" d="M135.9,0H39l39,47.5h96.9L135.9,0z"/>
									<g id="Groupe_138" transform="translate(140.631 64.786)">
										<rect id="Rectangle_890" x="1.2" y="0" class="st10" width="14.5" height="21.7"/>
										<rect id="Rectangle_891" x="2.3" y="1.1" class="st16" width="12.2" height="19.4"/>
										<rect id="Rectangle_892" x="13.3" y="1.1" class="st17" width="1.2" height="19.4"/>
										<rect id="Rectangle_893" x="0" y="0" class="st5" width="1.2" height="21.7"/>
									</g>
									<g id="Groupe_139" transform="translate(114.587 64.786)">
										<rect id="Rectangle_894" x="1.2" y="0" class="st10" width="14.5" height="21.7"/>
										<rect id="Rectangle_895" x="2.3" y="1.1" class="st16" width="12.2" height="19.4"/>
										<rect id="Rectangle_896" x="13.3" y="1.1" class="st17" width="1.2" height="19.4"/>
										<rect id="Rectangle_897" x="0" y="0" class="st5" width="1.2" height="21.7"/>
									</g>
									<g id="Groupe_140" transform="translate(88.542 64.786)">
										<rect id="Rectangle_898" x="1.2" y="0" class="st10" width="14.5" height="21.7"/>
										<rect id="Rectangle_899" x="2.3" y="1.1" class="st16" width="12.2" height="19.4"/>
										<rect id="Rectangle_900" x="13.3" y="1.1" class="st17" width="1.2" height="19.4"/>
										<rect id="Rectangle_901" x="0" y="0" class="st5" width="1.2" height="21.7"/>
									</g>
									<path id="Tracé_2096" class="st5" d="M39,0l39,47.5h96.9l-3.8,2.7l-97,0L39,7.5l-32.8,40H0L39,0z"/>
								</g>
								<g id="Groupe_143" transform="translate(153.333 6.42)">
									<path id="Tracé_2097" class="st18" d="M28,2.5L106.7,0l1.7,2.5l-26.3,32H1.7L0,32L28,2.5z"/>
									<path id="Tracé_2098" class="st5" d="M26.3,0h80.4L80.4,32H0L26.3,0z"/>
									<g id="Groupe_142" transform="translate(6.98 2.817)">
										<path id="Tracé_2099" class="st19" d="M21.6,0h21.3L33,12.1H11.7L21.6,0z"/>
										<path id="Tracé_2100" class="st19" d="M46.5,0h21.3l-9.9,12.1H36.6L46.5,0z"/>
										<path id="Tracé_2101" class="st19" d="M71.4,0h21.3l-9.9,12.1H61.5L71.4,0z"/>
										<path id="Tracé_2102" class="st19" d="M9.9,14.3h21.3l-9.9,12.1H0L9.9,14.3z"/>
										<path id="Tracé_2103" class="st19" d="M34.8,14.3h21.3l-9.9,12.1H24.9L34.8,14.3z"/>
										<path id="Tracé_2104" class="st19" d="M59.7,14.3H81l-9.9,12.1H49.8L59.7,14.3z"/>
									</g>
									<path id="Tracé_2105" class="st17" d="M27.2,4.5l-8.6,10.5h21.3l1.8-2.2L27.2,4.5z"/>
									<path id="Tracé_2106" class="st17" d="M15.6,18.7L7,29.2h21.3l1.8-2.2L15.6,18.7z"/>
									<path id="Tracé_2107" class="st17" d="M40.5,18.7l-8.6,10.5h21.3L55,27L40.5,18.7z"/>
									<path id="Tracé_2108" class="st17" d="M65.4,18.7l-8.6,10.5h21.3l1.8-2.2L65.4,18.7z"/>
									<path id="Tracé_2109" class="st17" d="M52.1,4.5l-8.6,10.5h21.3l1.8-2.2L52.1,4.5z"/>
									<path id="Tracé_2110" class="st17" d="M77,4.5l-8.6,10.5h21.3l1.8-2.2L77,4.5z"/>
									<path id="Tracé_2111" class="st20" d="M82.1,34.6L80.4,32H0l1.7,2.5L82.1,34.6z"/>
								</g>
							</g>
						</g>
					</g>
				</g>
			</g>
		</g>
	</g>
</g>
</svg>
