<?xml version="1.0" encoding="UTF-8"?>
<svg width="794px" height="355px" viewBox="0 0 794 355" version="1.1" xmlns="http://www.w3.org/2000/svg" xmlns:xlink="http://www.w3.org/1999/xlink">
    <!-- Generator: Sketch 52.6 (67491) - http://www.bohemiancoding.com/sketch -->
    <title>403</title>
    <desc>Created with Sketch.</desc>
    <defs>
        <polygon id="path-1" points="254.932248 354.444609 254.932248 0 0 0 1.37252235e-14 354.444609 254.932248 354.444609"></polygon>
    </defs>
    <g id="Error-Pages" stroke="none" stroke-width="1" fill="none" fill-rule="evenodd">
        <g id="403" transform="translate(-403.000000, -355.000000)">
            <g transform="translate(391.000000, 355.000000)" id="Group-4">
                <g>
                    <g id="Group-2" transform="translate(0.000000, 253.000000)" fill="#3EBCA8">
                        <polygon id="4" points="272 21.2 226.4 21.2 226.4 80 163.2 80 163.2 21.2 12.4 21.2 12.4 -22.4 144.4 -200 212.4 -200 90 -31.6 165.2 -31.6 165.2 -84 226.4 -84 226.4 -31.6 272 -31.6"></polygon>
                        <path d="M729.4,-86 C753.933456,-81.99998 772.733268,-72.866738 785.8,-58.6 C798.866732,-44.333262 805.4,-26.666772 805.4,-5.6 C805.4,10.666748 801.133376,25.666598 792.6,39.4 C784.066624,53.133402 771.066754,64.133292 753.6,72.4 C736.133246,80.666708 714.73346,84.8 689.4,84.8 C669.666568,84.8 650.266762,82.200026 631.2,77 C612.133238,71.799974 595.9334,64.400048 582.6,54.8 L607.8,5.2 C618.46672,13.20004 630.79993,19.399978 644.8,23.8 C658.80007,28.200022 673.13326,30.4 687.8,30.4 C704.066748,30.4 716.86662,27.266698 726.2,21 C735.53338,14.733302 740.2,5.866724 740.2,-5.6 C740.2,-28.533448 722.733508,-40 687.8,-40 L658.2,-40 L658.2,-82.8 L715.8,-148 L596.6,-148 L596.6,-200 L792.6,-200 L792.6,-158 L729.4,-86 Z" id="3"></path>
                    </g>
                    <g id="Page-1" transform="translate(300.000000, 0.000000)">
                        <g id="Group-3" transform="translate(0.000000, 0.099481)">
                            <mask id="mask-2" fill="white">
                                <use xlink:href="#path-1"></use>
                            </mask>
                            <g id="Clip-2"></g>
                            <path d="M183.35609,112.487272 C166.457327,104.228838 147.54583,99.4463415 127.459552,99.4463415 C107.389704,99.4463415 88.469991,104.228838 71.5794439,112.487272 L71.5794439,102.3635 C71.6698117,72.8960912 96.6441614,48.9753921 127.459552,48.9753921 C158.283157,48.9753921 183.265722,72.8960912 183.35609,102.3635 L183.35609,112.487272 Z M127.459552,286.506044 C94.5903498,286.506044 67.9400897,259.848968 67.9400897,226.963143 C67.9400897,194.0691 94.5903498,167.420241 127.459552,167.420241 C160.345184,167.420241 186.995444,194.0691 186.995444,226.963143 C186.995444,259.848968 160.345184,286.506044 127.459552,286.506044 L127.459552,286.506044 Z M229.813309,151.174545 L229.813309,98.1644353 L229.607928,98.1644353 C227.365166,43.56016 182.567426,0 127.459552,0 C71.7355336,0 26.4941704,44.5873285 25.2290224,100.054425 L25.114009,100.054425 L25.114009,151.174545 C9.4064574,172.391737 0,198.522902 0,226.963143 C0,297.377595 57.0631031,354.447074 127.459552,354.447074 C197.864215,354.447074 254.935534,297.377595 254.935534,226.963143 C254.935534,198.522902 245.520861,172.391737 229.813309,151.174545 L229.813309,151.174545 Z" id="Fill-1" fill="#40BCA8" mask="url(#mask-2)"></path>
                        </g>
                        <path d="M127.707767,198 C112.961399,198 101,209.972676 101,224.722815 C101,239.489388 112.961399,251.445629 127.707767,251.445629 C142.46235,251.445629 154.423749,239.489388 154.423749,224.722815 C154.423749,209.972676 142.46235,198 127.707767,198" id="Fill-4" fill="#40BCA8"></path>
                    </g>
                </g>
            </g>
        </g>
    </g>
</svg>