<svg id="Calque_1" data-name="Calque 1"
  xmlns="http://www.w3.org/2000/svg" width="207.11" height="212.89" viewBox="0 0 207.11 212.89">
  <g>
    <polygon points="45.22 208.44 62.56 208.44 62.56 164.65 53.89 159.78 45.22 164.67 45.22 208.44"/>
    <polygon points="129 208.44 149 208.44 149 153.64 139 147.54 129 153.66 129 208.44"/>
    <path d="M96.39,152.5S68.56,142.17,68.56,114c0-24.67,18.26-30.59,18.26-30.59s-1.75-11.74-14.6-11.74c0,0,4.67-25.17-18.33-25.17-23.5,0-18,26-18,26S14.06,69.67,12.06,89.67c0,0-.67,14.5,8.5,18.66,0,0-27.73,15.68-13.39,38.25,15.17,23.86,40.22,10.09,46.72,3.59C53.89,150.17,71.72,171.33,96.39,152.5Z"/>
    <path d="M99.45,83.78S66.34,96,79.45,128.44s57.77,15.56,59.77,7.12c0,0,32.47,32,58.5-5.43C219,99.56,179.89,83.78,179.89,83.78s13.33-8.67,13.33-22.89-16.66-26.45-31.33-23.56c0,0,10.89-32.89-21.78-32.89-31.33,0-22.89,32.23-22.89,32.23S90.78,34,86.56,56.89,99.45,83.78,99.45,83.78Z"/>
  </g>
</svg>
