<svg id="Calque_1" data-name="Calque 1" xmlns="http://www.w3.org/2000/svg" viewBox="0 0 353.67 174.04"><defs><style>.cls-1{isolation:isolate;}.cls-2{fill:#fff;}</style></defs><g class="cls-1"><path class="cls-2" d="M335.51,481.92l7.71-71.68h76.37v20.51H363l-3.91,34a43.89,43.89,0,0,1,22.27-5.67q20.31,0,31.59,13t11.28,35q0,21.68-12.5,34.52T377.4,554.38q-19.53,0-32.37-11.08t-13.92-29.25h22.95q1.37,10.35,7.42,15.87t15.82,5.52q10.95,0,17.05-7.81t6.1-21.29q0-13-6.74-20.56t-18.55-7.57a25.94,25.94,0,0,0-20.71,8.4Z" transform="translate(-331.11 -380.35)"/><path class="cls-2" d="M553.31,492.57q0,30.66-11.48,46.24t-34.91,15.57q-23.06,0-34.72-15.18t-12-45V469.62q0-30.66,11.48-46t35-15.33q23.34,0,34.81,14.94T553.31,468ZM529.58,466q0-20-5.47-29.35t-17.38-9.33q-11.62,0-17.09,8.84t-5.77,27.59V496q0,19.92,5.57,29.68t17.48,9.77q11.43,0,16.9-9t5.76-28.28Z" transform="translate(-331.11 -380.35)"/><path class="cls-2" d="M684.78,492.57q0,30.66-11.48,46.24t-34.91,15.57q-23,0-34.71-15.18t-12-45V469.62q0-30.66,11.48-46t35-15.33q23.34,0,34.81,14.94T684.78,468ZM661.05,466q0-20-5.47-29.35t-17.38-9.33q-11.62,0-17.09,8.84t-5.76,27.59V496q0,19.92,5.56,29.68t17.48,9.77q11.43,0,16.9-9t5.76-28.28Z" transform="translate(-331.11 -380.35)"/></g><g class="cls-1"><path class="cls-2" d="M350.24,386.85H345v4.28h6.08v1.3h-7.68V380.35H351v1.3h-6v3.89h5.23Z" transform="translate(-331.11 -380.35)"/><path class="cls-2" d="M359,387.54h-2.84v4.89h-1.6V380.35h4a4.73,4.73,0,0,1,3.14.93,3.32,3.32,0,0,1,1.1,2.7,3.25,3.25,0,0,1-.61,2,3.58,3.58,0,0,1-1.7,1.25l2.84,5.13v.1h-1.71Zm-2.84-1.3h2.45a2.78,2.78,0,0,0,1.89-.62,2.05,2.05,0,0,0,.7-1.64,2.17,2.17,0,0,0-.67-1.72,2.79,2.79,0,0,0-1.93-.61h-2.44Z" transform="translate(-331.11 -380.35)"/><path class="cls-2" d="M371,387.54h-2.84v4.89h-1.6V380.35h4a4.73,4.73,0,0,1,3.14.93,3.32,3.32,0,0,1,1.1,2.7,3.25,3.25,0,0,1-.61,2,3.58,3.58,0,0,1-1.7,1.25l2.84,5.13v.1h-1.71Zm-2.84-1.3h2.45a2.78,2.78,0,0,0,1.89-.62,2.05,2.05,0,0,0,.7-1.64,2.17,2.17,0,0,0-.67-1.72,2.79,2.79,0,0,0-1.93-.61h-2.44Z" transform="translate(-331.11 -380.35)"/><path class="cls-2" d="M385.38,386.85h-5.24v4.28h6.09v1.3h-7.68V380.35h7.59v1.3h-6v3.89h5.24Z" transform="translate(-331.11 -380.35)"/><path class="cls-2" d="M398.23,380.35v8.21a3.83,3.83,0,0,1-1.07,2.8,4.35,4.35,0,0,1-2.9,1.22l-.42,0a4.53,4.53,0,0,1-3.16-1.07,3.83,3.83,0,0,1-1.2-2.95v-8.23h1.58v8.18a2.93,2.93,0,0,0,4.85,2,2.75,2.75,0,0,0,.72-2v-8.19Z" transform="translate(-331.11 -380.35)"/><path class="cls-2" d="M406.69,387.54h-2.84v4.89h-1.6V380.35h4a4.73,4.73,0,0,1,3.14.93,3.32,3.32,0,0,1,1.1,2.7,3.25,3.25,0,0,1-.61,2,3.55,3.55,0,0,1-1.69,1.25l2.84,5.13v.1h-1.71Zm-2.84-1.3h2.45a2.78,2.78,0,0,0,1.89-.62,2.05,2.05,0,0,0,.7-1.64,2.17,2.17,0,0,0-.67-1.72,2.79,2.79,0,0,0-1.93-.61h-2.44Z" transform="translate(-331.11 -380.35)"/></g></svg>