<?xml version="1.0" encoding="utf-8"?>
<!-- Generator: Adobe Illustrator 24.3.0, SVG Export Plug-In . SVG Version: 6.00 Build 0)  -->
<svg version="1.1" id="Calque_1" xmlns="http://www.w3.org/2000/svg" xmlns:xlink="http://www.w3.org/1999/xlink" x="0px" y="0px"
	 viewBox="0 0 364.5 170.5" style="enable-background:new 0 0 364.5 170.5;" xml:space="preserve">
<style type="text/css">
	.st0{fill:#03685C;}
	.st1{fill:#45251C;}
	.st2{fill:#744D43;}
	.st3{fill:#009588;}
	.st4{fill:#3FB7B0;}
	.st5{enable-background:new    ;}
</style>
<g>
	<path class="st0" d="M85.8,119.9h17.7v19H85.8v31.7H62.1v-31.7H0.7L0,124.5l61.3-96.1h24.5V119.9z M24.9,119.9h37.2V60.5l-1.8,3.1
		L24.9,119.9z"/>
</g>
<g>
	<path class="st0" d="M346.8,119.9h17.7v19h-17.7v31.7h-23.7v-31.7h-61.5l-0.7-14.5l61.3-96.1h24.5L346.8,119.9z M285.9,119.9h37.2
		V60.5l-1.8,3.1L285.9,119.9z"/>
</g>
<g id="Ecoteka_short_logo_light">
	<path id="Tracé_2041-2" class="st1" d="M196.1,99.6c-0.1-1-0.3-2-0.5-2.9c-0.3-0.9-0.6-1.9-1.1-2.7c-0.9-1.7-2.1-3.3-3.5-4.7
		c-1.4-1.3-2.9-2.5-4.6-3.4c-1.7-1-3.7-1.6-5.7-1.7c-1,0-2.1,0.1-3.1,0.4c-1,0.3-1.9,0.8-2.7,1.3c-1.6,1.1-2.9,2.6-3.9,4.3
		c-0.5,0.8-0.9,1.7-1.1,2.6c-0.1,0.5-0.3,0.9-0.4,1.4c-0.1,0.5-0.2,1-0.2,1.4c-0.1,1.9,0.1,3.7,0.5,5.5c0.4,1.7,1.1,3.4,1.8,5.1
		c0.8,1.6,1.7,3.2,2.9,4.5c2.3,2.8,5.7,4.4,9.3,4.6c1.8,0.1,3.6-0.3,5.2-1.1c1.7-0.9,3.1-2.2,4.1-3.8c0.5-0.8,1-1.6,1.4-2.5
		c0.4-0.9,0.7-1.8,0.9-2.7C196,103.4,196.2,101.5,196.1,99.6L196.1,99.6z M189.5,103.2c-0.1,0.6-0.2,1.2-0.3,1.9
		c-0.1,0.6-0.3,1.2-0.5,1.8c-0.3,1.1-0.8,2-1.6,2.9c-0.4,0.4-0.8,0.6-1.2,0.8c-0.5,0.2-1,0.3-1.6,0.4c-1.1,0.1-2.3-0.1-3.3-0.5
		c-0.5-0.2-1.1-0.5-1.5-0.9c-0.5-0.4-0.9-0.8-1.3-1.2c-0.8-1-1.5-2.1-2.1-3.2c-0.6-1.2-1-2.5-1.4-3.8c-0.2-0.6-0.4-1.3-0.5-1.9
		c-0.1-0.6-0.3-1.3-0.3-2c-0.1-0.7-0.1-1.3,0-2c0.1-0.7,0.2-1.3,0.5-1.9c0.2-0.6,0.5-1.2,0.9-1.8c0.4-0.6,0.8-1.1,1.3-1.6
		c1-0.9,2.3-1.5,3.7-1.5c1.4,0.1,2.6,0.6,3.7,1.4c1.1,0.8,2,1.8,2.8,2.9c0.8,1,1.4,2.2,1.9,3.4c0.5,1.1,0.8,2.3,1,3.5
		c0.1,0.6,0.1,1.2,0.1,1.8C189.6,102,189.6,102.6,189.5,103.2L189.5,103.2z"/>
	<path id="Tracé_2042-2" class="st2" d="M207.8,99.6c-0.2-1.8-0.5-3.5-1-5.3c-0.1-0.4-0.2-0.9-0.4-1.3s-0.3-0.9-0.5-1.3
		c-0.3-0.9-0.7-1.7-1.1-2.5c-0.8-1.6-1.8-3.1-2.9-4.5c-0.5-0.7-1.1-1.4-1.6-2.1l-0.8-1l-0.4-0.5l-0.4-0.5c-2.4-2.8-5.4-5-8.7-6.6
		c-1.6-0.8-3.2-1.5-4.8-2.1c-1.7-0.7-3.5-1.2-5.3-1.4c-1.9-0.3-3.8-0.2-5.7,0.2c-0.2,0-0.5,0.1-0.7,0.2c-0.2,0.1-0.5,0.1-0.7,0.2
		c-0.5,0.2-0.9,0.3-1.3,0.5c-0.9,0.4-1.7,0.9-2.5,1.5c-1.5,1.1-2.7,2.5-3.8,4c-1,1.4-1.9,2.9-2.7,4.5c-0.9,1.5-1.6,3.1-2.3,4.7
		c-0.7,1.7-1.2,3.4-1.5,5.1c-0.1,0.9-0.2,1.8-0.3,2.7c0,0.9,0,1.8,0.1,2.7c0.2,1.7,0.5,3.5,1,5.2c0.5,1.7,1,3.3,1.5,4.9
		c0.3,0.8,0.5,1.6,0.8,2.4s0.5,1.6,0.8,2.4c0.5,1.6,1.1,3.3,1.8,4.8c0.4,0.8,0.8,1.6,1.3,2.3c0.1,0.2,0.2,0.4,0.4,0.5
		c0.1,0.2,0.3,0.4,0.4,0.5c0.3,0.3,0.6,0.6,0.9,1c1.2,1.2,2.5,2.3,3.9,3.3c0.9,0.6,1.9,1.2,2.8,1.7c1.2,0.7,2.4,1.3,3.6,1.9
		c1.6,0.8,3.3,1.3,5,1.6c0.9,0.1,1.8,0.2,2.7,0.2c0.9,0,1.8,0,2.6-0.1c0.9-0.1,1.7-0.3,2.6-0.5c0.8-0.2,1.7-0.5,2.5-0.8
		c1.1-0.4,2.2-1,3.3-1.6c1.2-0.7,2.3-1.5,3.4-2.4c0.7-0.6,1.3-1.2,1.8-1.9c0.6-0.7,1.1-1.4,1.6-2.2c2-3,3.5-6.2,4.3-9.7
		c0.2-0.9,0.4-1.8,0.5-2.7c0.1-0.9,0.2-1.8,0.2-2.7C208.2,103.2,208.1,101.4,207.8,99.6z M200,115.4c-0.3,0.7-0.6,1.4-1,2
		c-0.2,0.3-0.4,0.7-0.5,1s-0.4,0.6-0.5,0.9c-0.4,0.6-0.8,1.1-1.3,1.6c-0.5,0.5-1,1-1.5,1.5c-1.1,0.9-2.3,1.6-3.6,2.2
		c-1.3,0.6-2.7,1-4.1,1.2c-1.4,0.2-2.8,0.2-4.2,0c-1.4-0.2-2.8-0.6-4.1-1.2c-2.8-1.1-5.4-2.7-7.8-4.6c-1.1-0.9-2.1-2-2.9-3.2
		c-0.7-1.3-1.3-2.7-1.7-4.1c-0.2-0.8-0.5-1.5-0.7-2.3s-0.5-1.5-0.7-2.3s-0.5-1.6-0.7-2.3s-0.5-1.5-0.8-2.3c-0.5-1.5-0.9-3-1.2-4.5
		c-0.3-1.5-0.5-3-0.5-4.5c0-1.5,0.2-3.1,0.6-4.6c0.4-1.5,1-2.9,1.7-4.3c0.7-1.4,1.4-2.8,2.2-4.2c0.6-1,1.2-1.9,1.9-2.9
		c0.8-1,1.8-2,2.8-2.8c2.4-1.7,5.4-2.3,8.3-1.7c1.5,0.3,3,0.8,4.4,1.4c1.2,0.5,2.4,1.1,3.6,1.7c1,0.6,1.9,1.2,2.9,1.9
		c1.2,0.9,2.4,2,3.4,3.1c0.5,0.6,0.9,1.2,1.4,1.8l1.3,2c0.9,1.3,1.7,2.6,2.4,4c0.7,1.3,1.3,2.6,1.8,4c0.1,0.3,0.2,0.7,0.3,1
		s0.2,0.7,0.3,1.1c0.2,0.7,0.3,1.5,0.5,2.2c0.3,1.5,0.5,3,0.6,4.5c0.1,1.5,0.1,3,0,4.5C201.9,110,201.2,112.8,200,115.4L200,115.4z"
		/>
	<path id="Tracé_2043-2" class="st3" d="M231.6,105.9c-0.3-3.4-0.9-6.7-1.7-10c-0.4-1.6-0.9-3.2-1.4-4.8c-0.5-1.6-1.1-3.1-1.7-4.7
		c-1.2-3.1-2.5-6.2-4-9.2c-0.8-1.5-1.6-3-2.5-4.4c-0.9-1.4-1.9-2.8-2.9-4.2c-0.5-0.7-1.1-1.3-1.6-2s-1.1-1.2-1.7-1.8
		c-1.1-1.2-2.3-2.4-3.5-3.6s-2.4-2.3-3.7-3.4s-2.6-2.1-4-3.1c-1.4-1-2.8-1.9-4.3-2.7c-1.5-0.8-3-1.6-4.6-2.2
		c-3.1-1.2-6.4-2.2-9.6-2.9c-3.3-0.7-6.7-1-10.1-1c-3.4,0-6.8,0.6-10.1,1.6c-0.8,0.2-1.6,0.6-2.4,0.9c-0.8,0.3-1.6,0.7-2.3,1.1
		c-1.5,0.8-3,1.7-4.3,2.7c-1.4,1-2.7,2.1-3.9,3.3c-0.6,0.6-1.2,1.2-1.8,1.8c-0.3,0.3-0.6,0.6-0.9,0.9s-0.5,0.6-0.8,1l-0.8,1
		c-0.3,0.3-0.5,0.7-0.8,1c-0.5,0.6-1,1.3-1.5,2s-0.9,1.4-1.4,2.1l-0.7,1.1l-0.6,1.1c-1.6,3-2.8,6.1-3.6,9.4c-0.4,1.6-0.8,3.3-1,4.9
		s-0.5,3.3-0.6,4.9l-0.1,1.2l-0.1,1.2c0,0.8-0.1,1.6-0.1,2.5c-0.1,1.6-0.1,3.3-0.1,4.9c0,3.3,0.2,6.6,0.7,9.9
		c0.5,3.3,1.4,6.5,2.6,9.6c0.3,0.8,0.6,1.5,1,2.3s0.7,1.5,1.1,2.2c0.8,1.5,1.6,2.9,2.5,4.3c1.8,2.8,3.8,5.4,5.9,7.9
		c1.1,1.3,2.1,2.5,3.2,3.7c0.5,0.6,1.1,1.2,1.7,1.8s1.2,1.1,1.8,1.7c5,4.3,10.7,7.7,16.8,10.2c1.5,0.6,3,1.3,4.5,1.8s3.1,1,4.7,1.4
		c3.2,0.8,6.4,1.3,9.7,1.3c3.3,0,6.6-0.4,9.8-1.3c1.6-0.4,3.2-1,4.7-1.6c3.1-1.3,5.9-3.1,8.4-5.2c1.3-1.1,2.5-2.2,3.6-3.5
		c2.2-2.5,4.2-5.2,5.9-8c0.9-1.4,1.6-2.9,2.3-4.5c0.7-1.5,1.3-3.1,1.8-4.7c1-3.2,1.8-6.5,2.1-9.9
		C231.8,112.6,231.8,109.3,231.6,105.9z M165.3,50.4c3-0.9,6.2-1.3,9.3-1.3c3.2,0.1,6.3,0.5,9.4,1.2c3.1,0.7,6,1.7,8.9,3
		c1.4,0.6,2.8,1.4,4.1,2.2c1.3,0.8,2.6,1.8,3.8,2.7c2.4,2,4.7,4.1,6.8,6.5c1.1,1.1,2.1,2.3,3.1,3.5l1.5,1.8l0.7,0.9l0.7,0.9
		c1.8,2.5,3.3,5.2,4.6,8c0.7,1.4,1.3,2.8,1.9,4.3c0.6,1.4,1.1,2.9,1.7,4.4s1,3,1.5,4.4s0.9,3,1.3,4.5c1.6,5.9,2.1,12.1,1.6,18.2
		c-0.5,6.1-2.2,12-5.1,17.3c-0.7,1.3-1.5,2.6-2.4,3.9c-0.8,1.3-1.8,2.5-2.7,3.7c-0.5,0.6-1,1.1-1.5,1.7c-0.5,0.6-1,1.1-1.6,1.6
		c-1.1,1-2.3,2-3.5,2.8c-1.2,0.8-2.5,1.6-3.9,2.2c-1.4,0.6-2.8,1.1-4.2,1.6c-4.4,1.3-9,1.6-13.5,1c-1.5-0.2-3-0.5-4.5-0.9
		c-1.5-0.4-2.9-0.9-4.4-1.4s-2.9-1.1-4.3-1.7c-5.8-2.3-11.1-5.6-15.7-9.7c-0.3-0.2-0.6-0.5-0.8-0.8l-0.8-0.8
		c-0.5-0.6-1.1-1.1-1.6-1.7c-1-1.2-2.1-2.4-3.1-3.6c-2-2.4-3.8-4.9-5.5-7.6c-0.8-1.3-1.6-2.7-2.3-4c-0.2-0.3-0.4-0.7-0.5-1l-0.5-1
		c-0.3-0.7-0.6-1.4-0.9-2.1c-1.1-2.9-1.9-5.9-2.4-9c-0.5-3.1-0.7-6.2-0.7-9.3c0-1.6,0-3.1,0.1-4.7s0.1-3.1,0.2-4.7
		c0-0.8,0.1-1.6,0.2-2.3s0.2-1.6,0.3-2.3c0.2-1.6,0.5-3.1,0.9-4.6c0.7-3.1,1.8-6,3.2-8.8c0.7-1.4,1.6-2.7,2.5-4
		c0.5-0.6,0.9-1.3,1.4-1.9l0.7-0.9l0.8-0.9c0.5-0.6,1-1.2,1.5-1.8s1.1-1.1,1.7-1.7c1.1-1.1,2.3-2.1,3.6-3c1.3-0.9,2.6-1.8,4-2.5
		C162.4,51.5,163.8,50.9,165.3,50.4z"/>
	<path id="Tracé_2044-2" class="st4" d="M244.1,111.5c0-2.1-0.2-4.2-0.4-6.3c-0.5-4.2-1.4-8.3-2.7-12.3c-1.2-4-2.7-7.9-4.4-11.8
		c-1.6-3.9-3.6-7.6-5.9-11.1c-2.3-3.5-4.9-6.9-7.7-10c-1.4-1.6-2.8-3.1-4.3-4.6s-3-2.9-4.5-4.3c-6.2-5.7-13.4-10.2-21.2-13.3
		c-1.9-0.8-4-1.5-6-2s-4-1.1-6.1-1.6c-4.1-1-8.3-1.5-12.5-1.6c-4.2-0.1-8.5,0.5-12.5,1.7c-2,0.7-4,1.5-5.9,2.5
		c-1.9,1-3.7,2.1-5.4,3.4c-1.7,1.3-3.3,2.7-4.8,4.2c-1.5,1.5-2.8,3.1-4.1,4.8c-7.6,10.1-11.9,22.3-12.2,35c-0.1,2.1-0.1,4.2,0,6.3
		s0.2,4.1,0.4,6.2c0.3,4.2,0.8,8.3,1.7,12.4c0.8,4.1,2.1,8.1,3.7,11.9c0.8,1.9,1.8,3.8,2.9,5.6c1.1,1.8,2.2,3.5,3.5,5.2
		c2.6,3.3,5.3,6.4,8.3,9.2c1.5,1.5,3,2.9,4.5,4.3l4.5,4.2c3,2.8,6.1,5.6,9.4,8.1c1.6,1.3,3.3,2.5,5,3.6c1.7,1.1,3.6,2.1,5.4,3
		c1.9,0.9,3.8,1.6,5.8,2.2c2,0.6,4,1,6,1.4c4.1,0.6,8.3,0.8,12.4,0.4c4.1-0.4,8.2-1.2,12.1-2.5c1-0.3,2-0.7,2.9-1l1.4-0.6l0.7-0.3
		l0.7-0.3c1.9-0.9,3.7-1.9,5.4-3c0.9-0.6,1.7-1.2,2.6-1.8c0.4-0.3,0.8-0.6,1.2-1s0.8-0.6,1.2-1c0.8-0.7,1.5-1.4,2.3-2.1
		c0.4-0.4,0.7-0.8,1.1-1.1s0.7-0.8,1-1.2c1.4-1.6,2.7-3.3,3.8-5c1.2-1.7,2.2-3.5,3.2-5.4c3.9-7.5,6.3-15.6,7.1-23.9
		c0.1-1,0.1-2.1,0.2-3.1S244.1,112.5,244.1,111.5z M236.2,135.8c-0.7,1.9-1.6,3.7-2.4,5.5c-0.9,1.8-1.9,3.5-3,5.1
		c-1.1,1.6-2.3,3.2-3.6,4.7c-1.3,1.5-2.7,2.9-4.2,4.2c-1.5,1.3-3.1,2.5-4.8,3.5c-1.7,1.1-3.4,2-5.2,2.8l-1.4,0.6
		c-0.5,0.2-0.9,0.4-1.4,0.5c-0.9,0.4-1.9,0.7-2.8,1c-1.9,0.6-3.8,1.1-5.8,1.5c-7.8,1.6-16,1.2-23.6-1.2c-0.5-0.2-0.9-0.3-1.4-0.5
		l-1.4-0.5c-0.9-0.4-1.8-0.8-2.7-1.3c-1.8-0.9-3.5-2-5.1-3.1c-1.6-1.1-3.3-2.3-4.8-3.6s-3.1-2.6-4.6-3.9c-3-2.7-5.9-5.5-8.9-8.4
		s-5.8-5.6-8.5-8.7c-1.3-1.5-2.6-3.1-3.8-4.7c-1.2-1.6-2.3-3.3-3.2-5c-1.9-3.5-3.5-7.3-4.5-11.2c-2.2-7.7-2.9-15.9-3.3-24
		c-0.3-8.1,0.8-16.2,3.5-23.9c0.7-1.9,1.5-3.8,2.4-5.6l0.7-1.4l0.4-0.7l0.4-0.7l0.8-1.3l0.8-1.3l0.4-0.6l0.4-0.6
		c0.3-0.4,0.5-0.9,0.8-1.3c0.6-0.8,1.2-1.6,1.8-2.4s1.3-1.6,1.9-2.3c0.7-0.8,1.4-1.5,2.1-2.2c0.7-0.7,1.5-1.4,2.2-2
		c0.8-0.7,1.6-1.3,2.4-1.9c1.7-1.2,3.4-2.2,5.2-3.1c2.2-1.1,4.6-1.9,7-2.5h0.1l0.9-0.2l0.8-0.1l0.4-0.1l1.1-0.2l0.4,0l1-0.1
		c4-0.3,8-0.1,11.9,0.6c4,0.7,7.9,1.7,11.8,3c7.7,2.6,14.8,6.6,21,11.8c3.1,2.6,6,5.4,8.7,8.4c1.4,1.5,2.7,3,4,4.5s2.5,3.1,3.7,4.8
		s2.3,3.3,3.4,5s2,3.5,2.9,5.2c0.5,0.9,0.9,1.8,1.3,2.7s0.8,1.8,1.2,2.8c0.8,1.9,1.5,3.7,2.2,5.6c2.9,7.5,4.4,15.4,4.6,23.4
		C240.6,120.5,239.2,128.4,236.2,135.8L236.2,135.8z"/>
	<path id="Tracé_2045-2" class="st0" d="M220.4,104.3c0-2.6-0.3-5.2-0.8-7.8c-0.5-2.6-1.2-5.1-2.2-7.5c-1-2.4-2.1-4.8-3.5-7
		c-2.8-4.4-6.2-8.5-10.1-11.9c-3.9-3.5-8.3-6.4-13-8.6c-4.8-2.3-10-3.4-15.3-3.3c-2.6,0.1-5.3,0.6-7.8,1.5c-2.5,0.9-4.8,2.1-7,3.6
		c-4.3,3-7.8,7.1-10.2,11.8c-1.2,2.3-2.1,4.8-2.8,7.3c-0.7,2.5-1,5.1-1.2,7.7c-0.2,5.2,0.3,10.3,1.6,15.3c0.6,2.5,1.4,4.9,2.4,7.3
		c4.9,12,14.1,21.7,25.8,27.3c2.3,1.1,4.7,2,7.2,2.6c2.5,0.6,5,1,7.6,1c5.2,0.1,10.2-1.6,14.4-4.7c2.1-1.6,3.9-3.4,5.5-5.5
		c1.6-2.1,2.9-4.3,4.1-6.6c2.3-4.7,3.8-9.6,4.7-14.8C220.2,109.5,220.4,106.9,220.4,104.3L220.4,104.3z M207.8,131.3
		c-1.3,1.9-2.9,3.6-4.7,5c-1.8,1.4-3.8,2.5-6,3.1c-2.2,0.7-4.5,0.9-6.8,0.9c-4.7-0.3-9.2-1.5-13.4-3.7c-2.1-1.1-4.1-2.3-6-3.7
		c-1.9-1.4-3.8-2.9-5.5-4.5c-3.4-3.3-6.3-7-8.7-11.2c-1.2-2.1-2.2-4.2-3-6.4c-0.8-2.2-1.5-4.5-2.1-6.8c-1.2-4.6-1.7-9.4-1.5-14.1
		c0.1-2.4,0.5-4.7,1.1-7c0.6-2.3,1.5-4.5,2.5-6.7c2.2-4.3,5.4-8,9.3-10.7c4-2.7,8.7-4.2,13.5-4.2c4.8,0.2,9.5,1.4,13.7,3.7
		c2.1,1.1,4.1,2.4,6,3.9c1.9,1.4,3.7,3,5.4,4.7c3.4,3.3,6.3,7.1,8.6,11.2c1.1,2,2.1,4.2,2.9,6.4c0.8,2.2,1.4,4.5,1.8,6.8
		c0.8,4.6,0.8,9.3,0.2,13.9c-0.6,4.6-1.9,9.2-3.9,13.4C210.3,127.5,209.1,129.5,207.8,131.3L207.8,131.3z"/>
</g>
<g class="st5">
	<path class="st0" d="M72.7,9h-5.2v4.3h6.1v1.3h-7.7V2.5h7.6v1.3h-6v3.9h5.2V9z"/>
	<path class="st0" d="M81.5,9.7h-2.8v4.9H77V2.5h4c1.4,0,2.4,0.3,3.1,0.9c0.7,0.6,1.1,1.5,1.1,2.7c0,0.8-0.2,1.4-0.6,2
		c-0.4,0.6-1,1-1.7,1.3l2.8,5.1v0.1h-1.7L81.5,9.7z M78.6,8.3h2.4c0.8,0,1.4-0.2,1.9-0.6c0.5-0.4,0.7-1,0.7-1.6
		c0-0.7-0.2-1.3-0.7-1.7c-0.4-0.4-1.1-0.6-1.9-0.6h-2.4V8.3z"/>
	<path class="st0" d="M93.5,9.7h-2.8v4.9H89V2.5h4c1.4,0,2.4,0.3,3.1,0.9c0.7,0.6,1.1,1.5,1.1,2.7c0,0.8-0.2,1.4-0.6,2
		c-0.4,0.6-1,1-1.7,1.3l2.8,5.1v0.1h-1.7L93.5,9.7z M90.6,8.3h2.4c0.8,0,1.4-0.2,1.9-0.6c0.5-0.4,0.7-1,0.7-1.6
		c0-0.7-0.2-1.3-0.7-1.7c-0.4-0.4-1.1-0.6-1.9-0.6h-2.4V8.3z"/>
	<path class="st0" d="M107.9,9h-5.2v4.3h6.1v1.3H101V2.5h7.6v1.3h-6v3.9h5.2V9z"/>
	<path class="st0" d="M120.7,2.5v8.2c0,1.1-0.4,2.1-1.1,2.8c-0.7,0.7-1.7,1.1-2.9,1.2l-0.4,0c-1.3,0-2.4-0.4-3.2-1.1
		c-0.8-0.7-1.2-1.7-1.2-2.9V2.5h1.6v8.2c0,0.9,0.2,1.6,0.7,2s1.2,0.7,2.1,0.7c0.9,0,1.6-0.2,2.1-0.7c0.5-0.5,0.7-1.2,0.7-2V2.5
		H120.7z"/>
	<path class="st0" d="M129.2,9.7h-2.8v4.9h-1.6V2.5h4c1.4,0,2.4,0.3,3.1,0.9c0.7,0.6,1.1,1.5,1.1,2.7c0,0.8-0.2,1.4-0.6,2
		c-0.4,0.6-1,1-1.7,1.3l2.8,5.1v0.1h-1.7L129.2,9.7z M126.4,8.3h2.4c0.8,0,1.4-0.2,1.9-0.6c0.5-0.4,0.7-1,0.7-1.6
		c0-0.7-0.2-1.3-0.7-1.7c-0.4-0.4-1.1-0.6-1.9-0.6h-2.4V8.3z"/>
</g>
</svg>
