<svg id="Calque_1" data-name="Calque 1" xmlns="http://www.w3.org/2000/svg" viewBox="0 0 364.52 170.54"><defs><style>.cls-1,.cls-7{isolation:isolate;}.cls-2,.cls-7{fill:#03685c;}.cls-3{fill:#45251c;}.cls-4{fill:#744d43;}.cls-5{fill:#009588;}.cls-6{fill:#3fb7b0;}.cls-7{font-size:17px;font-family:Roboto-Regular, Roboto;letter-spacing:0.09em;}</style></defs><g class="cls-1"><path class="cls-2" d="M238.71,408.26h17.67v19.05H238.71V459H215V427.31H153.55l-.68-14.46,61.33-96.09h24.51Zm-60.94,0H215V348.89L213.22,352Z" transform="translate(-152.87 -288.4)"/></g><g class="cls-1"><path class="cls-2" d="M499.71,408.26h17.67v19.05H499.71V459H476V427.31H414.55l-.68-14.46,61.33-96.09h24.51Zm-60.94,0H476V348.89L474.22,352Z" transform="translate(-152.87 -288.4)"/></g><g id="Ecoteka_short_logo_light" data-name="Ecoteka short logo light"><path id="Tracé_2041-2" data-name="Tracé 2041-2" class="cls-3" d="M348.93,388a16,16,0,0,0-.54-2.92,16.64,16.64,0,0,0-1.09-2.74,17.77,17.77,0,0,0-3.46-4.66,20.78,20.78,0,0,0-4.59-3.42,13.08,13.08,0,0,0-5.69-1.67,9.19,9.19,0,0,0-3.08.4,10.57,10.57,0,0,0-2.72,1.33,12.92,12.92,0,0,0-3.88,4.31,14,14,0,0,0-1.14,2.64c-.13.46-.26.91-.35,1.4a13.64,13.64,0,0,0-.19,1.43,18.29,18.29,0,0,0,.55,5.51,28.65,28.65,0,0,0,1.82,5.07,20,20,0,0,0,2.89,4.55,12.73,12.73,0,0,0,9.31,4.56,10.89,10.89,0,0,0,5.23-1.14,11.39,11.39,0,0,0,4.12-3.8,15.08,15.08,0,0,0,1.35-2.5,20.9,20.9,0,0,0,.92-2.66,16.56,16.56,0,0,0,.54-5.69Zm-6.59,3.64c-.07.61-.17,1.23-.3,1.85a15.33,15.33,0,0,1-.46,1.77,6.8,6.8,0,0,1-1.61,2.85,3.85,3.85,0,0,1-1.23.84,5.32,5.32,0,0,1-1.58.4,6.56,6.56,0,0,1-3.33-.55,7.51,7.51,0,0,1-1.52-.9,8.54,8.54,0,0,1-1.3-1.25,14.93,14.93,0,0,1-2.07-3.25,26,26,0,0,1-1.41-3.75,17.82,17.82,0,0,1-.51-1.94,16.2,16.2,0,0,1-.33-1.95,10.69,10.69,0,0,1,0-2,8.4,8.4,0,0,1,.46-1.92,9.22,9.22,0,0,1,.89-1.81,8.83,8.83,0,0,1,1.3-1.56A5.32,5.32,0,0,1,333,377a6.85,6.85,0,0,1,3.72,1.4,12.92,12.92,0,0,1,2.81,2.86,15.39,15.39,0,0,1,1.9,3.35,13.28,13.28,0,0,1,.95,3.45,11.48,11.48,0,0,1,.11,1.76,15.75,15.75,0,0,1-.14,1.82Z" transform="translate(-152.87 -288.4)"/><path id="Tracé_2042-2" data-name="Tracé 2042-2" class="cls-4" d="M360.71,388a38.08,38.08,0,0,0-1-5.28c-.1-.43-.24-.86-.38-1.3s-.29-.89-.46-1.32a24.19,24.19,0,0,0-1.14-2.55,34.21,34.21,0,0,0-2.88-4.55c-.51-.72-1.06-1.4-1.6-2.07l-.8-1-.4-.5-.43-.5a26.36,26.36,0,0,0-8.68-6.6,50.42,50.42,0,0,0-4.83-2.11,24.45,24.45,0,0,0-5.27-1.43,14.93,14.93,0,0,0-5.69.2,4.12,4.12,0,0,0-.69.18c-.24.07-.47.13-.7.21a14,14,0,0,0-1.34.55,12.89,12.89,0,0,0-2.46,1.51,18.31,18.31,0,0,0-3.77,4,45.16,45.16,0,0,0-2.74,4.46,47.51,47.51,0,0,0-2.3,4.7,24.18,24.18,0,0,0-1.48,5.14,20.26,20.26,0,0,0-.27,2.69,21.82,21.82,0,0,0,.09,2.68,30.25,30.25,0,0,0,1,5.16c.45,1.67,1,3.29,1.54,4.9.29.8.51,1.59.76,2.38s.51,1.58.76,2.4a39.71,39.71,0,0,0,1.76,4.82,16.65,16.65,0,0,0,1.26,2.31,4,4,0,0,0,.38.54c.13.17.26.36.4.53.27.34.57.65.86,1a24.36,24.36,0,0,0,3.93,3.31,31.73,31.73,0,0,0,2.84,1.74c1.18.7,2.39,1.32,3.6,1.9a18.67,18.67,0,0,0,5,1.61,18.28,18.28,0,0,0,2.66.25,19.61,19.61,0,0,0,2.65-.14,20.74,20.74,0,0,0,2.59-.49,22,22,0,0,0,2.5-.8,20.77,20.77,0,0,0,3.28-1.61,18.66,18.66,0,0,0,3.36-2.43,20.76,20.76,0,0,0,1.83-1.92,21.91,21.91,0,0,0,1.56-2.16,30.3,30.3,0,0,0,4.33-9.69,22.58,22.58,0,0,0,.47-2.71c.1-.91.16-1.78.18-2.66A35.56,35.56,0,0,0,360.71,388Zm-7.81,15.8c-.29.69-.62,1.36-1,2-.17.32-.35.68-.53,1s-.35.6-.54.9a15.71,15.71,0,0,1-1.27,1.65,13.87,13.87,0,0,1-1.52,1.45,15.24,15.24,0,0,1-3.62,2.2,17.64,17.64,0,0,1-4.15,1.21,14.76,14.76,0,0,1-4.25.05,15,15,0,0,1-4.14-1.2,30,30,0,0,1-7.78-4.65,14.72,14.72,0,0,1-2.87-3.23,19.14,19.14,0,0,1-1.72-4.1c-.23-.76-.45-1.5-.67-2.27s-.47-1.55-.7-2.33-.46-1.56-.72-2.31-.5-1.52-.76-2.26a45.88,45.88,0,0,1-1.25-4.49,21.76,21.76,0,0,1-.54-4.55,17.54,17.54,0,0,1,.57-4.56A26.26,26.26,0,0,1,317.1,374c.68-1.43,1.43-2.84,2.2-4.22a30.22,30.22,0,0,1,1.85-2.85,14.18,14.18,0,0,1,2.82-2.76,10.67,10.67,0,0,1,8.31-1.72,20.7,20.7,0,0,1,4.43,1.38c1.19.5,2.4,1.09,3.56,1.7a30,30,0,0,1,2.87,1.87,21.05,21.05,0,0,1,3.36,3.11,21.45,21.45,0,0,1,1.36,1.78l1.33,2c.87,1.3,1.69,2.62,2.41,3.95a25.38,25.38,0,0,1,1.79,4c.12.33.21.67.31,1s.19.72.28,1.08c.18.72.34,1.45.46,2.2A35.05,35.05,0,0,1,355,391a39.39,39.39,0,0,1,0,4.48,24.48,24.48,0,0,1-2.13,8.37Z" transform="translate(-152.87 -288.4)"/><path id="Tracé_2043-2" data-name="Tracé 2043-2" class="cls-5" d="M384.44,394.33a61.91,61.91,0,0,0-1.68-9.95q-.63-2.43-1.41-4.82c-.53-1.59-1.08-3.14-1.66-4.69a85.07,85.07,0,0,0-4-9.19,48.94,48.94,0,0,0-2.51-4.4,44.73,44.73,0,0,0-2.94-4.17c-.52-.68-1.09-1.33-1.65-2s-1.1-1.23-1.67-1.84c-1.13-1.22-2.27-2.42-3.46-3.58s-2.42-2.31-3.69-3.42-2.6-2.14-4-3.13a42.84,42.84,0,0,0-4.3-2.74,39.78,39.78,0,0,0-4.62-2.19,60.12,60.12,0,0,0-9.64-2.91,45.5,45.5,0,0,0-10.08-1,34.45,34.45,0,0,0-10.07,1.59c-.82.24-1.62.57-2.42.88a19.82,19.82,0,0,0-2.33,1.1,33.2,33.2,0,0,0-4.33,2.68,37.93,37.93,0,0,0-3.89,3.26c-.62.57-1.2,1.19-1.78,1.8-.29.3-.57.62-.85.93s-.54.63-.82.95l-.8,1c-.26.33-.51.66-.76,1-.52.65-1,1.34-1.48,2s-.93,1.38-1.39,2.09l-.66,1.08-.62,1.1a41.88,41.88,0,0,0-3.61,9.4c-.42,1.62-.76,3.26-1,4.9s-.47,3.29-.62,4.94l-.1,1.24-.08,1.24c0,.83-.08,1.64-.12,2.46-.07,1.64-.11,3.29-.1,4.94a65.71,65.71,0,0,0,.73,9.91,45.11,45.11,0,0,0,2.64,9.62c.28.78.64,1.52,1,2.27s.71,1.5,1.11,2.23c.76,1.48,1.61,2.89,2.5,4.29a78.61,78.61,0,0,0,5.9,7.92c1.06,1.26,2.14,2.5,3.25,3.7.55.6,1.13,1.2,1.71,1.78s1.17,1.14,1.8,1.69a59.37,59.37,0,0,0,16.78,10.17c1.52.64,3,1.26,4.55,1.8s3.11,1,4.7,1.44a39.52,39.52,0,0,0,9.73,1.31,35.36,35.36,0,0,0,9.76-1.28,39.12,39.12,0,0,0,4.68-1.6,32.4,32.4,0,0,0,8.4-5.25,36.66,36.66,0,0,0,3.56-3.49,52.31,52.31,0,0,0,5.9-8,47.31,47.31,0,0,0,2.34-4.46,43.52,43.52,0,0,0,1.84-4.67,49.06,49.06,0,0,0,2.12-9.87A53.06,53.06,0,0,0,384.44,394.33Zm-66.25-55.56a31.65,31.65,0,0,1,9.33-1.32,43.4,43.4,0,0,1,9.35,1.21,53.86,53.86,0,0,1,8.92,3,34,34,0,0,1,4.12,2.21c1.31.84,2.59,1.75,3.81,2.71a62.27,62.27,0,0,1,6.83,6.46c1.07,1.15,2.1,2.32,3.12,3.52l1.52,1.81.71.9.69.92a51.18,51.18,0,0,1,4.65,8q1,2.1,1.87,4.26c.58,1.44,1.12,2.9,1.66,4.37s1,3,1.51,4.43.9,3,1.27,4.45a53.84,53.84,0,0,1,1.64,18.18,43.94,43.94,0,0,1-5.07,17.34q-1.08,2-2.36,3.92c-.84,1.27-1.75,2.49-2.71,3.67-.48.6-1,1.14-1.5,1.71a17,17,0,0,1-1.6,1.58,26.35,26.35,0,0,1-3.5,2.8,27.56,27.56,0,0,1-3.9,2.18,32.15,32.15,0,0,1-4.24,1.56,31.61,31.61,0,0,1-13.47,1,38.47,38.47,0,0,1-4.49-.93c-1.48-.38-2.94-.86-4.41-1.37s-2.9-1.11-4.33-1.73a54.09,54.09,0,0,1-15.71-9.73c-.29-.25-.56-.52-.84-.8l-.82-.8c-.52-.57-1.06-1.1-1.58-1.7-1-1.18-2.07-2.37-3.06-3.58a74,74,0,0,1-5.5-7.56c-.82-1.32-1.61-2.66-2.31-4.05-.19-.34-.36-.68-.52-1l-.49-1c-.3-.71-.63-1.41-.9-2.14a41.36,41.36,0,0,1-2.39-8.95,60.78,60.78,0,0,1-.71-9.33c0-1.57,0-3.15.06-4.72s.12-3.15.25-4.71c.05-.79.15-1.56.22-2.34s.18-1.56.3-2.33q.34-2.33.9-4.62a39.52,39.52,0,0,1,3.22-8.8,44.37,44.37,0,0,1,2.46-4c.46-.64.89-1.3,1.38-1.92l.71-.94.75-.92c.49-.62,1-1.18,1.55-1.78s1.08-1.15,1.66-1.69a33.56,33.56,0,0,1,3.6-3,28.12,28.12,0,0,1,4-2.48A24.52,24.52,0,0,1,318.19,338.77Z" transform="translate(-152.87 -288.4)"/><path id="Tracé_2044-2" data-name="Tracé 2044-2" class="cls-6" d="M397,399.86a57.63,57.63,0,0,0-.43-6.3,77,77,0,0,0-2.66-12.3,107,107,0,0,0-4.38-11.75,71.64,71.64,0,0,0-5.91-11.11,84.24,84.24,0,0,0-7.67-10c-1.4-1.56-2.82-3.09-4.29-4.56s-3-2.93-4.53-4.34a71.94,71.94,0,0,0-21.25-13.33c-1.94-.79-3.95-1.45-5.95-2s-4-1.14-6.07-1.61A59.75,59.75,0,0,0,321.36,321a39.59,39.59,0,0,0-12.52,1.72,37.67,37.67,0,0,0-5.86,2.47,42.15,42.15,0,0,0-5.36,3.4,46,46,0,0,0-4.76,4.17,53,53,0,0,0-4.1,4.76,60.62,60.62,0,0,0-12.24,35c-.07,2.09-.08,4.18,0,6.26s.21,4.14.38,6.2a98.9,98.9,0,0,0,1.66,12.36,61.41,61.41,0,0,0,3.7,11.92,41.86,41.86,0,0,0,2.85,5.58,51.58,51.58,0,0,0,3.52,5.16,90.87,90.87,0,0,0,8.31,9.24c1.47,1.46,3,2.88,4.47,4.3l4.5,4.25c3,2.83,6.07,5.6,9.35,8.15,1.63,1.27,3.32,2.47,5.05,3.61a56.19,56.19,0,0,0,5.41,3,38.71,38.71,0,0,0,5.79,2.24,46.43,46.43,0,0,0,6.05,1.37,50.78,50.78,0,0,0,12.38.38A54.85,54.85,0,0,0,362.09,454c1-.33,2-.68,2.92-1.05l1.44-.6.72-.3.7-.34a41.79,41.79,0,0,0,5.43-3c.88-.56,1.72-1.18,2.56-1.79.42-.31.82-.64,1.23-1s.8-.65,1.2-1c.8-.67,1.54-1.4,2.3-2.12.38-.38.72-.76,1.08-1.14s.71-.76,1.05-1.16a47.16,47.16,0,0,0,3.82-5,51.92,51.92,0,0,0,3.17-5.4,65.7,65.7,0,0,0,7.06-23.94c.11-1.05.15-2.1.21-3.15S397,400.91,397,399.86Zm-7.94,24.33c-.72,1.86-1.56,3.68-2.44,5.46a51.64,51.64,0,0,1-3,5.13,49.69,49.69,0,0,1-3.6,4.71,50.2,50.2,0,0,1-4.2,4.18,46.93,46.93,0,0,1-4.75,3.55,44.61,44.61,0,0,1-5.22,2.84l-1.36.6c-.45.2-.93.38-1.39.55-.92.38-1.87.67-2.81,1a55.07,55.07,0,0,1-5.78,1.49,47,47,0,0,1-23.59-1.22c-.46-.17-.94-.3-1.4-.5l-1.38-.55c-.9-.41-1.81-.8-2.69-1.28a49.4,49.4,0,0,1-5.13-3.08c-1.65-1.14-3.26-2.33-4.82-3.6s-3.09-2.59-4.6-3.94c-3-2.7-5.91-5.55-8.86-8.35s-5.82-5.63-8.47-8.66c-1.33-1.51-2.61-3.06-3.8-4.68a53.54,53.54,0,0,1-3.25-5A52,52,0,0,1,282,401.67c-2.23-7.74-2.93-15.88-3.26-24a65,65,0,0,1,3.49-23.87,53.6,53.6,0,0,1,2.36-5.58l.7-1.35.35-.68.38-.66.76-1.33.79-1.3.38-.65.42-.63c.28-.42.55-.85.84-1.27.6-.81,1.17-1.65,1.81-2.44s1.29-1.56,1.94-2.33a25.76,25.76,0,0,1,2.12-2.19c.74-.66,1.49-1.37,2.25-2a27,27,0,0,1,2.41-1.85,35.28,35.28,0,0,1,5.23-3.1,31.58,31.58,0,0,1,7-2.48l.15,0,.9-.18.76-.14.44-.07,1.08-.16.42-.05,1-.11a48.25,48.25,0,0,1,11.94.6,79.6,79.6,0,0,1,11.76,3,66.32,66.32,0,0,1,21,11.77,88.27,88.27,0,0,1,8.73,8.35c1.37,1.48,2.72,3,4,4.53s2.53,3.13,3.71,4.75,2.3,3.29,3.35,5,2,3.45,2.91,5.23c.45.89.87,1.8,1.29,2.7s.82,1.84,1.2,2.77c.79,1.85,1.52,3.73,2.19,5.62a70.17,70.17,0,0,1,4.65,23.35,61.72,61.72,0,0,1-4.38,23.29Z" transform="translate(-152.87 -288.4)"/><path id="Tracé_2045-2" data-name="Tracé 2045-2" class="cls-2" d="M373.23,392.73a45.31,45.31,0,0,0-.76-7.8,42.07,42.07,0,0,0-2.18-7.55,47.1,47.1,0,0,0-3.5-7,53.18,53.18,0,0,0-10.08-11.9,52.58,52.58,0,0,0-13-8.61,33.42,33.42,0,0,0-15.3-3.26,26.07,26.07,0,0,0-7.76,1.52,29.36,29.36,0,0,0-7,3.6,32.4,32.4,0,0,0-10.16,11.77,36.54,36.54,0,0,0-2.81,7.28,39.2,39.2,0,0,0-1.19,7.69,51.44,51.44,0,0,0,1.6,15.33,60.32,60.32,0,0,0,2.39,7.33,52.19,52.19,0,0,0,25.81,27.27A39.8,39.8,0,0,0,336.5,431a30.69,30.69,0,0,0,7.57,1,23.21,23.21,0,0,0,14.38-4.67,27.94,27.94,0,0,0,5.5-5.47,37.83,37.83,0,0,0,4.07-6.59,52.78,52.78,0,0,0,4.66-14.76,48.35,48.35,0,0,0,.54-7.79Zm-12.6,27a23.92,23.92,0,0,1-4.72,5,18.8,18.8,0,0,1-6,3.13,20.65,20.65,0,0,1-6.77.85A32.64,32.64,0,0,1,329.76,425a48.66,48.66,0,0,1-6-3.66,45.43,45.43,0,0,1-5.47-4.5,48.63,48.63,0,0,1-8.67-11.16,47.66,47.66,0,0,1-3-6.42,58.1,58.1,0,0,1-2.11-6.8A47.47,47.47,0,0,1,303,378.36a35.55,35.55,0,0,1,1.06-7,34,34,0,0,1,2.55-6.66A28.93,28.93,0,0,1,315.93,354a24,24,0,0,1,13.5-4.23,30.48,30.48,0,0,1,13.7,3.74,43.52,43.52,0,0,1,6,3.87,59.93,59.93,0,0,1,5.39,4.67,49.86,49.86,0,0,1,8.59,11.21,44.07,44.07,0,0,1,2.89,6.38,39.29,39.29,0,0,1,1.8,6.75,44.28,44.28,0,0,1,.16,13.93,48.79,48.79,0,0,1-3.88,13.43,35.42,35.42,0,0,1-3.45,6Z" transform="translate(-152.87 -288.4)"/></g><g id="erreur-2" class="cls-1"><text class="cls-7" transform="translate(64.43 14.54)">ERREUR</text></g></svg>