<svg xmlns="http://www.w3.org/2000/svg" viewBox="0 0 535.75 301.89"><defs><style>.cls-1{fill:#466284;opacity:0.4;}.cls-2{opacity:0.6;}.cls-3{fill:#fff;}.cls-4,.cls-6{fill:#344966;}.cls-5{fill:#6d89aa;}.cls-6{opacity:0.8;}.cls-7{fill:#89b27d;}.cls-8{fill:#798a9b;}.cls-9{fill:none;stroke:#344966;stroke-miterlimit:10;stroke-width:5px;}</style></defs><g id="OBJECTS"><path class="cls-1" d="M85.34,159.65c6.32-34.13,25.14-66.27,50-89.54,38-35.57,90.57-55.42,140.75-57.37,61.21-2.37,122,29.61,151.61,88.45a235.61,235.61,0,0,1,24.06,86.72c1.48,19,2.34,40.09-4.94,58.14C437,270.35,416,275.4,393.22,276.11q-83.4,2.61-166.84-1.2-41.52-1.89-83-5.37c-9.3-.78-22.88.94-30.38-5.93S99.4,246.05,94.9,236.72C82.89,211.84,80.61,185.19,85.34,159.65Z"/><g class="cls-2"><path class="cls-3" d="M218.29,98.06H142.51a15.15,15.15,0,0,1,4.82-9.26A14.62,14.62,0,0,1,157,85.3c.07-7.1,2.8-14,8.23-18.58a22.21,22.21,0,0,1,20-4.48,19.94,19.94,0,0,1,13.93,14.7c2.86-1.18,5.89-.16,8.18,1.92a8.4,8.4,0,0,1,2.35,8.47c1.34-1.12,3.83-.51,5.33.4a7,7,0,0,1,3,4.19C218.4,93.61,218.26,96.31,218.29,98.06Z"/><path class="cls-3" d="M309.58,109.41H255.72A22,22,0,0,1,261,94.68c3.4-4,8.81-6.3,14-5.41s9.65,5.28,10.09,10.48a7.3,7.3,0,0,1,6-.61,6.5,6.5,0,0,1,4,4,16.18,16.18,0,0,1,9.54.22,7.2,7.2,0,0,1,3.28,1.8C308.75,106,310.05,108.24,309.58,109.41Z"/><path class="cls-3" d="M352.18,72.15H271.35c-.61-3.45,1.72-7.81,4.71-9.65a13.32,13.32,0,0,1,10.17-1.19c-2.79-6-2.64-13.4,1-18.94a20,20,0,0,1,16.75-8.94,15.44,15.44,0,0,1,10.92,4.4,16.78,16.78,0,0,1,4.14,10,49.72,49.72,0,0,1-.51,11c2.43-1.79,5.93-1.75,8.7-.54a8.82,8.82,0,0,1,5.11,7,21.23,21.23,0,0,1,10.87-.43C346.78,65.66,351.23,68.56,352.18,72.15Z"/></g><path class="cls-4" d="M140.47,240.59c-4.48-3.56-6.33-9.45-7.49-15.05s-1.91-11.5-5-16.29c-4.23-6.51-12.3-10.22-15.19-17.42-4.32-10.71,5-23.47.38-34.07-2.47-5.7-8.27-9.06-12.85-13.26a39,39,0,0,1-12.37-25.34c-.56-7,.8-14.1-.1-21.08s-5-14.37-11.89-15.79c11.29-2.51,25.88,2.84,33.71,14.52,3.62,5.41,5.39,11.87,9,17.28,7.38,11,22.51,16.42,26.59,29.06,4.18,13-5.53,27.67-.65,40.42,1.77,4.63,5.33,8.45,6.9,13.15,2.43,7.26-.27,15.19-3.52,22.12S140.59,232.93,140.47,240.59Z"/><path class="cls-5" d="M140.07,234.52c-2.77-10,3.4-19.79,2.56-29.8a17.65,17.65,0,0,0-2.22-7.28,83.47,83.47,0,0,0-5.14-7.26,19.51,19.51,0,0,1-3.39-7.28,24.57,24.57,0,0,1-.38-7.16c.75-9.88,5.33-20.06,1.79-29.88-4.24-11.76-16.76-17.08-24.3-26.26-4.11-5-5.9-11.08-8-17.08C99.05,97,96.52,91.31,91.83,87.59a17.36,17.36,0,0,0-3.63-2.17c-.83-.37-1.37.93-.54,1.3,5.57,2.46,8.85,8,11,13.49,2.26,5.76,3.67,11.9,7,17.19,6.54,10.36,19.23,15.19,25,26.11,5.09,9.53.85,20-.38,29.93-.59,4.73-.48,9.67,1.66,14,2.53,5.17,7.44,8.95,8.82,14.7,1.16,4.8.12,9.8-.9,14.53s-2.28,9.8-1.81,14.8a21.18,21.18,0,0,0,.67,3.55C139,235.92,140.31,235.38,140.07,234.52Z"/><path class="cls-6" d="M263,208.18C273.2,203,276.66,189.7,275,178.41s-7.31-21.58-10.85-32.44-4.76-23.6,1.7-33a70.09,70.09,0,0,0-33.94,48.84c-1.69,10.39-.86,21.53,4.35,30.68S253.67,213,263,208.18Z"/><path class="cls-5" d="M241.66,190.29a17,17,0,0,0,9.7.45A68.45,68.45,0,0,1,247,179.33h-.06a29.26,29.26,0,0,1-12.08-3.71c-.53-.3-.15-1.17.38-.87a28.52,28.52,0,0,0,11.5,3.61,68.12,68.12,0,0,1-1.62-7.89,66.44,66.44,0,0,1-.62-7.18,17.16,17.16,0,0,1-9-4.71c-.43-.42.16-1.16.59-.73a16.36,16.36,0,0,0,8.42,4.47,66.77,66.77,0,0,1,1.1-13.16h0a21,21,0,0,1-5.25-5.29c-.35-.5.42-1,.76-.55a20.4,20.4,0,0,0,4.69,4.81,68.18,68.18,0,0,1,3.94-12.93c.12-.27.25-.54.36-.81a.51.51,0,0,1-.31-.19,8.35,8.35,0,0,1-1.54-3.15.48.48,0,0,1,.28-.6.47.47,0,0,1,.6.27,7.67,7.67,0,0,0,1.35,2.82A66.75,66.75,0,0,1,260,118.22c.38-.46,1.12.13.73.59a66.84,66.84,0,0,0-11.6,20.63,30.16,30.16,0,0,0,7.82-5.78c.42-.43,1.15.15.73.59a31.5,31.5,0,0,1-8.89,6.42l-.07,0a66.88,66.88,0,0,0-2.36,9.47c-.25,1.49-.45,3-.6,4.48a38.42,38.42,0,0,0,13.22-9c.41-.44,1.15.15.73.59a39.51,39.51,0,0,1-13.86,9.42.4.4,0,0,1-.18,0,64.66,64.66,0,0,0,.12,12.13.4.4,0,0,1,.25-.2,33.93,33.93,0,0,0,16.56-11.24.47.47,0,0,1,.74.59,34.91,34.91,0,0,1-17,11.54.46.46,0,0,1-.53-.2,67.26,67.26,0,0,0,3.76,15.91.45.45,0,0,1,.22-.23,42.7,42.7,0,0,0,16.13-13.65c.35-.49,1.08.1.73.59a43.57,43.57,0,0,1-16.53,13.94.38.38,0,0,1-.29,0c.17.43.33.87.5,1.3a67.19,67.19,0,0,0,4.9,9.69,67.66,67.66,0,0,0,11.82-10.73c.39-.46,1.13.13.73.59a68.72,68.72,0,0,1-12,10.94,66.11,66.11,0,0,0,5.55,7.56c.39.47-.38,1-.77.56a66.61,66.61,0,0,1-8.73-13.19s0,0,0,0a18,18,0,0,1-10.47-.46C240.7,191,241.09,190.09,241.66,190.29Z"/><path class="cls-7" d="M134.45,180.63a32.33,32.33,0,0,1,3.28-12.27A17.38,17.38,0,0,1,147,160c4-1.4,9.22-1.13,12.33,1.8,0-10,4.53-20.07,12.47-26.15s19.26-7.74,28.31-3.49,16,14.6,14.61,24.51A15.21,15.21,0,0,1,233,180.36C199.16,183.69,168.42,181.22,134.45,180.63Z"/><path class="cls-4" d="M188,144.63c0-3.15.07-6.3.1-9.45,0-.74,1.17-.77,1.16,0l-.36,33q0,4.71-.1,9.44a.58.58,0,0,1-1.16,0Z"/><path class="cls-4" d="M199.78,148c.84-2.75,1.66-5.52,2.42-8.29a.58.58,0,0,1,1.13.29c-2.66,9.74-6.12,19.26-8.38,29.11-.64,2.8-1.18,5.62-1.58,8.47-.11.74-1.23.44-1.13-.29C193.65,167.25,196.84,157.62,199.78,148Z"/><path class="cls-4" d="M197.23,176.84a167.12,167.12,0,0,1,11.83-23.49c.38-.63,1.4-.07,1,.58a167.11,167.11,0,0,0-11.83,23.49C198,178.11,197,177.53,197.23,176.84Z"/><path class="cls-4" d="M203.63,177.34A162.64,162.64,0,0,1,219.49,159c.53-.53,1.37.28.83.81a160.44,160.44,0,0,0-15.67,18.08C204.21,178.51,203.19,177.94,203.63,177.34Z"/><path class="cls-4" d="M211.11,176.85a194.47,194.47,0,0,1,17.21-13.18c.62-.42,1.22.58.6,1a194.42,194.42,0,0,0-17,13C211.39,178.15,210.55,177.34,211.11,176.85Z"/><path class="cls-4" d="M172.67,142.81,185.06,177c.26.71-.86,1-1.12.33q-6.18-17.09-12.38-34.18C171.3,142.43,172.42,142.1,172.67,142.81Z"/><path class="cls-4" d="M167.07,154.65Q174,165.81,180.86,177a.58.58,0,0,1-1,.61l-13.8-22.33C165.68,154.62,166.67,154,167.07,154.65Z"/><path class="cls-4" d="M158.19,163.57q8.34,7.16,17.25,13.61c.6.43,0,1.45-.57,1q-9-6.52-17.49-13.79C156.81,163.91,157.62,163.08,158.19,163.57Z"/><path class="cls-4" d="M146.23,166.83A211.19,211.19,0,0,0,167.29,177c.69.28.11,1.29-.57,1a212.26,212.26,0,0,1-21.06-10.14A.58.58,0,0,1,146.23,166.83Z"/><path class="cls-6" d="M403.52,195.53a31.9,31.9,0,0,0-3.23-12.22,17.3,17.3,0,0,0-9.18-8.39c-4-1.41-9.18-1.15-12.27,1.75,0-9.94-4.45-20-12.33-26s-19.14-7.76-28.16-3.56-16,14.48-14.6,24.34A15.13,15.13,0,0,0,305.52,195C339.14,198.39,369.73,196,403.52,195.53Z"/><path class="cls-5" d="M350.34,159.56c0-3.13,0-6.26-.08-9.4a.58.58,0,0,0-1.15,0q.13,16.41.26,32.82c0,3.13.05,6.27.07,9.4,0,.74,1.17.77,1.16,0Q350.47,176,350.34,159.56Z"/><path class="cls-5" d="M338.63,162.86c-.83-2.74-1.64-5.49-2.39-8.26a.58.58,0,0,0-1.12.29c2.62,9.7,6,19.18,8.25,29,.63,2.79,1.16,5.6,1.55,8.43.1.74,1.22.45,1.12-.28C344.67,182.05,341.53,172.46,338.63,162.86Z"/><path class="cls-5" d="M341.08,191.58a166.38,166.38,0,0,0-11.69-23.4c-.39-.64-1.4-.08-1,.56a167.09,167.09,0,0,1,11.7,23.41C340.35,192.83,341.36,192.26,341.08,191.58Z"/><path class="cls-5" d="M334.71,192.06A160,160,0,0,0,319,173.79c-.52-.53-1.36.27-.83.8a158.8,158.8,0,0,1,15.54,18C334.14,193.21,335.15,192.66,334.71,192.06Z"/><path class="cls-5" d="M327.27,191.55a193,193,0,0,0-17.08-13.17c-.61-.42-1.21.57-.6,1a190.55,190.55,0,0,1,16.85,13C327,192.83,327.83,192,327.27,191.55Z"/><path class="cls-5" d="M365.61,157.79l-12.42,34c-.26.7.85,1,1.11.33l12.42-34C367,157.42,365.87,157.1,365.61,157.79Z"/><path class="cls-5" d="M371.15,169.59q-6.88,11.08-13.79,22.17a.58.58,0,0,0,1,.6l13.79-22.17A.58.58,0,0,0,371.15,169.59Z"/><path class="cls-5" d="M380,178.49q-8.31,7.09-17.21,13.49c-.59.42,0,1.44.57,1q9-6.47,17.44-13.67C381.33,178.83,380.52,178,380,178.49Z"/><path class="cls-5" d="M391.84,181.77a207.92,207.92,0,0,1-21,10c-.68.28-.11,1.29.57,1a209,209,0,0,0,21-10A.58.58,0,0,0,391.84,181.77Z"/><path class="cls-4" d="M422.56,217c-1.5-8.8-11.34-14.45-12.6-23.29a10,10,0,0,1,1.15-6.56,6.91,6.91,0,0,1,5.54-3.43c3.3-.08,6,2.55,8,5.22s3.72,5.72,6.69,7.16c2.32-1,3.17-4,2.63-6.52s-2.08-4.59-3.46-6.72a54.51,54.51,0,0,1-5.67-11.67c-1.44-4.15-2.15-9.35,1-12.43,3.28-3.23,9.14-2,12.36,1.27s4.5,7.95,5.73,12.38c.48,1.74,1.45,3.84,3.25,3.78,2.08-.06,2.71-2.85,2.65-4.93-.13-5.38-.62-10.8.23-16.12s3.29-10.65,7.76-13.63,11.24-2.82,14.69,1.31c2.42,2.91,2.79,7.13,1.77,10.79s-3.23,6.84-5.55,9.84a116.34,116.34,0,0,1-9.88,11.17,10.68,10.68,0,0,0-2.36,2.92,3.06,3.06,0,0,0,3.83,4.45,10.46,10.46,0,0,0,3.39-2c3.52-2.71,7.93-5.4,12.13-4,3.73,1.27,5.79,5.69,5.17,9.58s-3.42,7.17-6.76,9.27-7.2,3.18-11,4.17-7.7,2-11.17,3.83a5.24,5.24,0,0,0-2.17,1.83,2.14,2.14,0,0,0,.26,2.64,2.88,2.88,0,0,0,2.52.27c3.51-.83,6.51-3.05,9.76-4.61s7.32-2.4,10.36-.46,4,6.4,2.83,9.89c-1.8,5.19-7.2,8.31-12.56,9.48s-10.93.84-16.36,1.56-11.12,2.78-14.15,7.35c-1.44,2.17-2.43,5-5.38,5.26-2.45.25-3.88-1.3-4.58-3.49C420.93,227.6,423.43,222.12,422.56,217Z"/><path class="cls-5" d="M466.61,209.62a59.91,59.91,0,0,1-32.92,6.88c2.88-5.63,5.81-11.23,8.72-16.85l2.55-5H445a53.65,53.65,0,0,0,29.25-9.9c.48-.34-.07-1-.54-.71a53,53,0,0,1-22.1,9.07,53.62,53.62,0,0,1-6.19.62c4.63-9.11,9.12-18.29,13.05-27.72,2.69-6.44,5.12-13,7.17-19.65.16-.55-.67-.89-.84-.33A251.65,251.65,0,0,1,451,180.55c-1.67,3.5-3.39,7-5.14,10.41a70.67,70.67,0,0,1-12.19-22.58,69.94,69.94,0,0,1-1.91-7.23c-.11-.57-1-.45-.89.12A71.49,71.49,0,0,0,440.9,185.7a68.88,68.88,0,0,0,4.41,6.06l.09.07c-3.69,7.26-7.47,14.47-11.2,21.71a61.32,61.32,0,0,1-14.12-17.24,59.32,59.32,0,0,1-2.8-5.79.45.45,0,0,0-.83.34A62.12,62.12,0,0,0,429.07,210a62.77,62.77,0,0,0,4.7,4.38c-3.11,6-6.17,12.12-9.07,18.27-.25.52.59.85.83.33,2.48-5.24,5.07-10.42,7.71-15.59a61.67,61.67,0,0,0,26.67-3.74,60.29,60.29,0,0,0,7-3.18C467.47,210.18,467.13,209.34,466.61,209.62Z"/><path class="cls-7" d="M456.53,260.8c.82-8.9-7.25-16.89-6.2-25.77a10,10,0,0,1,2.79-6.05,6.93,6.93,0,0,1,6.24-1.9c3.22.77,5.16,4,6.36,7.1s2.13,6.48,4.63,8.64c2.51-.4,4.1-3.09,4.22-5.63s-.84-5-1.62-7.4a54.35,54.35,0,0,1-2.5-12.74c-.32-4.39.33-9.6,4.15-11.78,4-2.28,9.35.39,11.63,4.4s2.31,8.85,2.36,13.45c0,1.81.42,4.09,2.18,4.5,2,.47,3.35-2.06,3.83-4.09,1.25-5.24,2.17-10.62,4.36-15.54s5.91-9.46,11-11.2,11.59.15,13.87,5c1.6,3.44.87,7.62-1.05,10.89s-4.88,5.79-7.9,8.1a116.09,116.09,0,0,1-12.43,8.27,10.59,10.59,0,0,0-3,2.22A3.07,3.07,0,0,0,502,236.6a10.52,10.52,0,0,0,3.8-1.08c4.1-1.71,9.06-3.18,12.75-.71,3.29,2.19,4.14,7,2.55,10.59s-5.15,6.06-8.92,7.24-7.79,1.23-11.73,1.21-7.95-.09-11.78.83a5.25,5.25,0,0,0-2.58,1.22,2.14,2.14,0,0,0-.42,2.62,2.88,2.88,0,0,0,2.36.91c3.61.1,7.08-1.29,10.64-2s7.68-.44,10.13,2.22,2.26,7.22.2,10.29c-3.07,4.56-9.1,6.19-14.59,5.95s-10.78-2-16.23-2.7-11.47-.16-15.57,3.49c-2,1.72-3.63,4.17-6.56,3.71-2.43-.39-3.42-2.26-3.53-4.55C452.25,270.63,456.06,266,456.53,260.8Z"/><path class="cls-4" d="M501.06,265a60.27,60.27,0,0,1-33.63-1.79c4.24-4.71,8.52-9.38,12.77-14.07,1.25-1.37,2.49-2.76,3.74-4.14l0,0a53.86,53.86,0,0,0,24.26-.07,55.62,55.62,0,0,0,6.59-2c.54-.21.2-1-.35-.84a53,53,0,0,1-23.7,3.11,55.45,55.45,0,0,1-6.15-1c6.82-7.62,13.52-15.36,19.75-23.47,4.25-5.54,8.27-11.25,12-17.17.3-.49-.42-1-.72-.54a253.52,253.52,0,0,1-22.24,29.82q-3.78,4.42-7.65,8.75a70.74,70.74,0,0,1-6-25,71.78,71.78,0,0,1,0-7.48c0-.58-.86-.69-.89-.11a71.73,71.73,0,0,0,3.45,26.22,69.7,69.7,0,0,0,2.72,7l.06.09c-5.42,6.09-10.94,12.09-16.4,18.14a61.11,61.11,0,0,1-10.46-26.63.45.45,0,0,0-.89.12,62.06,62.06,0,0,0,7.3,21.74,60.13,60.13,0,0,0,3.43,5.45c-4.57,5.05-9.09,10.14-13.47,15.34-.38.45.35,1,.72.54,3.74-4.43,7.58-8.78,11.46-13.1a61.76,61.76,0,0,0,26.76,3.23,60,60,0,0,0,7.64-1.28C501.74,265.72,501.62,264.83,501.06,265Z"/><path class="cls-7" d="M412,121.67c-2.41,2.58-3,6.35-3.16,9.88s-.1,7.2-1.55,10.42c-2,4.37-6.55,7.39-7.65,12.05-1.63,6.94,5.22,13.86,3.42,20.76-1,3.71-4.2,6.31-6.6,9.3a24.06,24.06,0,0,0-5.18,16.62c.31,4.34,1.8,8.54,1.91,12.88s-1.71,9.24-5.79,10.75c7.13.48,15.53-4.15,19.22-12,1.71-3.63,2.18-7.74,3.88-11.38C414,193.5,422.72,188.8,424,180.7c1.34-8.32-6-16.38-4.17-24.61.65-3,2.46-5.66,3-8.68.81-4.66-1.58-9.24-4.22-13.17S412.79,126.33,412,121.67Z"/><path class="cls-4" d="M412.33,125.41c-.76,6.33,3.93,11.76,4.35,18A11,11,0,0,1,416,148a51.22,51.22,0,0,1-2.47,4.91,12.22,12.22,0,0,0-1.38,4.76,15.56,15.56,0,0,0,.43,4.41c1.39,6,5.14,11.74,3.89,18.07-1.48,7.58-8.63,12-12.37,18.3-2,3.44-2.57,7.32-3.29,11.18-.67,3.55-1.68,7.26-4.2,10a9.71,9.71,0,0,1-2,1.66c-.47.31-.92-.44-.45-.74,3.17-2,4.65-5.73,5.44-9.26.84-3.73,1.13-7.61,2.67-11.15,3-6.94,10.32-11.07,12.85-18.28,2.22-6.3-1.35-12.29-3-18.24a15.25,15.25,0,0,1-.3-8.72c1.06-3.39,3.71-6.16,4-9.79.25-3-.85-6-1.92-8.79s-2.31-5.77-2.49-8.87a12.83,12.83,0,0,1,.08-2.23C411.55,124.65,412.39,124.86,412.33,125.41Z"/><path class="cls-7" d="M296.18,207.76c8-5.94,20.24-2.93,28.06-9.08a11.18,11.18,0,0,0,4.12-6.17,7.71,7.71,0,0,0-1.82-7c-2.6-2.61-6.81-2.57-10.43-1.91s-7.39,1.74-10.9.62c-1.07-2.61.56-5.68,2.9-7.27s5.21-2.1,8-2.76a60.89,60.89,0,0,0,13.55-5c4.35-2.23,8.92-5.88,8.76-10.77-.16-5.13-5.8-8.65-10.92-8.48s-9.75,2.94-14.15,5.57c-1.72,1-4.12,2-5.53.55-1.62-1.66,0-4.38,1.66-6,4.24-4.23,8.81-8.22,12.21-13.16s5.54-11.11,4.23-16.95S319,109,313,109.63c-4.19.48-7.73,3.6-9.72,7.33s-2.66,8-3.1,12.19a126.1,126.1,0,0,0-.62,16.6,12.4,12.4,0,0,1-.35,4.17,3.41,3.41,0,0,1-6.51.64,12,12,0,0,1-1.19-4.22c-.75-4.89-2.24-10.45-6.73-12.53-4-1.84-9,.13-11.53,3.75s-2.76,8.4-1.68,12.66,3.35,8.1,5.66,11.84,4.7,7.48,6.06,11.66a6,6,0,0,1,.34,3.15,2.38,2.38,0,0,1-2.25,1.92,3.2,3.2,0,0,1-2.23-1.7c-2.19-3.38-2.89-7.48-4.32-11.24s-4.05-7.55-8-8.33-8.16,2-9.88,5.8c-2.54,5.55-.59,12.23,2.83,17.29s8.16,9.08,12,13.84,6.82,10.79,5.74,16.8c-.51,2.85-1.86,5.87.29,8.38,1.78,2.08,4.13,1.93,6.37.71C289.34,217.54,291.55,211.21,296.18,207.76Z"/><path class="cls-4" d="M266.36,167.92a67.89,67.89,0,0,0,15.3,25.4,66.82,66.82,0,0,0,5.94,5.47c2-6.75,3.95-13.52,5.93-20.28.58-2,1.17-4,1.76-6l0,0a59.85,59.85,0,0,1-14-23.06,61.26,61.26,0,0,1-1.93-7.42c-.12-.63.87-.79,1-.15a58.32,58.32,0,0,0,15.34,29.56c3.27-10.9,6.72-21.75,10.8-32.38,2.79-7.25,5.86-14.38,9.34-21.33.29-.57,1.22-.21.93.37a280.7,280.7,0,0,0-15.37,38.43c-1.34,4.1-2.62,8.21-3.87,12.34a78.79,78.79,0,0,0,27.2-8.82,77.87,77.87,0,0,0,7.09-4.36c.53-.37,1.16.42.63.78a79.69,79.69,0,0,1-26.89,12,76.11,76.11,0,0,1-8.22,1.49.25.25,0,0,1-.12,0c-2.62,8.68-5.12,17.41-7.68,26.11a68.53,68.53,0,0,0,24.64-3,69.39,69.39,0,0,0,6.71-2.52.5.5,0,0,1,.4.92,69.51,69.51,0,0,1-24.87,5.7,71.46,71.46,0,0,1-7.17-.08c-2.14,7.26-4.34,14.5-6.73,21.69-.2.61-1.14.24-.93-.37,2-6.13,3.93-12.3,5.78-18.49a68.65,68.65,0,0,1-18.61-23.52,65.75,65.75,0,0,1-3.23-8C265.25,167.72,266.16,167.31,266.36,167.92Z"/><path class="cls-6" d="M96.26,184.92c-13.05,2-25.26-8.1-31.29-19.84s-7.75-25.16-11.77-37.73S41.71,102,29.28,97.56A80.93,80.93,0,0,1,94.1,120.39c8.61,8.59,15.37,19.58,16.66,31.68S108.29,183.09,96.26,184.92Z"/><path class="cls-5" d="M104.2,153.7a19.54,19.54,0,0,1-8.78,7,79.17,79.17,0,0,0-3.63-13.63s0,0,0,0a33.84,33.84,0,0,0,8.82-11.65c.29-.64-.65-1.19-.94-.55A33.14,33.14,0,0,1,91.38,146a77.75,77.75,0,0,0-3.81-8.49,75.73,75.73,0,0,0-4.28-7.14,19.86,19.86,0,0,0,5.28-10.52c.12-.69-.93-1-1-.29a18.9,18.9,0,0,1-4.87,9.89,76.69,76.69,0,0,0-9.92-11.59h0a24.38,24.38,0,0,0,1.34-8.51.55.55,0,0,0-1.09,0A23.21,23.21,0,0,1,71.85,117a78.87,78.87,0,0,0-12.43-9.44c-.29-.18-.59-.35-.89-.52a.61.61,0,0,0,.17-.39,9.71,9.71,0,0,0-.69-4,.57.57,0,0,0-.67-.38.55.55,0,0,0-.38.67,9,9,0,0,1,.65,3.54,77.83,77.83,0,0,0-19.29-7.91.54.54,0,0,0-.29,1,77.1,77.1,0,0,1,24.81,11.48A35,35,0,0,1,51.61,111c-.69-.12-1,.93-.29,1.05A36.43,36.43,0,0,0,64,112s.05,0,.08,0a76.8,76.8,0,0,1,8.61,7.29c1.25,1.22,2.45,2.49,3.6,3.79a44.5,44.5,0,0,1-18.49.48c-.68-.13-1,.92-.29,1a45.64,45.64,0,0,0,19.36-.53.67.67,0,0,0,.19-.09,75.32,75.32,0,0,1,8.09,11.44.46.46,0,0,0-.37,0,39.2,39.2,0,0,1-23.12.66.54.54,0,0,0-.29,1.05,40.24,40.24,0,0,0,23.7-.66.52.52,0,0,0,.37-.54,77.06,77.06,0,0,1,7.23,17.45.54.54,0,0,0-.36-.07A49.43,49.43,0,0,1,68,151.39c-.66-.23-.95.82-.29,1.05a50.56,50.56,0,0,0,24.92,1.88.47.47,0,0,0,.29-.17c.13.52.28,1,.4,1.56a76.45,76.45,0,0,1,2,12.39A77.42,77.42,0,0,1,76.92,166c-.68-.16-1,.89-.29,1.05a79.35,79.35,0,0,0,18.68,2.11A76.9,76.9,0,0,1,95.23,180c-.06.7,1,.7,1.08,0a77.51,77.51,0,0,0-.72-18.26h0a20.81,20.81,0,0,0,9.51-7.52C105.54,153.68,104.6,153.13,104.2,153.7Z"/><path class="cls-7" d="M51.62,172c-6.29-.9-12.26,4.53-18.52,3.45a7.08,7.08,0,0,1-4.19-2.21,4.88,4.88,0,0,1-1.11-4.49c.66-2.26,3-3.52,5.27-4.25s4.68-1.27,6.3-3c-.19-1.79-2-3-3.84-3.2a15,15,0,0,0-5.31.87,38.62,38.62,0,0,1-9.14,1.3c-3.12.07-6.8-.58-8.2-3.38s.63-6.62,3.55-8.09,6.37-1.31,9.64-1.18c1.28.06,2.92-.14,3.27-1.37.41-1.43-1.34-2.46-2.76-2.88-3.67-1.08-7.45-1.93-10.86-3.67s-6.5-4.54-7.54-8.23.54-8.22,4.09-9.65A8.5,8.5,0,0,1,20,123.17a20.9,20.9,0,0,1,5.45,5.9,82.36,82.36,0,0,1,5.41,9.13,7.62,7.62,0,0,0,1.46,2.23,2.47,2.47,0,0,0,2.46.65,2.43,2.43,0,0,0,1.39-2.27,7.48,7.48,0,0,0-.62-2.73c-1.07-3-1.92-6.55,0-9.08,1.67-2.25,5.11-2.68,7.61-1.41a10,10,0,0,1,4.8,6.6,27.29,27.29,0,0,1,.43,8.37,35.13,35.13,0,0,0,.15,8.39,3.75,3.75,0,0,0,.77,1.87,1.51,1.51,0,0,0,1.84.4,2,2,0,0,0,.74-1.64c.2-2.56-.65-5.08-1-7.62s0-5.48,2-7.12,5.21-1.33,7.32.25c3.11,2.34,4,6.69,3.68,10.57s-1.82,7.58-2.52,11.42-.54,8.13,1.89,11.18c1.16,1.45,2.83,2.73,2.39,4.79-.36,1.71-1.73,2.35-3.36,2.34C58.44,175.38,55.27,172.5,51.62,172Z"/><path class="cls-4" d="M56.23,140.53a43.19,43.19,0,0,1-.86,18.92,42.48,42.48,0,0,1-1.66,4.88c-3.19-3.18-6.34-6.39-9.51-9.58l-2.81-2.81,0,0a38.13,38.13,0,0,0,.85-17.22,38.29,38.29,0,0,0-1.17-4.75c-.13-.4-.73-.18-.61.21a37.68,37.68,0,0,1,1.33,16.94,37.51,37.51,0,0,1-.94,4.33c-5.15-5.13-10.39-10.16-15.92-14.89-3.77-3.22-7.67-6.29-11.74-9.13-.33-.24-.75.25-.41.49a179.53,179.53,0,0,1,20.34,16.89c2,1.89,4,3.82,5.93,5.75a50.16,50.16,0,0,1-18,3.33,49.43,49.43,0,0,1-5.31-.28c-.41-.05-.52.58-.11.63a51,51,0,0,0,18.73-1.48,52.73,52.73,0,0,0,5.07-1.67s0,0,.06,0c4.12,4.07,8.18,8.21,12.26,12.32a43.38,43.38,0,0,1-19.28,6.43.32.32,0,0,0,0,.64A44.3,44.3,0,0,0,48.28,166a43.39,43.39,0,0,0,4-2.23c3.41,3.43,6.86,6.83,10.39,10.13.3.28.71-.21.41-.49-3-2.82-6-5.71-8.88-8.62a43.9,43.9,0,0,0,3.29-18.88,43.66,43.66,0,0,0-.62-5.46C56.79,140.07,56.16,140.12,56.23,140.53Z"/><path class="cls-8" d="M447.94,196.57H255.14a5.34,5.34,0,0,1-1.55,3.67l-16.67,16.67a6.35,6.35,0,0,1-4.5,1.89H224a7,7,0,0,1-4.87-2.05l-7.62-7.62a.15.15,0,0,0-.21,0l-6.42,6.42a8.74,8.74,0,0,1-5.61,2.65,8.24,8.24,0,0,1-6.32-2.41l-6.66-6.66a.14.14,0,0,0-.21,0l-7.64,7.64a6.6,6.6,0,0,1-4.77,2H127.55L127,220a54.22,54.22,0,0,1-30,27.36v29.27a9.59,9.59,0,0,0,9.59,9.59H447.94a9.59,9.59,0,0,0,9.59-9.59V206.16A9.59,9.59,0,0,0,447.94,196.57Z"/><path class="cls-3" d="M248.4,197.54l-15.92-15.93a.21.21,0,0,0-.11,0H125.48a3.13,3.13,0,0,1-2.91-2,47.74,47.74,0,0,0-44.44-30h0a47.91,47.91,0,0,0-47.92,47.92V198a47.95,47.95,0,0,0,92.38,17.72,3.13,3.13,0,0,1,2.91-2h48.29a.21.21,0,0,0,.1,0l9-9a4.93,4.93,0,0,1,2.3-1.36,4.64,4.64,0,0,1,4.34,1.23l9.16,9.16a.14.14,0,0,0,.21,0l9.07-9.06a4.83,4.83,0,0,1,2.3-1.35,4.6,4.6,0,0,1,4.33,1.23l9.1,9.09a.16.16,0,0,0,.11.05h8.62a.16.16,0,0,0,.11-.05l15.92-15.92A.14.14,0,0,0,248.4,197.54Z"/><path class="cls-4" d="M78.12,251.87a54.22,54.22,0,0,1-54.2-54.23,54.49,54.49,0,0,1,30.73-48.87,53.67,53.67,0,0,1,23.44-5.37A54.53,54.53,0,0,1,127,174.15l.55,1.13H232.38a6.42,6.42,0,0,1,4.53,1.88l16.68,16.68a5.38,5.38,0,0,1,0,7.58L236.92,218.1a6.38,6.38,0,0,1-4.5,1.88H224a7,7,0,0,1-4.87-2l-7.62-7.62a.15.15,0,0,0-.21,0l-6.42,6.42a8.74,8.74,0,0,1-5.61,2.65A8.24,8.24,0,0,1,193,217l-6.66-6.66a.14.14,0,0,0-.21,0L178.47,218A6.61,6.61,0,0,1,173.7,220H127.55l-.55,1.14a54.2,54.2,0,0,1-48.86,30.73ZM30.19,198a47.95,47.95,0,0,0,92.38,17.72,3.13,3.13,0,0,1,2.91-2h48.29a.21.21,0,0,0,.1,0l9-9a4.93,4.93,0,0,1,2.3-1.36,4.64,4.64,0,0,1,4.34,1.23l9.16,9.16a.14.14,0,0,0,.21,0l9.07-9.06a4.83,4.83,0,0,1,2.3-1.35,4.6,4.6,0,0,1,4.33,1.23l9.1,9.09a.16.16,0,0,0,.11.05h8.62a.16.16,0,0,0,.11-.05l15.92-15.92a.14.14,0,0,0,0-.21l-15.92-15.93a.21.21,0,0,0-.11,0H125.48a3.13,3.13,0,0,1-2.91-2,47.74,47.74,0,0,0-44.44-30h0a47.91,47.91,0,0,0-47.92,47.92V198Zm32.42,16.51a16.83,16.83,0,1,1,11.9-4.93A16.73,16.73,0,0,1,62.61,214.48ZM55.3,190.21l-.1.09a12,12,0,1,0,.25-.22Z"/><path class="cls-9" d="M250.88,197.75H447.94a9.59,9.59,0,0,1,9.59,9.59v70.44a9.58,9.58,0,0,1-9.59,9.58H106.55A9.58,9.58,0,0,1,97,277.78V245.63"/><path class="cls-3" d="M134.35,254l3.11-9.32-8.11-5.86.43-1.38,10.18-.35,3.45-9.05h1.72l3.36,9.05,10.27.35.43,1.38L151,244.65l3.1,9.32-1.47.77-8.53-5.52-8.2,5.52Z"/><path class="cls-3" d="M169.28,254l3.11-9.32-8.11-5.86.43-1.38,10.18-.35,3.45-9.05h1.72l3.36,9.05,10.27.35.43,1.38-8.19,5.86L189,254l-1.47.77L179,249.22l-8.2,5.52Z"/><path class="cls-3" d="M204.21,254l3.11-9.32-8.11-5.86.43-1.38,10.18-.35,3.45-9.05H215l3.36,9.05,10.27.35.43,1.38-8.19,5.86L224,254l-1.47.77L214,249.22l-8.2,5.52Z"/><path class="cls-3" d="M239.14,254l3.1-9.32-8.1-5.86.43-1.38,10.18-.35L248.2,228h1.72l3.36,9.05,10.27.35.43,1.38-8.2,5.86,3.11,9.32-1.47.77-8.53-5.52-8.2,5.52Z"/><path class="cls-3" d="M274.07,254l3.1-9.32-8.1-5.86.43-1.38,10.18-.35,3.45-9.05h1.72l3.36,9.05,10.27.35.43,1.38-8.2,5.86,3.11,9.32-1.47.77-8.53-5.52-8.2,5.52Z"/><path class="cls-3" d="M309,254l3.1-9.32-8.1-5.86.43-1.38,10.18-.35,3.45-9.05h1.72l3.36,9.05,10.27.35.43,1.38-8.2,5.86,3.11,9.32-1.47.77-8.54-5.52-8.19,5.52Z"/><path class="cls-3" d="M343.93,254l3.1-9.32-8.1-5.86.43-1.38,10.17-.35L353,228h1.73l3.36,9.05,10.27.35.43,1.38-8.2,5.86,3.11,9.32-1.47.77-8.54-5.52-8.19,5.52Z"/></g></svg>