<?xml version="1.0" encoding="UTF-8"?>
<svg width="512px" height="512px" viewBox="0 0 512 512" version="1.1" xmlns="http://www.w3.org/2000/svg" xmlns:xlink="http://www.w3.org/1999/xlink">
    <!-- Generator: Sketch 52.6 (67491) - http://www.bohemiancoding.com/sketch -->
    <title>budget_512px</title>
    <desc>Created with Sketch.</desc>
    <g id="Page-1" stroke="none" stroke-width="1" fill="none" fillRule="evenodd">
        <g id="budget">
            <path d="M403.835,94.727 L403.835,396.854 C403.835,397.457 403.825,398.06 403.795,398.664 C402.85,419.355 385.769,435.853 364.826,435.853 L145.532,435.853 C123.987,435.853 106.523,418.39 106.523,396.854 L106.523,47.052 C106.523,28.533 119.422,13.03 136.725,9.039 C139.56,8.386 142.506,8.044 145.532,8.044 L319.724,8.044 C325.646,8.044 331.427,9.391 336.665,11.925 C347.203,16.997 350.171,23.406 369.109,42.77 C390.896,66.427 396.097,68.852 400.537,79.094 C402.699,83.979 403.835,89.288 403.835,94.727 Z" id="Path" fill="#FFC477"></path>
            <path d="M403.835,94.727 L403.835,396.854 C403.835,397.457 403.825,398.06 403.795,398.664 C400.96,399.318 398.014,399.659 394.988,399.659 L175.694,399.659 C154.149,399.659 136.685,382.196 136.685,360.66 L136.685,10.858 C136.685,10.245 136.695,9.641 136.725,9.038 C139.56,8.385 142.506,8.043 145.532,8.043 L319.724,8.043 C325.646,8.043 331.427,9.39 336.665,11.924 C340.968,13.995 344.899,16.87 348.227,20.43 L369.109,42.77 L393.017,67.784 C396.204,71.112 398.738,74.942 400.537,79.095 C402.699,83.979 403.835,89.288 403.835,94.727 Z" id="Path" fill="#FFDAAA"></path>
            <path d="M503.91,230.021 L503.91,449.335 C503.91,461.53 499.949,472.811 493.233,481.939 C483.209,495.592 467.033,504.46 448.785,504.46 L305.539,504.46 C275.096,504.46 250.414,479.778 250.414,449.335 L250.414,230.021 C250.414,207.269 264.208,187.735 283.883,179.32 C290.529,176.475 297.848,174.896 305.539,174.896 L448.786,174.896 C479.238,174.896 503.91,199.578 503.91,230.021 Z" id="Path" fill="#4CBA68"></path>
            <path d="M503.91,230.021 L503.91,449.335 C503.91,461.53 499.949,472.811 493.233,481.939 C486.587,484.784 479.268,486.363 471.577,486.363 L328.331,486.363 C297.888,486.363 273.206,461.681 273.206,431.238 L273.206,211.924 C273.206,199.729 277.167,188.448 283.883,179.32 C290.529,176.475 297.848,174.896 305.539,174.896 L448.786,174.896 C479.238,174.896 503.91,199.578 503.91,230.021 Z" id="Path" fill="#7CCC92"></path>
            <path d="M398.285,374.213 L398.285,399.971 C398.285,404.525 394.595,408.215 390.051,408.215 L364.283,408.215 C359.729,408.215 356.039,404.525 356.039,399.971 L356.039,374.213 C356.039,369.659 359.729,365.969 364.283,365.969 L390.051,365.969 C394.595,365.969 398.285,369.658 398.285,374.213 Z" id="Path" fill="#2C733F"></path>
            <path d="M466.028,224.853 L466.028,252.451 C466.028,262.264 458.075,270.226 448.253,270.226 L306.072,270.226 C296.259,270.226 288.297,262.263 288.297,252.451 L288.297,224.853 C288.297,215.04 296.26,207.078 306.072,207.078 L448.253,207.078 C458.075,207.078 466.028,215.041 466.028,224.853 Z" id="Path" fill="#1E81CE"></path>
            <path d="M466.028,224.853 L466.028,252.451 C466.028,262.264 458.075,270.226 448.253,270.226 L336.233,270.226 C326.42,270.226 318.458,262.263 318.458,252.451 L318.458,224.853 C318.458,215.04 326.421,207.078 336.233,207.078 L448.252,207.078 C458.075,207.078 466.028,215.041 466.028,224.853 Z" id="Path" fill="#3D9AE2"></path>
            <g id="Group" transform="translate(288.000000, 298.000000)" fill="#2C733F">
                <path d="M42.553,76.213 L42.553,101.971 C42.553,106.525 38.863,110.215 34.309,110.215 L8.541,110.215 C3.997,110.215 0.297,106.525 0.297,101.971 L0.297,76.213 C0.297,71.659 3.997,67.969 8.541,67.969 L34.309,67.969 C38.863,67.969 42.553,71.658 42.553,76.213 Z" id="Path"></path>
                <path d="M110.285,8.852 L110.285,34.61 C110.285,39.164 106.595,42.854 102.051,42.854 L76.283,42.854 C71.729,42.854 68.039,39.164 68.039,34.61 L68.039,8.852 C68.039,4.298 71.729,0.608 76.283,0.608 L102.051,0.608 C106.595,0.608 110.285,4.298 110.285,8.852 Z" id="Path"></path>
            </g>
            <path d="M466.842,306.852 L466.842,332.61 C466.842,337.164 463.152,340.854 458.598,340.854 L432.84,340.854 C428.286,340.854 424.596,337.164 424.596,332.61 L424.596,306.852 C424.596,302.298 428.286,298.608 432.84,298.608 L458.598,298.608 C463.152,298.608 466.842,302.298 466.842,306.852 Z" id="Path" fill="#EE8700"></path>
            <g id="Group" transform="translate(288.000000, 298.000000)" fill="#2C733F">
                <path d="M42.553,8.852 L42.553,34.61 C42.553,39.164 38.863,42.854 34.309,42.854 L8.541,42.854 C3.997,42.854 0.297,39.164 0.297,34.61 L0.297,8.852 C0.297,4.298 3.997,0.608 8.541,0.608 L34.309,0.608 C38.863,0.608 42.553,4.298 42.553,8.852 Z" id="Path"></path>
                <path d="M110.285,140.265 L110.285,166.033 C110.285,170.587 106.595,174.277 102.051,174.277 L76.283,174.277 C71.729,174.277 68.039,170.587 68.039,166.033 L68.039,140.265 C68.039,135.721 71.729,132.031 76.283,132.031 L102.051,132.031 C106.595,132.031 110.285,135.721 110.285,140.265 Z" id="Path"></path>
                <path d="M42.553,140.265 L42.553,166.033 C42.553,170.587 38.863,174.277 34.309,174.277 L8.541,174.277 C3.997,174.277 0.297,170.587 0.297,166.033 L0.297,140.265 C0.297,135.721 3.997,132.031 8.541,132.031 L34.309,132.031 C38.863,132.031 42.553,135.721 42.553,140.265 Z" id="Path"></path>
            </g>
            <path d="M466.842,378.214 L466.842,458.212 C466.842,465.984 460.548,472.277 452.787,472.277 L438.651,472.277 C430.889,472.277 424.596,465.983 424.596,458.212 L424.596,378.214 C424.596,371.448 430.085,365.968 436.842,365.968 L454.597,365.968 C461.363,365.969 466.842,371.448 466.842,378.214 Z" id="Path" fill="#EE8700"></path>
            <g id="Group" transform="translate(288.000000, 298.000000)" fill="#317F46">
                <path d="M110.285,76.213 L110.285,83.874 C110.285,88.428 106.595,92.118 102.051,92.118 L76.283,92.118 C71.729,92.118 68.039,88.428 68.039,83.874 L68.039,76.213 C68.039,71.659 71.729,67.969 76.283,67.969 L102.051,67.969 C106.595,67.969 110.285,71.658 110.285,76.213 Z" id="Path"></path>
                <path d="M42.553,76.213 L42.553,83.874 C42.553,88.428 38.863,92.118 34.309,92.118 L8.541,92.118 C3.997,92.118 0.297,88.428 0.297,83.874 L0.297,76.213 C0.297,71.659 3.997,67.969 8.541,67.969 L34.309,67.969 C38.863,67.969 42.553,71.658 42.553,76.213 Z" id="Path"></path>
                <path d="M110.285,8.852 L110.285,16.513 C110.285,21.067 106.595,24.757 102.051,24.757 L76.283,24.757 C71.729,24.757 68.039,21.067 68.039,16.513 L68.039,8.852 C68.039,4.298 71.729,0.608 76.283,0.608 L102.051,0.608 C106.595,0.608 110.285,4.298 110.285,8.852 Z" id="Path"></path>
            </g>
            <path d="M466.842,306.852 L466.842,314.513 C466.842,319.067 463.152,322.757 458.598,322.757 L432.84,322.757 C428.286,322.757 424.596,319.067 424.596,314.513 L424.596,306.852 C424.596,302.298 428.286,298.608 432.84,298.608 L458.598,298.608 C463.152,298.608 466.842,302.298 466.842,306.852 Z" id="Path" fill="#FF9811"></path>
            <g id="Group" transform="translate(288.000000, 298.000000)" fill="#317F46">
                <path d="M42.553,8.852 L42.553,16.513 C42.553,21.067 38.863,24.757 34.309,24.757 L8.541,24.757 C3.997,24.757 0.297,21.067 0.297,16.513 L0.297,8.852 C0.297,4.298 3.997,0.608 8.541,0.608 L34.309,0.608 C38.863,0.608 42.553,4.298 42.553,8.852 Z" id="Path"></path>
                <path d="M110.285,140.265 L110.285,147.936 C110.285,152.49 106.595,156.18 102.051,156.18 L76.283,156.18 C71.729,156.18 68.039,152.49 68.039,147.936 L68.039,140.265 C68.039,135.721 71.729,132.031 76.283,132.031 L102.051,132.031 C106.595,132.031 110.285,135.721 110.285,140.265 Z" id="Path"></path>
                <path d="M42.553,140.265 L42.553,147.936 C42.553,152.49 38.863,156.18 34.309,156.18 L8.541,156.18 C3.997,156.18 0.297,152.49 0.297,147.936 L0.297,140.265 C0.297,135.721 3.997,132.031 8.541,132.031 L34.309,132.031 C38.863,132.031 42.553,135.721 42.553,140.265 Z" id="Path"></path>
            </g>
            <path d="M466.842,378.214 L466.842,440.115 C466.842,447.887 460.548,454.18 452.787,454.18 L438.651,454.18 C430.889,454.18 424.596,447.886 424.596,440.115 L424.596,378.214 C424.596,371.448 430.085,365.968 436.842,365.968 L454.597,365.968 C461.363,365.969 466.842,371.448 466.842,378.214 Z" id="Path" fill="#FF9811"></path>
            <path d="M400.538,79.092 L351.657,79.092 C343.375,79.092 336.661,72.378 336.661,64.096 L336.661,11.924 C340.966,13.994 344.897,16.868 348.223,20.424 L369.112,42.766 L393.017,67.784 C396.2,71.11 398.733,74.941 400.538,79.092 Z" id="Path" fill="#FFB655"></path>
            <path d="M224.686,480.753 C224.686,486.011 222.534,490.777 219.076,494.245 C215.607,497.704 210.842,499.855 205.584,499.855 L88.558,499.855 C78.052,499.855 69.456,491.259 69.456,480.753 C69.456,475.495 71.608,470.729 75.066,467.261 C78.535,463.803 83.3,461.651 88.558,461.651 L205.584,461.651 C216.09,461.651 224.686,470.247 224.686,480.753 Z" id="Path" fill="#AA6100"></path>
            <path d="M224.686,442.548 C224.686,447.806 222.534,452.572 219.076,456.04 C215.607,459.498 210.842,461.65 205.584,461.65 L88.558,461.65 C78.052,461.65 69.456,453.054 69.456,442.548 C69.456,437.29 71.608,432.524 75.066,429.056 C78.535,425.597 83.3,423.446 88.558,423.446 L205.584,423.446 C216.09,423.446 224.686,432.042 224.686,442.548 Z" id="Path" fill="#CC7400"></path>
            <path d="M224.686,404.344 C224.686,409.602 222.534,414.368 219.076,417.836 C215.607,421.295 210.842,423.446 205.584,423.446 L88.558,423.446 C78.052,423.446 69.456,414.85 69.456,404.344 C69.456,399.086 71.608,394.32 75.066,390.852 C78.535,387.394 83.3,385.242 88.558,385.242 L205.584,385.242 C216.09,385.242 224.686,393.838 224.686,404.344 Z" id="Path" fill="#EE8700"></path>
            <path d="M224.686,366.139 C224.686,371.397 222.534,376.163 219.076,379.631 C215.607,383.089 210.842,385.241 205.584,385.241 L88.558,385.241 C78.052,385.241 69.456,376.645 69.456,366.139 C69.456,362.399 70.552,358.9 72.432,355.944 C73.186,354.748 74.071,353.642 75.066,352.646 C78.535,349.187 83.3,347.036 88.558,347.036 L205.584,347.036 C216.09,347.037 224.686,355.633 224.686,366.139 Z" id="Path" fill="#FF9811"></path>
            <path d="M205.58,347.038 L88.558,347.038 C78.052,347.038 69.456,338.442 69.456,327.936 C69.456,317.43 78.052,308.834 88.558,308.834 L205.58,308.834 C216.086,308.834 224.682,317.43 224.682,327.936 C224.682,338.442 216.086,347.038 205.58,347.038 Z" id="Path" fill="#FFA733"></path>
            <path d="M157.482,437.195 C156.265,408.682 136.047,385.468 109.556,379.255 C104.166,377.992 98.517,377.43 92.708,377.675 L92.708,377.673 L68.353,377.673 C13.134,380.067 -12.604,448.844 29.681,486.37 C41.331,496.727 56.873,502.753 73.676,502.032 L92.706,502.032 L92.706,502.011 C94.443,502.081 96.194,502.098 97.962,502.023 C101.933,501.852 105.794,501.309 109.524,500.445 C136.529,494.141 156.505,470.364 157.491,442.103 L157.491,442.033 C157.553,440.432 157.553,438.823 157.482,437.195 Z" id="Path" fill="#CC7400"></path>
            <path d="M157.492,442.031 L157.492,442.101 C156.507,470.362 136.53,494.14 109.525,500.443 C83.053,494.22 62.835,471.016 61.619,442.513 C61.609,442.372 61.599,442.242 61.599,442.101 L61.599,442.031 C60.543,411.87 81.154,385.891 109.556,379.255 C136.048,385.468 156.266,408.682 157.482,437.195 C157.553,438.823 157.553,440.432 157.492,442.031 Z" id="Path" fill="#EE8700"></path>
            <path d="M448.785,167.356 L411.877,167.356 L411.877,94.727 C411.877,82.29 406.931,70.698 398.837,62.223 L374.99,37.269 C354.752,16.417 352.198,10.526 340.144,4.675 C334.544,1.88 327.165,0 319.725,0 L145.533,0 C119.584,0 98.481,21.113 98.481,47.052 L98.481,300.79 L88.558,300.79 C73.588,300.79 61.413,312.965 61.413,327.935 C61.413,335.385 64.429,342.131 69.295,347.037 C64.429,351.943 61.413,358.689 61.413,366.139 C61.413,368.934 61.805,370.593 61.946,371.508 C3.04,377.5 -20.426,450.41 22.685,489.982 C35.705,501.936 52.987,508.712 71.727,507.948 C77.92,507.948 205.422,507.898 205.583,507.898 C220.543,507.898 232.728,495.723 232.728,480.753 C232.728,473.303 229.712,466.557 224.846,461.651 C229.42,457.036 232.356,450.813 232.688,443.896 L242.873,443.896 L242.873,449.335 C242.873,483.89 270.983,512 305.538,512 L448.785,512 C483.34,512 511.45,483.89 511.45,449.335 L511.45,230.021 C511.451,195.466 483.34,167.356 448.785,167.356 Z M344.708,28.442 C376.297,61.831 383.415,69.361 384.752,70.779 C384.752,70.779 384.762,70.779 384.772,70.799 C384.782,70.799 384.782,70.799 384.782,70.799 C384.792,70.819 384.812,70.839 384.822,70.849 L384.832,70.859 C384.852,70.889 384.872,70.909 384.892,70.919 C384.902,70.929 384.912,70.939 384.922,70.959 C384.932,70.969 384.942,70.969 384.942,70.979 C384.952,70.989 384.962,70.989 384.972,71.009 C384.992,71.019 385.002,71.039 385.012,71.049 L344.706,71.049 L344.708,28.442 Z M88.558,316.876 L205.584,316.876 C211.677,316.876 216.643,321.843 216.643,327.935 C216.643,334.038 211.676,338.994 205.584,338.994 L88.558,338.994 C82.465,338.994 77.499,334.037 77.499,327.935 C77.498,321.842 82.465,316.876 88.558,316.876 Z M88.558,355.08 L205.584,355.08 C211.677,355.08 216.643,360.047 216.643,366.139 C216.643,372.242 211.676,377.198 205.584,377.198 L124.751,377.198 C121.463,375.69 118.055,374.463 114.566,373.518 C109.358,372.1 103.969,371.296 98.48,371.155 C96.902,371.115 95.323,371.125 93.745,371.195 L78.735,371.195 C77.941,369.677 77.498,367.958 77.498,366.138 C77.498,360.047 82.465,355.08 88.558,355.08 Z M216.643,404.344 C216.643,410.447 211.676,415.403 205.584,415.403 L160.573,415.403 C157.517,407.269 152.912,399.779 146.92,393.285 L205.584,393.285 C211.676,393.285 216.643,398.251 216.643,404.344 Z M49.428,389.907 C44.532,394.552 40.178,400.071 36.76,406.154 L27.39,406.154 C33.513,398.563 41.124,393.164 49.428,389.907 Z M18.834,421.234 L30.547,421.234 C30.286,422.36 28.958,426.693 28.355,433.289 L15.979,433.289 C16.462,429.147 17.417,425.105 18.834,421.234 Z M20.131,461.098 C18.351,457.056 17.075,452.784 16.351,448.37 L28.637,448.37 C30.839,460.857 30.959,458.705 31.512,461.098 L20.131,461.098 Z M30.165,476.178 C35.101,476.168 37.967,476.198 38.64,476.158 C41.646,480.903 45.265,485.297 49.458,489.248 C42.169,486.383 35.685,482.01 30.165,476.178 Z M98.792,492.878 C69.365,494.145 44.451,471.353 43.205,441.855 C41.184,394.894 97.274,367.849 132.593,400.272 C167.41,432.233 146.216,490.927 98.792,492.878 Z M205.584,491.812 L140.667,491.812 C147.855,485.729 153.757,478.199 157.949,469.694 L205.584,469.694 C211.677,469.694 216.643,474.661 216.643,480.753 C216.643,486.855 211.676,491.812 205.584,491.812 Z M216.553,443.896 C215.889,449.365 211.224,453.608 205.584,453.608 L163.499,453.608 C164.957,446.631 165.369,439.11 164.474,431.49 L205.584,431.49 C212.36,431.489 217.417,437.552 216.553,443.896 Z M242.873,427.809 L228.355,427.809 C227.34,426.231 226.163,424.773 224.846,423.446 C235.352,412.849 235.362,395.838 224.846,385.242 C229.712,380.336 232.728,373.59 232.728,366.14 C232.728,358.69 229.712,351.944 224.846,347.038 C241.756,329.987 229.672,300.791 205.583,300.791 L114.566,300.791 L114.566,47.052 C114.566,29.981 128.46,16.086 145.532,16.086 L328.622,16.086 L328.622,79.093 C328.622,83.537 332.221,87.136 336.665,87.136 L394.836,87.136 C396.515,93.651 395.479,91.499 395.791,167.355 L305.538,167.355 C270.983,167.355 242.873,195.465 242.873,230.02 L242.873,427.809 Z M496.37,449.335 C496.37,475.575 475.026,496.92 448.785,496.92 L305.539,496.92 C279.309,496.92 257.954,475.576 257.954,449.335 L257.954,230.021 C257.954,203.781 279.308,182.436 305.539,182.436 L448.786,182.436 C475.026,182.436 496.371,203.78 496.371,230.021 L496.371,449.335 L496.37,449.335 Z" id="Shape" fill="#000000" fillRule="nonzero"></path>
            <path d="M333.428,262.686 L306.072,262.686 C300.443,262.686 295.837,258.08 295.837,252.451 L295.837,224.853 C295.837,219.224 300.443,214.618 306.072,214.618 L448.253,214.618 C453.903,214.618 458.488,219.213 458.488,224.853 L458.488,252.451 C458.488,258.091 453.903,262.686 448.253,262.686 L365.943,262.686 C361.779,262.686 358.403,266.062 358.403,270.226 C358.403,274.39 361.779,277.766 365.943,277.766 L448.253,277.766 C462.218,277.766 473.568,266.405 473.568,252.451 L473.568,224.853 C473.568,210.898 462.217,199.538 448.253,199.538 L306.072,199.538 C292.091,199.538 280.757,210.872 280.757,224.853 L280.757,252.451 C280.757,266.432 292.091,277.766 306.072,277.766 L333.428,277.766 C337.592,277.766 340.968,274.39 340.968,270.226 C340.968,266.062 337.592,262.686 333.428,262.686 Z" id="Path" fill="#000000"></path>
            <path d="M296.541,415.755 L322.309,415.755 C331.016,415.755 338.093,408.677 338.093,399.971 L338.093,374.213 C338.093,365.506 331.015,358.429 322.309,358.429 L296.541,358.429 C287.844,358.429 280.757,365.507 280.757,374.213 L280.757,399.971 C280.756,408.677 287.844,415.755 296.541,415.755 Z M295.837,374.213 C295.837,373.821 296.159,373.509 296.541,373.509 L322.309,373.509 C322.691,373.509 323.013,373.821 323.013,374.213 L323.013,399.971 C323.013,400.363 322.691,400.675 322.309,400.675 L296.541,400.675 C296.159,400.675 295.837,400.363 295.837,399.971 L295.837,374.213 Z" id="Shape" fill="#000000" fillRule="nonzero"></path>
            <path d="M458.598,291.068 L432.84,291.068 C424.133,291.068 417.056,298.146 417.056,306.852 L417.056,332.61 C417.056,341.317 424.134,348.394 432.84,348.394 L458.598,348.394 C467.305,348.394 474.382,341.316 474.382,332.61 L474.382,306.852 C474.382,298.146 467.304,291.068 458.598,291.068 Z M459.302,332.61 C459.302,333.002 458.99,333.314 458.598,333.314 L432.84,333.314 C432.458,333.314 432.136,333.002 432.136,332.61 C432.448,307.124 431.482,306.148 432.84,306.148 L458.598,306.148 C458.99,306.148 459.302,306.46 459.302,306.852 L459.302,332.61 Z" id="Shape" fill="#000000" fillRule="nonzero"></path>
            <path d="M296.541,348.394 L322.309,348.394 C331.016,348.394 338.093,341.316 338.093,332.61 L338.093,306.852 C338.093,298.145 331.015,291.068 322.309,291.068 L296.541,291.068 C287.844,291.068 280.757,298.146 280.757,306.852 L280.757,332.61 C280.756,341.317 287.844,348.394 296.541,348.394 Z M295.837,306.852 C295.837,306.46 296.159,306.148 296.541,306.148 L322.309,306.148 C322.691,306.148 323.013,306.46 323.013,306.852 L323.013,332.61 C323.013,333.002 322.691,333.314 322.309,333.314 L296.541,333.314 C296.159,333.314 295.837,333.002 295.837,332.61 L295.837,306.852 Z" id="Shape" fill="#000000" fillRule="nonzero"></path>
            <path d="M334.122,427.809 C331.226,424.552 327.004,422.491 322.309,422.491 L296.541,422.491 C291.846,422.491 287.623,424.552 284.738,427.809 C279.259,433.952 281.119,440.648 280.757,443.895 L280.757,464.033 C280.757,472.74 287.845,479.817 296.541,479.817 L322.309,479.817 C331.016,479.817 338.093,472.739 338.093,464.033 L338.093,443.895 C337.731,440.719 339.571,433.952 334.122,427.809 Z M322.309,464.737 C296.853,464.425 295.837,465.39 295.837,464.033 C295.837,436.757 295.535,437.571 296.541,437.571 L322.309,437.571 C323.546,437.571 322.782,439.29 323.013,443.895 C323.012,443.896 323.666,464.737 322.309,464.737 Z" id="Shape" fill="#000000" fillRule="nonzero"></path>
            <path d="M454.596,358.428 L436.841,358.428 C425.933,358.428 417.055,367.306 417.055,378.214 L417.055,458.212 C417.055,470.126 426.747,479.818 438.651,479.818 L452.787,479.818 C464.701,479.818 474.383,470.126 474.383,458.212 L474.383,378.214 C474.382,367.306 465.515,358.428 454.596,358.428 Z M459.302,458.212 C459.302,461.811 456.386,464.737 452.787,464.737 L438.651,464.737 C435.062,464.737 432.136,461.811 432.136,458.212 L432.136,378.214 C432.136,375.62 434.247,373.509 436.841,373.509 L454.596,373.509 C457.19,373.509 459.301,375.62 459.301,378.214 L459.302,458.212 Z" id="Shape" fill="#000000" fillRule="nonzero"></path>
            <path d="M390.051,422.491 L364.283,422.491 C359.588,422.491 355.365,424.552 352.47,427.809 C347.011,433.962 348.861,440.648 348.499,443.895 L348.499,464.033 C348.499,472.74 355.577,479.817 364.283,479.817 L390.051,479.817 C398.748,479.817 405.825,472.739 405.825,464.033 L405.825,438.265 C405.825,433.811 403.965,429.78 400.989,426.914 C398.154,424.18 394.294,422.491 390.051,422.491 Z M390.051,464.737 C364.595,464.425 363.579,465.39 363.579,464.033 L363.579,438.265 C363.579,437.883 363.901,437.571 364.283,437.571 L390.051,437.571 C390.433,437.571 390.745,437.883 390.745,438.265 C390.443,463.782 391.388,464.737 390.051,464.737 Z" id="Shape" fill="#000000" fillRule="nonzero"></path>
            <path d="M390.051,291.068 L364.283,291.068 C355.576,291.068 348.499,298.146 348.499,306.852 L348.499,332.61 C348.499,341.317 355.577,348.394 364.283,348.394 L390.051,348.394 C392.082,348.394 394.012,348.012 395.792,347.308 C401.663,345.006 405.826,339.285 405.826,332.609 L405.826,306.851 C405.825,298.115 398.707,291.068 390.051,291.068 Z M390.745,332.61 C390.745,333.002 390.433,333.314 390.051,333.314 L364.283,333.314 C363.901,333.314 363.579,333.002 363.579,332.61 L363.579,306.852 C363.579,305.495 364.514,306.45 390.051,306.148 C390.433,306.148 390.745,306.46 390.745,306.852 L390.745,332.61 Z" id="Shape" fill="#000000" fillRule="nonzero"></path>
            <path d="M395.792,359.514 C394.012,358.81 392.082,358.428 390.051,358.428 L364.283,358.428 C355.576,358.428 348.499,365.506 348.499,374.212 L348.499,399.97 C348.499,408.677 355.577,415.754 364.283,415.754 L390.051,415.754 C398.748,415.754 405.825,408.676 405.825,399.97 L405.825,374.212 C405.825,367.537 401.663,361.816 395.792,359.514 Z M390.745,399.97 C390.745,400.362 390.433,400.674 390.051,400.674 L364.283,400.674 C363.901,400.674 363.579,400.362 363.579,399.97 L363.579,374.212 C363.579,373.82 363.901,373.508 364.283,373.508 L390.051,373.508 C390.433,373.508 390.745,373.82 390.745,374.212 L390.745,399.97 Z" id="Shape" fill="#000000" fillRule="nonzero"></path>
            <path d="M327.587,118.122 L346.528,118.122 C350.69,118.122 354.068,114.754 354.068,110.582 C354.068,106.42 350.69,103.042 346.528,103.042 L327.587,103.042 C323.425,103.042 320.047,106.42 320.047,110.582 C320.046,114.754 323.424,118.122 327.587,118.122 Z" id="Path" fill="#000000"></path>
            <path d="M163.71,118.122 L297.426,118.122 C301.588,118.122 304.966,114.754 304.966,110.582 C304.966,106.42 301.588,103.042 297.426,103.042 L163.71,103.042 C159.548,103.042 156.17,106.42 156.17,110.582 C156.169,114.754 159.548,118.122 163.71,118.122 Z" id="Path" fill="#000000"></path>
            <path d="M187.678,155.552 C191.84,155.552 195.218,152.174 195.218,148.012 C195.218,143.85 191.84,140.472 187.678,140.472 L163.71,140.472 C159.548,140.472 156.17,143.85 156.17,148.012 C156.17,152.174 159.548,155.552 163.71,155.552 L187.678,155.552 Z" id="Path" fill="#000000"></path>
            <path d="M354.069,148.012 C354.069,143.85 350.691,140.472 346.529,140.472 L217.839,140.472 C213.677,140.472 210.299,143.85 210.299,148.012 C210.299,152.174 213.677,155.552 217.839,155.552 L346.528,155.552 C350.69,155.552 354.069,152.174 354.069,148.012 Z" id="Path" fill="#000000"></path>
        </g>
    </g>
</svg>