<?xml version="1.0" encoding="UTF-8"?>
<svg width="462px" height="512px" viewBox="0 0 462 512" version="1.1" xmlns="http://www.w3.org/2000/svg" xmlns:xlink="http://www.w3.org/1999/xlink">
    <!-- Generator: Sketch 52.6 (67491) - http://www.bohemiancoding.com/sketch -->
    <title>calendar_512px</title>
    <desc>Created with Sketch.</desc>
    <g id="Page-1" stroke="none" stroke-width="1" fill="none" fill-rule="evenodd">
        <g id="calendar">
            <g id="Group" transform="translate(8.000000, 40.000000)">
                <path d="M415.874,463.704 L30.126,463.704 C13.557,463.704 0.126,450.273 0.126,433.704 L0.126,391.971 L445.874,310.971 L445.874,433.704 C445.874,450.272 432.442,463.704 415.874,463.704 Z" id="Path" fill="#CDBFBA"></path>
                <path d="M334.26,433.704 L30.176,433.704 C13.58,433.704 0.126,420.25 0.126,403.654 L0.126,31.028 C0.126,14.432 13.58,0.978 30.176,0.978 L415.823,0.978 C432.419,0.978 445.873,14.432 445.873,31.028 L445.873,322.09 C445.873,330.06 427.707,337.703 422.071,343.339 L355.508,409.902 C349.874,415.538 342.23,433.704 334.26,433.704 Z" id="Path" fill="#F9F3F1"></path>
                <path d="M298.145,433.705 L321.946,433.704 C335.544,433.704 346.567,422.681 346.567,409.083 L346.567,359.019 C346.567,345.421 357.59,334.398 371.188,334.398 L421.252,334.398 C434.85,334.398 445.873,323.375 445.873,309.777 L445.873,278.59 L445.873,321.951 C445.873,329.921 442.707,337.564 437.071,343.2 L355.368,424.903 C349.732,430.539 342.089,433.705 334.119,433.705 L298.145,433.705 Z" id="Path" fill="#EFE2DD"></path>
                <path d="M445.87,30.974 L445.87,108.154 L0.13,108.154 L0.13,30.974 C0.13,14.414 13.56,0.974 30.13,0.974 L415.87,0.974 C432.44,0.974 445.87,14.414 445.87,30.974 Z" id="Path" fill="#47BAB2"></path>
                <g transform="translate(47.000000, 0.000000)" fill="#00675B" id="Path">
                    <path d="M38.05,53.336 C32.328,53.336 27.47,53.333 23.33,53.333 C10.75,53.333 0.52,43.103 0.52,30.533 L0.52,0.973 L15.52,0.973 L15.52,30.533 C15.52,34.833 19.02,38.333 23.33,38.333 C27.47,38.334 42.19,53.336 38.05,53.336 Z"></path>
                    <path d="M310.507,53.336 C310.507,53.336 299.93,53.333 295.78,53.333 C283.21,53.333 272.98,43.103 272.98,30.533 L272.98,0.973 L287.98,0.973 L287.98,30.533 C287.98,34.833 291.48,38.333 295.78,38.333 C299.93,38.334 310.507,49.196 310.507,53.336 Z"></path>
                </g>
                <g transform="translate(45.000000, 153.000000)" fill="#92E5D0" id="Path">
                    <g>
                        <path d="M42.983,50.142 L7.269,50.142 C3.324,50.142 0.126,46.944 0.126,42.999 L0.126,7.285 C0.126,3.34 3.324,0.142 7.269,0.142 L42.983,0.142 C46.928,0.142 50.126,3.34 50.126,7.285 L50.126,42.999 C50.126,46.944 46.928,50.142 42.983,50.142 Z"></path>
                        <path d="M144.899,50.142 L109.185,50.142 C105.24,50.142 102.042,46.944 102.042,42.999 L102.042,7.285 C102.042,3.34 105.24,0.142 109.185,0.142 L144.899,0.142 C148.844,0.142 152.042,3.34 152.042,7.285 L152.042,42.999 C152.042,46.944 148.844,50.142 144.899,50.142 Z"></path>
                        <path d="M246.815,50.142 L211.101,50.142 C207.156,50.142 203.958,46.944 203.958,42.999 L203.958,7.285 C203.958,3.34 207.156,0.142 211.101,0.142 L246.815,0.142 C250.76,0.142 253.958,3.34 253.958,7.285 L253.958,42.999 C253.958,46.944 250.76,50.142 246.815,50.142 Z"></path>
                        <path d="M348.731,50.142 L313.017,50.142 C309.072,50.142 305.874,46.944 305.874,42.999 L305.874,7.285 C305.874,3.34 309.072,0.142 313.017,0.142 L348.731,0.142 C352.676,0.142 355.874,3.34 355.874,7.285 L355.874,42.999 C355.874,46.944 352.676,50.142 348.731,50.142 Z"></path>
                    </g>
                    <g transform="translate(0.000000, 92.000000)">
                        <path d="M42.983,50.915 L7.269,50.915 C3.324,50.915 0.126,47.717 0.126,43.772 L0.126,8.058 C0.126,4.113 3.324,0.915 7.269,0.915 L42.983,0.915 C46.928,0.915 50.126,4.113 50.126,8.058 L50.126,43.772 C50.126,47.717 46.928,50.915 42.983,50.915 Z"></path>
                        <path d="M144.899,50.915 L109.185,50.915 C105.24,50.915 102.042,47.717 102.042,43.772 L102.042,8.058 C102.042,4.113 105.24,0.915 109.185,0.915 L144.899,0.915 C148.844,0.915 152.042,4.113 152.042,8.058 L152.042,43.772 C152.042,47.717 148.844,50.915 144.899,50.915 Z"></path>
                        <path d="M246.815,50.915 L211.101,50.915 C207.156,50.915 203.958,47.717 203.958,43.772 L203.958,8.058 C203.958,4.113 207.156,0.915 211.101,0.915 L246.815,0.915 C250.76,0.915 253.958,4.113 253.958,8.058 L253.958,43.772 C253.958,47.717 250.76,50.915 246.815,50.915 Z"></path>
                    </g>
                    <path d="M348.731,145.142 L313.017,145.142 C309.072,145.142 305.874,141.944 305.874,137.999 L305.874,102.285 C305.874,98.34 309.072,95.142 313.017,95.142 L348.731,95.142 C352.676,95.142 355.874,98.34 355.874,102.285 L355.874,137.999 C355.874,141.944 352.676,145.142 348.731,145.142 Z"></path>
                    <g transform="translate(0.000000, 185.000000)">
                        <path d="M42.983,50.688 L7.269,50.688 C3.324,50.688 0.126,47.49 0.126,43.545 L0.126,7.831 C0.126,3.886 3.324,0.688 7.269,0.688 L42.983,0.688 C46.928,0.688 50.126,3.886 50.126,7.831 L50.126,43.545 C50.126,47.49 46.928,50.688 42.983,50.688 Z"></path>
                        <path d="M144.899,50.688 L109.185,50.688 C105.24,50.688 102.042,47.49 102.042,43.545 L102.042,7.831 C102.042,3.886 105.24,0.688 109.185,0.688 L144.899,0.688 C148.844,0.688 152.042,3.886 152.042,7.831 L152.042,43.545 C152.042,47.49 148.844,50.688 144.899,50.688 Z"></path>
                        <path d="M246.815,50.688 L211.101,50.688 C207.156,50.688 203.958,47.49 203.958,43.545 L203.958,7.831 C203.958,3.886 207.156,0.688 211.101,0.688 L246.815,0.688 C250.76,0.688 253.958,3.886 253.958,7.831 L253.958,43.545 C253.958,47.49 250.76,50.688 246.815,50.688 Z"></path>
                    </g>
                </g>
            </g>
            <path d="M366.017,251.454 L401.731,251.454 C409.805,251.454 416.374,244.885 416.374,236.811 L416.374,201.097 C416.374,193.023 409.805,186.454 401.731,186.454 L366.017,186.454 C357.943,186.454 351.374,193.023 351.374,201.097 L351.374,236.811 C351.374,244.885 357.943,251.454 366.017,251.454 Z M366.374,201.454 L401.374,201.454 L401.374,236.454 L366.374,236.454 L366.374,201.454 Z M366.017,346.454 L401.731,346.454 C409.805,346.454 416.374,339.885 416.374,331.811 L416.374,296.097 C416.374,288.023 409.805,281.454 401.731,281.454 L366.017,281.454 C357.943,281.454 351.374,288.023 351.374,296.097 L351.374,331.811 C351.374,339.885 357.943,346.454 366.017,346.454 Z M366.374,296.454 L401.374,296.454 L401.374,331.454 L366.374,331.454 L366.374,296.454 Z M264.101,251.454 L299.815,251.454 C307.889,251.454 314.458,244.885 314.458,236.811 L314.458,201.097 C314.458,193.023 307.889,186.454 299.815,186.454 L264.101,186.454 C256.027,186.454 249.458,193.023 249.458,201.097 L249.458,236.811 C249.458,244.885 256.027,251.454 264.101,251.454 Z M264.458,201.454 L299.458,201.454 L299.458,236.454 L264.458,236.454 L264.458,201.454 Z M95.983,372 L60.269,372 C52.195,372 45.626,378.569 45.626,386.643 L45.626,422.357 C45.626,430.431 52.195,437 60.269,437 L95.983,437 C104.057,437 110.626,430.431 110.626,422.357 L110.626,386.643 C110.626,378.569 104.057,372 95.983,372 Z M95.626,422 L60.626,422 L60.626,387 L95.626,387 L95.626,422 Z M95.983,186.454 L60.269,186.454 C52.195,186.454 45.626,193.023 45.626,201.097 L45.626,236.811 C45.626,244.885 52.195,251.454 60.269,251.454 L95.983,251.454 C104.057,251.454 110.626,244.885 110.626,236.811 L110.626,201.097 C110.626,193.022 104.057,186.454 95.983,186.454 Z M95.626,236.454 L60.626,236.454 L60.626,201.454 L95.626,201.454 L95.626,236.454 Z M264.101,344.227 L299.815,344.227 C307.889,344.227 314.458,337.658 314.458,329.584 L314.458,293.87 C314.458,285.796 307.889,279.227 299.815,279.227 L264.101,279.227 C256.027,279.227 249.458,285.796 249.458,293.87 L249.458,329.584 C249.458,337.658 256.027,344.227 264.101,344.227 Z M264.458,294.227 L299.458,294.227 L299.458,329.227 L264.458,329.227 L264.458,294.227 Z M423.823,34.274 L391.757,34.274 L391.757,22.807 C391.757,10.231 381.526,0 368.95,0 L365.506,0 C352.931,0 342.7,10.231 342.7,22.807 L342.7,34.274 L119.3,34.274 L119.3,22.807 C119.3,10.231 109.069,0 96.493,0 L93.049,0 C80.473,0 70.242,10.231 70.242,22.807 L70.242,34.274 L38.177,34.274 C17.472,34.274 0.627,51.119 0.627,71.824 L0.627,474.5 C0.627,495.178 17.449,512 38.127,512 L423.875,512 C444.553,512 461.375,495.178 461.375,474.5 L461.375,71.824 C461.374,51.119 444.529,34.274 423.823,34.274 Z M357.7,22.807 C357.7,18.502 361.202,15 365.507,15 L368.951,15 C373.256,15 376.758,18.502 376.758,22.807 L376.758,34.274 L357.7,34.274 L357.7,22.807 Z M85.243,22.807 C85.243,18.502 88.745,15 93.05,15 L96.494,15 C100.799,15 104.301,18.502 104.301,22.807 L104.301,34.274 L85.244,34.274 L85.244,22.807 L85.243,22.807 Z M446.374,474.5 C446.374,486.907 436.281,497 423.874,497 L38.126,497 C25.719,497 15.626,486.907 15.626,474.5 L15.626,474.453 C21.91,479.188 29.721,482 38.177,482 L342.26,482 C352.29,482 361.72,478.094 368.812,471.001 L446.374,393.439 L446.374,474.5 Z M361.159,457.441 C361.747,455.014 362.067,452.483 362.067,449.878 L362.067,399.814 C362.067,390.374 369.748,382.693 379.189,382.693 L429.252,382.693 C431.857,382.693 434.388,382.373 436.815,381.785 L361.159,457.441 Z M446.374,141.454 L126.8,141.454 C122.658,141.454 119.3,144.812 119.3,148.954 C119.3,153.096 122.658,156.454 126.8,156.454 L446.374,156.454 L446.374,350.572 C446.374,360.013 438.693,367.694 429.252,367.694 L379.189,367.694 C361.477,367.694 347.067,382.104 347.067,399.815 L347.067,449.879 C347.067,459.32 339.386,467.001 329.946,467.001 L38.177,467.001 C25.743,467.001 15.627,456.885 15.627,444.45 L15.627,156.454 L96.8,156.454 C100.942,156.454 104.3,153.096 104.3,148.954 C104.3,144.812 100.942,141.454 96.8,141.454 L15.626,141.454 L15.626,71.824 C15.626,59.39 25.742,49.274 38.176,49.274 L70.242,49.274 L70.242,71.326 C70.242,83.902 80.473,94.133 93.049,94.133 C97.191,94.133 100.549,90.775 100.549,86.633 C100.549,82.491 97.191,79.133 93.049,79.133 C88.744,79.133 85.242,75.631 85.242,71.326 L85.242,49.274 L342.7,49.274 L342.7,71.326 C342.7,83.902 352.931,94.133 365.507,94.133 C369.649,94.133 373.007,90.775 373.007,86.633 C373.007,82.491 369.649,79.133 365.507,79.133 C361.202,79.133 357.7,75.631 357.7,71.326 L357.7,49.274 L423.824,49.274 C436.258,49.274 446.374,59.39 446.374,71.824 L446.374,141.454 Z M95.983,279.227 L60.269,279.227 C52.195,279.227 45.626,285.796 45.626,293.87 L45.626,329.584 C45.626,337.658 52.195,344.227 60.269,344.227 L95.983,344.227 C104.057,344.227 110.626,337.658 110.626,329.584 L110.626,293.87 C110.626,285.795 104.057,279.227 95.983,279.227 Z M95.626,329.227 L60.626,329.227 L60.626,294.227 L95.626,294.227 L95.626,329.227 Z M162.185,251.454 L197.899,251.454 C205.973,251.454 212.542,244.885 212.542,236.811 L212.542,201.097 C212.542,193.023 205.973,186.454 197.899,186.454 L162.185,186.454 C154.111,186.454 147.542,193.023 147.542,201.097 L147.542,236.811 C147.542,244.885 154.111,251.454 162.185,251.454 Z M162.542,201.454 L197.542,201.454 L197.542,236.454 L162.542,236.454 L162.542,201.454 Z M264.449,422 C264.263,418.023 260.98,414.857 256.957,414.857 C252.815,414.857 249.457,418.215 249.457,422.357 C249.457,430.431 256.026,437 264.1,437 L299.814,437 C307.888,437 314.457,430.431 314.457,422.357 L314.457,386.643 C314.457,378.569 307.888,372 299.814,372 L264.1,372 C256.026,372 249.457,378.569 249.457,386.643 L249.457,396.943 C249.457,401.085 252.815,404.443 256.957,404.443 C261.099,404.443 264.457,401.085 264.457,396.943 L264.457,387 L299.457,387 L299.457,422 L264.449,422 Z M162.185,344.227 L197.899,344.227 C205.973,344.227 212.542,337.658 212.542,329.584 L212.542,293.87 C212.542,285.796 205.973,279.227 197.899,279.227 L162.185,279.227 C154.111,279.227 147.542,285.796 147.542,293.87 L147.542,329.584 C147.542,337.658 154.111,344.227 162.185,344.227 Z M162.542,294.227 L197.542,294.227 L197.542,329.227 L162.542,329.227 L162.542,294.227 Z M162.185,437 L197.899,437 C205.973,437 212.542,430.431 212.542,422.357 L212.542,386.643 C212.542,378.569 205.973,372 197.899,372 L162.185,372 C154.111,372 147.542,378.569 147.542,386.643 L147.542,422.357 C147.542,430.431 154.111,437 162.185,437 Z M162.542,387 L197.542,387 L197.542,422 L162.542,422 L162.542,387 Z" id="Shape" fill="#000000" fill-rule="nonzero"></path>
        </g>
    </g>
</svg>