<svg id="Calque_1" data-name="Calque 1"
    xmlns="http://www.w3.org/2000/svg" viewBox="0 0 24 32">
    <path d="M25.89,12.5a4.15,4.15,0,0,0,.65-2.25A4.23,4.23,0,0,0,22.3,6h-.25a4.77,4.77,0,1,0-9.34-1.85h0A3.92,3.92,0,0,0,8.8,7.87a7.09,7.09,0,0,0-2.37,5.29,3.14,3.14,0,0,0,0,.53,4.89,4.89,0,1,0,5.36,8.18,5.42,5.42,0,0,0,5.55.6,6,6,0,0,0,1.22.84,6.56,6.56,0,0,0,7.3-10.81Z" transform="translate(-4.24 0)"/>
    <path d="M18.67,24.47a6,6,0,0,1-.77-.36,6.36,6.36,0,0,1-.78-.49,6.8,6.8,0,0,1-3.26.19c-.09,3.07-.39,5.84-.48,6.52a3.25,3.25,0,0,0,0,.44v.44a.79.79,0,0,0,.79.79h4.1a.87.87,0,0,0,.88-.87v-.47c0-.08,0-.16,0-.24C19.05,29.91,18.83,27.29,18.67,24.47Z" transform="translate(-4.24 0)"/>
</svg>