<?xml version="1.0" encoding="UTF-8"?>
<svg width="103px" height="77px" viewBox="0 0 103 77" version="1.1" xmlns="http://www.w3.org/2000/svg" xmlns:xlink="http://www.w3.org/1999/xlink">
    <!-- Generator: Sketch 52.6 (67491) - http://www.bohemiancoding.com/sketch -->
    <title>icon_seed</title>
    <desc>Created with Sketch.</desc>
    <g id="Page-1" stroke="none" stroke-width="1" fill="none" fillRule="evenodd">
        <g id="icon_seed">
            <path d="M65.5405263,12.6298047 C65.5405263,12.6298047 63.9188285,1.90635156 74.4547446,1.6641224 C82.7620058,1.47322656 90.9941754,6.57708333 94.4349376,13.0063828 C94.9152027,13.9037135 94.5865263,15.0214167 93.6910487,15.5064766 C88.0975263,18.5367474 68.6893548,27.8186562 65.5405263,12.6298047 Z" id="Path" fill="#AADDB6"></path>
            <path d="M76.6928363,9.48423437 C76.6928363,9.48423437 65.6818752,12.1619896 59.3400468,23.9425885 C53.1166784,35.5030156 53.1692827,46.3758568 53.1692827,46.3758568 L46.9770175,46.3758568 C46.9770175,46.3758568 46.9208168,31.5954661 53.1692827,20.9987422 C59.4177485,10.4020182 69.1579747,7.83234375 76.6928363,9.48423437 Z" id="Path" fill="#6DC17D"></path>
            <path d="M37.7249045,24.5742292 C37.7249045,24.5742292 40.1571501,14.004776 29.6700234,12.964474 C21.4013119,12.1441432 12.8049279,16.6091406 8.88510526,22.7589141 C8.33818129,23.6171432 8.5807232,24.7565026 9.43684795,25.3081354 C14.7840136,28.7536849 33.4304269,39.4803464 37.7249045,24.5742292 Z" id="Path" fill="#AADDB6"></path>
            <path d="M26.843848,20.5920859 C26.843848,20.5920859 37.6194951,24.0971901 43.0473743,36.3245495 C48.3738596,48.3235156 47.494846,59.1610651 47.494846,59.1610651 L53.6692242,59.6306849 C53.6692242,59.6306849 54.8490058,44.8972161 49.4241384,33.8573411 C43.999271,22.8168646 34.4825127,19.5162917 26.843848,20.5920859 Z" id="Path" fill="#6DC17D"></path>
            <path d="M99.5899571,75.3372812 C100.917713,75.3372812 101.829253,74.0164505 101.373684,72.7708151 C100.047333,69.1447969 96.5646082,66.5562734 92.4747251,66.5562734 C90.5879981,66.5562734 88.831577,67.1093099 87.3548421,68.058776 C85.4518519,63.5368307 80.9758694,60.3611823 75.7566004,60.3611823 C73.7718928,60.3611823 71.8956062,60.8219792 70.2265244,61.6395026 C68.0589064,53.5715469 60.6868772,47.6313177 51.9244483,47.6313177 C42.7867622,47.6313177 35.1601442,54.0910964 33.3722008,62.687625 C31.3160156,61.224625 28.8022534,60.3611823 26.0853021,60.3611823 C21.1007446,60.3611823 16.7936179,63.2577057 14.7589162,67.4572135 C13.5341598,66.8803151 12.1664483,66.5562734 10.7226413,66.5562734 C6.63275828,66.5562734 3.15003314,69.1447969 1.82368226,72.7708151 C1.36811306,74.0164505 2.27965302,75.3372813 3.60740936,75.3372813 L99.5899571,75.3372812 Z" id="Path" fill="#CF9875"></path>
            <path d="M101.373684,72.7708151 C100.047333,69.1449974 96.5646082,66.5562734 92.4747251,66.5562734 C90.5879981,66.5562734 88.831577,67.1093099 87.3548421,68.058776 C85.4518519,63.5368307 80.9758694,60.3611823 75.7566004,60.3611823 C73.7718928,60.3611823 71.8956062,60.8219792 70.2265244,61.6395026 C68.0589064,53.5715469 60.6868772,47.6313177 51.9244483,47.6313177 C46.2988012,47.6313177 41.2485887,50.0820833 37.7783119,53.9699818 C40.7084912,52.1149635 44.1827836,51.0401719 47.9088538,51.0401719 C55.5097719,51.0401719 62.0646277,55.5101823 65.0835517,61.9613385 C65.8204133,63.5360286 67.5503314,64.3579635 69.2567583,64.0156745 C70.0596764,63.8546563 70.8903021,63.7700365 71.7410058,63.7700365 C75.912807,63.7700365 79.6099649,65.7991068 81.8976491,68.9226198 C82.8210351,70.1834948 84.4391189,70.7166797 85.9471754,70.3024036 C86.7470819,70.0826328 87.5893528,69.9651276 88.4591306,69.9651276 C92.2243528,69.9651276 95.4733704,72.1598281 97.0007018,75.3372813 L99.5899571,75.3372813 C100.917713,75.3372813 101.829253,74.01625 101.373684,72.7708151 Z" id="Path" fill="#C7865B"></path>
            <path d="M90.6576686,17.040862 C91.8780078,16.4649661 92.914232,15.9271693 93.6874347,15.5084818 C94.5849201,15.0224193 94.9164074,13.9055182 94.4351384,13.0063828 C90.9939747,6.57708333 82.7618051,1.47342708 74.4547446,1.66432292 C73.2621131,1.69179427 72.226692,1.85441667 71.3257934,2.11970573 C79.6173938,3.53778906 87.5993918,9.90071615 90.6576686,17.040862 Z" id="Path" fill="#94D4A2"></path>
            <path d="M29.6700234,12.9642734 C27.9824698,12.7968385 26.2814639,12.8499766 24.6091696,13.0922057 C33.9809649,14.6670964 31.7015127,24.5740286 31.7015127,24.5740286 C30.4100975,29.0562708 27.8208421,31.2204922 24.6858674,31.9622187 C30.3000702,32.9764531 35.6645029,31.7260052 37.7249045,24.5740286 C37.7249045,24.5742292 40.1571501,14.0045755 29.6700234,12.9642734 Z" id="Path" fill="#94D4A2"></path>
            <g id="Group" fill="#000000">
                <ellipse id="Oval" cx="24.4385068" cy="68.3808125" rx="1.50584795" ry="1.50390625"></ellipse>
                <ellipse id="Oval" cx="57.2894834" cy="59.6302839" rx="1.50584795" ry="1.50390625"></ellipse>
                <ellipse id="Oval" cx="75.1869883" cy="68.3808125" rx="1.50584795" ry="1.50390625"></ellipse>
                <ellipse id="Oval" cx="44.7706667" cy="66.8769063" rx="1.50584795" ry="1.50390625"></ellipse>
                <path d="M102.788177,72.254875 C101.212257,67.9468854 97.067963,65.0525677 92.4749259,65.0525677 C90.928922,65.0525677 89.4136374,65.3760078 88.0170136,65.9968203 C85.5385887,61.6122318 80.8871248,58.8574766 75.7566004,58.8574766 C74.1740546,58.8574766 72.6376881,59.1137422 71.1689844,59.6210599 C68.5845478,52.4584557 62.1832885,47.3351484 54.6753314,46.3169036 C54.6833626,45.5124141 54.9062281,35.3548307 60.6661969,24.6548385 C62.2017602,21.8022292 64.0352807,19.510276 65.9103626,17.6779167 C67.2256706,19.7418776 69.0868986,21.1762031 71.4639298,21.9452005 C72.8641676,22.3981771 74.3758382,22.5920807 75.9389084,22.5918802 C82.8897018,22.5916797 90.8457992,18.7581224 94.4026121,16.8319193 C96.021499,15.9552422 96.6318694,13.9211589 95.762694,12.2975417 C91.8944717,5.06976823 82.925039,-0.0374973958 74.4196082,0.160617188 C68.55423,0.295367188 64.8018577,3.57528646 64.0718226,9.17422917 C59.6173236,10.9983672 55.2716472,14.4691823 51.8712417,20.2355599 C50.4081598,22.7170052 49.1705536,25.6004948 48.1768947,28.8308854 C45.6241813,25.2728438 42.6002378,22.8176667 39.4504055,21.2393672 C39.4500039,21.2183125 39.4512086,21.1974583 39.4498031,21.1760026 C39.3124698,18.8283047 38.6278109,16.834125 37.4153021,15.2490078 C35.7524444,13.0749609 33.1963177,11.8026563 29.8181988,11.4675859 C25.5672904,11.0458906 21.1344756,11.8842682 16.9956023,13.8912813 C16.2472963,14.2540234 15.9354854,15.1539609 16.2984951,15.9011016 C16.6619064,16.6480417 17.5628051,16.9600521 18.3107096,16.5971094 C21.897037,14.8579922 25.8786998,14.0992214 29.5204425,14.4607604 C33.3503158,14.8407474 35.6127018,16.6831328 36.2654366,19.943 C32.9340994,18.8804401 29.5925224,18.6861354 26.6328285,19.1028177 C25.9401384,19.2004714 25.407269,19.7621302 25.3448265,20.4579375 C25.2821832,21.1537448 25.7094425,21.8016276 26.3736218,22.0209974 C26.4380721,22.0422526 30.5458246,23.4448958 34.834078,27.3925495 C33.7478596,29.0221823 32.2855809,30.0408281 30.3763665,30.4960104 C29.5887076,30.6838984 28.7564756,30.7685182 27.8941267,30.7685182 C21.2611676,30.7681172 12.9029084,25.751888 10.2578363,24.0480625 C10.0948031,23.9429896 10.0498285,23.7312396 10.155037,23.5660104 C10.9613684,22.3009245 11.9929747,21.0996042 13.2215458,19.9949349 C13.8395458,19.4392917 13.88954,18.4882214 13.3331793,17.8710182 C12.7764172,17.2536146 11.8243197,17.2038854 11.2063197,17.7595286 C9.77556335,19.0460703 8.5668694,20.4561328 7.61416959,21.9508151 C6.62412476,23.50425 7.07788694,25.5790391 8.6252963,26.5756276 C12.24154,28.9052786 20.6666589,33.7711172 27.9254483,33.7709167 C29.0078519,33.7709167 30.0647563,33.6626354 31.0754815,33.4216094 C33.5191715,32.8388958 35.4956472,31.5471406 36.9709766,29.5798307 C38.7014971,31.5491458 40.3551189,33.9734427 41.669423,36.9341328 C43.1262807,40.2160573 44.2363918,43.7197578 44.9812846,47.3535964 C39.0960292,49.491349 34.3698752,54.2643464 32.4263275,60.3637891 C30.4699298,59.3736172 28.3115478,58.8574766 26.0838967,58.8574766 C21.1884854,58.8574766 16.6155263,61.4536198 14.0756628,65.5743229 C12.9970741,65.2276224 11.8735107,65.0525677 10.7210351,65.0525677 C6.12799805,65.0525677 1.98350292,67.9470859 0.407783626,72.254875 C0.0238927875,73.3046016 0.17668616,74.4768464 0.81637037,75.3904193 C1.45244055,76.2989792 2.49508967,76.8411875 3.60580312,76.8411875 L44.7696628,76.8411875 C45.6014932,76.8411875 46.2755107,76.1678385 46.2755107,75.3372813 C46.2755107,74.506724 45.6014932,73.833375 44.7696628,73.833375 L3.6070078,73.833375 C3.43795127,73.833375 3.33896686,73.7427396 3.28555945,73.6667422 C3.23998246,73.6013724 3.17252047,73.4650182 3.23797466,73.2869557 C4.3814152,70.1608359 7.38909552,68.0603802 10.7222398,68.0603802 C11.9076433,68.0603802 13.0496784,68.3150417 14.1162203,68.8175469 C14.8631209,69.1692604 15.7541813,68.8548438 16.1139786,68.1125156 C17.9529201,64.3174583 21.8667193,61.8652891 26.0849006,61.8652891 C28.397883,61.8652891 30.6154951,62.5733281 32.4980058,63.9128073 C32.9122144,64.2075729 33.447694,64.2735443 33.9211326,64.088263 C34.3947719,63.9029818 34.7427232,63.4913125 34.845924,62.9940208 C36.5162105,54.9639635 43.6985029,49.1358255 51.9240468,49.1358255 C59.803848,49.1358255 66.7319532,54.4379974 68.7714737,62.0297161 C68.8881267,62.4640443 69.1935127,62.8233776 69.6033041,63.0092604 C70.0132963,63.1951432 70.4849279,63.188125 70.8890975,62.9902109 C72.412614,62.2438724 74.0501735,61.8654896 75.7561988,61.8654896 C80.2263587,61.8654896 84.233922,64.5253984 85.9662495,68.6418906 C86.1385185,69.0515547 86.4836589,69.3641667 86.9087096,69.4957083 C87.3333587,69.62725 87.795152,69.564487 88.1694055,69.323862 C89.4545965,68.4975156 90.9433782,68.0607813 92.4743236,68.0607813 C95.8076686,68.0607813 98.8151481,70.161237 99.9585887,73.2873568 C100.023641,73.4654193 99.9565809,73.6017734 99.9108031,73.6673438 C99.8573957,73.7433411 99.7586121,73.8339766 99.5893548,73.8339766 L50.7942593,73.8339766 C49.9624288,73.8339766 49.2884113,74.5073255 49.2884113,75.3378828 C49.2884113,76.1684401 49.9624288,76.8417891 50.7942593,76.8417891 L99.5899571,76.8417891 C100.70047,76.8417891 101.74332,76.2993802 102.37939,75.3912214 C103.019074,74.4768464 103.172068,73.3046016 102.788177,72.254875 Z M74.4892788,3.16782812 C78.1484893,3.08200521 82.0653002,4.14336198 85.5106803,6.15177865 C88.8361949,8.09041406 91.5340721,10.7765911 93.1069805,13.715625 C93.1993392,13.8880729 93.1379006,14.095612 92.9672378,14.1880521 C89.8346725,15.8846589 79.092154,21.2513984 72.3923353,19.0839687 C70.5357251,18.4834089 69.1629942,17.358888 68.2080858,15.6590729 C72.7834542,12.0484948 76.9849708,10.9616719 77.0490195,10.9458307 C77.7300643,10.7802005 78.2065146,10.1674089 78.1984834,9.46759115 C78.190653,8.76777344 77.7003489,8.1658099 77.0156901,8.01582031 C74.0957505,7.37575781 70.7483509,7.31620312 67.3451345,8.1235 C68.2386043,4.92238542 70.6337057,3.25645833 74.4892788,3.16782812 Z M50.3635867,32.1866016 C51.3835478,28.1569349 52.7641092,24.649625 54.466922,21.7619245 C57.5735867,16.4932396 63.0924191,11.4322943 70.2580468,10.6155729 C66.421347,12.8068646 61.5450097,16.6711016 58.0138967,23.2303385 C55.115039,28.6153255 53.5395205,33.8250573 52.6827934,37.9365365 C52.1306491,36.2423359 51.4951813,34.6580208 50.7759883,33.1942188 C50.628616,32.8942396 50.4776296,32.6014792 50.3248363,32.3125286 C50.3390916,32.2714219 50.3527446,32.2297135 50.3635867,32.1866016 Z M44.4239201,35.7149661 C41.4015828,28.9068828 36.8332417,24.6841146 33.174232,22.2082839 C40.2563353,23.566612 45.3754152,29.0312057 48.0722885,34.5196615 C49.6634678,37.7578724 50.8221676,41.6622135 51.5212827,46.1360339 C50.2850819,46.1604974 49.0697622,46.2940443 47.8875712,46.5336667 C47.0997115,42.7654792 45.9394055,39.1286328 44.4239201,35.7149661 Z" id="Shape" fillRule="nonzero"></path>
            </g>
        </g>
    </g>
</svg>