<?xml version="1.0" standalone="no"?>
<!DOCTYPE svg PUBLIC "-//W3C//DTD SVG 20010904//EN"
 "http://www.w3.org/TR/2001/REC-SVG-20010904/DTD/svg10.dtd">
<svg version="1.0" xmlns="http://www.w3.org/2000/svg"
 width="782.000000pt" height="782.000000pt" viewBox="0 0 782.000000 782.000000"
 preserveAspectRatio="xMidYMid meet">
<metadata>
Created by potrace 1.11, written by Peter Selinger 2001-2013
</metadata>
<g transform="translate(0.000000,782.000000) scale(0.100000,-0.100000)"
fill="#000000" stroke="none">
<path d="M2948 7605 c-2 -2 -43 -6 -93 -9 -49 -3 -99 -8 -110 -10 -11 -2 -42
-7 -68 -10 -120 -18 -353 -82 -381 -105 -6 -5 -20 -11 -31 -13 -31 -5 -241
-114 -319 -166 -39 -26 -75 -49 -80 -51 -5 -2 -18 -11 -28 -20 -11 -9 -28 -23
-38 -31 -10 -8 -35 -28 -56 -45 -81 -64 -179 -159 -264 -256 -97 -111 -106
-121 -166 -204 -269 -372 -450 -782 -539 -1214 -26 -126 -34 -172 -41 -241 -2
-25 -7 -56 -9 -70 -13 -64 -20 -226 -20 -450 1 -306 15 -537 51 -800 3 -25 7
-58 8 -75 1 -16 5 -39 9 -50 3 -11 8 -40 11 -65 3 -25 17 -97 31 -160 14 -63
28 -126 31 -140 42 -203 196 -582 312 -768 29 -46 52 -87 52 -92 0 -5 3 -10 8
-12 4 -1 24 -28 45 -59 159 -233 403 -495 856 -919 68 -63 144 -135 170 -160
173 -167 455 -402 616 -513 183 -126 429 -262 540 -297 22 -7 45 -15 50 -19 6
-3 12 -6 15 -6 3 -1 34 -10 70 -22 61 -20 163 -46 220 -57 142 -27 184 -34
280 -43 143 -14 513 -7 606 11 12 3 39 7 60 10 48 8 102 17 129 23 11 2 31 6
45 9 53 10 180 44 261 70 46 15 89 29 94 30 34 10 101 37 110 45 5 5 15 9 23
9 37 0 365 174 418 222 11 10 24 18 28 18 19 0 219 164 312 255 173 170 335
376 420 535 16 30 32 57 35 60 12 9 135 264 179 370 62 153 136 375 155 470 2
8 10 42 18 75 19 73 45 214 53 281 3 27 7 60 10 74 25 141 25 588 -1 750 -2
14 -6 48 -10 75 -3 28 -12 82 -20 120 -8 39 -17 84 -20 100 -12 71 -18 95 -42
185 -14 52 -28 104 -30 115 -3 11 -7 27 -10 35 -3 8 -7 20 -9 25 -5 19 -55
170 -61 185 -3 8 -7 20 -9 25 -27 102 -157 410 -260 620 -72 147 -95 187 -109
197 -5 4 -6 8 -1 8 5 0 2 8 -6 18 -8 9 -36 53 -63 97 -78 128 -280 401 -370
501 -5 7 -37 43 -70 80 -120 138 -444 455 -580 569 -70 59 -72 60 -175 136
-266 197 -574 367 -880 485 -235 90 -599 187 -825 219 -22 4 -53 8 -70 11 -89
15 -457 38 -467 29z m367 -130 c22 -3 51 -8 65 -10 14 -3 54 -10 90 -16 36 -5
85 -15 110 -20 25 -6 56 -13 69 -15 51 -10 253 -65 327 -90 44 -14 84 -27 89
-28 14 -4 32 -11 170 -64 240 -93 594 -287 765 -419 8 -6 60 -46 115 -89 54
-42 104 -82 111 -88 6 -6 49 -45 95 -86 170 -153 428 -426 564 -598 11 -14 39
-48 61 -76 36 -44 153 -205 192 -262 53 -80 112 -175 112 -183 0 -5 3 -11 8
-13 15 -6 172 -316 232 -458 12 -30 29 -68 36 -85 7 -16 24 -61 39 -100 15
-38 31 -79 36 -90 62 -140 202 -645 224 -805 2 -14 6 -45 10 -70 23 -143 30
-247 30 -455 0 -182 -6 -298 -20 -395 -6 -42 -17 -114 -21 -135 -2 -10 -6 -37
-10 -60 -3 -22 -17 -85 -30 -140 -14 -55 -27 -110 -30 -123 -9 -42 -91 -286
-124 -367 -55 -136 -144 -316 -210 -425 -35 -58 -66 -107 -70 -110 -3 -3 -16
-22 -29 -43 -13 -21 -28 -43 -35 -50 -7 -6 -17 -19 -22 -28 -42 -72 -294 -329
-421 -427 -51 -40 -94 -72 -97 -72 -2 0 -37 -22 -78 -48 -206 -136 -513 -256
-823 -322 -201 -43 -301 -53 -530 -54 -152 -1 -305 8 -360 21 -11 2 -33 6 -50
9 -272 44 -504 129 -746 274 -113 68 -232 149 -237 162 -2 4 -8 8 -13 8 -9 0
-159 117 -229 177 -14 12 -36 31 -50 43 -264 227 -880 825 -1036 1005 -132
153 -267 339 -347 477 -77 133 -217 452 -217 493 0 7 -4 16 -9 19 -4 3 -11 20
-14 38 -4 18 -16 67 -28 108 -25 89 -58 236 -74 328 -2 15 -7 38 -9 52 -4 22
-10 64 -21 150 -2 14 -7 52 -11 85 -3 33 -8 68 -10 79 -5 28 -14 156 -29 406
-12 196 -6 546 10 629 2 10 6 44 9 76 24 223 124 618 196 772 11 24 20 45 20
48 0 2 14 35 31 72 17 38 35 77 40 88 5 11 13 27 18 35 6 8 38 65 72 125 85
151 210 340 249 375 3 3 23 28 44 55 48 62 60 74 139 151 100 99 137 132 222
195 44 33 91 69 105 80 13 10 27 19 31 19 4 0 36 17 70 38 75 45 234 122 253
122 7 0 16 3 20 8 4 4 11 7 14 8 4 0 16 4 27 8 68 26 165 52 230 61 22 3 46 8
53 10 7 3 40 7 75 11 34 3 64 8 66 10 6 6 451 -4 496 -11z"/>
<path d="M3258 6895 c-1 -1 -32 -5 -68 -8 -75 -7 -159 -22 -245 -44 -33 -8
-67 -16 -75 -18 -123 -26 -417 -180 -555 -293 -196 -159 -403 -384 -511 -557
-10 -16 -21 -32 -24 -35 -29 -25 -200 -352 -200 -382 0 -8 -3 -18 -7 -22 -17
-16 -89 -249 -109 -349 -2 -10 -5 -26 -8 -35 -3 -9 -7 -33 -10 -52 -3 -19 -8
-46 -11 -59 -2 -14 -7 -45 -10 -70 -3 -25 -7 -57 -10 -70 -27 -140 -48 -758
-30 -916 2 -22 7 -69 10 -105 3 -36 8 -78 11 -95 3 -16 7 -46 9 -65 9 -65 14
-95 24 -135 14 -55 23 -97 27 -117 19 -96 126 -367 196 -498 72 -133 90 -163
172 -283 45 -66 86 -126 91 -135 6 -8 18 -25 27 -36 9 -12 47 -60 85 -108 175
-220 354 -408 507 -532 83 -67 261 -196 271 -196 2 0 24 -13 48 -30 25 -16 49
-30 55 -30 6 0 12 -3 14 -7 5 -13 277 -148 408 -203 192 -81 382 -149 460
-165 8 -2 29 -8 45 -15 17 -6 31 -11 33 -10 1 1 15 -1 30 -4 186 -38 300 -50
474 -49 70 1 149 4 175 7 79 10 152 22 193 30 14 3 39 8 55 12 17 3 58 15 93
26 34 11 68 21 75 22 32 7 214 85 277 119 225 122 446 317 617 544 20 26 39
50 42 53 3 3 29 39 57 80 106 155 212 357 269 510 15 41 31 84 36 95 9 23 37
121 44 154 2 11 6 25 9 30 3 5 8 26 11 47 4 22 8 47 11 56 7 23 12 52 25 128
38 232 42 493 14 760 -13 120 -48 304 -82 430 -14 52 -26 100 -27 105 -3 14
-26 86 -35 110 -5 11 -14 38 -20 60 -7 22 -16 49 -21 60 -4 11 -25 67 -45 125
-21 58 -43 119 -50 135 -7 17 -23 55 -35 85 -12 30 -38 89 -58 130 -20 41 -36
77 -36 80 -3 15 -103 202 -132 248 -19 29 -34 55 -34 57 0 9 -92 139 -160 226
-94 120 -131 160 -340 369 -155 155 -232 223 -410 363 -40 32 -215 139 -290
179 -103 54 -368 161 -390 157 -3 0 -29 9 -57 20 -29 11 -53 19 -53 17 0 -2
-21 2 -47 10 -63 20 -264 62 -322 69 -25 3 -62 8 -81 11 -39 6 -396 14 -402 9z
m268 -169 c50 -4 102 -9 115 -11 13 -3 44 -7 68 -10 171 -21 533 -135 715
-227 80 -40 235 -137 266 -165 14 -13 28 -23 31 -23 3 0 15 -8 26 -17 11 -10
42 -36 69 -58 154 -126 286 -262 540 -557 182 -211 359 -536 495 -913 22 -60
47 -128 56 -150 39 -101 122 -380 138 -463 1 -9 8 -35 13 -57 6 -22 14 -53 17
-70 10 -60 26 -161 30 -195 2 -19 7 -60 11 -90 14 -115 7 -519 -11 -620 -3
-14 -7 -45 -11 -70 -3 -25 -9 -61 -14 -80 -5 -19 -11 -46 -13 -60 -5 -28 -34
-132 -47 -170 -64 -187 -147 -377 -205 -470 -52 -83 -110 -176 -117 -185 -145
-192 -264 -324 -354 -391 -21 -16 -41 -32 -44 -35 -19 -24 -254 -157 -335
-189 -115 -46 -334 -103 -415 -108 -8 -1 -33 -4 -55 -6 -53 -7 -271 -8 -315
-2 -19 3 -57 8 -85 11 -146 19 -397 90 -600 172 -262 105 -679 335 -786 434
-14 13 -43 37 -64 53 -105 80 -352 350 -495 541 -25 33 -47 62 -50 65 -4 3
-22 28 -41 55 -18 28 -36 52 -39 55 -3 3 -10 14 -17 25 -7 11 -39 63 -72 115
-146 232 -259 510 -310 760 -19 95 -21 104 -27 150 -24 181 -28 258 -28 530 0
354 14 562 50 745 3 11 7 35 10 54 9 56 11 63 39 172 30 112 104 313 136 367
10 18 19 39 19 47 0 7 3 15 8 17 4 2 16 19 26 38 116 212 349 493 521 630 22
17 42 35 45 38 15 21 173 120 257 162 164 81 252 110 428 140 33 6 98 13 145
17 47 3 86 6 87 7 3 3 81 -1 189 -8z"/>
<path d="M3437 6254 c-1 -1 -34 -4 -73 -7 -78 -7 -205 -32 -279 -55 -159 -50
-387 -172 -509 -273 -64 -53 -234 -228 -277 -284 -141 -188 -246 -398 -312
-630 -14 -49 -28 -103 -31 -120 -3 -16 -8 -41 -11 -55 -22 -111 -29 -211 -29
-395 1 -93 4 -197 7 -230 14 -124 16 -142 27 -205 6 -36 13 -74 15 -85 3 -18
20 -92 30 -135 2 -8 11 -40 20 -70 9 -30 17 -62 19 -70 2 -8 21 -64 41 -125
104 -303 263 -588 474 -848 68 -84 215 -233 301 -307 36 -30 67 -58 70 -61 23
-26 310 -229 324 -229 3 0 29 -15 58 -33 87 -55 333 -172 390 -186 10 -2 36
-10 68 -21 25 -9 98 -29 112 -30 4 -1 22 -6 40 -11 18 -5 49 -12 68 -15 19 -3
40 -7 47 -9 48 -16 290 -23 393 -12 238 27 473 126 656 279 88 73 264 264 264
286 0 6 4 12 9 14 24 9 153 232 211 363 12 28 28 64 35 80 15 34 66 165 69
180 1 6 12 42 24 80 24 81 59 216 67 260 2 17 7 39 9 50 23 115 37 274 38 425
1 109 -10 308 -17 320 -2 3 -6 34 -10 70 -4 35 -11 75 -16 88 -5 13 -7 27 -4
32 3 5 1 11 -4 14 -5 4 -8 14 -6 24 1 9 -2 23 -8 30 -5 6 -7 12 -4 12 3 0 -2
24 -12 53 -10 28 -19 57 -21 62 -1 6 -4 15 -6 20 -119 378 -361 755 -679 1055
-94 89 -115 107 -210 183 -94 76 -250 183 -340 235 -70 40 -318 159 -360 172
-22 7 -44 16 -50 20 -5 4 -21 10 -35 13 -14 2 -70 16 -125 30 -107 27 -134 32
-235 42 -57 6 -218 12 -223 9z m176 -178 c62 -7 116 -15 151 -22 11 -3 32 -7
46 -10 135 -27 409 -149 567 -253 297 -195 595 -485 767 -746 25 -38 50 -75
54 -81 5 -5 20 -30 33 -55 13 -24 27 -46 30 -49 11 -9 129 -258 129 -272 0 -8
4 -18 9 -23 7 -8 41 -100 46 -125 1 -3 11 -36 22 -75 28 -93 45 -171 59 -270
15 -111 19 -181 18 -340 0 -203 -8 -306 -34 -435 -7 -30 -14 -68 -16 -85 -5
-28 -17 -74 -49 -190 -16 -58 -74 -220 -103 -285 -47 -109 -67 -148 -122 -241
-167 -281 -372 -461 -625 -547 -58 -21 -82 -26 -155 -38 -19 -3 -46 -7 -60
-10 -35 -6 -195 -5 -260 1 -109 11 -322 62 -395 95 -11 5 -45 19 -75 30 -73
28 -263 128 -340 179 -34 23 -65 41 -70 41 -5 0 -10 3 -12 8 -1 4 -35 30 -74
58 -188 136 -378 323 -516 509 -4 6 -19 24 -32 41 -77 96 -285 469 -298 534
-2 8 -6 17 -9 20 -10 9 -97 281 -119 370 -27 112 -48 216 -55 265 -2 22 -7 51
-10 64 -22 111 -23 494 0 611 6 33 44 210 49 230 38 150 161 407 250 522 12
14 32 41 46 60 26 34 177 187 221 224 134 111 379 236 509 260 14 3 33 7 42
10 30 9 62 14 128 20 36 4 66 7 67 8 4 3 131 -2 186 -8z"/>
<path d="M3477 5614 c-1 -1 -23 -5 -48 -8 -25 -3 -69 -13 -97 -21 -29 -9 -55
-16 -59 -16 -5 -1 -33 -15 -63 -31 -158 -87 -269 -204 -398 -422 -203 -342
-275 -566 -266 -826 2 -58 5 -119 8 -137 11 -72 27 -150 37 -183 5 -19 12 -44
14 -54 5 -22 24 -85 32 -106 4 -8 7 -17 8 -20 0 -3 24 -77 52 -165 52 -164 66
-206 68 -215 1 -3 5 -14 9 -25 4 -11 19 -51 33 -90 33 -94 71 -176 90 -197 9
-10 13 -18 9 -18 -20 0 132 -167 219 -240 153 -129 496 -304 655 -335 123 -23
299 -24 395 -1 130 31 241 72 318 118 26 15 50 28 52 28 16 0 141 97 199 155
67 67 172 209 211 285 10 19 22 38 27 41 5 3 9 9 9 13 0 3 11 32 25 63 50 109
55 124 80 206 34 114 43 154 51 244 14 155 7 360 -17 503 -24 141 -86 358
-111 385 -5 5 -9 15 -9 22 0 7 -26 57 -59 112 -135 228 -363 498 -494 588 -23
15 -44 31 -47 34 -3 3 -39 26 -80 51 -132 79 -362 182 -480 213 -3 1 -25 7
-50 14 -44 13 -52 15 -118 27 -31 6 -200 13 -205 8z m217 -209 c101 -25 159
-47 284 -106 74 -35 218 -120 232 -138 3 -3 22 -19 43 -35 39 -29 75 -63 138
-132 56 -62 288 -414 273 -414 -4 0 0 -8 8 -17 19 -23 81 -172 101 -243 47
-168 70 -344 71 -540 0 -97 -11 -237 -19 -251 -2 -3 -7 -21 -10 -40 -24 -144
-135 -391 -229 -511 -49 -63 -142 -147 -174 -159 -10 -4 -24 -14 -31 -23 -7
-9 -17 -16 -21 -16 -4 0 -34 -12 -66 -27 -33 -15 -61 -28 -64 -28 -3 -1 -30
-9 -60 -18 -189 -57 -380 -38 -584 56 -336 155 -512 317 -591 547 -1 3 -5 12
-8 20 -3 8 -25 78 -47 155 -36 122 -121 392 -137 435 -7 17 -6 12 -28 100 -9
36 -18 74 -20 85 -2 11 -8 43 -13 70 -11 57 -11 52 -11 170 -1 110 3 136 33
251 32 123 155 379 253 527 169 254 401 351 677 282z"/>
<path d="M3689 4886 c-2 -2 -26 -6 -54 -9 -159 -16 -323 -131 -420 -292 -78
-129 -105 -234 -100 -395 8 -309 194 -695 401 -831 316 -209 679 -145 867 153
87 139 138 310 141 483 1 45 -12 149 -28 215 -26 111 -128 289 -211 369 -19
19 -35 38 -35 43 0 5 -4 7 -9 4 -5 -3 -11 1 -14 9 -8 20 -138 114 -217 158
-79 43 -177 76 -248 82 -29 2 -57 7 -61 9 -5 3 -10 4 -12 2z m89 -259 c162
-58 338 -286 386 -502 21 -96 15 -263 -14 -380 -47 -190 -135 -275 -283 -275
-218 1 -395 204 -487 560 -12 43 -14 54 -25 110 -9 44 -6 164 5 205 6 22 12
45 13 50 7 25 51 100 73 124 13 14 24 28 24 32 0 11 90 70 127 83 47 17 124
14 181 -7z"/>
</g>
</svg>
